M48
; DRILL file {KiCad (5.1.5)-3} date 4/3/2020 9:16:12 AM
; FORMAT={-:-/ absolute / inch / decimal}
; #@! TF.CreationDate,2020-04-03T09:16:12-04:00
; #@! TF.GenerationSoftware,Kicad,Pcbnew,(5.1.5)-3
FMAT,2
INCH
T1C0.0181
T2C0.0315
T3C0.0394
%
G90
G05
T1
X7.5976Y-4.5276
X7.5976Y-4.8724
X5.2177Y-4.5276
X5.2177Y-4.8724
T2
X5.8Y-4.95
X6.1Y-4.95
X6.75Y-5.1
X6.75Y-5.2
X7.15Y-4.95
X7.45Y-4.95
X6.3Y-5.1
X6.3Y-5.2
X5.85Y-5.1
X5.85Y-5.2
X5.4Y-5.1
X5.4Y-5.2
X5.6Y-5.1
X5.6Y-5.2
X6.05Y-5.1
X6.05Y-5.2
X5.35Y-4.95
X5.65Y-4.95
X6.95Y-5.1
X6.95Y-5.2
X7.2Y-5.1
X7.2Y-5.2
X6.7Y-4.95
X7.0Y-4.95
X6.5Y-5.1
X6.5Y-5.2
X7.4Y-5.1
X7.4Y-5.2
X6.25Y-4.95
X6.55Y-4.95
T3
X6.75Y-4.5
X6.85Y-4.5
X6.95Y-4.5
X5.4Y-4.7
X5.5Y-4.7
X5.6Y-4.7
X6.3Y-4.7
X6.4Y-4.7
X6.5Y-4.7
X5.85Y-4.7
X5.95Y-4.7
X6.05Y-4.7
X7.2Y-4.5
X7.3Y-4.5
X7.4Y-4.5
X6.75Y-4.7
X6.85Y-4.7
X6.95Y-4.7
X5.85Y-4.5
X5.95Y-4.5
X6.05Y-4.5
X5.4Y-4.5
X5.5Y-4.5
X5.6Y-4.5
X6.3Y-4.5
X6.4Y-4.5
X6.5Y-4.5
X7.2Y-4.7
X7.3Y-4.7
X7.4Y-4.7
T0
M30
