G04 #@! TF.GenerationSoftware,KiCad,Pcbnew,(5.1.5)-3*
G04 #@! TF.CreationDate,2020-04-03T09:15:43-04:00*
G04 #@! TF.ProjectId,Project,50726f6a-6563-4742-9e6b-696361645f70,rev?*
G04 #@! TF.SameCoordinates,Original*
G04 #@! TF.FileFunction,Copper,L1,Top*
G04 #@! TF.FilePolarity,Positive*
%FSLAX46Y46*%
G04 Gerber Fmt 4.6, Leading zero omitted, Abs format (unit mm)*
G04 Created by KiCad (PCBNEW (5.1.5)-3) date 2020-04-03 09:15:43*
%MOMM*%
%LPD*%
G04 APERTURE LIST*
%ADD10R,0.950000X0.460000*%
%ADD11C,0.970000*%
%ADD12R,5.080000X2.420000*%
%ADD13R,5.080000X2.290000*%
%ADD14O,1.600000X1.600000*%
%ADD15C,1.600000*%
%ADD16O,1.700000X1.700000*%
%ADD17R,1.700000X1.700000*%
%ADD18C,1.000000*%
%ADD19C,0.254000*%
G04 APERTURE END LIST*
D10*
X193430000Y-115000000D03*
X193430000Y-123760000D03*
D11*
X192980000Y-115000000D03*
X192980000Y-123760000D03*
D12*
X196420000Y-115000000D03*
X196420000Y-123760000D03*
D13*
X196420000Y-119380000D03*
D14*
X137160000Y-132080000D03*
D15*
X137160000Y-129540000D03*
D14*
X135890000Y-125730000D03*
D15*
X143510000Y-125730000D03*
D14*
X147320000Y-125730000D03*
D15*
X154940000Y-125730000D03*
D14*
X158750000Y-125730000D03*
D15*
X166370000Y-125730000D03*
D14*
X170180000Y-125730000D03*
D15*
X177800000Y-125730000D03*
D14*
X181610000Y-125730000D03*
D15*
X189230000Y-125730000D03*
D14*
X182880000Y-132080000D03*
D15*
X182880000Y-129540000D03*
D14*
X176530000Y-132080000D03*
D15*
X176530000Y-129540000D03*
D14*
X148590000Y-132080000D03*
D15*
X148590000Y-129540000D03*
D14*
X142240000Y-132080000D03*
D15*
X142240000Y-129540000D03*
D14*
X187960000Y-132080000D03*
D15*
X187960000Y-129540000D03*
D14*
X153670000Y-132080000D03*
D15*
X153670000Y-129540000D03*
D14*
X160020000Y-132080000D03*
D15*
X160020000Y-129540000D03*
D14*
X171450000Y-132080000D03*
D15*
X171450000Y-129540000D03*
D14*
X165100000Y-132080000D03*
D15*
X165100000Y-129540000D03*
D13*
X129090000Y-119380000D03*
D12*
X129090000Y-115000000D03*
X129090000Y-123760000D03*
D11*
X132530000Y-115000000D03*
X132530000Y-123760000D03*
D10*
X132080000Y-115000000D03*
X132080000Y-123760000D03*
D16*
X142240000Y-114300000D03*
X139700000Y-114300000D03*
D17*
X137160000Y-114300000D03*
X142240000Y-119380000D03*
D16*
X139700000Y-119380000D03*
X137160000Y-119380000D03*
D17*
X148590000Y-114300000D03*
D16*
X151130000Y-114300000D03*
X153670000Y-114300000D03*
X148590000Y-119380000D03*
X151130000Y-119380000D03*
D17*
X153670000Y-119380000D03*
X160020000Y-114300000D03*
D16*
X162560000Y-114300000D03*
X165100000Y-114300000D03*
X160020000Y-119380000D03*
X162560000Y-119380000D03*
D17*
X165100000Y-119380000D03*
X171450000Y-114300000D03*
D16*
X173990000Y-114300000D03*
X176530000Y-114300000D03*
X171450000Y-119380000D03*
X173990000Y-119380000D03*
D17*
X176530000Y-119380000D03*
X182880000Y-114300000D03*
D16*
X185420000Y-114300000D03*
X187960000Y-114300000D03*
X182880000Y-119380000D03*
X185420000Y-119380000D03*
D17*
X187960000Y-119380000D03*
D18*
X132630000Y-119380000D02*
X135170000Y-116840000D01*
X129090000Y-119380000D02*
X132630000Y-119380000D01*
X139700000Y-115502081D02*
X139700000Y-114300000D01*
X138362081Y-116840000D02*
X139700000Y-115502081D01*
X135170000Y-116840000D02*
X138362081Y-116840000D01*
X196420000Y-115000000D02*
X193430000Y-115000000D01*
X142240000Y-119380000D02*
X142240000Y-124460000D01*
X142240000Y-124460000D02*
X143510000Y-125730000D01*
X139700000Y-118177919D02*
X141037919Y-116840000D01*
X139700000Y-119380000D02*
X139700000Y-118177919D01*
X149792081Y-116840000D02*
X151130000Y-115502081D01*
X151130000Y-115502081D02*
X151130000Y-114300000D01*
X141037919Y-116840000D02*
X149792081Y-116840000D01*
X151130000Y-118177919D02*
X152467919Y-116840000D01*
X151130000Y-119380000D02*
X151130000Y-118177919D01*
X161222081Y-116840000D02*
X162560000Y-115502081D01*
X162560000Y-115502081D02*
X162560000Y-114300000D01*
X152467919Y-116840000D02*
X161222081Y-116840000D01*
X153670000Y-119380000D02*
X153670000Y-124460000D01*
X153670000Y-124460000D02*
X154940000Y-125730000D01*
X162560000Y-118177919D02*
X163897919Y-116840000D01*
X162560000Y-119380000D02*
X162560000Y-118177919D01*
X173990000Y-115502081D02*
X173990000Y-114300000D01*
X172652081Y-116840000D02*
X173990000Y-115502081D01*
X163897919Y-116840000D02*
X172652081Y-116840000D01*
X165100000Y-119380000D02*
X165100000Y-124460000D01*
X165100000Y-124460000D02*
X166370000Y-125730000D01*
X173990000Y-118177919D02*
X175327919Y-116840000D01*
X173990000Y-119380000D02*
X173990000Y-118177919D01*
X185420000Y-115502081D02*
X185420000Y-114300000D01*
X184082081Y-116840000D02*
X185420000Y-115502081D01*
X175327919Y-116840000D02*
X184082081Y-116840000D01*
X176530000Y-119380000D02*
X176530000Y-124460000D01*
X176530000Y-124460000D02*
X177800000Y-125730000D01*
X190369999Y-116840000D02*
X192490000Y-118960001D01*
X192490000Y-118960001D02*
X192620001Y-118960001D01*
X193040000Y-119380000D02*
X196030000Y-119380000D01*
X192620001Y-118960001D02*
X193040000Y-119380000D01*
X185420000Y-118177919D02*
X186757919Y-116840000D01*
X185420000Y-119380000D02*
X185420000Y-118177919D01*
X186757919Y-116840000D02*
X190369999Y-116840000D01*
X187960000Y-119380000D02*
X187960000Y-124460000D01*
X187960000Y-124460000D02*
X189230000Y-125730000D01*
D19*
G36*
X136456589Y-118064010D02*
G01*
X136213368Y-118226525D01*
X136006525Y-118433368D01*
X135844010Y-118676589D01*
X135732068Y-118946842D01*
X135675000Y-119233740D01*
X135675000Y-119526260D01*
X135732068Y-119813158D01*
X135844010Y-120083411D01*
X136006525Y-120326632D01*
X136213368Y-120533475D01*
X136456589Y-120695990D01*
X136726842Y-120807932D01*
X137013740Y-120865000D01*
X137306260Y-120865000D01*
X137593158Y-120807932D01*
X137863411Y-120695990D01*
X138106632Y-120533475D01*
X138313475Y-120326632D01*
X138430000Y-120152240D01*
X138546525Y-120326632D01*
X138753368Y-120533475D01*
X138996589Y-120695990D01*
X139266842Y-120807932D01*
X139553740Y-120865000D01*
X139846260Y-120865000D01*
X140133158Y-120807932D01*
X140403411Y-120695990D01*
X140646632Y-120533475D01*
X140778487Y-120401620D01*
X140800498Y-120474180D01*
X140859463Y-120584494D01*
X140938815Y-120681185D01*
X141035506Y-120760537D01*
X141105000Y-120797683D01*
X141105001Y-124404239D01*
X141099509Y-124460000D01*
X141121423Y-124682498D01*
X141186324Y-124896446D01*
X141186325Y-124896447D01*
X141291717Y-125093623D01*
X141433552Y-125266449D01*
X141476860Y-125301991D01*
X142082150Y-125907282D01*
X142130147Y-126148574D01*
X142238320Y-126409727D01*
X142395363Y-126644759D01*
X142595241Y-126844637D01*
X142830273Y-127001680D01*
X143091426Y-127109853D01*
X143368665Y-127165000D01*
X143651335Y-127165000D01*
X143928574Y-127109853D01*
X144189727Y-127001680D01*
X144424759Y-126844637D01*
X144624637Y-126644759D01*
X144781680Y-126409727D01*
X144889853Y-126148574D01*
X144945000Y-125871335D01*
X144945000Y-125588665D01*
X145885000Y-125588665D01*
X145885000Y-125871335D01*
X145940147Y-126148574D01*
X146048320Y-126409727D01*
X146205363Y-126644759D01*
X146405241Y-126844637D01*
X146640273Y-127001680D01*
X146901426Y-127109853D01*
X147178665Y-127165000D01*
X147461335Y-127165000D01*
X147738574Y-127109853D01*
X147999727Y-127001680D01*
X148234759Y-126844637D01*
X148434637Y-126644759D01*
X148591680Y-126409727D01*
X148699853Y-126148574D01*
X148755000Y-125871335D01*
X148755000Y-125588665D01*
X148699853Y-125311426D01*
X148591680Y-125050273D01*
X148434637Y-124815241D01*
X148234759Y-124615363D01*
X147999727Y-124458320D01*
X147738574Y-124350147D01*
X147461335Y-124295000D01*
X147178665Y-124295000D01*
X146901426Y-124350147D01*
X146640273Y-124458320D01*
X146405241Y-124615363D01*
X146205363Y-124815241D01*
X146048320Y-125050273D01*
X145940147Y-125311426D01*
X145885000Y-125588665D01*
X144945000Y-125588665D01*
X144889853Y-125311426D01*
X144781680Y-125050273D01*
X144624637Y-124815241D01*
X144424759Y-124615363D01*
X144189727Y-124458320D01*
X143928574Y-124350147D01*
X143687282Y-124302150D01*
X143375000Y-123989869D01*
X143375000Y-120797683D01*
X143444494Y-120760537D01*
X143541185Y-120681185D01*
X143620537Y-120584494D01*
X143679502Y-120474180D01*
X143715812Y-120354482D01*
X143728072Y-120230000D01*
X143728072Y-118530000D01*
X143715812Y-118405518D01*
X143679502Y-118285820D01*
X143620537Y-118175506D01*
X143541185Y-118078815D01*
X143444494Y-117999463D01*
X143398728Y-117975000D01*
X148101479Y-117975000D01*
X147886589Y-118064010D01*
X147643368Y-118226525D01*
X147436525Y-118433368D01*
X147274010Y-118676589D01*
X147162068Y-118946842D01*
X147105000Y-119233740D01*
X147105000Y-119526260D01*
X147162068Y-119813158D01*
X147274010Y-120083411D01*
X147436525Y-120326632D01*
X147643368Y-120533475D01*
X147886589Y-120695990D01*
X148156842Y-120807932D01*
X148443740Y-120865000D01*
X148736260Y-120865000D01*
X149023158Y-120807932D01*
X149293411Y-120695990D01*
X149536632Y-120533475D01*
X149743475Y-120326632D01*
X149860000Y-120152240D01*
X149976525Y-120326632D01*
X150183368Y-120533475D01*
X150426589Y-120695990D01*
X150696842Y-120807932D01*
X150983740Y-120865000D01*
X151276260Y-120865000D01*
X151563158Y-120807932D01*
X151833411Y-120695990D01*
X152076632Y-120533475D01*
X152208487Y-120401620D01*
X152230498Y-120474180D01*
X152289463Y-120584494D01*
X152368815Y-120681185D01*
X152465506Y-120760537D01*
X152535000Y-120797683D01*
X152535001Y-124404239D01*
X152529509Y-124460000D01*
X152551423Y-124682498D01*
X152616324Y-124896446D01*
X152616325Y-124896447D01*
X152721717Y-125093623D01*
X152863552Y-125266449D01*
X152906860Y-125301991D01*
X153512150Y-125907282D01*
X153560147Y-126148574D01*
X153668320Y-126409727D01*
X153825363Y-126644759D01*
X154025241Y-126844637D01*
X154260273Y-127001680D01*
X154521426Y-127109853D01*
X154798665Y-127165000D01*
X155081335Y-127165000D01*
X155358574Y-127109853D01*
X155619727Y-127001680D01*
X155854759Y-126844637D01*
X156054637Y-126644759D01*
X156211680Y-126409727D01*
X156319853Y-126148574D01*
X156375000Y-125871335D01*
X156375000Y-125588665D01*
X157315000Y-125588665D01*
X157315000Y-125871335D01*
X157370147Y-126148574D01*
X157478320Y-126409727D01*
X157635363Y-126644759D01*
X157835241Y-126844637D01*
X158070273Y-127001680D01*
X158331426Y-127109853D01*
X158608665Y-127165000D01*
X158891335Y-127165000D01*
X159168574Y-127109853D01*
X159429727Y-127001680D01*
X159664759Y-126844637D01*
X159864637Y-126644759D01*
X160021680Y-126409727D01*
X160129853Y-126148574D01*
X160185000Y-125871335D01*
X160185000Y-125588665D01*
X160129853Y-125311426D01*
X160021680Y-125050273D01*
X159864637Y-124815241D01*
X159664759Y-124615363D01*
X159429727Y-124458320D01*
X159168574Y-124350147D01*
X158891335Y-124295000D01*
X158608665Y-124295000D01*
X158331426Y-124350147D01*
X158070273Y-124458320D01*
X157835241Y-124615363D01*
X157635363Y-124815241D01*
X157478320Y-125050273D01*
X157370147Y-125311426D01*
X157315000Y-125588665D01*
X156375000Y-125588665D01*
X156319853Y-125311426D01*
X156211680Y-125050273D01*
X156054637Y-124815241D01*
X155854759Y-124615363D01*
X155619727Y-124458320D01*
X155358574Y-124350147D01*
X155117282Y-124302150D01*
X154805000Y-123989869D01*
X154805000Y-120797683D01*
X154874494Y-120760537D01*
X154971185Y-120681185D01*
X155050537Y-120584494D01*
X155109502Y-120474180D01*
X155145812Y-120354482D01*
X155158072Y-120230000D01*
X155158072Y-118530000D01*
X155145812Y-118405518D01*
X155109502Y-118285820D01*
X155050537Y-118175506D01*
X154971185Y-118078815D01*
X154874494Y-117999463D01*
X154828728Y-117975000D01*
X159531479Y-117975000D01*
X159316589Y-118064010D01*
X159073368Y-118226525D01*
X158866525Y-118433368D01*
X158704010Y-118676589D01*
X158592068Y-118946842D01*
X158535000Y-119233740D01*
X158535000Y-119526260D01*
X158592068Y-119813158D01*
X158704010Y-120083411D01*
X158866525Y-120326632D01*
X159073368Y-120533475D01*
X159316589Y-120695990D01*
X159586842Y-120807932D01*
X159873740Y-120865000D01*
X160166260Y-120865000D01*
X160453158Y-120807932D01*
X160723411Y-120695990D01*
X160966632Y-120533475D01*
X161173475Y-120326632D01*
X161290000Y-120152240D01*
X161406525Y-120326632D01*
X161613368Y-120533475D01*
X161856589Y-120695990D01*
X162126842Y-120807932D01*
X162413740Y-120865000D01*
X162706260Y-120865000D01*
X162993158Y-120807932D01*
X163263411Y-120695990D01*
X163506632Y-120533475D01*
X163638487Y-120401620D01*
X163660498Y-120474180D01*
X163719463Y-120584494D01*
X163798815Y-120681185D01*
X163895506Y-120760537D01*
X163965000Y-120797683D01*
X163965001Y-124404239D01*
X163959509Y-124460000D01*
X163981423Y-124682498D01*
X164046324Y-124896446D01*
X164046325Y-124896447D01*
X164151717Y-125093623D01*
X164293552Y-125266449D01*
X164336860Y-125301991D01*
X164942150Y-125907282D01*
X164990147Y-126148574D01*
X165098320Y-126409727D01*
X165255363Y-126644759D01*
X165455241Y-126844637D01*
X165690273Y-127001680D01*
X165951426Y-127109853D01*
X166228665Y-127165000D01*
X166511335Y-127165000D01*
X166788574Y-127109853D01*
X167049727Y-127001680D01*
X167284759Y-126844637D01*
X167484637Y-126644759D01*
X167641680Y-126409727D01*
X167749853Y-126148574D01*
X167805000Y-125871335D01*
X167805000Y-125588665D01*
X168745000Y-125588665D01*
X168745000Y-125871335D01*
X168800147Y-126148574D01*
X168908320Y-126409727D01*
X169065363Y-126644759D01*
X169265241Y-126844637D01*
X169500273Y-127001680D01*
X169761426Y-127109853D01*
X170038665Y-127165000D01*
X170321335Y-127165000D01*
X170598574Y-127109853D01*
X170859727Y-127001680D01*
X171094759Y-126844637D01*
X171294637Y-126644759D01*
X171451680Y-126409727D01*
X171559853Y-126148574D01*
X171615000Y-125871335D01*
X171615000Y-125588665D01*
X171559853Y-125311426D01*
X171451680Y-125050273D01*
X171294637Y-124815241D01*
X171094759Y-124615363D01*
X170859727Y-124458320D01*
X170598574Y-124350147D01*
X170321335Y-124295000D01*
X170038665Y-124295000D01*
X169761426Y-124350147D01*
X169500273Y-124458320D01*
X169265241Y-124615363D01*
X169065363Y-124815241D01*
X168908320Y-125050273D01*
X168800147Y-125311426D01*
X168745000Y-125588665D01*
X167805000Y-125588665D01*
X167749853Y-125311426D01*
X167641680Y-125050273D01*
X167484637Y-124815241D01*
X167284759Y-124615363D01*
X167049727Y-124458320D01*
X166788574Y-124350147D01*
X166547282Y-124302150D01*
X166235000Y-123989869D01*
X166235000Y-120797683D01*
X166304494Y-120760537D01*
X166401185Y-120681185D01*
X166480537Y-120584494D01*
X166539502Y-120474180D01*
X166575812Y-120354482D01*
X166588072Y-120230000D01*
X166588072Y-118530000D01*
X166575812Y-118405518D01*
X166539502Y-118285820D01*
X166480537Y-118175506D01*
X166401185Y-118078815D01*
X166304494Y-117999463D01*
X166258728Y-117975000D01*
X170961479Y-117975000D01*
X170746589Y-118064010D01*
X170503368Y-118226525D01*
X170296525Y-118433368D01*
X170134010Y-118676589D01*
X170022068Y-118946842D01*
X169965000Y-119233740D01*
X169965000Y-119526260D01*
X170022068Y-119813158D01*
X170134010Y-120083411D01*
X170296525Y-120326632D01*
X170503368Y-120533475D01*
X170746589Y-120695990D01*
X171016842Y-120807932D01*
X171303740Y-120865000D01*
X171596260Y-120865000D01*
X171883158Y-120807932D01*
X172153411Y-120695990D01*
X172396632Y-120533475D01*
X172603475Y-120326632D01*
X172720000Y-120152240D01*
X172836525Y-120326632D01*
X173043368Y-120533475D01*
X173286589Y-120695990D01*
X173556842Y-120807932D01*
X173843740Y-120865000D01*
X174136260Y-120865000D01*
X174423158Y-120807932D01*
X174693411Y-120695990D01*
X174936632Y-120533475D01*
X175068487Y-120401620D01*
X175090498Y-120474180D01*
X175149463Y-120584494D01*
X175228815Y-120681185D01*
X175325506Y-120760537D01*
X175395000Y-120797683D01*
X175395001Y-124404239D01*
X175389509Y-124460000D01*
X175411423Y-124682498D01*
X175476324Y-124896446D01*
X175476325Y-124896447D01*
X175581717Y-125093623D01*
X175723552Y-125266449D01*
X175766860Y-125301991D01*
X176372150Y-125907282D01*
X176420147Y-126148574D01*
X176528320Y-126409727D01*
X176685363Y-126644759D01*
X176885241Y-126844637D01*
X177120273Y-127001680D01*
X177381426Y-127109853D01*
X177658665Y-127165000D01*
X177941335Y-127165000D01*
X178218574Y-127109853D01*
X178479727Y-127001680D01*
X178714759Y-126844637D01*
X178914637Y-126644759D01*
X179071680Y-126409727D01*
X179179853Y-126148574D01*
X179235000Y-125871335D01*
X179235000Y-125588665D01*
X180175000Y-125588665D01*
X180175000Y-125871335D01*
X180230147Y-126148574D01*
X180338320Y-126409727D01*
X180495363Y-126644759D01*
X180695241Y-126844637D01*
X180930273Y-127001680D01*
X181191426Y-127109853D01*
X181468665Y-127165000D01*
X181751335Y-127165000D01*
X182028574Y-127109853D01*
X182289727Y-127001680D01*
X182524759Y-126844637D01*
X182724637Y-126644759D01*
X182881680Y-126409727D01*
X182989853Y-126148574D01*
X183045000Y-125871335D01*
X183045000Y-125588665D01*
X182989853Y-125311426D01*
X182881680Y-125050273D01*
X182724637Y-124815241D01*
X182524759Y-124615363D01*
X182289727Y-124458320D01*
X182028574Y-124350147D01*
X181751335Y-124295000D01*
X181468665Y-124295000D01*
X181191426Y-124350147D01*
X180930273Y-124458320D01*
X180695241Y-124615363D01*
X180495363Y-124815241D01*
X180338320Y-125050273D01*
X180230147Y-125311426D01*
X180175000Y-125588665D01*
X179235000Y-125588665D01*
X179179853Y-125311426D01*
X179071680Y-125050273D01*
X178914637Y-124815241D01*
X178714759Y-124615363D01*
X178479727Y-124458320D01*
X178218574Y-124350147D01*
X177977282Y-124302150D01*
X177665000Y-123989869D01*
X177665000Y-120797683D01*
X177734494Y-120760537D01*
X177831185Y-120681185D01*
X177910537Y-120584494D01*
X177969502Y-120474180D01*
X178005812Y-120354482D01*
X178018072Y-120230000D01*
X178018072Y-118530000D01*
X178005812Y-118405518D01*
X177969502Y-118285820D01*
X177910537Y-118175506D01*
X177831185Y-118078815D01*
X177734494Y-117999463D01*
X177688728Y-117975000D01*
X182391479Y-117975000D01*
X182176589Y-118064010D01*
X181933368Y-118226525D01*
X181726525Y-118433368D01*
X181564010Y-118676589D01*
X181452068Y-118946842D01*
X181395000Y-119233740D01*
X181395000Y-119526260D01*
X181452068Y-119813158D01*
X181564010Y-120083411D01*
X181726525Y-120326632D01*
X181933368Y-120533475D01*
X182176589Y-120695990D01*
X182446842Y-120807932D01*
X182733740Y-120865000D01*
X183026260Y-120865000D01*
X183313158Y-120807932D01*
X183583411Y-120695990D01*
X183826632Y-120533475D01*
X184033475Y-120326632D01*
X184150000Y-120152240D01*
X184266525Y-120326632D01*
X184473368Y-120533475D01*
X184716589Y-120695990D01*
X184986842Y-120807932D01*
X185273740Y-120865000D01*
X185566260Y-120865000D01*
X185853158Y-120807932D01*
X186123411Y-120695990D01*
X186366632Y-120533475D01*
X186498487Y-120401620D01*
X186520498Y-120474180D01*
X186579463Y-120584494D01*
X186658815Y-120681185D01*
X186755506Y-120760537D01*
X186825000Y-120797683D01*
X186825001Y-124404239D01*
X186819509Y-124460000D01*
X186841423Y-124682498D01*
X186906324Y-124896446D01*
X186906325Y-124896447D01*
X187011717Y-125093623D01*
X187153552Y-125266449D01*
X187196860Y-125301991D01*
X187802150Y-125907282D01*
X187850147Y-126148574D01*
X187958320Y-126409727D01*
X188115363Y-126644759D01*
X188315241Y-126844637D01*
X188550273Y-127001680D01*
X188811426Y-127109853D01*
X189088665Y-127165000D01*
X189371335Y-127165000D01*
X189648574Y-127109853D01*
X189909727Y-127001680D01*
X190144759Y-126844637D01*
X190344637Y-126644759D01*
X190501680Y-126409727D01*
X190609853Y-126148574D01*
X190665000Y-125871335D01*
X190665000Y-125588665D01*
X190609853Y-125311426D01*
X190501680Y-125050273D01*
X190344637Y-124815241D01*
X190144759Y-124615363D01*
X189909727Y-124458320D01*
X189648574Y-124350147D01*
X189407282Y-124302150D01*
X189095000Y-123989869D01*
X189095000Y-123843001D01*
X191857645Y-123843001D01*
X191895404Y-124060367D01*
X191974842Y-124266189D01*
X192000684Y-124314534D01*
X192212584Y-124347811D01*
X192356748Y-124203647D01*
X192370507Y-124245937D01*
X192431669Y-124355048D01*
X192492910Y-124426695D01*
X192392189Y-124527416D01*
X192425466Y-124739316D01*
X192627176Y-124828683D01*
X192842445Y-124876981D01*
X193063001Y-124882355D01*
X193242323Y-124851205D01*
X193241928Y-124970000D01*
X193254188Y-125094482D01*
X193290498Y-125214180D01*
X193349463Y-125324494D01*
X193428815Y-125421185D01*
X193525506Y-125500537D01*
X193635820Y-125559502D01*
X193755518Y-125595812D01*
X193880000Y-125608072D01*
X196134250Y-125605000D01*
X196293000Y-125446250D01*
X196293000Y-123887000D01*
X196273000Y-123887000D01*
X196273000Y-123633000D01*
X196293000Y-123633000D01*
X196293000Y-122073750D01*
X196134250Y-121915000D01*
X193880000Y-121911928D01*
X193755518Y-121924188D01*
X193635820Y-121960498D01*
X193525506Y-122019463D01*
X193428815Y-122098815D01*
X193349463Y-122195506D01*
X193290498Y-122305820D01*
X193254188Y-122425518D01*
X193241928Y-122550000D01*
X193242330Y-122671014D01*
X193117555Y-122643019D01*
X192896999Y-122637645D01*
X192679633Y-122675404D01*
X192473811Y-122754842D01*
X192425466Y-122780684D01*
X192392189Y-122992584D01*
X192492910Y-123093305D01*
X192431669Y-123164952D01*
X192370507Y-123274063D01*
X192356748Y-123316353D01*
X192212584Y-123172189D01*
X192000684Y-123205466D01*
X191911317Y-123407176D01*
X191863019Y-123622445D01*
X191857645Y-123843001D01*
X189095000Y-123843001D01*
X189095000Y-120797683D01*
X189164494Y-120760537D01*
X189261185Y-120681185D01*
X189340537Y-120584494D01*
X189399502Y-120474180D01*
X189435812Y-120354482D01*
X189448072Y-120230000D01*
X189448072Y-118530000D01*
X189435812Y-118405518D01*
X189399502Y-118285820D01*
X189340537Y-118175506D01*
X189261185Y-118078815D01*
X189164494Y-117999463D01*
X189118728Y-117975000D01*
X189899868Y-117975000D01*
X191648009Y-119723142D01*
X191683551Y-119766450D01*
X191856377Y-119908285D01*
X192053553Y-120013677D01*
X192075075Y-120020206D01*
X192198004Y-120143135D01*
X192233551Y-120186449D01*
X192406377Y-120328284D01*
X192603553Y-120433676D01*
X192817501Y-120498577D01*
X192984248Y-120515000D01*
X192984257Y-120515000D01*
X193039999Y-120520490D01*
X193095741Y-120515000D01*
X193241928Y-120515000D01*
X193241928Y-120525000D01*
X193254188Y-120649482D01*
X193290498Y-120769180D01*
X193349463Y-120879494D01*
X193428815Y-120976185D01*
X193525506Y-121055537D01*
X193635820Y-121114502D01*
X193755518Y-121150812D01*
X193880000Y-121163072D01*
X198695001Y-121163072D01*
X198695001Y-121912289D01*
X196705750Y-121915000D01*
X196547000Y-122073750D01*
X196547000Y-123633000D01*
X196567000Y-123633000D01*
X196567000Y-123887000D01*
X196547000Y-123887000D01*
X196547000Y-125446250D01*
X196705750Y-125605000D01*
X198695000Y-125607711D01*
X198695000Y-133925000D01*
X126425000Y-133925000D01*
X126425000Y-132429040D01*
X135768091Y-132429040D01*
X135862930Y-132693881D01*
X136007615Y-132935131D01*
X136196586Y-133143519D01*
X136422580Y-133311037D01*
X136676913Y-133431246D01*
X136810961Y-133471904D01*
X137033000Y-133349915D01*
X137033000Y-132207000D01*
X137287000Y-132207000D01*
X137287000Y-133349915D01*
X137509039Y-133471904D01*
X137643087Y-133431246D01*
X137897420Y-133311037D01*
X138123414Y-133143519D01*
X138312385Y-132935131D01*
X138457070Y-132693881D01*
X138551909Y-132429040D01*
X140848091Y-132429040D01*
X140942930Y-132693881D01*
X141087615Y-132935131D01*
X141276586Y-133143519D01*
X141502580Y-133311037D01*
X141756913Y-133431246D01*
X141890961Y-133471904D01*
X142113000Y-133349915D01*
X142113000Y-132207000D01*
X142367000Y-132207000D01*
X142367000Y-133349915D01*
X142589039Y-133471904D01*
X142723087Y-133431246D01*
X142977420Y-133311037D01*
X143203414Y-133143519D01*
X143392385Y-132935131D01*
X143537070Y-132693881D01*
X143631909Y-132429040D01*
X147198091Y-132429040D01*
X147292930Y-132693881D01*
X147437615Y-132935131D01*
X147626586Y-133143519D01*
X147852580Y-133311037D01*
X148106913Y-133431246D01*
X148240961Y-133471904D01*
X148463000Y-133349915D01*
X148463000Y-132207000D01*
X148717000Y-132207000D01*
X148717000Y-133349915D01*
X148939039Y-133471904D01*
X149073087Y-133431246D01*
X149327420Y-133311037D01*
X149553414Y-133143519D01*
X149742385Y-132935131D01*
X149887070Y-132693881D01*
X149981909Y-132429040D01*
X152278091Y-132429040D01*
X152372930Y-132693881D01*
X152517615Y-132935131D01*
X152706586Y-133143519D01*
X152932580Y-133311037D01*
X153186913Y-133431246D01*
X153320961Y-133471904D01*
X153543000Y-133349915D01*
X153543000Y-132207000D01*
X153797000Y-132207000D01*
X153797000Y-133349915D01*
X154019039Y-133471904D01*
X154153087Y-133431246D01*
X154407420Y-133311037D01*
X154633414Y-133143519D01*
X154822385Y-132935131D01*
X154967070Y-132693881D01*
X155061909Y-132429040D01*
X158628091Y-132429040D01*
X158722930Y-132693881D01*
X158867615Y-132935131D01*
X159056586Y-133143519D01*
X159282580Y-133311037D01*
X159536913Y-133431246D01*
X159670961Y-133471904D01*
X159893000Y-133349915D01*
X159893000Y-132207000D01*
X160147000Y-132207000D01*
X160147000Y-133349915D01*
X160369039Y-133471904D01*
X160503087Y-133431246D01*
X160757420Y-133311037D01*
X160983414Y-133143519D01*
X161172385Y-132935131D01*
X161317070Y-132693881D01*
X161411909Y-132429040D01*
X163708091Y-132429040D01*
X163802930Y-132693881D01*
X163947615Y-132935131D01*
X164136586Y-133143519D01*
X164362580Y-133311037D01*
X164616913Y-133431246D01*
X164750961Y-133471904D01*
X164973000Y-133349915D01*
X164973000Y-132207000D01*
X165227000Y-132207000D01*
X165227000Y-133349915D01*
X165449039Y-133471904D01*
X165583087Y-133431246D01*
X165837420Y-133311037D01*
X166063414Y-133143519D01*
X166252385Y-132935131D01*
X166397070Y-132693881D01*
X166491909Y-132429040D01*
X170058091Y-132429040D01*
X170152930Y-132693881D01*
X170297615Y-132935131D01*
X170486586Y-133143519D01*
X170712580Y-133311037D01*
X170966913Y-133431246D01*
X171100961Y-133471904D01*
X171323000Y-133349915D01*
X171323000Y-132207000D01*
X171577000Y-132207000D01*
X171577000Y-133349915D01*
X171799039Y-133471904D01*
X171933087Y-133431246D01*
X172187420Y-133311037D01*
X172413414Y-133143519D01*
X172602385Y-132935131D01*
X172747070Y-132693881D01*
X172841909Y-132429040D01*
X175138091Y-132429040D01*
X175232930Y-132693881D01*
X175377615Y-132935131D01*
X175566586Y-133143519D01*
X175792580Y-133311037D01*
X176046913Y-133431246D01*
X176180961Y-133471904D01*
X176403000Y-133349915D01*
X176403000Y-132207000D01*
X176657000Y-132207000D01*
X176657000Y-133349915D01*
X176879039Y-133471904D01*
X177013087Y-133431246D01*
X177267420Y-133311037D01*
X177493414Y-133143519D01*
X177682385Y-132935131D01*
X177827070Y-132693881D01*
X177921909Y-132429040D01*
X181488091Y-132429040D01*
X181582930Y-132693881D01*
X181727615Y-132935131D01*
X181916586Y-133143519D01*
X182142580Y-133311037D01*
X182396913Y-133431246D01*
X182530961Y-133471904D01*
X182753000Y-133349915D01*
X182753000Y-132207000D01*
X183007000Y-132207000D01*
X183007000Y-133349915D01*
X183229039Y-133471904D01*
X183363087Y-133431246D01*
X183617420Y-133311037D01*
X183843414Y-133143519D01*
X184032385Y-132935131D01*
X184177070Y-132693881D01*
X184271909Y-132429040D01*
X186568091Y-132429040D01*
X186662930Y-132693881D01*
X186807615Y-132935131D01*
X186996586Y-133143519D01*
X187222580Y-133311037D01*
X187476913Y-133431246D01*
X187610961Y-133471904D01*
X187833000Y-133349915D01*
X187833000Y-132207000D01*
X188087000Y-132207000D01*
X188087000Y-133349915D01*
X188309039Y-133471904D01*
X188443087Y-133431246D01*
X188697420Y-133311037D01*
X188923414Y-133143519D01*
X189112385Y-132935131D01*
X189257070Y-132693881D01*
X189351909Y-132429040D01*
X189230624Y-132207000D01*
X188087000Y-132207000D01*
X187833000Y-132207000D01*
X186689376Y-132207000D01*
X186568091Y-132429040D01*
X184271909Y-132429040D01*
X184150624Y-132207000D01*
X183007000Y-132207000D01*
X182753000Y-132207000D01*
X181609376Y-132207000D01*
X181488091Y-132429040D01*
X177921909Y-132429040D01*
X177800624Y-132207000D01*
X176657000Y-132207000D01*
X176403000Y-132207000D01*
X175259376Y-132207000D01*
X175138091Y-132429040D01*
X172841909Y-132429040D01*
X172720624Y-132207000D01*
X171577000Y-132207000D01*
X171323000Y-132207000D01*
X170179376Y-132207000D01*
X170058091Y-132429040D01*
X166491909Y-132429040D01*
X166370624Y-132207000D01*
X165227000Y-132207000D01*
X164973000Y-132207000D01*
X163829376Y-132207000D01*
X163708091Y-132429040D01*
X161411909Y-132429040D01*
X161290624Y-132207000D01*
X160147000Y-132207000D01*
X159893000Y-132207000D01*
X158749376Y-132207000D01*
X158628091Y-132429040D01*
X155061909Y-132429040D01*
X154940624Y-132207000D01*
X153797000Y-132207000D01*
X153543000Y-132207000D01*
X152399376Y-132207000D01*
X152278091Y-132429040D01*
X149981909Y-132429040D01*
X149860624Y-132207000D01*
X148717000Y-132207000D01*
X148463000Y-132207000D01*
X147319376Y-132207000D01*
X147198091Y-132429040D01*
X143631909Y-132429040D01*
X143510624Y-132207000D01*
X142367000Y-132207000D01*
X142113000Y-132207000D01*
X140969376Y-132207000D01*
X140848091Y-132429040D01*
X138551909Y-132429040D01*
X138430624Y-132207000D01*
X137287000Y-132207000D01*
X137033000Y-132207000D01*
X135889376Y-132207000D01*
X135768091Y-132429040D01*
X126425000Y-132429040D01*
X126425000Y-129398665D01*
X135725000Y-129398665D01*
X135725000Y-129681335D01*
X135780147Y-129958574D01*
X135888320Y-130219727D01*
X136045363Y-130454759D01*
X136245241Y-130654637D01*
X136480273Y-130811680D01*
X136491565Y-130816357D01*
X136422580Y-130848963D01*
X136196586Y-131016481D01*
X136007615Y-131224869D01*
X135862930Y-131466119D01*
X135768091Y-131730960D01*
X135889376Y-131953000D01*
X137033000Y-131953000D01*
X137033000Y-131933000D01*
X137287000Y-131933000D01*
X137287000Y-131953000D01*
X138430624Y-131953000D01*
X138551909Y-131730960D01*
X138457070Y-131466119D01*
X138312385Y-131224869D01*
X138123414Y-131016481D01*
X137897420Y-130848963D01*
X137828435Y-130816357D01*
X137839727Y-130811680D01*
X138074759Y-130654637D01*
X138274637Y-130454759D01*
X138431680Y-130219727D01*
X138539853Y-129958574D01*
X138595000Y-129681335D01*
X138595000Y-129398665D01*
X140805000Y-129398665D01*
X140805000Y-129681335D01*
X140860147Y-129958574D01*
X140968320Y-130219727D01*
X141125363Y-130454759D01*
X141325241Y-130654637D01*
X141560273Y-130811680D01*
X141571565Y-130816357D01*
X141502580Y-130848963D01*
X141276586Y-131016481D01*
X141087615Y-131224869D01*
X140942930Y-131466119D01*
X140848091Y-131730960D01*
X140969376Y-131953000D01*
X142113000Y-131953000D01*
X142113000Y-131933000D01*
X142367000Y-131933000D01*
X142367000Y-131953000D01*
X143510624Y-131953000D01*
X143631909Y-131730960D01*
X143537070Y-131466119D01*
X143392385Y-131224869D01*
X143203414Y-131016481D01*
X142977420Y-130848963D01*
X142908435Y-130816357D01*
X142919727Y-130811680D01*
X143154759Y-130654637D01*
X143354637Y-130454759D01*
X143511680Y-130219727D01*
X143619853Y-129958574D01*
X143675000Y-129681335D01*
X143675000Y-129398665D01*
X147155000Y-129398665D01*
X147155000Y-129681335D01*
X147210147Y-129958574D01*
X147318320Y-130219727D01*
X147475363Y-130454759D01*
X147675241Y-130654637D01*
X147910273Y-130811680D01*
X147921565Y-130816357D01*
X147852580Y-130848963D01*
X147626586Y-131016481D01*
X147437615Y-131224869D01*
X147292930Y-131466119D01*
X147198091Y-131730960D01*
X147319376Y-131953000D01*
X148463000Y-131953000D01*
X148463000Y-131933000D01*
X148717000Y-131933000D01*
X148717000Y-131953000D01*
X149860624Y-131953000D01*
X149981909Y-131730960D01*
X149887070Y-131466119D01*
X149742385Y-131224869D01*
X149553414Y-131016481D01*
X149327420Y-130848963D01*
X149258435Y-130816357D01*
X149269727Y-130811680D01*
X149504759Y-130654637D01*
X149704637Y-130454759D01*
X149861680Y-130219727D01*
X149969853Y-129958574D01*
X150025000Y-129681335D01*
X150025000Y-129398665D01*
X152235000Y-129398665D01*
X152235000Y-129681335D01*
X152290147Y-129958574D01*
X152398320Y-130219727D01*
X152555363Y-130454759D01*
X152755241Y-130654637D01*
X152990273Y-130811680D01*
X153001565Y-130816357D01*
X152932580Y-130848963D01*
X152706586Y-131016481D01*
X152517615Y-131224869D01*
X152372930Y-131466119D01*
X152278091Y-131730960D01*
X152399376Y-131953000D01*
X153543000Y-131953000D01*
X153543000Y-131933000D01*
X153797000Y-131933000D01*
X153797000Y-131953000D01*
X154940624Y-131953000D01*
X155061909Y-131730960D01*
X154967070Y-131466119D01*
X154822385Y-131224869D01*
X154633414Y-131016481D01*
X154407420Y-130848963D01*
X154338435Y-130816357D01*
X154349727Y-130811680D01*
X154584759Y-130654637D01*
X154784637Y-130454759D01*
X154941680Y-130219727D01*
X155049853Y-129958574D01*
X155105000Y-129681335D01*
X155105000Y-129398665D01*
X158585000Y-129398665D01*
X158585000Y-129681335D01*
X158640147Y-129958574D01*
X158748320Y-130219727D01*
X158905363Y-130454759D01*
X159105241Y-130654637D01*
X159340273Y-130811680D01*
X159351565Y-130816357D01*
X159282580Y-130848963D01*
X159056586Y-131016481D01*
X158867615Y-131224869D01*
X158722930Y-131466119D01*
X158628091Y-131730960D01*
X158749376Y-131953000D01*
X159893000Y-131953000D01*
X159893000Y-131933000D01*
X160147000Y-131933000D01*
X160147000Y-131953000D01*
X161290624Y-131953000D01*
X161411909Y-131730960D01*
X161317070Y-131466119D01*
X161172385Y-131224869D01*
X160983414Y-131016481D01*
X160757420Y-130848963D01*
X160688435Y-130816357D01*
X160699727Y-130811680D01*
X160934759Y-130654637D01*
X161134637Y-130454759D01*
X161291680Y-130219727D01*
X161399853Y-129958574D01*
X161455000Y-129681335D01*
X161455000Y-129398665D01*
X163665000Y-129398665D01*
X163665000Y-129681335D01*
X163720147Y-129958574D01*
X163828320Y-130219727D01*
X163985363Y-130454759D01*
X164185241Y-130654637D01*
X164420273Y-130811680D01*
X164431565Y-130816357D01*
X164362580Y-130848963D01*
X164136586Y-131016481D01*
X163947615Y-131224869D01*
X163802930Y-131466119D01*
X163708091Y-131730960D01*
X163829376Y-131953000D01*
X164973000Y-131953000D01*
X164973000Y-131933000D01*
X165227000Y-131933000D01*
X165227000Y-131953000D01*
X166370624Y-131953000D01*
X166491909Y-131730960D01*
X166397070Y-131466119D01*
X166252385Y-131224869D01*
X166063414Y-131016481D01*
X165837420Y-130848963D01*
X165768435Y-130816357D01*
X165779727Y-130811680D01*
X166014759Y-130654637D01*
X166214637Y-130454759D01*
X166371680Y-130219727D01*
X166479853Y-129958574D01*
X166535000Y-129681335D01*
X166535000Y-129398665D01*
X170015000Y-129398665D01*
X170015000Y-129681335D01*
X170070147Y-129958574D01*
X170178320Y-130219727D01*
X170335363Y-130454759D01*
X170535241Y-130654637D01*
X170770273Y-130811680D01*
X170781565Y-130816357D01*
X170712580Y-130848963D01*
X170486586Y-131016481D01*
X170297615Y-131224869D01*
X170152930Y-131466119D01*
X170058091Y-131730960D01*
X170179376Y-131953000D01*
X171323000Y-131953000D01*
X171323000Y-131933000D01*
X171577000Y-131933000D01*
X171577000Y-131953000D01*
X172720624Y-131953000D01*
X172841909Y-131730960D01*
X172747070Y-131466119D01*
X172602385Y-131224869D01*
X172413414Y-131016481D01*
X172187420Y-130848963D01*
X172118435Y-130816357D01*
X172129727Y-130811680D01*
X172364759Y-130654637D01*
X172564637Y-130454759D01*
X172721680Y-130219727D01*
X172829853Y-129958574D01*
X172885000Y-129681335D01*
X172885000Y-129398665D01*
X175095000Y-129398665D01*
X175095000Y-129681335D01*
X175150147Y-129958574D01*
X175258320Y-130219727D01*
X175415363Y-130454759D01*
X175615241Y-130654637D01*
X175850273Y-130811680D01*
X175861565Y-130816357D01*
X175792580Y-130848963D01*
X175566586Y-131016481D01*
X175377615Y-131224869D01*
X175232930Y-131466119D01*
X175138091Y-131730960D01*
X175259376Y-131953000D01*
X176403000Y-131953000D01*
X176403000Y-131933000D01*
X176657000Y-131933000D01*
X176657000Y-131953000D01*
X177800624Y-131953000D01*
X177921909Y-131730960D01*
X177827070Y-131466119D01*
X177682385Y-131224869D01*
X177493414Y-131016481D01*
X177267420Y-130848963D01*
X177198435Y-130816357D01*
X177209727Y-130811680D01*
X177444759Y-130654637D01*
X177644637Y-130454759D01*
X177801680Y-130219727D01*
X177909853Y-129958574D01*
X177965000Y-129681335D01*
X177965000Y-129398665D01*
X181445000Y-129398665D01*
X181445000Y-129681335D01*
X181500147Y-129958574D01*
X181608320Y-130219727D01*
X181765363Y-130454759D01*
X181965241Y-130654637D01*
X182200273Y-130811680D01*
X182211565Y-130816357D01*
X182142580Y-130848963D01*
X181916586Y-131016481D01*
X181727615Y-131224869D01*
X181582930Y-131466119D01*
X181488091Y-131730960D01*
X181609376Y-131953000D01*
X182753000Y-131953000D01*
X182753000Y-131933000D01*
X183007000Y-131933000D01*
X183007000Y-131953000D01*
X184150624Y-131953000D01*
X184271909Y-131730960D01*
X184177070Y-131466119D01*
X184032385Y-131224869D01*
X183843414Y-131016481D01*
X183617420Y-130848963D01*
X183548435Y-130816357D01*
X183559727Y-130811680D01*
X183794759Y-130654637D01*
X183994637Y-130454759D01*
X184151680Y-130219727D01*
X184259853Y-129958574D01*
X184315000Y-129681335D01*
X184315000Y-129398665D01*
X186525000Y-129398665D01*
X186525000Y-129681335D01*
X186580147Y-129958574D01*
X186688320Y-130219727D01*
X186845363Y-130454759D01*
X187045241Y-130654637D01*
X187280273Y-130811680D01*
X187291565Y-130816357D01*
X187222580Y-130848963D01*
X186996586Y-131016481D01*
X186807615Y-131224869D01*
X186662930Y-131466119D01*
X186568091Y-131730960D01*
X186689376Y-131953000D01*
X187833000Y-131953000D01*
X187833000Y-131933000D01*
X188087000Y-131933000D01*
X188087000Y-131953000D01*
X189230624Y-131953000D01*
X189351909Y-131730960D01*
X189257070Y-131466119D01*
X189112385Y-131224869D01*
X188923414Y-131016481D01*
X188697420Y-130848963D01*
X188628435Y-130816357D01*
X188639727Y-130811680D01*
X188874759Y-130654637D01*
X189074637Y-130454759D01*
X189231680Y-130219727D01*
X189339853Y-129958574D01*
X189395000Y-129681335D01*
X189395000Y-129398665D01*
X189339853Y-129121426D01*
X189231680Y-128860273D01*
X189074637Y-128625241D01*
X188874759Y-128425363D01*
X188639727Y-128268320D01*
X188378574Y-128160147D01*
X188101335Y-128105000D01*
X187818665Y-128105000D01*
X187541426Y-128160147D01*
X187280273Y-128268320D01*
X187045241Y-128425363D01*
X186845363Y-128625241D01*
X186688320Y-128860273D01*
X186580147Y-129121426D01*
X186525000Y-129398665D01*
X184315000Y-129398665D01*
X184259853Y-129121426D01*
X184151680Y-128860273D01*
X183994637Y-128625241D01*
X183794759Y-128425363D01*
X183559727Y-128268320D01*
X183298574Y-128160147D01*
X183021335Y-128105000D01*
X182738665Y-128105000D01*
X182461426Y-128160147D01*
X182200273Y-128268320D01*
X181965241Y-128425363D01*
X181765363Y-128625241D01*
X181608320Y-128860273D01*
X181500147Y-129121426D01*
X181445000Y-129398665D01*
X177965000Y-129398665D01*
X177909853Y-129121426D01*
X177801680Y-128860273D01*
X177644637Y-128625241D01*
X177444759Y-128425363D01*
X177209727Y-128268320D01*
X176948574Y-128160147D01*
X176671335Y-128105000D01*
X176388665Y-128105000D01*
X176111426Y-128160147D01*
X175850273Y-128268320D01*
X175615241Y-128425363D01*
X175415363Y-128625241D01*
X175258320Y-128860273D01*
X175150147Y-129121426D01*
X175095000Y-129398665D01*
X172885000Y-129398665D01*
X172829853Y-129121426D01*
X172721680Y-128860273D01*
X172564637Y-128625241D01*
X172364759Y-128425363D01*
X172129727Y-128268320D01*
X171868574Y-128160147D01*
X171591335Y-128105000D01*
X171308665Y-128105000D01*
X171031426Y-128160147D01*
X170770273Y-128268320D01*
X170535241Y-128425363D01*
X170335363Y-128625241D01*
X170178320Y-128860273D01*
X170070147Y-129121426D01*
X170015000Y-129398665D01*
X166535000Y-129398665D01*
X166479853Y-129121426D01*
X166371680Y-128860273D01*
X166214637Y-128625241D01*
X166014759Y-128425363D01*
X165779727Y-128268320D01*
X165518574Y-128160147D01*
X165241335Y-128105000D01*
X164958665Y-128105000D01*
X164681426Y-128160147D01*
X164420273Y-128268320D01*
X164185241Y-128425363D01*
X163985363Y-128625241D01*
X163828320Y-128860273D01*
X163720147Y-129121426D01*
X163665000Y-129398665D01*
X161455000Y-129398665D01*
X161399853Y-129121426D01*
X161291680Y-128860273D01*
X161134637Y-128625241D01*
X160934759Y-128425363D01*
X160699727Y-128268320D01*
X160438574Y-128160147D01*
X160161335Y-128105000D01*
X159878665Y-128105000D01*
X159601426Y-128160147D01*
X159340273Y-128268320D01*
X159105241Y-128425363D01*
X158905363Y-128625241D01*
X158748320Y-128860273D01*
X158640147Y-129121426D01*
X158585000Y-129398665D01*
X155105000Y-129398665D01*
X155049853Y-129121426D01*
X154941680Y-128860273D01*
X154784637Y-128625241D01*
X154584759Y-128425363D01*
X154349727Y-128268320D01*
X154088574Y-128160147D01*
X153811335Y-128105000D01*
X153528665Y-128105000D01*
X153251426Y-128160147D01*
X152990273Y-128268320D01*
X152755241Y-128425363D01*
X152555363Y-128625241D01*
X152398320Y-128860273D01*
X152290147Y-129121426D01*
X152235000Y-129398665D01*
X150025000Y-129398665D01*
X149969853Y-129121426D01*
X149861680Y-128860273D01*
X149704637Y-128625241D01*
X149504759Y-128425363D01*
X149269727Y-128268320D01*
X149008574Y-128160147D01*
X148731335Y-128105000D01*
X148448665Y-128105000D01*
X148171426Y-128160147D01*
X147910273Y-128268320D01*
X147675241Y-128425363D01*
X147475363Y-128625241D01*
X147318320Y-128860273D01*
X147210147Y-129121426D01*
X147155000Y-129398665D01*
X143675000Y-129398665D01*
X143619853Y-129121426D01*
X143511680Y-128860273D01*
X143354637Y-128625241D01*
X143154759Y-128425363D01*
X142919727Y-128268320D01*
X142658574Y-128160147D01*
X142381335Y-128105000D01*
X142098665Y-128105000D01*
X141821426Y-128160147D01*
X141560273Y-128268320D01*
X141325241Y-128425363D01*
X141125363Y-128625241D01*
X140968320Y-128860273D01*
X140860147Y-129121426D01*
X140805000Y-129398665D01*
X138595000Y-129398665D01*
X138539853Y-129121426D01*
X138431680Y-128860273D01*
X138274637Y-128625241D01*
X138074759Y-128425363D01*
X137839727Y-128268320D01*
X137578574Y-128160147D01*
X137301335Y-128105000D01*
X137018665Y-128105000D01*
X136741426Y-128160147D01*
X136480273Y-128268320D01*
X136245241Y-128425363D01*
X136045363Y-128625241D01*
X135888320Y-128860273D01*
X135780147Y-129121426D01*
X135725000Y-129398665D01*
X126425000Y-129398665D01*
X126425000Y-125595655D01*
X126425518Y-125595812D01*
X126550000Y-125608072D01*
X128804250Y-125605000D01*
X128963000Y-125446250D01*
X128963000Y-123887000D01*
X128943000Y-123887000D01*
X128943000Y-123633000D01*
X128963000Y-123633000D01*
X128963000Y-122073750D01*
X129217000Y-122073750D01*
X129217000Y-123633000D01*
X129237000Y-123633000D01*
X129237000Y-123887000D01*
X129217000Y-123887000D01*
X129217000Y-125446250D01*
X129375750Y-125605000D01*
X131630000Y-125608072D01*
X131754482Y-125595812D01*
X131778042Y-125588665D01*
X134455000Y-125588665D01*
X134455000Y-125871335D01*
X134510147Y-126148574D01*
X134618320Y-126409727D01*
X134775363Y-126644759D01*
X134975241Y-126844637D01*
X135210273Y-127001680D01*
X135471426Y-127109853D01*
X135748665Y-127165000D01*
X136031335Y-127165000D01*
X136308574Y-127109853D01*
X136569727Y-127001680D01*
X136804759Y-126844637D01*
X137004637Y-126644759D01*
X137161680Y-126409727D01*
X137269853Y-126148574D01*
X137325000Y-125871335D01*
X137325000Y-125588665D01*
X137269853Y-125311426D01*
X137161680Y-125050273D01*
X137004637Y-124815241D01*
X136804759Y-124615363D01*
X136569727Y-124458320D01*
X136308574Y-124350147D01*
X136031335Y-124295000D01*
X135748665Y-124295000D01*
X135471426Y-124350147D01*
X135210273Y-124458320D01*
X134975241Y-124615363D01*
X134775363Y-124815241D01*
X134618320Y-125050273D01*
X134510147Y-125311426D01*
X134455000Y-125588665D01*
X131778042Y-125588665D01*
X131874180Y-125559502D01*
X131984494Y-125500537D01*
X132081185Y-125421185D01*
X132160537Y-125324494D01*
X132219502Y-125214180D01*
X132255812Y-125094482D01*
X132268072Y-124970000D01*
X132267670Y-124848986D01*
X132392445Y-124876981D01*
X132613001Y-124882355D01*
X132830367Y-124844596D01*
X133036189Y-124765158D01*
X133084534Y-124739316D01*
X133117811Y-124527416D01*
X133017090Y-124426695D01*
X133078331Y-124355048D01*
X133139493Y-124245937D01*
X133153252Y-124203647D01*
X133297416Y-124347811D01*
X133509316Y-124314534D01*
X133598683Y-124112824D01*
X133646981Y-123897555D01*
X133652355Y-123676999D01*
X133614596Y-123459633D01*
X133535158Y-123253811D01*
X133509316Y-123205466D01*
X133297416Y-123172189D01*
X133153252Y-123316353D01*
X133139493Y-123274063D01*
X133078331Y-123164952D01*
X133017090Y-123093305D01*
X133117811Y-122992584D01*
X133084534Y-122780684D01*
X132882824Y-122691317D01*
X132667555Y-122643019D01*
X132446999Y-122637645D01*
X132267677Y-122668795D01*
X132268072Y-122550000D01*
X132255812Y-122425518D01*
X132219502Y-122305820D01*
X132160537Y-122195506D01*
X132081185Y-122098815D01*
X131984494Y-122019463D01*
X131874180Y-121960498D01*
X131754482Y-121924188D01*
X131630000Y-121911928D01*
X129375750Y-121915000D01*
X129217000Y-122073750D01*
X128963000Y-122073750D01*
X128804250Y-121915000D01*
X126550000Y-121911928D01*
X126425518Y-121924188D01*
X126425000Y-121924345D01*
X126425000Y-121150655D01*
X126425518Y-121150812D01*
X126550000Y-121163072D01*
X131630000Y-121163072D01*
X131754482Y-121150812D01*
X131874180Y-121114502D01*
X131984494Y-121055537D01*
X132081185Y-120976185D01*
X132160537Y-120879494D01*
X132219502Y-120769180D01*
X132255812Y-120649482D01*
X132268072Y-120525000D01*
X132268072Y-120515000D01*
X132574249Y-120515000D01*
X132630000Y-120520491D01*
X132685751Y-120515000D01*
X132685752Y-120515000D01*
X132852499Y-120498577D01*
X133066447Y-120433676D01*
X133263623Y-120328284D01*
X133436449Y-120186449D01*
X133471996Y-120143135D01*
X135640132Y-117975000D01*
X136671479Y-117975000D01*
X136456589Y-118064010D01*
G37*
X136456589Y-118064010D02*
X136213368Y-118226525D01*
X136006525Y-118433368D01*
X135844010Y-118676589D01*
X135732068Y-118946842D01*
X135675000Y-119233740D01*
X135675000Y-119526260D01*
X135732068Y-119813158D01*
X135844010Y-120083411D01*
X136006525Y-120326632D01*
X136213368Y-120533475D01*
X136456589Y-120695990D01*
X136726842Y-120807932D01*
X137013740Y-120865000D01*
X137306260Y-120865000D01*
X137593158Y-120807932D01*
X137863411Y-120695990D01*
X138106632Y-120533475D01*
X138313475Y-120326632D01*
X138430000Y-120152240D01*
X138546525Y-120326632D01*
X138753368Y-120533475D01*
X138996589Y-120695990D01*
X139266842Y-120807932D01*
X139553740Y-120865000D01*
X139846260Y-120865000D01*
X140133158Y-120807932D01*
X140403411Y-120695990D01*
X140646632Y-120533475D01*
X140778487Y-120401620D01*
X140800498Y-120474180D01*
X140859463Y-120584494D01*
X140938815Y-120681185D01*
X141035506Y-120760537D01*
X141105000Y-120797683D01*
X141105001Y-124404239D01*
X141099509Y-124460000D01*
X141121423Y-124682498D01*
X141186324Y-124896446D01*
X141186325Y-124896447D01*
X141291717Y-125093623D01*
X141433552Y-125266449D01*
X141476860Y-125301991D01*
X142082150Y-125907282D01*
X142130147Y-126148574D01*
X142238320Y-126409727D01*
X142395363Y-126644759D01*
X142595241Y-126844637D01*
X142830273Y-127001680D01*
X143091426Y-127109853D01*
X143368665Y-127165000D01*
X143651335Y-127165000D01*
X143928574Y-127109853D01*
X144189727Y-127001680D01*
X144424759Y-126844637D01*
X144624637Y-126644759D01*
X144781680Y-126409727D01*
X144889853Y-126148574D01*
X144945000Y-125871335D01*
X144945000Y-125588665D01*
X145885000Y-125588665D01*
X145885000Y-125871335D01*
X145940147Y-126148574D01*
X146048320Y-126409727D01*
X146205363Y-126644759D01*
X146405241Y-126844637D01*
X146640273Y-127001680D01*
X146901426Y-127109853D01*
X147178665Y-127165000D01*
X147461335Y-127165000D01*
X147738574Y-127109853D01*
X147999727Y-127001680D01*
X148234759Y-126844637D01*
X148434637Y-126644759D01*
X148591680Y-126409727D01*
X148699853Y-126148574D01*
X148755000Y-125871335D01*
X148755000Y-125588665D01*
X148699853Y-125311426D01*
X148591680Y-125050273D01*
X148434637Y-124815241D01*
X148234759Y-124615363D01*
X147999727Y-124458320D01*
X147738574Y-124350147D01*
X147461335Y-124295000D01*
X147178665Y-124295000D01*
X146901426Y-124350147D01*
X146640273Y-124458320D01*
X146405241Y-124615363D01*
X146205363Y-124815241D01*
X146048320Y-125050273D01*
X145940147Y-125311426D01*
X145885000Y-125588665D01*
X144945000Y-125588665D01*
X144889853Y-125311426D01*
X144781680Y-125050273D01*
X144624637Y-124815241D01*
X144424759Y-124615363D01*
X144189727Y-124458320D01*
X143928574Y-124350147D01*
X143687282Y-124302150D01*
X143375000Y-123989869D01*
X143375000Y-120797683D01*
X143444494Y-120760537D01*
X143541185Y-120681185D01*
X143620537Y-120584494D01*
X143679502Y-120474180D01*
X143715812Y-120354482D01*
X143728072Y-120230000D01*
X143728072Y-118530000D01*
X143715812Y-118405518D01*
X143679502Y-118285820D01*
X143620537Y-118175506D01*
X143541185Y-118078815D01*
X143444494Y-117999463D01*
X143398728Y-117975000D01*
X148101479Y-117975000D01*
X147886589Y-118064010D01*
X147643368Y-118226525D01*
X147436525Y-118433368D01*
X147274010Y-118676589D01*
X147162068Y-118946842D01*
X147105000Y-119233740D01*
X147105000Y-119526260D01*
X147162068Y-119813158D01*
X147274010Y-120083411D01*
X147436525Y-120326632D01*
X147643368Y-120533475D01*
X147886589Y-120695990D01*
X148156842Y-120807932D01*
X148443740Y-120865000D01*
X148736260Y-120865000D01*
X149023158Y-120807932D01*
X149293411Y-120695990D01*
X149536632Y-120533475D01*
X149743475Y-120326632D01*
X149860000Y-120152240D01*
X149976525Y-120326632D01*
X150183368Y-120533475D01*
X150426589Y-120695990D01*
X150696842Y-120807932D01*
X150983740Y-120865000D01*
X151276260Y-120865000D01*
X151563158Y-120807932D01*
X151833411Y-120695990D01*
X152076632Y-120533475D01*
X152208487Y-120401620D01*
X152230498Y-120474180D01*
X152289463Y-120584494D01*
X152368815Y-120681185D01*
X152465506Y-120760537D01*
X152535000Y-120797683D01*
X152535001Y-124404239D01*
X152529509Y-124460000D01*
X152551423Y-124682498D01*
X152616324Y-124896446D01*
X152616325Y-124896447D01*
X152721717Y-125093623D01*
X152863552Y-125266449D01*
X152906860Y-125301991D01*
X153512150Y-125907282D01*
X153560147Y-126148574D01*
X153668320Y-126409727D01*
X153825363Y-126644759D01*
X154025241Y-126844637D01*
X154260273Y-127001680D01*
X154521426Y-127109853D01*
X154798665Y-127165000D01*
X155081335Y-127165000D01*
X155358574Y-127109853D01*
X155619727Y-127001680D01*
X155854759Y-126844637D01*
X156054637Y-126644759D01*
X156211680Y-126409727D01*
X156319853Y-126148574D01*
X156375000Y-125871335D01*
X156375000Y-125588665D01*
X157315000Y-125588665D01*
X157315000Y-125871335D01*
X157370147Y-126148574D01*
X157478320Y-126409727D01*
X157635363Y-126644759D01*
X157835241Y-126844637D01*
X158070273Y-127001680D01*
X158331426Y-127109853D01*
X158608665Y-127165000D01*
X158891335Y-127165000D01*
X159168574Y-127109853D01*
X159429727Y-127001680D01*
X159664759Y-126844637D01*
X159864637Y-126644759D01*
X160021680Y-126409727D01*
X160129853Y-126148574D01*
X160185000Y-125871335D01*
X160185000Y-125588665D01*
X160129853Y-125311426D01*
X160021680Y-125050273D01*
X159864637Y-124815241D01*
X159664759Y-124615363D01*
X159429727Y-124458320D01*
X159168574Y-124350147D01*
X158891335Y-124295000D01*
X158608665Y-124295000D01*
X158331426Y-124350147D01*
X158070273Y-124458320D01*
X157835241Y-124615363D01*
X157635363Y-124815241D01*
X157478320Y-125050273D01*
X157370147Y-125311426D01*
X157315000Y-125588665D01*
X156375000Y-125588665D01*
X156319853Y-125311426D01*
X156211680Y-125050273D01*
X156054637Y-124815241D01*
X155854759Y-124615363D01*
X155619727Y-124458320D01*
X155358574Y-124350147D01*
X155117282Y-124302150D01*
X154805000Y-123989869D01*
X154805000Y-120797683D01*
X154874494Y-120760537D01*
X154971185Y-120681185D01*
X155050537Y-120584494D01*
X155109502Y-120474180D01*
X155145812Y-120354482D01*
X155158072Y-120230000D01*
X155158072Y-118530000D01*
X155145812Y-118405518D01*
X155109502Y-118285820D01*
X155050537Y-118175506D01*
X154971185Y-118078815D01*
X154874494Y-117999463D01*
X154828728Y-117975000D01*
X159531479Y-117975000D01*
X159316589Y-118064010D01*
X159073368Y-118226525D01*
X158866525Y-118433368D01*
X158704010Y-118676589D01*
X158592068Y-118946842D01*
X158535000Y-119233740D01*
X158535000Y-119526260D01*
X158592068Y-119813158D01*
X158704010Y-120083411D01*
X158866525Y-120326632D01*
X159073368Y-120533475D01*
X159316589Y-120695990D01*
X159586842Y-120807932D01*
X159873740Y-120865000D01*
X160166260Y-120865000D01*
X160453158Y-120807932D01*
X160723411Y-120695990D01*
X160966632Y-120533475D01*
X161173475Y-120326632D01*
X161290000Y-120152240D01*
X161406525Y-120326632D01*
X161613368Y-120533475D01*
X161856589Y-120695990D01*
X162126842Y-120807932D01*
X162413740Y-120865000D01*
X162706260Y-120865000D01*
X162993158Y-120807932D01*
X163263411Y-120695990D01*
X163506632Y-120533475D01*
X163638487Y-120401620D01*
X163660498Y-120474180D01*
X163719463Y-120584494D01*
X163798815Y-120681185D01*
X163895506Y-120760537D01*
X163965000Y-120797683D01*
X163965001Y-124404239D01*
X163959509Y-124460000D01*
X163981423Y-124682498D01*
X164046324Y-124896446D01*
X164046325Y-124896447D01*
X164151717Y-125093623D01*
X164293552Y-125266449D01*
X164336860Y-125301991D01*
X164942150Y-125907282D01*
X164990147Y-126148574D01*
X165098320Y-126409727D01*
X165255363Y-126644759D01*
X165455241Y-126844637D01*
X165690273Y-127001680D01*
X165951426Y-127109853D01*
X166228665Y-127165000D01*
X166511335Y-127165000D01*
X166788574Y-127109853D01*
X167049727Y-127001680D01*
X167284759Y-126844637D01*
X167484637Y-126644759D01*
X167641680Y-126409727D01*
X167749853Y-126148574D01*
X167805000Y-125871335D01*
X167805000Y-125588665D01*
X168745000Y-125588665D01*
X168745000Y-125871335D01*
X168800147Y-126148574D01*
X168908320Y-126409727D01*
X169065363Y-126644759D01*
X169265241Y-126844637D01*
X169500273Y-127001680D01*
X169761426Y-127109853D01*
X170038665Y-127165000D01*
X170321335Y-127165000D01*
X170598574Y-127109853D01*
X170859727Y-127001680D01*
X171094759Y-126844637D01*
X171294637Y-126644759D01*
X171451680Y-126409727D01*
X171559853Y-126148574D01*
X171615000Y-125871335D01*
X171615000Y-125588665D01*
X171559853Y-125311426D01*
X171451680Y-125050273D01*
X171294637Y-124815241D01*
X171094759Y-124615363D01*
X170859727Y-124458320D01*
X170598574Y-124350147D01*
X170321335Y-124295000D01*
X170038665Y-124295000D01*
X169761426Y-124350147D01*
X169500273Y-124458320D01*
X169265241Y-124615363D01*
X169065363Y-124815241D01*
X168908320Y-125050273D01*
X168800147Y-125311426D01*
X168745000Y-125588665D01*
X167805000Y-125588665D01*
X167749853Y-125311426D01*
X167641680Y-125050273D01*
X167484637Y-124815241D01*
X167284759Y-124615363D01*
X167049727Y-124458320D01*
X166788574Y-124350147D01*
X166547282Y-124302150D01*
X166235000Y-123989869D01*
X166235000Y-120797683D01*
X166304494Y-120760537D01*
X166401185Y-120681185D01*
X166480537Y-120584494D01*
X166539502Y-120474180D01*
X166575812Y-120354482D01*
X166588072Y-120230000D01*
X166588072Y-118530000D01*
X166575812Y-118405518D01*
X166539502Y-118285820D01*
X166480537Y-118175506D01*
X166401185Y-118078815D01*
X166304494Y-117999463D01*
X166258728Y-117975000D01*
X170961479Y-117975000D01*
X170746589Y-118064010D01*
X170503368Y-118226525D01*
X170296525Y-118433368D01*
X170134010Y-118676589D01*
X170022068Y-118946842D01*
X169965000Y-119233740D01*
X169965000Y-119526260D01*
X170022068Y-119813158D01*
X170134010Y-120083411D01*
X170296525Y-120326632D01*
X170503368Y-120533475D01*
X170746589Y-120695990D01*
X171016842Y-120807932D01*
X171303740Y-120865000D01*
X171596260Y-120865000D01*
X171883158Y-120807932D01*
X172153411Y-120695990D01*
X172396632Y-120533475D01*
X172603475Y-120326632D01*
X172720000Y-120152240D01*
X172836525Y-120326632D01*
X173043368Y-120533475D01*
X173286589Y-120695990D01*
X173556842Y-120807932D01*
X173843740Y-120865000D01*
X174136260Y-120865000D01*
X174423158Y-120807932D01*
X174693411Y-120695990D01*
X174936632Y-120533475D01*
X175068487Y-120401620D01*
X175090498Y-120474180D01*
X175149463Y-120584494D01*
X175228815Y-120681185D01*
X175325506Y-120760537D01*
X175395000Y-120797683D01*
X175395001Y-124404239D01*
X175389509Y-124460000D01*
X175411423Y-124682498D01*
X175476324Y-124896446D01*
X175476325Y-124896447D01*
X175581717Y-125093623D01*
X175723552Y-125266449D01*
X175766860Y-125301991D01*
X176372150Y-125907282D01*
X176420147Y-126148574D01*
X176528320Y-126409727D01*
X176685363Y-126644759D01*
X176885241Y-126844637D01*
X177120273Y-127001680D01*
X177381426Y-127109853D01*
X177658665Y-127165000D01*
X177941335Y-127165000D01*
X178218574Y-127109853D01*
X178479727Y-127001680D01*
X178714759Y-126844637D01*
X178914637Y-126644759D01*
X179071680Y-126409727D01*
X179179853Y-126148574D01*
X179235000Y-125871335D01*
X179235000Y-125588665D01*
X180175000Y-125588665D01*
X180175000Y-125871335D01*
X180230147Y-126148574D01*
X180338320Y-126409727D01*
X180495363Y-126644759D01*
X180695241Y-126844637D01*
X180930273Y-127001680D01*
X181191426Y-127109853D01*
X181468665Y-127165000D01*
X181751335Y-127165000D01*
X182028574Y-127109853D01*
X182289727Y-127001680D01*
X182524759Y-126844637D01*
X182724637Y-126644759D01*
X182881680Y-126409727D01*
X182989853Y-126148574D01*
X183045000Y-125871335D01*
X183045000Y-125588665D01*
X182989853Y-125311426D01*
X182881680Y-125050273D01*
X182724637Y-124815241D01*
X182524759Y-124615363D01*
X182289727Y-124458320D01*
X182028574Y-124350147D01*
X181751335Y-124295000D01*
X181468665Y-124295000D01*
X181191426Y-124350147D01*
X180930273Y-124458320D01*
X180695241Y-124615363D01*
X180495363Y-124815241D01*
X180338320Y-125050273D01*
X180230147Y-125311426D01*
X180175000Y-125588665D01*
X179235000Y-125588665D01*
X179179853Y-125311426D01*
X179071680Y-125050273D01*
X178914637Y-124815241D01*
X178714759Y-124615363D01*
X178479727Y-124458320D01*
X178218574Y-124350147D01*
X177977282Y-124302150D01*
X177665000Y-123989869D01*
X177665000Y-120797683D01*
X177734494Y-120760537D01*
X177831185Y-120681185D01*
X177910537Y-120584494D01*
X177969502Y-120474180D01*
X178005812Y-120354482D01*
X178018072Y-120230000D01*
X178018072Y-118530000D01*
X178005812Y-118405518D01*
X177969502Y-118285820D01*
X177910537Y-118175506D01*
X177831185Y-118078815D01*
X177734494Y-117999463D01*
X177688728Y-117975000D01*
X182391479Y-117975000D01*
X182176589Y-118064010D01*
X181933368Y-118226525D01*
X181726525Y-118433368D01*
X181564010Y-118676589D01*
X181452068Y-118946842D01*
X181395000Y-119233740D01*
X181395000Y-119526260D01*
X181452068Y-119813158D01*
X181564010Y-120083411D01*
X181726525Y-120326632D01*
X181933368Y-120533475D01*
X182176589Y-120695990D01*
X182446842Y-120807932D01*
X182733740Y-120865000D01*
X183026260Y-120865000D01*
X183313158Y-120807932D01*
X183583411Y-120695990D01*
X183826632Y-120533475D01*
X184033475Y-120326632D01*
X184150000Y-120152240D01*
X184266525Y-120326632D01*
X184473368Y-120533475D01*
X184716589Y-120695990D01*
X184986842Y-120807932D01*
X185273740Y-120865000D01*
X185566260Y-120865000D01*
X185853158Y-120807932D01*
X186123411Y-120695990D01*
X186366632Y-120533475D01*
X186498487Y-120401620D01*
X186520498Y-120474180D01*
X186579463Y-120584494D01*
X186658815Y-120681185D01*
X186755506Y-120760537D01*
X186825000Y-120797683D01*
X186825001Y-124404239D01*
X186819509Y-124460000D01*
X186841423Y-124682498D01*
X186906324Y-124896446D01*
X186906325Y-124896447D01*
X187011717Y-125093623D01*
X187153552Y-125266449D01*
X187196860Y-125301991D01*
X187802150Y-125907282D01*
X187850147Y-126148574D01*
X187958320Y-126409727D01*
X188115363Y-126644759D01*
X188315241Y-126844637D01*
X188550273Y-127001680D01*
X188811426Y-127109853D01*
X189088665Y-127165000D01*
X189371335Y-127165000D01*
X189648574Y-127109853D01*
X189909727Y-127001680D01*
X190144759Y-126844637D01*
X190344637Y-126644759D01*
X190501680Y-126409727D01*
X190609853Y-126148574D01*
X190665000Y-125871335D01*
X190665000Y-125588665D01*
X190609853Y-125311426D01*
X190501680Y-125050273D01*
X190344637Y-124815241D01*
X190144759Y-124615363D01*
X189909727Y-124458320D01*
X189648574Y-124350147D01*
X189407282Y-124302150D01*
X189095000Y-123989869D01*
X189095000Y-123843001D01*
X191857645Y-123843001D01*
X191895404Y-124060367D01*
X191974842Y-124266189D01*
X192000684Y-124314534D01*
X192212584Y-124347811D01*
X192356748Y-124203647D01*
X192370507Y-124245937D01*
X192431669Y-124355048D01*
X192492910Y-124426695D01*
X192392189Y-124527416D01*
X192425466Y-124739316D01*
X192627176Y-124828683D01*
X192842445Y-124876981D01*
X193063001Y-124882355D01*
X193242323Y-124851205D01*
X193241928Y-124970000D01*
X193254188Y-125094482D01*
X193290498Y-125214180D01*
X193349463Y-125324494D01*
X193428815Y-125421185D01*
X193525506Y-125500537D01*
X193635820Y-125559502D01*
X193755518Y-125595812D01*
X193880000Y-125608072D01*
X196134250Y-125605000D01*
X196293000Y-125446250D01*
X196293000Y-123887000D01*
X196273000Y-123887000D01*
X196273000Y-123633000D01*
X196293000Y-123633000D01*
X196293000Y-122073750D01*
X196134250Y-121915000D01*
X193880000Y-121911928D01*
X193755518Y-121924188D01*
X193635820Y-121960498D01*
X193525506Y-122019463D01*
X193428815Y-122098815D01*
X193349463Y-122195506D01*
X193290498Y-122305820D01*
X193254188Y-122425518D01*
X193241928Y-122550000D01*
X193242330Y-122671014D01*
X193117555Y-122643019D01*
X192896999Y-122637645D01*
X192679633Y-122675404D01*
X192473811Y-122754842D01*
X192425466Y-122780684D01*
X192392189Y-122992584D01*
X192492910Y-123093305D01*
X192431669Y-123164952D01*
X192370507Y-123274063D01*
X192356748Y-123316353D01*
X192212584Y-123172189D01*
X192000684Y-123205466D01*
X191911317Y-123407176D01*
X191863019Y-123622445D01*
X191857645Y-123843001D01*
X189095000Y-123843001D01*
X189095000Y-120797683D01*
X189164494Y-120760537D01*
X189261185Y-120681185D01*
X189340537Y-120584494D01*
X189399502Y-120474180D01*
X189435812Y-120354482D01*
X189448072Y-120230000D01*
X189448072Y-118530000D01*
X189435812Y-118405518D01*
X189399502Y-118285820D01*
X189340537Y-118175506D01*
X189261185Y-118078815D01*
X189164494Y-117999463D01*
X189118728Y-117975000D01*
X189899868Y-117975000D01*
X191648009Y-119723142D01*
X191683551Y-119766450D01*
X191856377Y-119908285D01*
X192053553Y-120013677D01*
X192075075Y-120020206D01*
X192198004Y-120143135D01*
X192233551Y-120186449D01*
X192406377Y-120328284D01*
X192603553Y-120433676D01*
X192817501Y-120498577D01*
X192984248Y-120515000D01*
X192984257Y-120515000D01*
X193039999Y-120520490D01*
X193095741Y-120515000D01*
X193241928Y-120515000D01*
X193241928Y-120525000D01*
X193254188Y-120649482D01*
X193290498Y-120769180D01*
X193349463Y-120879494D01*
X193428815Y-120976185D01*
X193525506Y-121055537D01*
X193635820Y-121114502D01*
X193755518Y-121150812D01*
X193880000Y-121163072D01*
X198695001Y-121163072D01*
X198695001Y-121912289D01*
X196705750Y-121915000D01*
X196547000Y-122073750D01*
X196547000Y-123633000D01*
X196567000Y-123633000D01*
X196567000Y-123887000D01*
X196547000Y-123887000D01*
X196547000Y-125446250D01*
X196705750Y-125605000D01*
X198695000Y-125607711D01*
X198695000Y-133925000D01*
X126425000Y-133925000D01*
X126425000Y-132429040D01*
X135768091Y-132429040D01*
X135862930Y-132693881D01*
X136007615Y-132935131D01*
X136196586Y-133143519D01*
X136422580Y-133311037D01*
X136676913Y-133431246D01*
X136810961Y-133471904D01*
X137033000Y-133349915D01*
X137033000Y-132207000D01*
X137287000Y-132207000D01*
X137287000Y-133349915D01*
X137509039Y-133471904D01*
X137643087Y-133431246D01*
X137897420Y-133311037D01*
X138123414Y-133143519D01*
X138312385Y-132935131D01*
X138457070Y-132693881D01*
X138551909Y-132429040D01*
X140848091Y-132429040D01*
X140942930Y-132693881D01*
X141087615Y-132935131D01*
X141276586Y-133143519D01*
X141502580Y-133311037D01*
X141756913Y-133431246D01*
X141890961Y-133471904D01*
X142113000Y-133349915D01*
X142113000Y-132207000D01*
X142367000Y-132207000D01*
X142367000Y-133349915D01*
X142589039Y-133471904D01*
X142723087Y-133431246D01*
X142977420Y-133311037D01*
X143203414Y-133143519D01*
X143392385Y-132935131D01*
X143537070Y-132693881D01*
X143631909Y-132429040D01*
X147198091Y-132429040D01*
X147292930Y-132693881D01*
X147437615Y-132935131D01*
X147626586Y-133143519D01*
X147852580Y-133311037D01*
X148106913Y-133431246D01*
X148240961Y-133471904D01*
X148463000Y-133349915D01*
X148463000Y-132207000D01*
X148717000Y-132207000D01*
X148717000Y-133349915D01*
X148939039Y-133471904D01*
X149073087Y-133431246D01*
X149327420Y-133311037D01*
X149553414Y-133143519D01*
X149742385Y-132935131D01*
X149887070Y-132693881D01*
X149981909Y-132429040D01*
X152278091Y-132429040D01*
X152372930Y-132693881D01*
X152517615Y-132935131D01*
X152706586Y-133143519D01*
X152932580Y-133311037D01*
X153186913Y-133431246D01*
X153320961Y-133471904D01*
X153543000Y-133349915D01*
X153543000Y-132207000D01*
X153797000Y-132207000D01*
X153797000Y-133349915D01*
X154019039Y-133471904D01*
X154153087Y-133431246D01*
X154407420Y-133311037D01*
X154633414Y-133143519D01*
X154822385Y-132935131D01*
X154967070Y-132693881D01*
X155061909Y-132429040D01*
X158628091Y-132429040D01*
X158722930Y-132693881D01*
X158867615Y-132935131D01*
X159056586Y-133143519D01*
X159282580Y-133311037D01*
X159536913Y-133431246D01*
X159670961Y-133471904D01*
X159893000Y-133349915D01*
X159893000Y-132207000D01*
X160147000Y-132207000D01*
X160147000Y-133349915D01*
X160369039Y-133471904D01*
X160503087Y-133431246D01*
X160757420Y-133311037D01*
X160983414Y-133143519D01*
X161172385Y-132935131D01*
X161317070Y-132693881D01*
X161411909Y-132429040D01*
X163708091Y-132429040D01*
X163802930Y-132693881D01*
X163947615Y-132935131D01*
X164136586Y-133143519D01*
X164362580Y-133311037D01*
X164616913Y-133431246D01*
X164750961Y-133471904D01*
X164973000Y-133349915D01*
X164973000Y-132207000D01*
X165227000Y-132207000D01*
X165227000Y-133349915D01*
X165449039Y-133471904D01*
X165583087Y-133431246D01*
X165837420Y-133311037D01*
X166063414Y-133143519D01*
X166252385Y-132935131D01*
X166397070Y-132693881D01*
X166491909Y-132429040D01*
X170058091Y-132429040D01*
X170152930Y-132693881D01*
X170297615Y-132935131D01*
X170486586Y-133143519D01*
X170712580Y-133311037D01*
X170966913Y-133431246D01*
X171100961Y-133471904D01*
X171323000Y-133349915D01*
X171323000Y-132207000D01*
X171577000Y-132207000D01*
X171577000Y-133349915D01*
X171799039Y-133471904D01*
X171933087Y-133431246D01*
X172187420Y-133311037D01*
X172413414Y-133143519D01*
X172602385Y-132935131D01*
X172747070Y-132693881D01*
X172841909Y-132429040D01*
X175138091Y-132429040D01*
X175232930Y-132693881D01*
X175377615Y-132935131D01*
X175566586Y-133143519D01*
X175792580Y-133311037D01*
X176046913Y-133431246D01*
X176180961Y-133471904D01*
X176403000Y-133349915D01*
X176403000Y-132207000D01*
X176657000Y-132207000D01*
X176657000Y-133349915D01*
X176879039Y-133471904D01*
X177013087Y-133431246D01*
X177267420Y-133311037D01*
X177493414Y-133143519D01*
X177682385Y-132935131D01*
X177827070Y-132693881D01*
X177921909Y-132429040D01*
X181488091Y-132429040D01*
X181582930Y-132693881D01*
X181727615Y-132935131D01*
X181916586Y-133143519D01*
X182142580Y-133311037D01*
X182396913Y-133431246D01*
X182530961Y-133471904D01*
X182753000Y-133349915D01*
X182753000Y-132207000D01*
X183007000Y-132207000D01*
X183007000Y-133349915D01*
X183229039Y-133471904D01*
X183363087Y-133431246D01*
X183617420Y-133311037D01*
X183843414Y-133143519D01*
X184032385Y-132935131D01*
X184177070Y-132693881D01*
X184271909Y-132429040D01*
X186568091Y-132429040D01*
X186662930Y-132693881D01*
X186807615Y-132935131D01*
X186996586Y-133143519D01*
X187222580Y-133311037D01*
X187476913Y-133431246D01*
X187610961Y-133471904D01*
X187833000Y-133349915D01*
X187833000Y-132207000D01*
X188087000Y-132207000D01*
X188087000Y-133349915D01*
X188309039Y-133471904D01*
X188443087Y-133431246D01*
X188697420Y-133311037D01*
X188923414Y-133143519D01*
X189112385Y-132935131D01*
X189257070Y-132693881D01*
X189351909Y-132429040D01*
X189230624Y-132207000D01*
X188087000Y-132207000D01*
X187833000Y-132207000D01*
X186689376Y-132207000D01*
X186568091Y-132429040D01*
X184271909Y-132429040D01*
X184150624Y-132207000D01*
X183007000Y-132207000D01*
X182753000Y-132207000D01*
X181609376Y-132207000D01*
X181488091Y-132429040D01*
X177921909Y-132429040D01*
X177800624Y-132207000D01*
X176657000Y-132207000D01*
X176403000Y-132207000D01*
X175259376Y-132207000D01*
X175138091Y-132429040D01*
X172841909Y-132429040D01*
X172720624Y-132207000D01*
X171577000Y-132207000D01*
X171323000Y-132207000D01*
X170179376Y-132207000D01*
X170058091Y-132429040D01*
X166491909Y-132429040D01*
X166370624Y-132207000D01*
X165227000Y-132207000D01*
X164973000Y-132207000D01*
X163829376Y-132207000D01*
X163708091Y-132429040D01*
X161411909Y-132429040D01*
X161290624Y-132207000D01*
X160147000Y-132207000D01*
X159893000Y-132207000D01*
X158749376Y-132207000D01*
X158628091Y-132429040D01*
X155061909Y-132429040D01*
X154940624Y-132207000D01*
X153797000Y-132207000D01*
X153543000Y-132207000D01*
X152399376Y-132207000D01*
X152278091Y-132429040D01*
X149981909Y-132429040D01*
X149860624Y-132207000D01*
X148717000Y-132207000D01*
X148463000Y-132207000D01*
X147319376Y-132207000D01*
X147198091Y-132429040D01*
X143631909Y-132429040D01*
X143510624Y-132207000D01*
X142367000Y-132207000D01*
X142113000Y-132207000D01*
X140969376Y-132207000D01*
X140848091Y-132429040D01*
X138551909Y-132429040D01*
X138430624Y-132207000D01*
X137287000Y-132207000D01*
X137033000Y-132207000D01*
X135889376Y-132207000D01*
X135768091Y-132429040D01*
X126425000Y-132429040D01*
X126425000Y-129398665D01*
X135725000Y-129398665D01*
X135725000Y-129681335D01*
X135780147Y-129958574D01*
X135888320Y-130219727D01*
X136045363Y-130454759D01*
X136245241Y-130654637D01*
X136480273Y-130811680D01*
X136491565Y-130816357D01*
X136422580Y-130848963D01*
X136196586Y-131016481D01*
X136007615Y-131224869D01*
X135862930Y-131466119D01*
X135768091Y-131730960D01*
X135889376Y-131953000D01*
X137033000Y-131953000D01*
X137033000Y-131933000D01*
X137287000Y-131933000D01*
X137287000Y-131953000D01*
X138430624Y-131953000D01*
X138551909Y-131730960D01*
X138457070Y-131466119D01*
X138312385Y-131224869D01*
X138123414Y-131016481D01*
X137897420Y-130848963D01*
X137828435Y-130816357D01*
X137839727Y-130811680D01*
X138074759Y-130654637D01*
X138274637Y-130454759D01*
X138431680Y-130219727D01*
X138539853Y-129958574D01*
X138595000Y-129681335D01*
X138595000Y-129398665D01*
X140805000Y-129398665D01*
X140805000Y-129681335D01*
X140860147Y-129958574D01*
X140968320Y-130219727D01*
X141125363Y-130454759D01*
X141325241Y-130654637D01*
X141560273Y-130811680D01*
X141571565Y-130816357D01*
X141502580Y-130848963D01*
X141276586Y-131016481D01*
X141087615Y-131224869D01*
X140942930Y-131466119D01*
X140848091Y-131730960D01*
X140969376Y-131953000D01*
X142113000Y-131953000D01*
X142113000Y-131933000D01*
X142367000Y-131933000D01*
X142367000Y-131953000D01*
X143510624Y-131953000D01*
X143631909Y-131730960D01*
X143537070Y-131466119D01*
X143392385Y-131224869D01*
X143203414Y-131016481D01*
X142977420Y-130848963D01*
X142908435Y-130816357D01*
X142919727Y-130811680D01*
X143154759Y-130654637D01*
X143354637Y-130454759D01*
X143511680Y-130219727D01*
X143619853Y-129958574D01*
X143675000Y-129681335D01*
X143675000Y-129398665D01*
X147155000Y-129398665D01*
X147155000Y-129681335D01*
X147210147Y-129958574D01*
X147318320Y-130219727D01*
X147475363Y-130454759D01*
X147675241Y-130654637D01*
X147910273Y-130811680D01*
X147921565Y-130816357D01*
X147852580Y-130848963D01*
X147626586Y-131016481D01*
X147437615Y-131224869D01*
X147292930Y-131466119D01*
X147198091Y-131730960D01*
X147319376Y-131953000D01*
X148463000Y-131953000D01*
X148463000Y-131933000D01*
X148717000Y-131933000D01*
X148717000Y-131953000D01*
X149860624Y-131953000D01*
X149981909Y-131730960D01*
X149887070Y-131466119D01*
X149742385Y-131224869D01*
X149553414Y-131016481D01*
X149327420Y-130848963D01*
X149258435Y-130816357D01*
X149269727Y-130811680D01*
X149504759Y-130654637D01*
X149704637Y-130454759D01*
X149861680Y-130219727D01*
X149969853Y-129958574D01*
X150025000Y-129681335D01*
X150025000Y-129398665D01*
X152235000Y-129398665D01*
X152235000Y-129681335D01*
X152290147Y-129958574D01*
X152398320Y-130219727D01*
X152555363Y-130454759D01*
X152755241Y-130654637D01*
X152990273Y-130811680D01*
X153001565Y-130816357D01*
X152932580Y-130848963D01*
X152706586Y-131016481D01*
X152517615Y-131224869D01*
X152372930Y-131466119D01*
X152278091Y-131730960D01*
X152399376Y-131953000D01*
X153543000Y-131953000D01*
X153543000Y-131933000D01*
X153797000Y-131933000D01*
X153797000Y-131953000D01*
X154940624Y-131953000D01*
X155061909Y-131730960D01*
X154967070Y-131466119D01*
X154822385Y-131224869D01*
X154633414Y-131016481D01*
X154407420Y-130848963D01*
X154338435Y-130816357D01*
X154349727Y-130811680D01*
X154584759Y-130654637D01*
X154784637Y-130454759D01*
X154941680Y-130219727D01*
X155049853Y-129958574D01*
X155105000Y-129681335D01*
X155105000Y-129398665D01*
X158585000Y-129398665D01*
X158585000Y-129681335D01*
X158640147Y-129958574D01*
X158748320Y-130219727D01*
X158905363Y-130454759D01*
X159105241Y-130654637D01*
X159340273Y-130811680D01*
X159351565Y-130816357D01*
X159282580Y-130848963D01*
X159056586Y-131016481D01*
X158867615Y-131224869D01*
X158722930Y-131466119D01*
X158628091Y-131730960D01*
X158749376Y-131953000D01*
X159893000Y-131953000D01*
X159893000Y-131933000D01*
X160147000Y-131933000D01*
X160147000Y-131953000D01*
X161290624Y-131953000D01*
X161411909Y-131730960D01*
X161317070Y-131466119D01*
X161172385Y-131224869D01*
X160983414Y-131016481D01*
X160757420Y-130848963D01*
X160688435Y-130816357D01*
X160699727Y-130811680D01*
X160934759Y-130654637D01*
X161134637Y-130454759D01*
X161291680Y-130219727D01*
X161399853Y-129958574D01*
X161455000Y-129681335D01*
X161455000Y-129398665D01*
X163665000Y-129398665D01*
X163665000Y-129681335D01*
X163720147Y-129958574D01*
X163828320Y-130219727D01*
X163985363Y-130454759D01*
X164185241Y-130654637D01*
X164420273Y-130811680D01*
X164431565Y-130816357D01*
X164362580Y-130848963D01*
X164136586Y-131016481D01*
X163947615Y-131224869D01*
X163802930Y-131466119D01*
X163708091Y-131730960D01*
X163829376Y-131953000D01*
X164973000Y-131953000D01*
X164973000Y-131933000D01*
X165227000Y-131933000D01*
X165227000Y-131953000D01*
X166370624Y-131953000D01*
X166491909Y-131730960D01*
X166397070Y-131466119D01*
X166252385Y-131224869D01*
X166063414Y-131016481D01*
X165837420Y-130848963D01*
X165768435Y-130816357D01*
X165779727Y-130811680D01*
X166014759Y-130654637D01*
X166214637Y-130454759D01*
X166371680Y-130219727D01*
X166479853Y-129958574D01*
X166535000Y-129681335D01*
X166535000Y-129398665D01*
X170015000Y-129398665D01*
X170015000Y-129681335D01*
X170070147Y-129958574D01*
X170178320Y-130219727D01*
X170335363Y-130454759D01*
X170535241Y-130654637D01*
X170770273Y-130811680D01*
X170781565Y-130816357D01*
X170712580Y-130848963D01*
X170486586Y-131016481D01*
X170297615Y-131224869D01*
X170152930Y-131466119D01*
X170058091Y-131730960D01*
X170179376Y-131953000D01*
X171323000Y-131953000D01*
X171323000Y-131933000D01*
X171577000Y-131933000D01*
X171577000Y-131953000D01*
X172720624Y-131953000D01*
X172841909Y-131730960D01*
X172747070Y-131466119D01*
X172602385Y-131224869D01*
X172413414Y-131016481D01*
X172187420Y-130848963D01*
X172118435Y-130816357D01*
X172129727Y-130811680D01*
X172364759Y-130654637D01*
X172564637Y-130454759D01*
X172721680Y-130219727D01*
X172829853Y-129958574D01*
X172885000Y-129681335D01*
X172885000Y-129398665D01*
X175095000Y-129398665D01*
X175095000Y-129681335D01*
X175150147Y-129958574D01*
X175258320Y-130219727D01*
X175415363Y-130454759D01*
X175615241Y-130654637D01*
X175850273Y-130811680D01*
X175861565Y-130816357D01*
X175792580Y-130848963D01*
X175566586Y-131016481D01*
X175377615Y-131224869D01*
X175232930Y-131466119D01*
X175138091Y-131730960D01*
X175259376Y-131953000D01*
X176403000Y-131953000D01*
X176403000Y-131933000D01*
X176657000Y-131933000D01*
X176657000Y-131953000D01*
X177800624Y-131953000D01*
X177921909Y-131730960D01*
X177827070Y-131466119D01*
X177682385Y-131224869D01*
X177493414Y-131016481D01*
X177267420Y-130848963D01*
X177198435Y-130816357D01*
X177209727Y-130811680D01*
X177444759Y-130654637D01*
X177644637Y-130454759D01*
X177801680Y-130219727D01*
X177909853Y-129958574D01*
X177965000Y-129681335D01*
X177965000Y-129398665D01*
X181445000Y-129398665D01*
X181445000Y-129681335D01*
X181500147Y-129958574D01*
X181608320Y-130219727D01*
X181765363Y-130454759D01*
X181965241Y-130654637D01*
X182200273Y-130811680D01*
X182211565Y-130816357D01*
X182142580Y-130848963D01*
X181916586Y-131016481D01*
X181727615Y-131224869D01*
X181582930Y-131466119D01*
X181488091Y-131730960D01*
X181609376Y-131953000D01*
X182753000Y-131953000D01*
X182753000Y-131933000D01*
X183007000Y-131933000D01*
X183007000Y-131953000D01*
X184150624Y-131953000D01*
X184271909Y-131730960D01*
X184177070Y-131466119D01*
X184032385Y-131224869D01*
X183843414Y-131016481D01*
X183617420Y-130848963D01*
X183548435Y-130816357D01*
X183559727Y-130811680D01*
X183794759Y-130654637D01*
X183994637Y-130454759D01*
X184151680Y-130219727D01*
X184259853Y-129958574D01*
X184315000Y-129681335D01*
X184315000Y-129398665D01*
X186525000Y-129398665D01*
X186525000Y-129681335D01*
X186580147Y-129958574D01*
X186688320Y-130219727D01*
X186845363Y-130454759D01*
X187045241Y-130654637D01*
X187280273Y-130811680D01*
X187291565Y-130816357D01*
X187222580Y-130848963D01*
X186996586Y-131016481D01*
X186807615Y-131224869D01*
X186662930Y-131466119D01*
X186568091Y-131730960D01*
X186689376Y-131953000D01*
X187833000Y-131953000D01*
X187833000Y-131933000D01*
X188087000Y-131933000D01*
X188087000Y-131953000D01*
X189230624Y-131953000D01*
X189351909Y-131730960D01*
X189257070Y-131466119D01*
X189112385Y-131224869D01*
X188923414Y-131016481D01*
X188697420Y-130848963D01*
X188628435Y-130816357D01*
X188639727Y-130811680D01*
X188874759Y-130654637D01*
X189074637Y-130454759D01*
X189231680Y-130219727D01*
X189339853Y-129958574D01*
X189395000Y-129681335D01*
X189395000Y-129398665D01*
X189339853Y-129121426D01*
X189231680Y-128860273D01*
X189074637Y-128625241D01*
X188874759Y-128425363D01*
X188639727Y-128268320D01*
X188378574Y-128160147D01*
X188101335Y-128105000D01*
X187818665Y-128105000D01*
X187541426Y-128160147D01*
X187280273Y-128268320D01*
X187045241Y-128425363D01*
X186845363Y-128625241D01*
X186688320Y-128860273D01*
X186580147Y-129121426D01*
X186525000Y-129398665D01*
X184315000Y-129398665D01*
X184259853Y-129121426D01*
X184151680Y-128860273D01*
X183994637Y-128625241D01*
X183794759Y-128425363D01*
X183559727Y-128268320D01*
X183298574Y-128160147D01*
X183021335Y-128105000D01*
X182738665Y-128105000D01*
X182461426Y-128160147D01*
X182200273Y-128268320D01*
X181965241Y-128425363D01*
X181765363Y-128625241D01*
X181608320Y-128860273D01*
X181500147Y-129121426D01*
X181445000Y-129398665D01*
X177965000Y-129398665D01*
X177909853Y-129121426D01*
X177801680Y-128860273D01*
X177644637Y-128625241D01*
X177444759Y-128425363D01*
X177209727Y-128268320D01*
X176948574Y-128160147D01*
X176671335Y-128105000D01*
X176388665Y-128105000D01*
X176111426Y-128160147D01*
X175850273Y-128268320D01*
X175615241Y-128425363D01*
X175415363Y-128625241D01*
X175258320Y-128860273D01*
X175150147Y-129121426D01*
X175095000Y-129398665D01*
X172885000Y-129398665D01*
X172829853Y-129121426D01*
X172721680Y-128860273D01*
X172564637Y-128625241D01*
X172364759Y-128425363D01*
X172129727Y-128268320D01*
X171868574Y-128160147D01*
X171591335Y-128105000D01*
X171308665Y-128105000D01*
X171031426Y-128160147D01*
X170770273Y-128268320D01*
X170535241Y-128425363D01*
X170335363Y-128625241D01*
X170178320Y-128860273D01*
X170070147Y-129121426D01*
X170015000Y-129398665D01*
X166535000Y-129398665D01*
X166479853Y-129121426D01*
X166371680Y-128860273D01*
X166214637Y-128625241D01*
X166014759Y-128425363D01*
X165779727Y-128268320D01*
X165518574Y-128160147D01*
X165241335Y-128105000D01*
X164958665Y-128105000D01*
X164681426Y-128160147D01*
X164420273Y-128268320D01*
X164185241Y-128425363D01*
X163985363Y-128625241D01*
X163828320Y-128860273D01*
X163720147Y-129121426D01*
X163665000Y-129398665D01*
X161455000Y-129398665D01*
X161399853Y-129121426D01*
X161291680Y-128860273D01*
X161134637Y-128625241D01*
X160934759Y-128425363D01*
X160699727Y-128268320D01*
X160438574Y-128160147D01*
X160161335Y-128105000D01*
X159878665Y-128105000D01*
X159601426Y-128160147D01*
X159340273Y-128268320D01*
X159105241Y-128425363D01*
X158905363Y-128625241D01*
X158748320Y-128860273D01*
X158640147Y-129121426D01*
X158585000Y-129398665D01*
X155105000Y-129398665D01*
X155049853Y-129121426D01*
X154941680Y-128860273D01*
X154784637Y-128625241D01*
X154584759Y-128425363D01*
X154349727Y-128268320D01*
X154088574Y-128160147D01*
X153811335Y-128105000D01*
X153528665Y-128105000D01*
X153251426Y-128160147D01*
X152990273Y-128268320D01*
X152755241Y-128425363D01*
X152555363Y-128625241D01*
X152398320Y-128860273D01*
X152290147Y-129121426D01*
X152235000Y-129398665D01*
X150025000Y-129398665D01*
X149969853Y-129121426D01*
X149861680Y-128860273D01*
X149704637Y-128625241D01*
X149504759Y-128425363D01*
X149269727Y-128268320D01*
X149008574Y-128160147D01*
X148731335Y-128105000D01*
X148448665Y-128105000D01*
X148171426Y-128160147D01*
X147910273Y-128268320D01*
X147675241Y-128425363D01*
X147475363Y-128625241D01*
X147318320Y-128860273D01*
X147210147Y-129121426D01*
X147155000Y-129398665D01*
X143675000Y-129398665D01*
X143619853Y-129121426D01*
X143511680Y-128860273D01*
X143354637Y-128625241D01*
X143154759Y-128425363D01*
X142919727Y-128268320D01*
X142658574Y-128160147D01*
X142381335Y-128105000D01*
X142098665Y-128105000D01*
X141821426Y-128160147D01*
X141560273Y-128268320D01*
X141325241Y-128425363D01*
X141125363Y-128625241D01*
X140968320Y-128860273D01*
X140860147Y-129121426D01*
X140805000Y-129398665D01*
X138595000Y-129398665D01*
X138539853Y-129121426D01*
X138431680Y-128860273D01*
X138274637Y-128625241D01*
X138074759Y-128425363D01*
X137839727Y-128268320D01*
X137578574Y-128160147D01*
X137301335Y-128105000D01*
X137018665Y-128105000D01*
X136741426Y-128160147D01*
X136480273Y-128268320D01*
X136245241Y-128425363D01*
X136045363Y-128625241D01*
X135888320Y-128860273D01*
X135780147Y-129121426D01*
X135725000Y-129398665D01*
X126425000Y-129398665D01*
X126425000Y-125595655D01*
X126425518Y-125595812D01*
X126550000Y-125608072D01*
X128804250Y-125605000D01*
X128963000Y-125446250D01*
X128963000Y-123887000D01*
X128943000Y-123887000D01*
X128943000Y-123633000D01*
X128963000Y-123633000D01*
X128963000Y-122073750D01*
X129217000Y-122073750D01*
X129217000Y-123633000D01*
X129237000Y-123633000D01*
X129237000Y-123887000D01*
X129217000Y-123887000D01*
X129217000Y-125446250D01*
X129375750Y-125605000D01*
X131630000Y-125608072D01*
X131754482Y-125595812D01*
X131778042Y-125588665D01*
X134455000Y-125588665D01*
X134455000Y-125871335D01*
X134510147Y-126148574D01*
X134618320Y-126409727D01*
X134775363Y-126644759D01*
X134975241Y-126844637D01*
X135210273Y-127001680D01*
X135471426Y-127109853D01*
X135748665Y-127165000D01*
X136031335Y-127165000D01*
X136308574Y-127109853D01*
X136569727Y-127001680D01*
X136804759Y-126844637D01*
X137004637Y-126644759D01*
X137161680Y-126409727D01*
X137269853Y-126148574D01*
X137325000Y-125871335D01*
X137325000Y-125588665D01*
X137269853Y-125311426D01*
X137161680Y-125050273D01*
X137004637Y-124815241D01*
X136804759Y-124615363D01*
X136569727Y-124458320D01*
X136308574Y-124350147D01*
X136031335Y-124295000D01*
X135748665Y-124295000D01*
X135471426Y-124350147D01*
X135210273Y-124458320D01*
X134975241Y-124615363D01*
X134775363Y-124815241D01*
X134618320Y-125050273D01*
X134510147Y-125311426D01*
X134455000Y-125588665D01*
X131778042Y-125588665D01*
X131874180Y-125559502D01*
X131984494Y-125500537D01*
X132081185Y-125421185D01*
X132160537Y-125324494D01*
X132219502Y-125214180D01*
X132255812Y-125094482D01*
X132268072Y-124970000D01*
X132267670Y-124848986D01*
X132392445Y-124876981D01*
X132613001Y-124882355D01*
X132830367Y-124844596D01*
X133036189Y-124765158D01*
X133084534Y-124739316D01*
X133117811Y-124527416D01*
X133017090Y-124426695D01*
X133078331Y-124355048D01*
X133139493Y-124245937D01*
X133153252Y-124203647D01*
X133297416Y-124347811D01*
X133509316Y-124314534D01*
X133598683Y-124112824D01*
X133646981Y-123897555D01*
X133652355Y-123676999D01*
X133614596Y-123459633D01*
X133535158Y-123253811D01*
X133509316Y-123205466D01*
X133297416Y-123172189D01*
X133153252Y-123316353D01*
X133139493Y-123274063D01*
X133078331Y-123164952D01*
X133017090Y-123093305D01*
X133117811Y-122992584D01*
X133084534Y-122780684D01*
X132882824Y-122691317D01*
X132667555Y-122643019D01*
X132446999Y-122637645D01*
X132267677Y-122668795D01*
X132268072Y-122550000D01*
X132255812Y-122425518D01*
X132219502Y-122305820D01*
X132160537Y-122195506D01*
X132081185Y-122098815D01*
X131984494Y-122019463D01*
X131874180Y-121960498D01*
X131754482Y-121924188D01*
X131630000Y-121911928D01*
X129375750Y-121915000D01*
X129217000Y-122073750D01*
X128963000Y-122073750D01*
X128804250Y-121915000D01*
X126550000Y-121911928D01*
X126425518Y-121924188D01*
X126425000Y-121924345D01*
X126425000Y-121150655D01*
X126425518Y-121150812D01*
X126550000Y-121163072D01*
X131630000Y-121163072D01*
X131754482Y-121150812D01*
X131874180Y-121114502D01*
X131984494Y-121055537D01*
X132081185Y-120976185D01*
X132160537Y-120879494D01*
X132219502Y-120769180D01*
X132255812Y-120649482D01*
X132268072Y-120525000D01*
X132268072Y-120515000D01*
X132574249Y-120515000D01*
X132630000Y-120520491D01*
X132685751Y-120515000D01*
X132685752Y-120515000D01*
X132852499Y-120498577D01*
X133066447Y-120433676D01*
X133263623Y-120328284D01*
X133436449Y-120186449D01*
X133471996Y-120143135D01*
X135640132Y-117975000D01*
X136671479Y-117975000D01*
X136456589Y-118064010D01*
G36*
X198695001Y-113152289D02*
G01*
X196705750Y-113155000D01*
X196547000Y-113313750D01*
X196547000Y-114873000D01*
X196567000Y-114873000D01*
X196567000Y-115127000D01*
X196547000Y-115127000D01*
X196547000Y-116686250D01*
X196705750Y-116845000D01*
X198695001Y-116847711D01*
X198695001Y-117596928D01*
X193880000Y-117596928D01*
X193755518Y-117609188D01*
X193635820Y-117645498D01*
X193525506Y-117704463D01*
X193428815Y-117783815D01*
X193349463Y-117880506D01*
X193290498Y-117990820D01*
X193278072Y-118031781D01*
X193253624Y-118011717D01*
X193056448Y-117906325D01*
X193034928Y-117899797D01*
X191211995Y-116076865D01*
X191176448Y-116033551D01*
X191003622Y-115891716D01*
X190806446Y-115786324D01*
X190592498Y-115721423D01*
X190425751Y-115705000D01*
X190425750Y-115705000D01*
X190369999Y-115699509D01*
X190314248Y-115705000D01*
X188448521Y-115705000D01*
X188663411Y-115615990D01*
X188906632Y-115453475D01*
X189113475Y-115246632D01*
X189222809Y-115083001D01*
X191857645Y-115083001D01*
X191895404Y-115300367D01*
X191974842Y-115506189D01*
X192000684Y-115554534D01*
X192212584Y-115587811D01*
X192356748Y-115443647D01*
X192370507Y-115485937D01*
X192431669Y-115595048D01*
X192492910Y-115666695D01*
X192392189Y-115767416D01*
X192425466Y-115979316D01*
X192627176Y-116068683D01*
X192842445Y-116116981D01*
X193063001Y-116122355D01*
X193242323Y-116091205D01*
X193241928Y-116210000D01*
X193254188Y-116334482D01*
X193290498Y-116454180D01*
X193349463Y-116564494D01*
X193428815Y-116661185D01*
X193525506Y-116740537D01*
X193635820Y-116799502D01*
X193755518Y-116835812D01*
X193880000Y-116848072D01*
X196134250Y-116845000D01*
X196293000Y-116686250D01*
X196293000Y-115127000D01*
X196273000Y-115127000D01*
X196273000Y-114873000D01*
X196293000Y-114873000D01*
X196293000Y-113313750D01*
X196134250Y-113155000D01*
X193880000Y-113151928D01*
X193755518Y-113164188D01*
X193635820Y-113200498D01*
X193525506Y-113259463D01*
X193428815Y-113338815D01*
X193349463Y-113435506D01*
X193290498Y-113545820D01*
X193254188Y-113665518D01*
X193241928Y-113790000D01*
X193242330Y-113911014D01*
X193117555Y-113883019D01*
X192896999Y-113877645D01*
X192679633Y-113915404D01*
X192473811Y-113994842D01*
X192425466Y-114020684D01*
X192392189Y-114232584D01*
X192492910Y-114333305D01*
X192431669Y-114404952D01*
X192370507Y-114514063D01*
X192356748Y-114556353D01*
X192212584Y-114412189D01*
X192000684Y-114445466D01*
X191911317Y-114647176D01*
X191863019Y-114862445D01*
X191857645Y-115083001D01*
X189222809Y-115083001D01*
X189275990Y-115003411D01*
X189387932Y-114733158D01*
X189445000Y-114446260D01*
X189445000Y-114153740D01*
X189387932Y-113866842D01*
X189275990Y-113596589D01*
X189113475Y-113353368D01*
X188906632Y-113146525D01*
X188663411Y-112984010D01*
X188393158Y-112872068D01*
X188106260Y-112815000D01*
X187813740Y-112815000D01*
X187526842Y-112872068D01*
X187256589Y-112984010D01*
X187013368Y-113146525D01*
X186806525Y-113353368D01*
X186690000Y-113527760D01*
X186573475Y-113353368D01*
X186366632Y-113146525D01*
X186123411Y-112984010D01*
X185853158Y-112872068D01*
X185566260Y-112815000D01*
X185273740Y-112815000D01*
X184986842Y-112872068D01*
X184716589Y-112984010D01*
X184473368Y-113146525D01*
X184341513Y-113278380D01*
X184319502Y-113205820D01*
X184260537Y-113095506D01*
X184181185Y-112998815D01*
X184084494Y-112919463D01*
X183974180Y-112860498D01*
X183854482Y-112824188D01*
X183730000Y-112811928D01*
X182030000Y-112811928D01*
X181905518Y-112824188D01*
X181785820Y-112860498D01*
X181675506Y-112919463D01*
X181578815Y-112998815D01*
X181499463Y-113095506D01*
X181440498Y-113205820D01*
X181404188Y-113325518D01*
X181391928Y-113450000D01*
X181391928Y-115150000D01*
X181404188Y-115274482D01*
X181440498Y-115394180D01*
X181499463Y-115504494D01*
X181578815Y-115601185D01*
X181675506Y-115680537D01*
X181721272Y-115705000D01*
X177018521Y-115705000D01*
X177233411Y-115615990D01*
X177476632Y-115453475D01*
X177683475Y-115246632D01*
X177845990Y-115003411D01*
X177957932Y-114733158D01*
X178015000Y-114446260D01*
X178015000Y-114153740D01*
X177957932Y-113866842D01*
X177845990Y-113596589D01*
X177683475Y-113353368D01*
X177476632Y-113146525D01*
X177233411Y-112984010D01*
X176963158Y-112872068D01*
X176676260Y-112815000D01*
X176383740Y-112815000D01*
X176096842Y-112872068D01*
X175826589Y-112984010D01*
X175583368Y-113146525D01*
X175376525Y-113353368D01*
X175260000Y-113527760D01*
X175143475Y-113353368D01*
X174936632Y-113146525D01*
X174693411Y-112984010D01*
X174423158Y-112872068D01*
X174136260Y-112815000D01*
X173843740Y-112815000D01*
X173556842Y-112872068D01*
X173286589Y-112984010D01*
X173043368Y-113146525D01*
X172911513Y-113278380D01*
X172889502Y-113205820D01*
X172830537Y-113095506D01*
X172751185Y-112998815D01*
X172654494Y-112919463D01*
X172544180Y-112860498D01*
X172424482Y-112824188D01*
X172300000Y-112811928D01*
X170600000Y-112811928D01*
X170475518Y-112824188D01*
X170355820Y-112860498D01*
X170245506Y-112919463D01*
X170148815Y-112998815D01*
X170069463Y-113095506D01*
X170010498Y-113205820D01*
X169974188Y-113325518D01*
X169961928Y-113450000D01*
X169961928Y-115150000D01*
X169974188Y-115274482D01*
X170010498Y-115394180D01*
X170069463Y-115504494D01*
X170148815Y-115601185D01*
X170245506Y-115680537D01*
X170291272Y-115705000D01*
X165588521Y-115705000D01*
X165803411Y-115615990D01*
X166046632Y-115453475D01*
X166253475Y-115246632D01*
X166415990Y-115003411D01*
X166527932Y-114733158D01*
X166585000Y-114446260D01*
X166585000Y-114153740D01*
X166527932Y-113866842D01*
X166415990Y-113596589D01*
X166253475Y-113353368D01*
X166046632Y-113146525D01*
X165803411Y-112984010D01*
X165533158Y-112872068D01*
X165246260Y-112815000D01*
X164953740Y-112815000D01*
X164666842Y-112872068D01*
X164396589Y-112984010D01*
X164153368Y-113146525D01*
X163946525Y-113353368D01*
X163830000Y-113527760D01*
X163713475Y-113353368D01*
X163506632Y-113146525D01*
X163263411Y-112984010D01*
X162993158Y-112872068D01*
X162706260Y-112815000D01*
X162413740Y-112815000D01*
X162126842Y-112872068D01*
X161856589Y-112984010D01*
X161613368Y-113146525D01*
X161481513Y-113278380D01*
X161459502Y-113205820D01*
X161400537Y-113095506D01*
X161321185Y-112998815D01*
X161224494Y-112919463D01*
X161114180Y-112860498D01*
X160994482Y-112824188D01*
X160870000Y-112811928D01*
X159170000Y-112811928D01*
X159045518Y-112824188D01*
X158925820Y-112860498D01*
X158815506Y-112919463D01*
X158718815Y-112998815D01*
X158639463Y-113095506D01*
X158580498Y-113205820D01*
X158544188Y-113325518D01*
X158531928Y-113450000D01*
X158531928Y-115150000D01*
X158544188Y-115274482D01*
X158580498Y-115394180D01*
X158639463Y-115504494D01*
X158718815Y-115601185D01*
X158815506Y-115680537D01*
X158861272Y-115705000D01*
X154158521Y-115705000D01*
X154373411Y-115615990D01*
X154616632Y-115453475D01*
X154823475Y-115246632D01*
X154985990Y-115003411D01*
X155097932Y-114733158D01*
X155155000Y-114446260D01*
X155155000Y-114153740D01*
X155097932Y-113866842D01*
X154985990Y-113596589D01*
X154823475Y-113353368D01*
X154616632Y-113146525D01*
X154373411Y-112984010D01*
X154103158Y-112872068D01*
X153816260Y-112815000D01*
X153523740Y-112815000D01*
X153236842Y-112872068D01*
X152966589Y-112984010D01*
X152723368Y-113146525D01*
X152516525Y-113353368D01*
X152400000Y-113527760D01*
X152283475Y-113353368D01*
X152076632Y-113146525D01*
X151833411Y-112984010D01*
X151563158Y-112872068D01*
X151276260Y-112815000D01*
X150983740Y-112815000D01*
X150696842Y-112872068D01*
X150426589Y-112984010D01*
X150183368Y-113146525D01*
X150051513Y-113278380D01*
X150029502Y-113205820D01*
X149970537Y-113095506D01*
X149891185Y-112998815D01*
X149794494Y-112919463D01*
X149684180Y-112860498D01*
X149564482Y-112824188D01*
X149440000Y-112811928D01*
X147740000Y-112811928D01*
X147615518Y-112824188D01*
X147495820Y-112860498D01*
X147385506Y-112919463D01*
X147288815Y-112998815D01*
X147209463Y-113095506D01*
X147150498Y-113205820D01*
X147114188Y-113325518D01*
X147101928Y-113450000D01*
X147101928Y-115150000D01*
X147114188Y-115274482D01*
X147150498Y-115394180D01*
X147209463Y-115504494D01*
X147288815Y-115601185D01*
X147385506Y-115680537D01*
X147431272Y-115705000D01*
X142728521Y-115705000D01*
X142943411Y-115615990D01*
X143186632Y-115453475D01*
X143393475Y-115246632D01*
X143555990Y-115003411D01*
X143667932Y-114733158D01*
X143725000Y-114446260D01*
X143725000Y-114153740D01*
X143667932Y-113866842D01*
X143555990Y-113596589D01*
X143393475Y-113353368D01*
X143186632Y-113146525D01*
X142943411Y-112984010D01*
X142673158Y-112872068D01*
X142386260Y-112815000D01*
X142093740Y-112815000D01*
X141806842Y-112872068D01*
X141536589Y-112984010D01*
X141293368Y-113146525D01*
X141086525Y-113353368D01*
X140970000Y-113527760D01*
X140853475Y-113353368D01*
X140646632Y-113146525D01*
X140403411Y-112984010D01*
X140133158Y-112872068D01*
X139846260Y-112815000D01*
X139553740Y-112815000D01*
X139266842Y-112872068D01*
X138996589Y-112984010D01*
X138753368Y-113146525D01*
X138621513Y-113278380D01*
X138599502Y-113205820D01*
X138540537Y-113095506D01*
X138461185Y-112998815D01*
X138364494Y-112919463D01*
X138254180Y-112860498D01*
X138134482Y-112824188D01*
X138010000Y-112811928D01*
X136310000Y-112811928D01*
X136185518Y-112824188D01*
X136065820Y-112860498D01*
X135955506Y-112919463D01*
X135858815Y-112998815D01*
X135779463Y-113095506D01*
X135720498Y-113205820D01*
X135684188Y-113325518D01*
X135671928Y-113450000D01*
X135671928Y-115150000D01*
X135684188Y-115274482D01*
X135720498Y-115394180D01*
X135779463Y-115504494D01*
X135858815Y-115601185D01*
X135955506Y-115680537D01*
X136001272Y-115705000D01*
X135225741Y-115705000D01*
X135169999Y-115699510D01*
X135114257Y-115705000D01*
X135114248Y-115705000D01*
X134947501Y-115721423D01*
X134733553Y-115786324D01*
X134536377Y-115891716D01*
X134363551Y-116033551D01*
X134328011Y-116076857D01*
X132259267Y-118145602D01*
X132255812Y-118110518D01*
X132219502Y-117990820D01*
X132160537Y-117880506D01*
X132081185Y-117783815D01*
X131984494Y-117704463D01*
X131874180Y-117645498D01*
X131754482Y-117609188D01*
X131630000Y-117596928D01*
X126550000Y-117596928D01*
X126425518Y-117609188D01*
X126425000Y-117609345D01*
X126425000Y-116835655D01*
X126425518Y-116835812D01*
X126550000Y-116848072D01*
X128804250Y-116845000D01*
X128963000Y-116686250D01*
X128963000Y-115127000D01*
X128943000Y-115127000D01*
X128943000Y-114873000D01*
X128963000Y-114873000D01*
X128963000Y-113313750D01*
X129217000Y-113313750D01*
X129217000Y-114873000D01*
X129237000Y-114873000D01*
X129237000Y-115127000D01*
X129217000Y-115127000D01*
X129217000Y-116686250D01*
X129375750Y-116845000D01*
X131630000Y-116848072D01*
X131754482Y-116835812D01*
X131874180Y-116799502D01*
X131984494Y-116740537D01*
X132081185Y-116661185D01*
X132160537Y-116564494D01*
X132219502Y-116454180D01*
X132255812Y-116334482D01*
X132268072Y-116210000D01*
X132267670Y-116088986D01*
X132392445Y-116116981D01*
X132613001Y-116122355D01*
X132830367Y-116084596D01*
X133036189Y-116005158D01*
X133084534Y-115979316D01*
X133117811Y-115767416D01*
X133017090Y-115666695D01*
X133078331Y-115595048D01*
X133139493Y-115485937D01*
X133153252Y-115443647D01*
X133297416Y-115587811D01*
X133509316Y-115554534D01*
X133598683Y-115352824D01*
X133646981Y-115137555D01*
X133652355Y-114916999D01*
X133614596Y-114699633D01*
X133535158Y-114493811D01*
X133509316Y-114445466D01*
X133297416Y-114412189D01*
X133153252Y-114556353D01*
X133139493Y-114514063D01*
X133078331Y-114404952D01*
X133017090Y-114333305D01*
X133117811Y-114232584D01*
X133084534Y-114020684D01*
X132882824Y-113931317D01*
X132667555Y-113883019D01*
X132446999Y-113877645D01*
X132267677Y-113908795D01*
X132268072Y-113790000D01*
X132255812Y-113665518D01*
X132219502Y-113545820D01*
X132160537Y-113435506D01*
X132081185Y-113338815D01*
X131984494Y-113259463D01*
X131874180Y-113200498D01*
X131754482Y-113164188D01*
X131630000Y-113151928D01*
X129375750Y-113155000D01*
X129217000Y-113313750D01*
X128963000Y-113313750D01*
X128804250Y-113155000D01*
X126550000Y-113151928D01*
X126425518Y-113164188D01*
X126425000Y-113164345D01*
X126425000Y-112455000D01*
X198695001Y-112455000D01*
X198695001Y-113152289D01*
G37*
X198695001Y-113152289D02*
X196705750Y-113155000D01*
X196547000Y-113313750D01*
X196547000Y-114873000D01*
X196567000Y-114873000D01*
X196567000Y-115127000D01*
X196547000Y-115127000D01*
X196547000Y-116686250D01*
X196705750Y-116845000D01*
X198695001Y-116847711D01*
X198695001Y-117596928D01*
X193880000Y-117596928D01*
X193755518Y-117609188D01*
X193635820Y-117645498D01*
X193525506Y-117704463D01*
X193428815Y-117783815D01*
X193349463Y-117880506D01*
X193290498Y-117990820D01*
X193278072Y-118031781D01*
X193253624Y-118011717D01*
X193056448Y-117906325D01*
X193034928Y-117899797D01*
X191211995Y-116076865D01*
X191176448Y-116033551D01*
X191003622Y-115891716D01*
X190806446Y-115786324D01*
X190592498Y-115721423D01*
X190425751Y-115705000D01*
X190425750Y-115705000D01*
X190369999Y-115699509D01*
X190314248Y-115705000D01*
X188448521Y-115705000D01*
X188663411Y-115615990D01*
X188906632Y-115453475D01*
X189113475Y-115246632D01*
X189222809Y-115083001D01*
X191857645Y-115083001D01*
X191895404Y-115300367D01*
X191974842Y-115506189D01*
X192000684Y-115554534D01*
X192212584Y-115587811D01*
X192356748Y-115443647D01*
X192370507Y-115485937D01*
X192431669Y-115595048D01*
X192492910Y-115666695D01*
X192392189Y-115767416D01*
X192425466Y-115979316D01*
X192627176Y-116068683D01*
X192842445Y-116116981D01*
X193063001Y-116122355D01*
X193242323Y-116091205D01*
X193241928Y-116210000D01*
X193254188Y-116334482D01*
X193290498Y-116454180D01*
X193349463Y-116564494D01*
X193428815Y-116661185D01*
X193525506Y-116740537D01*
X193635820Y-116799502D01*
X193755518Y-116835812D01*
X193880000Y-116848072D01*
X196134250Y-116845000D01*
X196293000Y-116686250D01*
X196293000Y-115127000D01*
X196273000Y-115127000D01*
X196273000Y-114873000D01*
X196293000Y-114873000D01*
X196293000Y-113313750D01*
X196134250Y-113155000D01*
X193880000Y-113151928D01*
X193755518Y-113164188D01*
X193635820Y-113200498D01*
X193525506Y-113259463D01*
X193428815Y-113338815D01*
X193349463Y-113435506D01*
X193290498Y-113545820D01*
X193254188Y-113665518D01*
X193241928Y-113790000D01*
X193242330Y-113911014D01*
X193117555Y-113883019D01*
X192896999Y-113877645D01*
X192679633Y-113915404D01*
X192473811Y-113994842D01*
X192425466Y-114020684D01*
X192392189Y-114232584D01*
X192492910Y-114333305D01*
X192431669Y-114404952D01*
X192370507Y-114514063D01*
X192356748Y-114556353D01*
X192212584Y-114412189D01*
X192000684Y-114445466D01*
X191911317Y-114647176D01*
X191863019Y-114862445D01*
X191857645Y-115083001D01*
X189222809Y-115083001D01*
X189275990Y-115003411D01*
X189387932Y-114733158D01*
X189445000Y-114446260D01*
X189445000Y-114153740D01*
X189387932Y-113866842D01*
X189275990Y-113596589D01*
X189113475Y-113353368D01*
X188906632Y-113146525D01*
X188663411Y-112984010D01*
X188393158Y-112872068D01*
X188106260Y-112815000D01*
X187813740Y-112815000D01*
X187526842Y-112872068D01*
X187256589Y-112984010D01*
X187013368Y-113146525D01*
X186806525Y-113353368D01*
X186690000Y-113527760D01*
X186573475Y-113353368D01*
X186366632Y-113146525D01*
X186123411Y-112984010D01*
X185853158Y-112872068D01*
X185566260Y-112815000D01*
X185273740Y-112815000D01*
X184986842Y-112872068D01*
X184716589Y-112984010D01*
X184473368Y-113146525D01*
X184341513Y-113278380D01*
X184319502Y-113205820D01*
X184260537Y-113095506D01*
X184181185Y-112998815D01*
X184084494Y-112919463D01*
X183974180Y-112860498D01*
X183854482Y-112824188D01*
X183730000Y-112811928D01*
X182030000Y-112811928D01*
X181905518Y-112824188D01*
X181785820Y-112860498D01*
X181675506Y-112919463D01*
X181578815Y-112998815D01*
X181499463Y-113095506D01*
X181440498Y-113205820D01*
X181404188Y-113325518D01*
X181391928Y-113450000D01*
X181391928Y-115150000D01*
X181404188Y-115274482D01*
X181440498Y-115394180D01*
X181499463Y-115504494D01*
X181578815Y-115601185D01*
X181675506Y-115680537D01*
X181721272Y-115705000D01*
X177018521Y-115705000D01*
X177233411Y-115615990D01*
X177476632Y-115453475D01*
X177683475Y-115246632D01*
X177845990Y-115003411D01*
X177957932Y-114733158D01*
X178015000Y-114446260D01*
X178015000Y-114153740D01*
X177957932Y-113866842D01*
X177845990Y-113596589D01*
X177683475Y-113353368D01*
X177476632Y-113146525D01*
X177233411Y-112984010D01*
X176963158Y-112872068D01*
X176676260Y-112815000D01*
X176383740Y-112815000D01*
X176096842Y-112872068D01*
X175826589Y-112984010D01*
X175583368Y-113146525D01*
X175376525Y-113353368D01*
X175260000Y-113527760D01*
X175143475Y-113353368D01*
X174936632Y-113146525D01*
X174693411Y-112984010D01*
X174423158Y-112872068D01*
X174136260Y-112815000D01*
X173843740Y-112815000D01*
X173556842Y-112872068D01*
X173286589Y-112984010D01*
X173043368Y-113146525D01*
X172911513Y-113278380D01*
X172889502Y-113205820D01*
X172830537Y-113095506D01*
X172751185Y-112998815D01*
X172654494Y-112919463D01*
X172544180Y-112860498D01*
X172424482Y-112824188D01*
X172300000Y-112811928D01*
X170600000Y-112811928D01*
X170475518Y-112824188D01*
X170355820Y-112860498D01*
X170245506Y-112919463D01*
X170148815Y-112998815D01*
X170069463Y-113095506D01*
X170010498Y-113205820D01*
X169974188Y-113325518D01*
X169961928Y-113450000D01*
X169961928Y-115150000D01*
X169974188Y-115274482D01*
X170010498Y-115394180D01*
X170069463Y-115504494D01*
X170148815Y-115601185D01*
X170245506Y-115680537D01*
X170291272Y-115705000D01*
X165588521Y-115705000D01*
X165803411Y-115615990D01*
X166046632Y-115453475D01*
X166253475Y-115246632D01*
X166415990Y-115003411D01*
X166527932Y-114733158D01*
X166585000Y-114446260D01*
X166585000Y-114153740D01*
X166527932Y-113866842D01*
X166415990Y-113596589D01*
X166253475Y-113353368D01*
X166046632Y-113146525D01*
X165803411Y-112984010D01*
X165533158Y-112872068D01*
X165246260Y-112815000D01*
X164953740Y-112815000D01*
X164666842Y-112872068D01*
X164396589Y-112984010D01*
X164153368Y-113146525D01*
X163946525Y-113353368D01*
X163830000Y-113527760D01*
X163713475Y-113353368D01*
X163506632Y-113146525D01*
X163263411Y-112984010D01*
X162993158Y-112872068D01*
X162706260Y-112815000D01*
X162413740Y-112815000D01*
X162126842Y-112872068D01*
X161856589Y-112984010D01*
X161613368Y-113146525D01*
X161481513Y-113278380D01*
X161459502Y-113205820D01*
X161400537Y-113095506D01*
X161321185Y-112998815D01*
X161224494Y-112919463D01*
X161114180Y-112860498D01*
X160994482Y-112824188D01*
X160870000Y-112811928D01*
X159170000Y-112811928D01*
X159045518Y-112824188D01*
X158925820Y-112860498D01*
X158815506Y-112919463D01*
X158718815Y-112998815D01*
X158639463Y-113095506D01*
X158580498Y-113205820D01*
X158544188Y-113325518D01*
X158531928Y-113450000D01*
X158531928Y-115150000D01*
X158544188Y-115274482D01*
X158580498Y-115394180D01*
X158639463Y-115504494D01*
X158718815Y-115601185D01*
X158815506Y-115680537D01*
X158861272Y-115705000D01*
X154158521Y-115705000D01*
X154373411Y-115615990D01*
X154616632Y-115453475D01*
X154823475Y-115246632D01*
X154985990Y-115003411D01*
X155097932Y-114733158D01*
X155155000Y-114446260D01*
X155155000Y-114153740D01*
X155097932Y-113866842D01*
X154985990Y-113596589D01*
X154823475Y-113353368D01*
X154616632Y-113146525D01*
X154373411Y-112984010D01*
X154103158Y-112872068D01*
X153816260Y-112815000D01*
X153523740Y-112815000D01*
X153236842Y-112872068D01*
X152966589Y-112984010D01*
X152723368Y-113146525D01*
X152516525Y-113353368D01*
X152400000Y-113527760D01*
X152283475Y-113353368D01*
X152076632Y-113146525D01*
X151833411Y-112984010D01*
X151563158Y-112872068D01*
X151276260Y-112815000D01*
X150983740Y-112815000D01*
X150696842Y-112872068D01*
X150426589Y-112984010D01*
X150183368Y-113146525D01*
X150051513Y-113278380D01*
X150029502Y-113205820D01*
X149970537Y-113095506D01*
X149891185Y-112998815D01*
X149794494Y-112919463D01*
X149684180Y-112860498D01*
X149564482Y-112824188D01*
X149440000Y-112811928D01*
X147740000Y-112811928D01*
X147615518Y-112824188D01*
X147495820Y-112860498D01*
X147385506Y-112919463D01*
X147288815Y-112998815D01*
X147209463Y-113095506D01*
X147150498Y-113205820D01*
X147114188Y-113325518D01*
X147101928Y-113450000D01*
X147101928Y-115150000D01*
X147114188Y-115274482D01*
X147150498Y-115394180D01*
X147209463Y-115504494D01*
X147288815Y-115601185D01*
X147385506Y-115680537D01*
X147431272Y-115705000D01*
X142728521Y-115705000D01*
X142943411Y-115615990D01*
X143186632Y-115453475D01*
X143393475Y-115246632D01*
X143555990Y-115003411D01*
X143667932Y-114733158D01*
X143725000Y-114446260D01*
X143725000Y-114153740D01*
X143667932Y-113866842D01*
X143555990Y-113596589D01*
X143393475Y-113353368D01*
X143186632Y-113146525D01*
X142943411Y-112984010D01*
X142673158Y-112872068D01*
X142386260Y-112815000D01*
X142093740Y-112815000D01*
X141806842Y-112872068D01*
X141536589Y-112984010D01*
X141293368Y-113146525D01*
X141086525Y-113353368D01*
X140970000Y-113527760D01*
X140853475Y-113353368D01*
X140646632Y-113146525D01*
X140403411Y-112984010D01*
X140133158Y-112872068D01*
X139846260Y-112815000D01*
X139553740Y-112815000D01*
X139266842Y-112872068D01*
X138996589Y-112984010D01*
X138753368Y-113146525D01*
X138621513Y-113278380D01*
X138599502Y-113205820D01*
X138540537Y-113095506D01*
X138461185Y-112998815D01*
X138364494Y-112919463D01*
X138254180Y-112860498D01*
X138134482Y-112824188D01*
X138010000Y-112811928D01*
X136310000Y-112811928D01*
X136185518Y-112824188D01*
X136065820Y-112860498D01*
X135955506Y-112919463D01*
X135858815Y-112998815D01*
X135779463Y-113095506D01*
X135720498Y-113205820D01*
X135684188Y-113325518D01*
X135671928Y-113450000D01*
X135671928Y-115150000D01*
X135684188Y-115274482D01*
X135720498Y-115394180D01*
X135779463Y-115504494D01*
X135858815Y-115601185D01*
X135955506Y-115680537D01*
X136001272Y-115705000D01*
X135225741Y-115705000D01*
X135169999Y-115699510D01*
X135114257Y-115705000D01*
X135114248Y-115705000D01*
X134947501Y-115721423D01*
X134733553Y-115786324D01*
X134536377Y-115891716D01*
X134363551Y-116033551D01*
X134328011Y-116076857D01*
X132259267Y-118145602D01*
X132255812Y-118110518D01*
X132219502Y-117990820D01*
X132160537Y-117880506D01*
X132081185Y-117783815D01*
X131984494Y-117704463D01*
X131874180Y-117645498D01*
X131754482Y-117609188D01*
X131630000Y-117596928D01*
X126550000Y-117596928D01*
X126425518Y-117609188D01*
X126425000Y-117609345D01*
X126425000Y-116835655D01*
X126425518Y-116835812D01*
X126550000Y-116848072D01*
X128804250Y-116845000D01*
X128963000Y-116686250D01*
X128963000Y-115127000D01*
X128943000Y-115127000D01*
X128943000Y-114873000D01*
X128963000Y-114873000D01*
X128963000Y-113313750D01*
X129217000Y-113313750D01*
X129217000Y-114873000D01*
X129237000Y-114873000D01*
X129237000Y-115127000D01*
X129217000Y-115127000D01*
X129217000Y-116686250D01*
X129375750Y-116845000D01*
X131630000Y-116848072D01*
X131754482Y-116835812D01*
X131874180Y-116799502D01*
X131984494Y-116740537D01*
X132081185Y-116661185D01*
X132160537Y-116564494D01*
X132219502Y-116454180D01*
X132255812Y-116334482D01*
X132268072Y-116210000D01*
X132267670Y-116088986D01*
X132392445Y-116116981D01*
X132613001Y-116122355D01*
X132830367Y-116084596D01*
X133036189Y-116005158D01*
X133084534Y-115979316D01*
X133117811Y-115767416D01*
X133017090Y-115666695D01*
X133078331Y-115595048D01*
X133139493Y-115485937D01*
X133153252Y-115443647D01*
X133297416Y-115587811D01*
X133509316Y-115554534D01*
X133598683Y-115352824D01*
X133646981Y-115137555D01*
X133652355Y-114916999D01*
X133614596Y-114699633D01*
X133535158Y-114493811D01*
X133509316Y-114445466D01*
X133297416Y-114412189D01*
X133153252Y-114556353D01*
X133139493Y-114514063D01*
X133078331Y-114404952D01*
X133017090Y-114333305D01*
X133117811Y-114232584D01*
X133084534Y-114020684D01*
X132882824Y-113931317D01*
X132667555Y-113883019D01*
X132446999Y-113877645D01*
X132267677Y-113908795D01*
X132268072Y-113790000D01*
X132255812Y-113665518D01*
X132219502Y-113545820D01*
X132160537Y-113435506D01*
X132081185Y-113338815D01*
X131984494Y-113259463D01*
X131874180Y-113200498D01*
X131754482Y-113164188D01*
X131630000Y-113151928D01*
X129375750Y-113155000D01*
X129217000Y-113313750D01*
X128963000Y-113313750D01*
X128804250Y-113155000D01*
X126550000Y-113151928D01*
X126425518Y-113164188D01*
X126425000Y-113164345D01*
X126425000Y-112455000D01*
X198695001Y-112455000D01*
X198695001Y-113152289D01*
M02*
