G04 #@! TF.GenerationSoftware,KiCad,Pcbnew,(5.1.5)-3*
G04 #@! TF.CreationDate,2020-04-03T09:15:43-04:00*
G04 #@! TF.ProjectId,Project,50726f6a-6563-4742-9e6b-696361645f70,rev?*
G04 #@! TF.SameCoordinates,Original*
G04 #@! TF.FileFunction,Legend,Bot*
G04 #@! TF.FilePolarity,Positive*
%FSLAX46Y46*%
G04 Gerber Fmt 4.6, Leading zero omitted, Abs format (unit mm)*
G04 Created by KiCad (PCBNEW (5.1.5)-3) date 2020-04-03 09:15:43*
%MOMM*%
%LPD*%
G04 APERTURE LIST*
%ADD10C,0.150000*%
G04 APERTURE END LIST*
D10*
X195833809Y-128167380D02*
X195595714Y-129167380D01*
X195405238Y-128453095D01*
X195214761Y-129167380D01*
X194976666Y-128167380D01*
X194690952Y-128167380D02*
X194452857Y-129167380D01*
X194262380Y-128453095D01*
X194071904Y-129167380D01*
X193833809Y-128167380D01*
X193452857Y-128167380D02*
X193452857Y-128976904D01*
X193405238Y-129072142D01*
X193357619Y-129119761D01*
X193262380Y-129167380D01*
X193071904Y-129167380D01*
X192976666Y-129119761D01*
X192929047Y-129072142D01*
X192881428Y-128976904D01*
X192881428Y-128167380D01*
X197857619Y-130293571D02*
X197524285Y-130293571D01*
X197381428Y-130817380D02*
X197857619Y-130817380D01*
X197857619Y-129817380D01*
X197381428Y-129817380D01*
X196952857Y-130817380D02*
X196952857Y-129817380D01*
X196381428Y-130817380D01*
X196381428Y-129817380D01*
X195381428Y-129865000D02*
X195476666Y-129817380D01*
X195619523Y-129817380D01*
X195762380Y-129865000D01*
X195857619Y-129960238D01*
X195905238Y-130055476D01*
X195952857Y-130245952D01*
X195952857Y-130388809D01*
X195905238Y-130579285D01*
X195857619Y-130674523D01*
X195762380Y-130769761D01*
X195619523Y-130817380D01*
X195524285Y-130817380D01*
X195381428Y-130769761D01*
X195333809Y-130722142D01*
X195333809Y-130388809D01*
X195524285Y-130388809D01*
X194333809Y-130817380D02*
X194667142Y-130341190D01*
X194905238Y-130817380D02*
X194905238Y-129817380D01*
X194524285Y-129817380D01*
X194429047Y-129865000D01*
X194381428Y-129912619D01*
X194333809Y-130007857D01*
X194333809Y-130150714D01*
X194381428Y-130245952D01*
X194429047Y-130293571D01*
X194524285Y-130341190D01*
X194905238Y-130341190D01*
X193238571Y-129817380D02*
X192619523Y-129817380D01*
X192952857Y-130198333D01*
X192810000Y-130198333D01*
X192714761Y-130245952D01*
X192667142Y-130293571D01*
X192619523Y-130388809D01*
X192619523Y-130626904D01*
X192667142Y-130722142D01*
X192714761Y-130769761D01*
X192810000Y-130817380D01*
X193095714Y-130817380D01*
X193190952Y-130769761D01*
X193238571Y-130722142D01*
X191714761Y-129817380D02*
X192190952Y-129817380D01*
X192238571Y-130293571D01*
X192190952Y-130245952D01*
X192095714Y-130198333D01*
X191857619Y-130198333D01*
X191762380Y-130245952D01*
X191714761Y-130293571D01*
X191667142Y-130388809D01*
X191667142Y-130626904D01*
X191714761Y-130722142D01*
X191762380Y-130769761D01*
X191857619Y-130817380D01*
X192095714Y-130817380D01*
X192190952Y-130769761D01*
X192238571Y-130722142D01*
X191333809Y-129817380D02*
X190667142Y-129817380D01*
X191095714Y-130817380D01*
X132095714Y-129072142D02*
X132143333Y-129119761D01*
X132286190Y-129167380D01*
X132381428Y-129167380D01*
X132524285Y-129119761D01*
X132619523Y-129024523D01*
X132667142Y-128929285D01*
X132714761Y-128738809D01*
X132714761Y-128595952D01*
X132667142Y-128405476D01*
X132619523Y-128310238D01*
X132524285Y-128215000D01*
X132381428Y-128167380D01*
X132286190Y-128167380D01*
X132143333Y-128215000D01*
X132095714Y-128262619D01*
X131238571Y-129167380D02*
X131238571Y-128643571D01*
X131286190Y-128548333D01*
X131381428Y-128500714D01*
X131571904Y-128500714D01*
X131667142Y-128548333D01*
X131238571Y-129119761D02*
X131333809Y-129167380D01*
X131571904Y-129167380D01*
X131667142Y-129119761D01*
X131714761Y-129024523D01*
X131714761Y-128929285D01*
X131667142Y-128834047D01*
X131571904Y-128786428D01*
X131333809Y-128786428D01*
X131238571Y-128738809D01*
X130619523Y-129167380D02*
X130714761Y-129119761D01*
X130762380Y-129024523D01*
X130762380Y-128167380D01*
X129857619Y-129119761D02*
X129952857Y-129167380D01*
X130143333Y-129167380D01*
X130238571Y-129119761D01*
X130286190Y-129024523D01*
X130286190Y-128643571D01*
X130238571Y-128548333D01*
X130143333Y-128500714D01*
X129952857Y-128500714D01*
X129857619Y-128548333D01*
X129810000Y-128643571D01*
X129810000Y-128738809D01*
X130286190Y-128834047D01*
X129381428Y-129167380D02*
X129381428Y-128167380D01*
X129381428Y-128548333D02*
X129286190Y-128500714D01*
X129095714Y-128500714D01*
X129000476Y-128548333D01*
X128952857Y-128595952D01*
X128905238Y-128691190D01*
X128905238Y-128976904D01*
X128952857Y-129072142D01*
X129000476Y-129119761D01*
X129095714Y-129167380D01*
X129286190Y-129167380D01*
X129381428Y-129119761D01*
X133238571Y-130293571D02*
X133571904Y-130293571D01*
X133571904Y-130817380D02*
X133571904Y-129817380D01*
X133095714Y-129817380D01*
X132714761Y-130817380D02*
X132714761Y-130150714D01*
X132714761Y-130341190D02*
X132667142Y-130245952D01*
X132619523Y-130198333D01*
X132524285Y-130150714D01*
X132429047Y-130150714D01*
X131952857Y-130817380D02*
X132048095Y-130769761D01*
X132095714Y-130722142D01*
X132143333Y-130626904D01*
X132143333Y-130341190D01*
X132095714Y-130245952D01*
X132048095Y-130198333D01*
X131952857Y-130150714D01*
X131810000Y-130150714D01*
X131714761Y-130198333D01*
X131667142Y-130245952D01*
X131619523Y-130341190D01*
X131619523Y-130626904D01*
X131667142Y-130722142D01*
X131714761Y-130769761D01*
X131810000Y-130817380D01*
X131952857Y-130817380D01*
X130810000Y-130769761D02*
X130905238Y-130817380D01*
X131095714Y-130817380D01*
X131190952Y-130769761D01*
X131238571Y-130674523D01*
X131238571Y-130293571D01*
X131190952Y-130198333D01*
X131095714Y-130150714D01*
X130905238Y-130150714D01*
X130810000Y-130198333D01*
X130762380Y-130293571D01*
X130762380Y-130388809D01*
X131238571Y-130484047D01*
X130190952Y-130817380D02*
X130286190Y-130769761D01*
X130333809Y-130674523D01*
X130333809Y-129817380D01*
X129810000Y-130817380D02*
X129810000Y-130150714D01*
X129810000Y-129817380D02*
X129857619Y-129865000D01*
X129810000Y-129912619D01*
X129762380Y-129865000D01*
X129810000Y-129817380D01*
X129810000Y-129912619D01*
X128905238Y-130769761D02*
X129000476Y-130817380D01*
X129190952Y-130817380D01*
X129286190Y-130769761D01*
X129333809Y-130722142D01*
X129381428Y-130626904D01*
X129381428Y-130341190D01*
X129333809Y-130245952D01*
X129286190Y-130198333D01*
X129190952Y-130150714D01*
X129000476Y-130150714D01*
X128905238Y-130198333D01*
X128476666Y-130817380D02*
X128476666Y-129817380D01*
X128048095Y-130817380D02*
X128048095Y-130293571D01*
X128095714Y-130198333D01*
X128190952Y-130150714D01*
X128333809Y-130150714D01*
X128429047Y-130198333D01*
X128476666Y-130245952D01*
M02*
