G04 #@! TF.GenerationSoftware,KiCad,Pcbnew,(5.1.5)-3*
G04 #@! TF.CreationDate,2020-04-03T09:15:43-04:00*
G04 #@! TF.ProjectId,Project,50726f6a-6563-4742-9e6b-696361645f70,rev?*
G04 #@! TF.SameCoordinates,Original*
G04 #@! TF.FileFunction,Soldermask,Bot*
G04 #@! TF.FilePolarity,Negative*
%FSLAX46Y46*%
G04 Gerber Fmt 4.6, Leading zero omitted, Abs format (unit mm)*
G04 Created by KiCad (PCBNEW (5.1.5)-3) date 2020-04-03 09:15:43*
%MOMM*%
%LPD*%
G04 APERTURE LIST*
%ADD10C,0.100000*%
G04 APERTURE END LIST*
D10*
G36*
X137408228Y-131261703D02*
G01*
X137563100Y-131325853D01*
X137702481Y-131418985D01*
X137821015Y-131537519D01*
X137914147Y-131676900D01*
X137978297Y-131831772D01*
X138011000Y-131996184D01*
X138011000Y-132163816D01*
X137978297Y-132328228D01*
X137914147Y-132483100D01*
X137821015Y-132622481D01*
X137702481Y-132741015D01*
X137563100Y-132834147D01*
X137408228Y-132898297D01*
X137243816Y-132931000D01*
X137076184Y-132931000D01*
X136911772Y-132898297D01*
X136756900Y-132834147D01*
X136617519Y-132741015D01*
X136498985Y-132622481D01*
X136405853Y-132483100D01*
X136341703Y-132328228D01*
X136309000Y-132163816D01*
X136309000Y-131996184D01*
X136341703Y-131831772D01*
X136405853Y-131676900D01*
X136498985Y-131537519D01*
X136617519Y-131418985D01*
X136756900Y-131325853D01*
X136911772Y-131261703D01*
X137076184Y-131229000D01*
X137243816Y-131229000D01*
X137408228Y-131261703D01*
G37*
G36*
X176778228Y-131261703D02*
G01*
X176933100Y-131325853D01*
X177072481Y-131418985D01*
X177191015Y-131537519D01*
X177284147Y-131676900D01*
X177348297Y-131831772D01*
X177381000Y-131996184D01*
X177381000Y-132163816D01*
X177348297Y-132328228D01*
X177284147Y-132483100D01*
X177191015Y-132622481D01*
X177072481Y-132741015D01*
X176933100Y-132834147D01*
X176778228Y-132898297D01*
X176613816Y-132931000D01*
X176446184Y-132931000D01*
X176281772Y-132898297D01*
X176126900Y-132834147D01*
X175987519Y-132741015D01*
X175868985Y-132622481D01*
X175775853Y-132483100D01*
X175711703Y-132328228D01*
X175679000Y-132163816D01*
X175679000Y-131996184D01*
X175711703Y-131831772D01*
X175775853Y-131676900D01*
X175868985Y-131537519D01*
X175987519Y-131418985D01*
X176126900Y-131325853D01*
X176281772Y-131261703D01*
X176446184Y-131229000D01*
X176613816Y-131229000D01*
X176778228Y-131261703D01*
G37*
G36*
X148838228Y-131261703D02*
G01*
X148993100Y-131325853D01*
X149132481Y-131418985D01*
X149251015Y-131537519D01*
X149344147Y-131676900D01*
X149408297Y-131831772D01*
X149441000Y-131996184D01*
X149441000Y-132163816D01*
X149408297Y-132328228D01*
X149344147Y-132483100D01*
X149251015Y-132622481D01*
X149132481Y-132741015D01*
X148993100Y-132834147D01*
X148838228Y-132898297D01*
X148673816Y-132931000D01*
X148506184Y-132931000D01*
X148341772Y-132898297D01*
X148186900Y-132834147D01*
X148047519Y-132741015D01*
X147928985Y-132622481D01*
X147835853Y-132483100D01*
X147771703Y-132328228D01*
X147739000Y-132163816D01*
X147739000Y-131996184D01*
X147771703Y-131831772D01*
X147835853Y-131676900D01*
X147928985Y-131537519D01*
X148047519Y-131418985D01*
X148186900Y-131325853D01*
X148341772Y-131261703D01*
X148506184Y-131229000D01*
X148673816Y-131229000D01*
X148838228Y-131261703D01*
G37*
G36*
X142488228Y-131261703D02*
G01*
X142643100Y-131325853D01*
X142782481Y-131418985D01*
X142901015Y-131537519D01*
X142994147Y-131676900D01*
X143058297Y-131831772D01*
X143091000Y-131996184D01*
X143091000Y-132163816D01*
X143058297Y-132328228D01*
X142994147Y-132483100D01*
X142901015Y-132622481D01*
X142782481Y-132741015D01*
X142643100Y-132834147D01*
X142488228Y-132898297D01*
X142323816Y-132931000D01*
X142156184Y-132931000D01*
X141991772Y-132898297D01*
X141836900Y-132834147D01*
X141697519Y-132741015D01*
X141578985Y-132622481D01*
X141485853Y-132483100D01*
X141421703Y-132328228D01*
X141389000Y-132163816D01*
X141389000Y-131996184D01*
X141421703Y-131831772D01*
X141485853Y-131676900D01*
X141578985Y-131537519D01*
X141697519Y-131418985D01*
X141836900Y-131325853D01*
X141991772Y-131261703D01*
X142156184Y-131229000D01*
X142323816Y-131229000D01*
X142488228Y-131261703D01*
G37*
G36*
X188208228Y-131261703D02*
G01*
X188363100Y-131325853D01*
X188502481Y-131418985D01*
X188621015Y-131537519D01*
X188714147Y-131676900D01*
X188778297Y-131831772D01*
X188811000Y-131996184D01*
X188811000Y-132163816D01*
X188778297Y-132328228D01*
X188714147Y-132483100D01*
X188621015Y-132622481D01*
X188502481Y-132741015D01*
X188363100Y-132834147D01*
X188208228Y-132898297D01*
X188043816Y-132931000D01*
X187876184Y-132931000D01*
X187711772Y-132898297D01*
X187556900Y-132834147D01*
X187417519Y-132741015D01*
X187298985Y-132622481D01*
X187205853Y-132483100D01*
X187141703Y-132328228D01*
X187109000Y-132163816D01*
X187109000Y-131996184D01*
X187141703Y-131831772D01*
X187205853Y-131676900D01*
X187298985Y-131537519D01*
X187417519Y-131418985D01*
X187556900Y-131325853D01*
X187711772Y-131261703D01*
X187876184Y-131229000D01*
X188043816Y-131229000D01*
X188208228Y-131261703D01*
G37*
G36*
X153918228Y-131261703D02*
G01*
X154073100Y-131325853D01*
X154212481Y-131418985D01*
X154331015Y-131537519D01*
X154424147Y-131676900D01*
X154488297Y-131831772D01*
X154521000Y-131996184D01*
X154521000Y-132163816D01*
X154488297Y-132328228D01*
X154424147Y-132483100D01*
X154331015Y-132622481D01*
X154212481Y-132741015D01*
X154073100Y-132834147D01*
X153918228Y-132898297D01*
X153753816Y-132931000D01*
X153586184Y-132931000D01*
X153421772Y-132898297D01*
X153266900Y-132834147D01*
X153127519Y-132741015D01*
X153008985Y-132622481D01*
X152915853Y-132483100D01*
X152851703Y-132328228D01*
X152819000Y-132163816D01*
X152819000Y-131996184D01*
X152851703Y-131831772D01*
X152915853Y-131676900D01*
X153008985Y-131537519D01*
X153127519Y-131418985D01*
X153266900Y-131325853D01*
X153421772Y-131261703D01*
X153586184Y-131229000D01*
X153753816Y-131229000D01*
X153918228Y-131261703D01*
G37*
G36*
X160268228Y-131261703D02*
G01*
X160423100Y-131325853D01*
X160562481Y-131418985D01*
X160681015Y-131537519D01*
X160774147Y-131676900D01*
X160838297Y-131831772D01*
X160871000Y-131996184D01*
X160871000Y-132163816D01*
X160838297Y-132328228D01*
X160774147Y-132483100D01*
X160681015Y-132622481D01*
X160562481Y-132741015D01*
X160423100Y-132834147D01*
X160268228Y-132898297D01*
X160103816Y-132931000D01*
X159936184Y-132931000D01*
X159771772Y-132898297D01*
X159616900Y-132834147D01*
X159477519Y-132741015D01*
X159358985Y-132622481D01*
X159265853Y-132483100D01*
X159201703Y-132328228D01*
X159169000Y-132163816D01*
X159169000Y-131996184D01*
X159201703Y-131831772D01*
X159265853Y-131676900D01*
X159358985Y-131537519D01*
X159477519Y-131418985D01*
X159616900Y-131325853D01*
X159771772Y-131261703D01*
X159936184Y-131229000D01*
X160103816Y-131229000D01*
X160268228Y-131261703D01*
G37*
G36*
X171698228Y-131261703D02*
G01*
X171853100Y-131325853D01*
X171992481Y-131418985D01*
X172111015Y-131537519D01*
X172204147Y-131676900D01*
X172268297Y-131831772D01*
X172301000Y-131996184D01*
X172301000Y-132163816D01*
X172268297Y-132328228D01*
X172204147Y-132483100D01*
X172111015Y-132622481D01*
X171992481Y-132741015D01*
X171853100Y-132834147D01*
X171698228Y-132898297D01*
X171533816Y-132931000D01*
X171366184Y-132931000D01*
X171201772Y-132898297D01*
X171046900Y-132834147D01*
X170907519Y-132741015D01*
X170788985Y-132622481D01*
X170695853Y-132483100D01*
X170631703Y-132328228D01*
X170599000Y-132163816D01*
X170599000Y-131996184D01*
X170631703Y-131831772D01*
X170695853Y-131676900D01*
X170788985Y-131537519D01*
X170907519Y-131418985D01*
X171046900Y-131325853D01*
X171201772Y-131261703D01*
X171366184Y-131229000D01*
X171533816Y-131229000D01*
X171698228Y-131261703D01*
G37*
G36*
X165348228Y-131261703D02*
G01*
X165503100Y-131325853D01*
X165642481Y-131418985D01*
X165761015Y-131537519D01*
X165854147Y-131676900D01*
X165918297Y-131831772D01*
X165951000Y-131996184D01*
X165951000Y-132163816D01*
X165918297Y-132328228D01*
X165854147Y-132483100D01*
X165761015Y-132622481D01*
X165642481Y-132741015D01*
X165503100Y-132834147D01*
X165348228Y-132898297D01*
X165183816Y-132931000D01*
X165016184Y-132931000D01*
X164851772Y-132898297D01*
X164696900Y-132834147D01*
X164557519Y-132741015D01*
X164438985Y-132622481D01*
X164345853Y-132483100D01*
X164281703Y-132328228D01*
X164249000Y-132163816D01*
X164249000Y-131996184D01*
X164281703Y-131831772D01*
X164345853Y-131676900D01*
X164438985Y-131537519D01*
X164557519Y-131418985D01*
X164696900Y-131325853D01*
X164851772Y-131261703D01*
X165016184Y-131229000D01*
X165183816Y-131229000D01*
X165348228Y-131261703D01*
G37*
G36*
X183128228Y-131261703D02*
G01*
X183283100Y-131325853D01*
X183422481Y-131418985D01*
X183541015Y-131537519D01*
X183634147Y-131676900D01*
X183698297Y-131831772D01*
X183731000Y-131996184D01*
X183731000Y-132163816D01*
X183698297Y-132328228D01*
X183634147Y-132483100D01*
X183541015Y-132622481D01*
X183422481Y-132741015D01*
X183283100Y-132834147D01*
X183128228Y-132898297D01*
X182963816Y-132931000D01*
X182796184Y-132931000D01*
X182631772Y-132898297D01*
X182476900Y-132834147D01*
X182337519Y-132741015D01*
X182218985Y-132622481D01*
X182125853Y-132483100D01*
X182061703Y-132328228D01*
X182029000Y-132163816D01*
X182029000Y-131996184D01*
X182061703Y-131831772D01*
X182125853Y-131676900D01*
X182218985Y-131537519D01*
X182337519Y-131418985D01*
X182476900Y-131325853D01*
X182631772Y-131261703D01*
X182796184Y-131229000D01*
X182963816Y-131229000D01*
X183128228Y-131261703D01*
G37*
G36*
X137408228Y-128721703D02*
G01*
X137563100Y-128785853D01*
X137702481Y-128878985D01*
X137821015Y-128997519D01*
X137914147Y-129136900D01*
X137978297Y-129291772D01*
X138011000Y-129456184D01*
X138011000Y-129623816D01*
X137978297Y-129788228D01*
X137914147Y-129943100D01*
X137821015Y-130082481D01*
X137702481Y-130201015D01*
X137563100Y-130294147D01*
X137408228Y-130358297D01*
X137243816Y-130391000D01*
X137076184Y-130391000D01*
X136911772Y-130358297D01*
X136756900Y-130294147D01*
X136617519Y-130201015D01*
X136498985Y-130082481D01*
X136405853Y-129943100D01*
X136341703Y-129788228D01*
X136309000Y-129623816D01*
X136309000Y-129456184D01*
X136341703Y-129291772D01*
X136405853Y-129136900D01*
X136498985Y-128997519D01*
X136617519Y-128878985D01*
X136756900Y-128785853D01*
X136911772Y-128721703D01*
X137076184Y-128689000D01*
X137243816Y-128689000D01*
X137408228Y-128721703D01*
G37*
G36*
X183128228Y-128721703D02*
G01*
X183283100Y-128785853D01*
X183422481Y-128878985D01*
X183541015Y-128997519D01*
X183634147Y-129136900D01*
X183698297Y-129291772D01*
X183731000Y-129456184D01*
X183731000Y-129623816D01*
X183698297Y-129788228D01*
X183634147Y-129943100D01*
X183541015Y-130082481D01*
X183422481Y-130201015D01*
X183283100Y-130294147D01*
X183128228Y-130358297D01*
X182963816Y-130391000D01*
X182796184Y-130391000D01*
X182631772Y-130358297D01*
X182476900Y-130294147D01*
X182337519Y-130201015D01*
X182218985Y-130082481D01*
X182125853Y-129943100D01*
X182061703Y-129788228D01*
X182029000Y-129623816D01*
X182029000Y-129456184D01*
X182061703Y-129291772D01*
X182125853Y-129136900D01*
X182218985Y-128997519D01*
X182337519Y-128878985D01*
X182476900Y-128785853D01*
X182631772Y-128721703D01*
X182796184Y-128689000D01*
X182963816Y-128689000D01*
X183128228Y-128721703D01*
G37*
G36*
X148838228Y-128721703D02*
G01*
X148993100Y-128785853D01*
X149132481Y-128878985D01*
X149251015Y-128997519D01*
X149344147Y-129136900D01*
X149408297Y-129291772D01*
X149441000Y-129456184D01*
X149441000Y-129623816D01*
X149408297Y-129788228D01*
X149344147Y-129943100D01*
X149251015Y-130082481D01*
X149132481Y-130201015D01*
X148993100Y-130294147D01*
X148838228Y-130358297D01*
X148673816Y-130391000D01*
X148506184Y-130391000D01*
X148341772Y-130358297D01*
X148186900Y-130294147D01*
X148047519Y-130201015D01*
X147928985Y-130082481D01*
X147835853Y-129943100D01*
X147771703Y-129788228D01*
X147739000Y-129623816D01*
X147739000Y-129456184D01*
X147771703Y-129291772D01*
X147835853Y-129136900D01*
X147928985Y-128997519D01*
X148047519Y-128878985D01*
X148186900Y-128785853D01*
X148341772Y-128721703D01*
X148506184Y-128689000D01*
X148673816Y-128689000D01*
X148838228Y-128721703D01*
G37*
G36*
X142488228Y-128721703D02*
G01*
X142643100Y-128785853D01*
X142782481Y-128878985D01*
X142901015Y-128997519D01*
X142994147Y-129136900D01*
X143058297Y-129291772D01*
X143091000Y-129456184D01*
X143091000Y-129623816D01*
X143058297Y-129788228D01*
X142994147Y-129943100D01*
X142901015Y-130082481D01*
X142782481Y-130201015D01*
X142643100Y-130294147D01*
X142488228Y-130358297D01*
X142323816Y-130391000D01*
X142156184Y-130391000D01*
X141991772Y-130358297D01*
X141836900Y-130294147D01*
X141697519Y-130201015D01*
X141578985Y-130082481D01*
X141485853Y-129943100D01*
X141421703Y-129788228D01*
X141389000Y-129623816D01*
X141389000Y-129456184D01*
X141421703Y-129291772D01*
X141485853Y-129136900D01*
X141578985Y-128997519D01*
X141697519Y-128878985D01*
X141836900Y-128785853D01*
X141991772Y-128721703D01*
X142156184Y-128689000D01*
X142323816Y-128689000D01*
X142488228Y-128721703D01*
G37*
G36*
X153918228Y-128721703D02*
G01*
X154073100Y-128785853D01*
X154212481Y-128878985D01*
X154331015Y-128997519D01*
X154424147Y-129136900D01*
X154488297Y-129291772D01*
X154521000Y-129456184D01*
X154521000Y-129623816D01*
X154488297Y-129788228D01*
X154424147Y-129943100D01*
X154331015Y-130082481D01*
X154212481Y-130201015D01*
X154073100Y-130294147D01*
X153918228Y-130358297D01*
X153753816Y-130391000D01*
X153586184Y-130391000D01*
X153421772Y-130358297D01*
X153266900Y-130294147D01*
X153127519Y-130201015D01*
X153008985Y-130082481D01*
X152915853Y-129943100D01*
X152851703Y-129788228D01*
X152819000Y-129623816D01*
X152819000Y-129456184D01*
X152851703Y-129291772D01*
X152915853Y-129136900D01*
X153008985Y-128997519D01*
X153127519Y-128878985D01*
X153266900Y-128785853D01*
X153421772Y-128721703D01*
X153586184Y-128689000D01*
X153753816Y-128689000D01*
X153918228Y-128721703D01*
G37*
G36*
X160268228Y-128721703D02*
G01*
X160423100Y-128785853D01*
X160562481Y-128878985D01*
X160681015Y-128997519D01*
X160774147Y-129136900D01*
X160838297Y-129291772D01*
X160871000Y-129456184D01*
X160871000Y-129623816D01*
X160838297Y-129788228D01*
X160774147Y-129943100D01*
X160681015Y-130082481D01*
X160562481Y-130201015D01*
X160423100Y-130294147D01*
X160268228Y-130358297D01*
X160103816Y-130391000D01*
X159936184Y-130391000D01*
X159771772Y-130358297D01*
X159616900Y-130294147D01*
X159477519Y-130201015D01*
X159358985Y-130082481D01*
X159265853Y-129943100D01*
X159201703Y-129788228D01*
X159169000Y-129623816D01*
X159169000Y-129456184D01*
X159201703Y-129291772D01*
X159265853Y-129136900D01*
X159358985Y-128997519D01*
X159477519Y-128878985D01*
X159616900Y-128785853D01*
X159771772Y-128721703D01*
X159936184Y-128689000D01*
X160103816Y-128689000D01*
X160268228Y-128721703D01*
G37*
G36*
X188208228Y-128721703D02*
G01*
X188363100Y-128785853D01*
X188502481Y-128878985D01*
X188621015Y-128997519D01*
X188714147Y-129136900D01*
X188778297Y-129291772D01*
X188811000Y-129456184D01*
X188811000Y-129623816D01*
X188778297Y-129788228D01*
X188714147Y-129943100D01*
X188621015Y-130082481D01*
X188502481Y-130201015D01*
X188363100Y-130294147D01*
X188208228Y-130358297D01*
X188043816Y-130391000D01*
X187876184Y-130391000D01*
X187711772Y-130358297D01*
X187556900Y-130294147D01*
X187417519Y-130201015D01*
X187298985Y-130082481D01*
X187205853Y-129943100D01*
X187141703Y-129788228D01*
X187109000Y-129623816D01*
X187109000Y-129456184D01*
X187141703Y-129291772D01*
X187205853Y-129136900D01*
X187298985Y-128997519D01*
X187417519Y-128878985D01*
X187556900Y-128785853D01*
X187711772Y-128721703D01*
X187876184Y-128689000D01*
X188043816Y-128689000D01*
X188208228Y-128721703D01*
G37*
G36*
X165348228Y-128721703D02*
G01*
X165503100Y-128785853D01*
X165642481Y-128878985D01*
X165761015Y-128997519D01*
X165854147Y-129136900D01*
X165918297Y-129291772D01*
X165951000Y-129456184D01*
X165951000Y-129623816D01*
X165918297Y-129788228D01*
X165854147Y-129943100D01*
X165761015Y-130082481D01*
X165642481Y-130201015D01*
X165503100Y-130294147D01*
X165348228Y-130358297D01*
X165183816Y-130391000D01*
X165016184Y-130391000D01*
X164851772Y-130358297D01*
X164696900Y-130294147D01*
X164557519Y-130201015D01*
X164438985Y-130082481D01*
X164345853Y-129943100D01*
X164281703Y-129788228D01*
X164249000Y-129623816D01*
X164249000Y-129456184D01*
X164281703Y-129291772D01*
X164345853Y-129136900D01*
X164438985Y-128997519D01*
X164557519Y-128878985D01*
X164696900Y-128785853D01*
X164851772Y-128721703D01*
X165016184Y-128689000D01*
X165183816Y-128689000D01*
X165348228Y-128721703D01*
G37*
G36*
X171698228Y-128721703D02*
G01*
X171853100Y-128785853D01*
X171992481Y-128878985D01*
X172111015Y-128997519D01*
X172204147Y-129136900D01*
X172268297Y-129291772D01*
X172301000Y-129456184D01*
X172301000Y-129623816D01*
X172268297Y-129788228D01*
X172204147Y-129943100D01*
X172111015Y-130082481D01*
X171992481Y-130201015D01*
X171853100Y-130294147D01*
X171698228Y-130358297D01*
X171533816Y-130391000D01*
X171366184Y-130391000D01*
X171201772Y-130358297D01*
X171046900Y-130294147D01*
X170907519Y-130201015D01*
X170788985Y-130082481D01*
X170695853Y-129943100D01*
X170631703Y-129788228D01*
X170599000Y-129623816D01*
X170599000Y-129456184D01*
X170631703Y-129291772D01*
X170695853Y-129136900D01*
X170788985Y-128997519D01*
X170907519Y-128878985D01*
X171046900Y-128785853D01*
X171201772Y-128721703D01*
X171366184Y-128689000D01*
X171533816Y-128689000D01*
X171698228Y-128721703D01*
G37*
G36*
X176778228Y-128721703D02*
G01*
X176933100Y-128785853D01*
X177072481Y-128878985D01*
X177191015Y-128997519D01*
X177284147Y-129136900D01*
X177348297Y-129291772D01*
X177381000Y-129456184D01*
X177381000Y-129623816D01*
X177348297Y-129788228D01*
X177284147Y-129943100D01*
X177191015Y-130082481D01*
X177072481Y-130201015D01*
X176933100Y-130294147D01*
X176778228Y-130358297D01*
X176613816Y-130391000D01*
X176446184Y-130391000D01*
X176281772Y-130358297D01*
X176126900Y-130294147D01*
X175987519Y-130201015D01*
X175868985Y-130082481D01*
X175775853Y-129943100D01*
X175711703Y-129788228D01*
X175679000Y-129623816D01*
X175679000Y-129456184D01*
X175711703Y-129291772D01*
X175775853Y-129136900D01*
X175868985Y-128997519D01*
X175987519Y-128878985D01*
X176126900Y-128785853D01*
X176281772Y-128721703D01*
X176446184Y-128689000D01*
X176613816Y-128689000D01*
X176778228Y-128721703D01*
G37*
G36*
X189478228Y-124911703D02*
G01*
X189633100Y-124975853D01*
X189772481Y-125068985D01*
X189891015Y-125187519D01*
X189984147Y-125326900D01*
X190048297Y-125481772D01*
X190081000Y-125646184D01*
X190081000Y-125813816D01*
X190048297Y-125978228D01*
X189984147Y-126133100D01*
X189891015Y-126272481D01*
X189772481Y-126391015D01*
X189633100Y-126484147D01*
X189478228Y-126548297D01*
X189313816Y-126581000D01*
X189146184Y-126581000D01*
X188981772Y-126548297D01*
X188826900Y-126484147D01*
X188687519Y-126391015D01*
X188568985Y-126272481D01*
X188475853Y-126133100D01*
X188411703Y-125978228D01*
X188379000Y-125813816D01*
X188379000Y-125646184D01*
X188411703Y-125481772D01*
X188475853Y-125326900D01*
X188568985Y-125187519D01*
X188687519Y-125068985D01*
X188826900Y-124975853D01*
X188981772Y-124911703D01*
X189146184Y-124879000D01*
X189313816Y-124879000D01*
X189478228Y-124911703D01*
G37*
G36*
X136138228Y-124911703D02*
G01*
X136293100Y-124975853D01*
X136432481Y-125068985D01*
X136551015Y-125187519D01*
X136644147Y-125326900D01*
X136708297Y-125481772D01*
X136741000Y-125646184D01*
X136741000Y-125813816D01*
X136708297Y-125978228D01*
X136644147Y-126133100D01*
X136551015Y-126272481D01*
X136432481Y-126391015D01*
X136293100Y-126484147D01*
X136138228Y-126548297D01*
X135973816Y-126581000D01*
X135806184Y-126581000D01*
X135641772Y-126548297D01*
X135486900Y-126484147D01*
X135347519Y-126391015D01*
X135228985Y-126272481D01*
X135135853Y-126133100D01*
X135071703Y-125978228D01*
X135039000Y-125813816D01*
X135039000Y-125646184D01*
X135071703Y-125481772D01*
X135135853Y-125326900D01*
X135228985Y-125187519D01*
X135347519Y-125068985D01*
X135486900Y-124975853D01*
X135641772Y-124911703D01*
X135806184Y-124879000D01*
X135973816Y-124879000D01*
X136138228Y-124911703D01*
G37*
G36*
X143758228Y-124911703D02*
G01*
X143913100Y-124975853D01*
X144052481Y-125068985D01*
X144171015Y-125187519D01*
X144264147Y-125326900D01*
X144328297Y-125481772D01*
X144361000Y-125646184D01*
X144361000Y-125813816D01*
X144328297Y-125978228D01*
X144264147Y-126133100D01*
X144171015Y-126272481D01*
X144052481Y-126391015D01*
X143913100Y-126484147D01*
X143758228Y-126548297D01*
X143593816Y-126581000D01*
X143426184Y-126581000D01*
X143261772Y-126548297D01*
X143106900Y-126484147D01*
X142967519Y-126391015D01*
X142848985Y-126272481D01*
X142755853Y-126133100D01*
X142691703Y-125978228D01*
X142659000Y-125813816D01*
X142659000Y-125646184D01*
X142691703Y-125481772D01*
X142755853Y-125326900D01*
X142848985Y-125187519D01*
X142967519Y-125068985D01*
X143106900Y-124975853D01*
X143261772Y-124911703D01*
X143426184Y-124879000D01*
X143593816Y-124879000D01*
X143758228Y-124911703D01*
G37*
G36*
X147568228Y-124911703D02*
G01*
X147723100Y-124975853D01*
X147862481Y-125068985D01*
X147981015Y-125187519D01*
X148074147Y-125326900D01*
X148138297Y-125481772D01*
X148171000Y-125646184D01*
X148171000Y-125813816D01*
X148138297Y-125978228D01*
X148074147Y-126133100D01*
X147981015Y-126272481D01*
X147862481Y-126391015D01*
X147723100Y-126484147D01*
X147568228Y-126548297D01*
X147403816Y-126581000D01*
X147236184Y-126581000D01*
X147071772Y-126548297D01*
X146916900Y-126484147D01*
X146777519Y-126391015D01*
X146658985Y-126272481D01*
X146565853Y-126133100D01*
X146501703Y-125978228D01*
X146469000Y-125813816D01*
X146469000Y-125646184D01*
X146501703Y-125481772D01*
X146565853Y-125326900D01*
X146658985Y-125187519D01*
X146777519Y-125068985D01*
X146916900Y-124975853D01*
X147071772Y-124911703D01*
X147236184Y-124879000D01*
X147403816Y-124879000D01*
X147568228Y-124911703D01*
G37*
G36*
X155188228Y-124911703D02*
G01*
X155343100Y-124975853D01*
X155482481Y-125068985D01*
X155601015Y-125187519D01*
X155694147Y-125326900D01*
X155758297Y-125481772D01*
X155791000Y-125646184D01*
X155791000Y-125813816D01*
X155758297Y-125978228D01*
X155694147Y-126133100D01*
X155601015Y-126272481D01*
X155482481Y-126391015D01*
X155343100Y-126484147D01*
X155188228Y-126548297D01*
X155023816Y-126581000D01*
X154856184Y-126581000D01*
X154691772Y-126548297D01*
X154536900Y-126484147D01*
X154397519Y-126391015D01*
X154278985Y-126272481D01*
X154185853Y-126133100D01*
X154121703Y-125978228D01*
X154089000Y-125813816D01*
X154089000Y-125646184D01*
X154121703Y-125481772D01*
X154185853Y-125326900D01*
X154278985Y-125187519D01*
X154397519Y-125068985D01*
X154536900Y-124975853D01*
X154691772Y-124911703D01*
X154856184Y-124879000D01*
X155023816Y-124879000D01*
X155188228Y-124911703D01*
G37*
G36*
X158998228Y-124911703D02*
G01*
X159153100Y-124975853D01*
X159292481Y-125068985D01*
X159411015Y-125187519D01*
X159504147Y-125326900D01*
X159568297Y-125481772D01*
X159601000Y-125646184D01*
X159601000Y-125813816D01*
X159568297Y-125978228D01*
X159504147Y-126133100D01*
X159411015Y-126272481D01*
X159292481Y-126391015D01*
X159153100Y-126484147D01*
X158998228Y-126548297D01*
X158833816Y-126581000D01*
X158666184Y-126581000D01*
X158501772Y-126548297D01*
X158346900Y-126484147D01*
X158207519Y-126391015D01*
X158088985Y-126272481D01*
X157995853Y-126133100D01*
X157931703Y-125978228D01*
X157899000Y-125813816D01*
X157899000Y-125646184D01*
X157931703Y-125481772D01*
X157995853Y-125326900D01*
X158088985Y-125187519D01*
X158207519Y-125068985D01*
X158346900Y-124975853D01*
X158501772Y-124911703D01*
X158666184Y-124879000D01*
X158833816Y-124879000D01*
X158998228Y-124911703D01*
G37*
G36*
X166618228Y-124911703D02*
G01*
X166773100Y-124975853D01*
X166912481Y-125068985D01*
X167031015Y-125187519D01*
X167124147Y-125326900D01*
X167188297Y-125481772D01*
X167221000Y-125646184D01*
X167221000Y-125813816D01*
X167188297Y-125978228D01*
X167124147Y-126133100D01*
X167031015Y-126272481D01*
X166912481Y-126391015D01*
X166773100Y-126484147D01*
X166618228Y-126548297D01*
X166453816Y-126581000D01*
X166286184Y-126581000D01*
X166121772Y-126548297D01*
X165966900Y-126484147D01*
X165827519Y-126391015D01*
X165708985Y-126272481D01*
X165615853Y-126133100D01*
X165551703Y-125978228D01*
X165519000Y-125813816D01*
X165519000Y-125646184D01*
X165551703Y-125481772D01*
X165615853Y-125326900D01*
X165708985Y-125187519D01*
X165827519Y-125068985D01*
X165966900Y-124975853D01*
X166121772Y-124911703D01*
X166286184Y-124879000D01*
X166453816Y-124879000D01*
X166618228Y-124911703D01*
G37*
G36*
X170428228Y-124911703D02*
G01*
X170583100Y-124975853D01*
X170722481Y-125068985D01*
X170841015Y-125187519D01*
X170934147Y-125326900D01*
X170998297Y-125481772D01*
X171031000Y-125646184D01*
X171031000Y-125813816D01*
X170998297Y-125978228D01*
X170934147Y-126133100D01*
X170841015Y-126272481D01*
X170722481Y-126391015D01*
X170583100Y-126484147D01*
X170428228Y-126548297D01*
X170263816Y-126581000D01*
X170096184Y-126581000D01*
X169931772Y-126548297D01*
X169776900Y-126484147D01*
X169637519Y-126391015D01*
X169518985Y-126272481D01*
X169425853Y-126133100D01*
X169361703Y-125978228D01*
X169329000Y-125813816D01*
X169329000Y-125646184D01*
X169361703Y-125481772D01*
X169425853Y-125326900D01*
X169518985Y-125187519D01*
X169637519Y-125068985D01*
X169776900Y-124975853D01*
X169931772Y-124911703D01*
X170096184Y-124879000D01*
X170263816Y-124879000D01*
X170428228Y-124911703D01*
G37*
G36*
X178048228Y-124911703D02*
G01*
X178203100Y-124975853D01*
X178342481Y-125068985D01*
X178461015Y-125187519D01*
X178554147Y-125326900D01*
X178618297Y-125481772D01*
X178651000Y-125646184D01*
X178651000Y-125813816D01*
X178618297Y-125978228D01*
X178554147Y-126133100D01*
X178461015Y-126272481D01*
X178342481Y-126391015D01*
X178203100Y-126484147D01*
X178048228Y-126548297D01*
X177883816Y-126581000D01*
X177716184Y-126581000D01*
X177551772Y-126548297D01*
X177396900Y-126484147D01*
X177257519Y-126391015D01*
X177138985Y-126272481D01*
X177045853Y-126133100D01*
X176981703Y-125978228D01*
X176949000Y-125813816D01*
X176949000Y-125646184D01*
X176981703Y-125481772D01*
X177045853Y-125326900D01*
X177138985Y-125187519D01*
X177257519Y-125068985D01*
X177396900Y-124975853D01*
X177551772Y-124911703D01*
X177716184Y-124879000D01*
X177883816Y-124879000D01*
X178048228Y-124911703D01*
G37*
G36*
X181858228Y-124911703D02*
G01*
X182013100Y-124975853D01*
X182152481Y-125068985D01*
X182271015Y-125187519D01*
X182364147Y-125326900D01*
X182428297Y-125481772D01*
X182461000Y-125646184D01*
X182461000Y-125813816D01*
X182428297Y-125978228D01*
X182364147Y-126133100D01*
X182271015Y-126272481D01*
X182152481Y-126391015D01*
X182013100Y-126484147D01*
X181858228Y-126548297D01*
X181693816Y-126581000D01*
X181526184Y-126581000D01*
X181361772Y-126548297D01*
X181206900Y-126484147D01*
X181067519Y-126391015D01*
X180948985Y-126272481D01*
X180855853Y-126133100D01*
X180791703Y-125978228D01*
X180759000Y-125813816D01*
X180759000Y-125646184D01*
X180791703Y-125481772D01*
X180855853Y-125326900D01*
X180948985Y-125187519D01*
X181067519Y-125068985D01*
X181206900Y-124975853D01*
X181361772Y-124911703D01*
X181526184Y-124879000D01*
X181693816Y-124879000D01*
X181858228Y-124911703D01*
G37*
G36*
X131681000Y-125021000D02*
G01*
X126499000Y-125021000D01*
X126499000Y-122499000D01*
X131681000Y-122499000D01*
X131681000Y-125021000D01*
G37*
G36*
X199011000Y-125021000D02*
G01*
X193829000Y-125021000D01*
X193829000Y-122499000D01*
X199011000Y-122499000D01*
X199011000Y-125021000D01*
G37*
G36*
X188861000Y-120281000D02*
G01*
X187059000Y-120281000D01*
X187059000Y-118479000D01*
X188861000Y-118479000D01*
X188861000Y-120281000D01*
G37*
G36*
X185533512Y-118483927D02*
G01*
X185682812Y-118513624D01*
X185846784Y-118581544D01*
X185994354Y-118680147D01*
X186119853Y-118805646D01*
X186218456Y-118953216D01*
X186286376Y-119117188D01*
X186321000Y-119291259D01*
X186321000Y-119468741D01*
X186286376Y-119642812D01*
X186218456Y-119806784D01*
X186119853Y-119954354D01*
X185994354Y-120079853D01*
X185846784Y-120178456D01*
X185682812Y-120246376D01*
X185533512Y-120276073D01*
X185508742Y-120281000D01*
X185331258Y-120281000D01*
X185306488Y-120276073D01*
X185157188Y-120246376D01*
X184993216Y-120178456D01*
X184845646Y-120079853D01*
X184720147Y-119954354D01*
X184621544Y-119806784D01*
X184553624Y-119642812D01*
X184519000Y-119468741D01*
X184519000Y-119291259D01*
X184553624Y-119117188D01*
X184621544Y-118953216D01*
X184720147Y-118805646D01*
X184845646Y-118680147D01*
X184993216Y-118581544D01*
X185157188Y-118513624D01*
X185306488Y-118483927D01*
X185331258Y-118479000D01*
X185508742Y-118479000D01*
X185533512Y-118483927D01*
G37*
G36*
X182993512Y-118483927D02*
G01*
X183142812Y-118513624D01*
X183306784Y-118581544D01*
X183454354Y-118680147D01*
X183579853Y-118805646D01*
X183678456Y-118953216D01*
X183746376Y-119117188D01*
X183781000Y-119291259D01*
X183781000Y-119468741D01*
X183746376Y-119642812D01*
X183678456Y-119806784D01*
X183579853Y-119954354D01*
X183454354Y-120079853D01*
X183306784Y-120178456D01*
X183142812Y-120246376D01*
X182993512Y-120276073D01*
X182968742Y-120281000D01*
X182791258Y-120281000D01*
X182766488Y-120276073D01*
X182617188Y-120246376D01*
X182453216Y-120178456D01*
X182305646Y-120079853D01*
X182180147Y-119954354D01*
X182081544Y-119806784D01*
X182013624Y-119642812D01*
X181979000Y-119468741D01*
X181979000Y-119291259D01*
X182013624Y-119117188D01*
X182081544Y-118953216D01*
X182180147Y-118805646D01*
X182305646Y-118680147D01*
X182453216Y-118581544D01*
X182617188Y-118513624D01*
X182766488Y-118483927D01*
X182791258Y-118479000D01*
X182968742Y-118479000D01*
X182993512Y-118483927D01*
G37*
G36*
X177431000Y-120281000D02*
G01*
X175629000Y-120281000D01*
X175629000Y-118479000D01*
X177431000Y-118479000D01*
X177431000Y-120281000D01*
G37*
G36*
X174103512Y-118483927D02*
G01*
X174252812Y-118513624D01*
X174416784Y-118581544D01*
X174564354Y-118680147D01*
X174689853Y-118805646D01*
X174788456Y-118953216D01*
X174856376Y-119117188D01*
X174891000Y-119291259D01*
X174891000Y-119468741D01*
X174856376Y-119642812D01*
X174788456Y-119806784D01*
X174689853Y-119954354D01*
X174564354Y-120079853D01*
X174416784Y-120178456D01*
X174252812Y-120246376D01*
X174103512Y-120276073D01*
X174078742Y-120281000D01*
X173901258Y-120281000D01*
X173876488Y-120276073D01*
X173727188Y-120246376D01*
X173563216Y-120178456D01*
X173415646Y-120079853D01*
X173290147Y-119954354D01*
X173191544Y-119806784D01*
X173123624Y-119642812D01*
X173089000Y-119468741D01*
X173089000Y-119291259D01*
X173123624Y-119117188D01*
X173191544Y-118953216D01*
X173290147Y-118805646D01*
X173415646Y-118680147D01*
X173563216Y-118581544D01*
X173727188Y-118513624D01*
X173876488Y-118483927D01*
X173901258Y-118479000D01*
X174078742Y-118479000D01*
X174103512Y-118483927D01*
G37*
G36*
X171563512Y-118483927D02*
G01*
X171712812Y-118513624D01*
X171876784Y-118581544D01*
X172024354Y-118680147D01*
X172149853Y-118805646D01*
X172248456Y-118953216D01*
X172316376Y-119117188D01*
X172351000Y-119291259D01*
X172351000Y-119468741D01*
X172316376Y-119642812D01*
X172248456Y-119806784D01*
X172149853Y-119954354D01*
X172024354Y-120079853D01*
X171876784Y-120178456D01*
X171712812Y-120246376D01*
X171563512Y-120276073D01*
X171538742Y-120281000D01*
X171361258Y-120281000D01*
X171336488Y-120276073D01*
X171187188Y-120246376D01*
X171023216Y-120178456D01*
X170875646Y-120079853D01*
X170750147Y-119954354D01*
X170651544Y-119806784D01*
X170583624Y-119642812D01*
X170549000Y-119468741D01*
X170549000Y-119291259D01*
X170583624Y-119117188D01*
X170651544Y-118953216D01*
X170750147Y-118805646D01*
X170875646Y-118680147D01*
X171023216Y-118581544D01*
X171187188Y-118513624D01*
X171336488Y-118483927D01*
X171361258Y-118479000D01*
X171538742Y-118479000D01*
X171563512Y-118483927D01*
G37*
G36*
X166001000Y-120281000D02*
G01*
X164199000Y-120281000D01*
X164199000Y-118479000D01*
X166001000Y-118479000D01*
X166001000Y-120281000D01*
G37*
G36*
X162673512Y-118483927D02*
G01*
X162822812Y-118513624D01*
X162986784Y-118581544D01*
X163134354Y-118680147D01*
X163259853Y-118805646D01*
X163358456Y-118953216D01*
X163426376Y-119117188D01*
X163461000Y-119291259D01*
X163461000Y-119468741D01*
X163426376Y-119642812D01*
X163358456Y-119806784D01*
X163259853Y-119954354D01*
X163134354Y-120079853D01*
X162986784Y-120178456D01*
X162822812Y-120246376D01*
X162673512Y-120276073D01*
X162648742Y-120281000D01*
X162471258Y-120281000D01*
X162446488Y-120276073D01*
X162297188Y-120246376D01*
X162133216Y-120178456D01*
X161985646Y-120079853D01*
X161860147Y-119954354D01*
X161761544Y-119806784D01*
X161693624Y-119642812D01*
X161659000Y-119468741D01*
X161659000Y-119291259D01*
X161693624Y-119117188D01*
X161761544Y-118953216D01*
X161860147Y-118805646D01*
X161985646Y-118680147D01*
X162133216Y-118581544D01*
X162297188Y-118513624D01*
X162446488Y-118483927D01*
X162471258Y-118479000D01*
X162648742Y-118479000D01*
X162673512Y-118483927D01*
G37*
G36*
X154571000Y-120281000D02*
G01*
X152769000Y-120281000D01*
X152769000Y-118479000D01*
X154571000Y-118479000D01*
X154571000Y-120281000D01*
G37*
G36*
X151243512Y-118483927D02*
G01*
X151392812Y-118513624D01*
X151556784Y-118581544D01*
X151704354Y-118680147D01*
X151829853Y-118805646D01*
X151928456Y-118953216D01*
X151996376Y-119117188D01*
X152031000Y-119291259D01*
X152031000Y-119468741D01*
X151996376Y-119642812D01*
X151928456Y-119806784D01*
X151829853Y-119954354D01*
X151704354Y-120079853D01*
X151556784Y-120178456D01*
X151392812Y-120246376D01*
X151243512Y-120276073D01*
X151218742Y-120281000D01*
X151041258Y-120281000D01*
X151016488Y-120276073D01*
X150867188Y-120246376D01*
X150703216Y-120178456D01*
X150555646Y-120079853D01*
X150430147Y-119954354D01*
X150331544Y-119806784D01*
X150263624Y-119642812D01*
X150229000Y-119468741D01*
X150229000Y-119291259D01*
X150263624Y-119117188D01*
X150331544Y-118953216D01*
X150430147Y-118805646D01*
X150555646Y-118680147D01*
X150703216Y-118581544D01*
X150867188Y-118513624D01*
X151016488Y-118483927D01*
X151041258Y-118479000D01*
X151218742Y-118479000D01*
X151243512Y-118483927D01*
G37*
G36*
X148703512Y-118483927D02*
G01*
X148852812Y-118513624D01*
X149016784Y-118581544D01*
X149164354Y-118680147D01*
X149289853Y-118805646D01*
X149388456Y-118953216D01*
X149456376Y-119117188D01*
X149491000Y-119291259D01*
X149491000Y-119468741D01*
X149456376Y-119642812D01*
X149388456Y-119806784D01*
X149289853Y-119954354D01*
X149164354Y-120079853D01*
X149016784Y-120178456D01*
X148852812Y-120246376D01*
X148703512Y-120276073D01*
X148678742Y-120281000D01*
X148501258Y-120281000D01*
X148476488Y-120276073D01*
X148327188Y-120246376D01*
X148163216Y-120178456D01*
X148015646Y-120079853D01*
X147890147Y-119954354D01*
X147791544Y-119806784D01*
X147723624Y-119642812D01*
X147689000Y-119468741D01*
X147689000Y-119291259D01*
X147723624Y-119117188D01*
X147791544Y-118953216D01*
X147890147Y-118805646D01*
X148015646Y-118680147D01*
X148163216Y-118581544D01*
X148327188Y-118513624D01*
X148476488Y-118483927D01*
X148501258Y-118479000D01*
X148678742Y-118479000D01*
X148703512Y-118483927D01*
G37*
G36*
X137273512Y-118483927D02*
G01*
X137422812Y-118513624D01*
X137586784Y-118581544D01*
X137734354Y-118680147D01*
X137859853Y-118805646D01*
X137958456Y-118953216D01*
X138026376Y-119117188D01*
X138061000Y-119291259D01*
X138061000Y-119468741D01*
X138026376Y-119642812D01*
X137958456Y-119806784D01*
X137859853Y-119954354D01*
X137734354Y-120079853D01*
X137586784Y-120178456D01*
X137422812Y-120246376D01*
X137273512Y-120276073D01*
X137248742Y-120281000D01*
X137071258Y-120281000D01*
X137046488Y-120276073D01*
X136897188Y-120246376D01*
X136733216Y-120178456D01*
X136585646Y-120079853D01*
X136460147Y-119954354D01*
X136361544Y-119806784D01*
X136293624Y-119642812D01*
X136259000Y-119468741D01*
X136259000Y-119291259D01*
X136293624Y-119117188D01*
X136361544Y-118953216D01*
X136460147Y-118805646D01*
X136585646Y-118680147D01*
X136733216Y-118581544D01*
X136897188Y-118513624D01*
X137046488Y-118483927D01*
X137071258Y-118479000D01*
X137248742Y-118479000D01*
X137273512Y-118483927D01*
G37*
G36*
X139813512Y-118483927D02*
G01*
X139962812Y-118513624D01*
X140126784Y-118581544D01*
X140274354Y-118680147D01*
X140399853Y-118805646D01*
X140498456Y-118953216D01*
X140566376Y-119117188D01*
X140601000Y-119291259D01*
X140601000Y-119468741D01*
X140566376Y-119642812D01*
X140498456Y-119806784D01*
X140399853Y-119954354D01*
X140274354Y-120079853D01*
X140126784Y-120178456D01*
X139962812Y-120246376D01*
X139813512Y-120276073D01*
X139788742Y-120281000D01*
X139611258Y-120281000D01*
X139586488Y-120276073D01*
X139437188Y-120246376D01*
X139273216Y-120178456D01*
X139125646Y-120079853D01*
X139000147Y-119954354D01*
X138901544Y-119806784D01*
X138833624Y-119642812D01*
X138799000Y-119468741D01*
X138799000Y-119291259D01*
X138833624Y-119117188D01*
X138901544Y-118953216D01*
X139000147Y-118805646D01*
X139125646Y-118680147D01*
X139273216Y-118581544D01*
X139437188Y-118513624D01*
X139586488Y-118483927D01*
X139611258Y-118479000D01*
X139788742Y-118479000D01*
X139813512Y-118483927D01*
G37*
G36*
X143141000Y-120281000D02*
G01*
X141339000Y-120281000D01*
X141339000Y-118479000D01*
X143141000Y-118479000D01*
X143141000Y-120281000D01*
G37*
G36*
X160133512Y-118483927D02*
G01*
X160282812Y-118513624D01*
X160446784Y-118581544D01*
X160594354Y-118680147D01*
X160719853Y-118805646D01*
X160818456Y-118953216D01*
X160886376Y-119117188D01*
X160921000Y-119291259D01*
X160921000Y-119468741D01*
X160886376Y-119642812D01*
X160818456Y-119806784D01*
X160719853Y-119954354D01*
X160594354Y-120079853D01*
X160446784Y-120178456D01*
X160282812Y-120246376D01*
X160133512Y-120276073D01*
X160108742Y-120281000D01*
X159931258Y-120281000D01*
X159906488Y-120276073D01*
X159757188Y-120246376D01*
X159593216Y-120178456D01*
X159445646Y-120079853D01*
X159320147Y-119954354D01*
X159221544Y-119806784D01*
X159153624Y-119642812D01*
X159119000Y-119468741D01*
X159119000Y-119291259D01*
X159153624Y-119117188D01*
X159221544Y-118953216D01*
X159320147Y-118805646D01*
X159445646Y-118680147D01*
X159593216Y-118581544D01*
X159757188Y-118513624D01*
X159906488Y-118483927D01*
X159931258Y-118479000D01*
X160108742Y-118479000D01*
X160133512Y-118483927D01*
G37*
G36*
X131681000Y-116261000D02*
G01*
X126499000Y-116261000D01*
X126499000Y-113739000D01*
X131681000Y-113739000D01*
X131681000Y-116261000D01*
G37*
G36*
X199011000Y-116261000D02*
G01*
X193829000Y-116261000D01*
X193829000Y-113739000D01*
X199011000Y-113739000D01*
X199011000Y-116261000D01*
G37*
G36*
X165213512Y-113403927D02*
G01*
X165362812Y-113433624D01*
X165526784Y-113501544D01*
X165674354Y-113600147D01*
X165799853Y-113725646D01*
X165898456Y-113873216D01*
X165966376Y-114037188D01*
X166001000Y-114211259D01*
X166001000Y-114388741D01*
X165966376Y-114562812D01*
X165898456Y-114726784D01*
X165799853Y-114874354D01*
X165674354Y-114999853D01*
X165526784Y-115098456D01*
X165362812Y-115166376D01*
X165213512Y-115196073D01*
X165188742Y-115201000D01*
X165011258Y-115201000D01*
X164986488Y-115196073D01*
X164837188Y-115166376D01*
X164673216Y-115098456D01*
X164525646Y-114999853D01*
X164400147Y-114874354D01*
X164301544Y-114726784D01*
X164233624Y-114562812D01*
X164199000Y-114388741D01*
X164199000Y-114211259D01*
X164233624Y-114037188D01*
X164301544Y-113873216D01*
X164400147Y-113725646D01*
X164525646Y-113600147D01*
X164673216Y-113501544D01*
X164837188Y-113433624D01*
X164986488Y-113403927D01*
X165011258Y-113399000D01*
X165188742Y-113399000D01*
X165213512Y-113403927D01*
G37*
G36*
X162673512Y-113403927D02*
G01*
X162822812Y-113433624D01*
X162986784Y-113501544D01*
X163134354Y-113600147D01*
X163259853Y-113725646D01*
X163358456Y-113873216D01*
X163426376Y-114037188D01*
X163461000Y-114211259D01*
X163461000Y-114388741D01*
X163426376Y-114562812D01*
X163358456Y-114726784D01*
X163259853Y-114874354D01*
X163134354Y-114999853D01*
X162986784Y-115098456D01*
X162822812Y-115166376D01*
X162673512Y-115196073D01*
X162648742Y-115201000D01*
X162471258Y-115201000D01*
X162446488Y-115196073D01*
X162297188Y-115166376D01*
X162133216Y-115098456D01*
X161985646Y-114999853D01*
X161860147Y-114874354D01*
X161761544Y-114726784D01*
X161693624Y-114562812D01*
X161659000Y-114388741D01*
X161659000Y-114211259D01*
X161693624Y-114037188D01*
X161761544Y-113873216D01*
X161860147Y-113725646D01*
X161985646Y-113600147D01*
X162133216Y-113501544D01*
X162297188Y-113433624D01*
X162446488Y-113403927D01*
X162471258Y-113399000D01*
X162648742Y-113399000D01*
X162673512Y-113403927D01*
G37*
G36*
X160921000Y-115201000D02*
G01*
X159119000Y-115201000D01*
X159119000Y-113399000D01*
X160921000Y-113399000D01*
X160921000Y-115201000D01*
G37*
G36*
X172351000Y-115201000D02*
G01*
X170549000Y-115201000D01*
X170549000Y-113399000D01*
X172351000Y-113399000D01*
X172351000Y-115201000D01*
G37*
G36*
X174103512Y-113403927D02*
G01*
X174252812Y-113433624D01*
X174416784Y-113501544D01*
X174564354Y-113600147D01*
X174689853Y-113725646D01*
X174788456Y-113873216D01*
X174856376Y-114037188D01*
X174891000Y-114211259D01*
X174891000Y-114388741D01*
X174856376Y-114562812D01*
X174788456Y-114726784D01*
X174689853Y-114874354D01*
X174564354Y-114999853D01*
X174416784Y-115098456D01*
X174252812Y-115166376D01*
X174103512Y-115196073D01*
X174078742Y-115201000D01*
X173901258Y-115201000D01*
X173876488Y-115196073D01*
X173727188Y-115166376D01*
X173563216Y-115098456D01*
X173415646Y-114999853D01*
X173290147Y-114874354D01*
X173191544Y-114726784D01*
X173123624Y-114562812D01*
X173089000Y-114388741D01*
X173089000Y-114211259D01*
X173123624Y-114037188D01*
X173191544Y-113873216D01*
X173290147Y-113725646D01*
X173415646Y-113600147D01*
X173563216Y-113501544D01*
X173727188Y-113433624D01*
X173876488Y-113403927D01*
X173901258Y-113399000D01*
X174078742Y-113399000D01*
X174103512Y-113403927D01*
G37*
G36*
X176643512Y-113403927D02*
G01*
X176792812Y-113433624D01*
X176956784Y-113501544D01*
X177104354Y-113600147D01*
X177229853Y-113725646D01*
X177328456Y-113873216D01*
X177396376Y-114037188D01*
X177431000Y-114211259D01*
X177431000Y-114388741D01*
X177396376Y-114562812D01*
X177328456Y-114726784D01*
X177229853Y-114874354D01*
X177104354Y-114999853D01*
X176956784Y-115098456D01*
X176792812Y-115166376D01*
X176643512Y-115196073D01*
X176618742Y-115201000D01*
X176441258Y-115201000D01*
X176416488Y-115196073D01*
X176267188Y-115166376D01*
X176103216Y-115098456D01*
X175955646Y-114999853D01*
X175830147Y-114874354D01*
X175731544Y-114726784D01*
X175663624Y-114562812D01*
X175629000Y-114388741D01*
X175629000Y-114211259D01*
X175663624Y-114037188D01*
X175731544Y-113873216D01*
X175830147Y-113725646D01*
X175955646Y-113600147D01*
X176103216Y-113501544D01*
X176267188Y-113433624D01*
X176416488Y-113403927D01*
X176441258Y-113399000D01*
X176618742Y-113399000D01*
X176643512Y-113403927D01*
G37*
G36*
X153783512Y-113403927D02*
G01*
X153932812Y-113433624D01*
X154096784Y-113501544D01*
X154244354Y-113600147D01*
X154369853Y-113725646D01*
X154468456Y-113873216D01*
X154536376Y-114037188D01*
X154571000Y-114211259D01*
X154571000Y-114388741D01*
X154536376Y-114562812D01*
X154468456Y-114726784D01*
X154369853Y-114874354D01*
X154244354Y-114999853D01*
X154096784Y-115098456D01*
X153932812Y-115166376D01*
X153783512Y-115196073D01*
X153758742Y-115201000D01*
X153581258Y-115201000D01*
X153556488Y-115196073D01*
X153407188Y-115166376D01*
X153243216Y-115098456D01*
X153095646Y-114999853D01*
X152970147Y-114874354D01*
X152871544Y-114726784D01*
X152803624Y-114562812D01*
X152769000Y-114388741D01*
X152769000Y-114211259D01*
X152803624Y-114037188D01*
X152871544Y-113873216D01*
X152970147Y-113725646D01*
X153095646Y-113600147D01*
X153243216Y-113501544D01*
X153407188Y-113433624D01*
X153556488Y-113403927D01*
X153581258Y-113399000D01*
X153758742Y-113399000D01*
X153783512Y-113403927D01*
G37*
G36*
X151243512Y-113403927D02*
G01*
X151392812Y-113433624D01*
X151556784Y-113501544D01*
X151704354Y-113600147D01*
X151829853Y-113725646D01*
X151928456Y-113873216D01*
X151996376Y-114037188D01*
X152031000Y-114211259D01*
X152031000Y-114388741D01*
X151996376Y-114562812D01*
X151928456Y-114726784D01*
X151829853Y-114874354D01*
X151704354Y-114999853D01*
X151556784Y-115098456D01*
X151392812Y-115166376D01*
X151243512Y-115196073D01*
X151218742Y-115201000D01*
X151041258Y-115201000D01*
X151016488Y-115196073D01*
X150867188Y-115166376D01*
X150703216Y-115098456D01*
X150555646Y-114999853D01*
X150430147Y-114874354D01*
X150331544Y-114726784D01*
X150263624Y-114562812D01*
X150229000Y-114388741D01*
X150229000Y-114211259D01*
X150263624Y-114037188D01*
X150331544Y-113873216D01*
X150430147Y-113725646D01*
X150555646Y-113600147D01*
X150703216Y-113501544D01*
X150867188Y-113433624D01*
X151016488Y-113403927D01*
X151041258Y-113399000D01*
X151218742Y-113399000D01*
X151243512Y-113403927D01*
G37*
G36*
X149491000Y-115201000D02*
G01*
X147689000Y-115201000D01*
X147689000Y-113399000D01*
X149491000Y-113399000D01*
X149491000Y-115201000D01*
G37*
G36*
X183781000Y-115201000D02*
G01*
X181979000Y-115201000D01*
X181979000Y-113399000D01*
X183781000Y-113399000D01*
X183781000Y-115201000D01*
G37*
G36*
X138061000Y-115201000D02*
G01*
X136259000Y-115201000D01*
X136259000Y-113399000D01*
X138061000Y-113399000D01*
X138061000Y-115201000D01*
G37*
G36*
X185533512Y-113403927D02*
G01*
X185682812Y-113433624D01*
X185846784Y-113501544D01*
X185994354Y-113600147D01*
X186119853Y-113725646D01*
X186218456Y-113873216D01*
X186286376Y-114037188D01*
X186321000Y-114211259D01*
X186321000Y-114388741D01*
X186286376Y-114562812D01*
X186218456Y-114726784D01*
X186119853Y-114874354D01*
X185994354Y-114999853D01*
X185846784Y-115098456D01*
X185682812Y-115166376D01*
X185533512Y-115196073D01*
X185508742Y-115201000D01*
X185331258Y-115201000D01*
X185306488Y-115196073D01*
X185157188Y-115166376D01*
X184993216Y-115098456D01*
X184845646Y-114999853D01*
X184720147Y-114874354D01*
X184621544Y-114726784D01*
X184553624Y-114562812D01*
X184519000Y-114388741D01*
X184519000Y-114211259D01*
X184553624Y-114037188D01*
X184621544Y-113873216D01*
X184720147Y-113725646D01*
X184845646Y-113600147D01*
X184993216Y-113501544D01*
X185157188Y-113433624D01*
X185306488Y-113403927D01*
X185331258Y-113399000D01*
X185508742Y-113399000D01*
X185533512Y-113403927D01*
G37*
G36*
X142353512Y-113403927D02*
G01*
X142502812Y-113433624D01*
X142666784Y-113501544D01*
X142814354Y-113600147D01*
X142939853Y-113725646D01*
X143038456Y-113873216D01*
X143106376Y-114037188D01*
X143141000Y-114211259D01*
X143141000Y-114388741D01*
X143106376Y-114562812D01*
X143038456Y-114726784D01*
X142939853Y-114874354D01*
X142814354Y-114999853D01*
X142666784Y-115098456D01*
X142502812Y-115166376D01*
X142353512Y-115196073D01*
X142328742Y-115201000D01*
X142151258Y-115201000D01*
X142126488Y-115196073D01*
X141977188Y-115166376D01*
X141813216Y-115098456D01*
X141665646Y-114999853D01*
X141540147Y-114874354D01*
X141441544Y-114726784D01*
X141373624Y-114562812D01*
X141339000Y-114388741D01*
X141339000Y-114211259D01*
X141373624Y-114037188D01*
X141441544Y-113873216D01*
X141540147Y-113725646D01*
X141665646Y-113600147D01*
X141813216Y-113501544D01*
X141977188Y-113433624D01*
X142126488Y-113403927D01*
X142151258Y-113399000D01*
X142328742Y-113399000D01*
X142353512Y-113403927D01*
G37*
G36*
X139813512Y-113403927D02*
G01*
X139962812Y-113433624D01*
X140126784Y-113501544D01*
X140274354Y-113600147D01*
X140399853Y-113725646D01*
X140498456Y-113873216D01*
X140566376Y-114037188D01*
X140601000Y-114211259D01*
X140601000Y-114388741D01*
X140566376Y-114562812D01*
X140498456Y-114726784D01*
X140399853Y-114874354D01*
X140274354Y-114999853D01*
X140126784Y-115098456D01*
X139962812Y-115166376D01*
X139813512Y-115196073D01*
X139788742Y-115201000D01*
X139611258Y-115201000D01*
X139586488Y-115196073D01*
X139437188Y-115166376D01*
X139273216Y-115098456D01*
X139125646Y-114999853D01*
X139000147Y-114874354D01*
X138901544Y-114726784D01*
X138833624Y-114562812D01*
X138799000Y-114388741D01*
X138799000Y-114211259D01*
X138833624Y-114037188D01*
X138901544Y-113873216D01*
X139000147Y-113725646D01*
X139125646Y-113600147D01*
X139273216Y-113501544D01*
X139437188Y-113433624D01*
X139586488Y-113403927D01*
X139611258Y-113399000D01*
X139788742Y-113399000D01*
X139813512Y-113403927D01*
G37*
G36*
X188073512Y-113403927D02*
G01*
X188222812Y-113433624D01*
X188386784Y-113501544D01*
X188534354Y-113600147D01*
X188659853Y-113725646D01*
X188758456Y-113873216D01*
X188826376Y-114037188D01*
X188861000Y-114211259D01*
X188861000Y-114388741D01*
X188826376Y-114562812D01*
X188758456Y-114726784D01*
X188659853Y-114874354D01*
X188534354Y-114999853D01*
X188386784Y-115098456D01*
X188222812Y-115166376D01*
X188073512Y-115196073D01*
X188048742Y-115201000D01*
X187871258Y-115201000D01*
X187846488Y-115196073D01*
X187697188Y-115166376D01*
X187533216Y-115098456D01*
X187385646Y-114999853D01*
X187260147Y-114874354D01*
X187161544Y-114726784D01*
X187093624Y-114562812D01*
X187059000Y-114388741D01*
X187059000Y-114211259D01*
X187093624Y-114037188D01*
X187161544Y-113873216D01*
X187260147Y-113725646D01*
X187385646Y-113600147D01*
X187533216Y-113501544D01*
X187697188Y-113433624D01*
X187846488Y-113403927D01*
X187871258Y-113399000D01*
X188048742Y-113399000D01*
X188073512Y-113403927D01*
G37*
M02*
