G04 #@! TF.GenerationSoftware,KiCad,Pcbnew,(5.1.5)-3*
G04 #@! TF.CreationDate,2020-04-03T09:15:43-04:00*
G04 #@! TF.ProjectId,Project,50726f6a-6563-4742-9e6b-696361645f70,rev?*
G04 #@! TF.SameCoordinates,Original*
G04 #@! TF.FileFunction,Copper,L2,Bot*
G04 #@! TF.FilePolarity,Positive*
%FSLAX46Y46*%
G04 Gerber Fmt 4.6, Leading zero omitted, Abs format (unit mm)*
G04 Created by KiCad (PCBNEW (5.1.5)-3) date 2020-04-03 09:15:43*
%MOMM*%
%LPD*%
G04 APERTURE LIST*
%ADD10R,0.950000X0.460000*%
%ADD11C,0.970000*%
%ADD12R,5.080000X2.420000*%
%ADD13O,1.600000X1.600000*%
%ADD14C,1.600000*%
%ADD15O,1.700000X1.700000*%
%ADD16R,1.700000X1.700000*%
%ADD17C,1.000000*%
%ADD18C,0.254000*%
G04 APERTURE END LIST*
D10*
X193430000Y-115000000D03*
X193430000Y-123760000D03*
D11*
X192980000Y-115000000D03*
X192980000Y-123760000D03*
D12*
X196420000Y-115000000D03*
X196420000Y-123760000D03*
D13*
X137160000Y-132080000D03*
D14*
X137160000Y-129540000D03*
D13*
X135890000Y-125730000D03*
D14*
X143510000Y-125730000D03*
D13*
X147320000Y-125730000D03*
D14*
X154940000Y-125730000D03*
D13*
X158750000Y-125730000D03*
D14*
X166370000Y-125730000D03*
D13*
X170180000Y-125730000D03*
D14*
X177800000Y-125730000D03*
D13*
X181610000Y-125730000D03*
D14*
X189230000Y-125730000D03*
D13*
X182880000Y-132080000D03*
D14*
X182880000Y-129540000D03*
D13*
X176530000Y-132080000D03*
D14*
X176530000Y-129540000D03*
D13*
X148590000Y-132080000D03*
D14*
X148590000Y-129540000D03*
D13*
X142240000Y-132080000D03*
D14*
X142240000Y-129540000D03*
D13*
X187960000Y-132080000D03*
D14*
X187960000Y-129540000D03*
D13*
X153670000Y-132080000D03*
D14*
X153670000Y-129540000D03*
D13*
X160020000Y-132080000D03*
D14*
X160020000Y-129540000D03*
D13*
X171450000Y-132080000D03*
D14*
X171450000Y-129540000D03*
D13*
X165100000Y-132080000D03*
D14*
X165100000Y-129540000D03*
D12*
X129090000Y-115000000D03*
X129090000Y-123760000D03*
D11*
X132530000Y-115000000D03*
X132530000Y-123760000D03*
D10*
X132080000Y-115000000D03*
X132080000Y-123760000D03*
D15*
X142240000Y-114300000D03*
X139700000Y-114300000D03*
D16*
X137160000Y-114300000D03*
X142240000Y-119380000D03*
D15*
X139700000Y-119380000D03*
X137160000Y-119380000D03*
D16*
X148590000Y-114300000D03*
D15*
X151130000Y-114300000D03*
X153670000Y-114300000D03*
X148590000Y-119380000D03*
X151130000Y-119380000D03*
D16*
X153670000Y-119380000D03*
X160020000Y-114300000D03*
D15*
X162560000Y-114300000D03*
X165100000Y-114300000D03*
X160020000Y-119380000D03*
X162560000Y-119380000D03*
D16*
X165100000Y-119380000D03*
X171450000Y-114300000D03*
D15*
X173990000Y-114300000D03*
X176530000Y-114300000D03*
X171450000Y-119380000D03*
X173990000Y-119380000D03*
D16*
X176530000Y-119380000D03*
X182880000Y-114300000D03*
D15*
X185420000Y-114300000D03*
X187960000Y-114300000D03*
X182880000Y-119380000D03*
X185420000Y-119380000D03*
D16*
X187960000Y-119380000D03*
D17*
X137160000Y-132080000D02*
X142240000Y-132080000D01*
X142240000Y-132080000D02*
X153670000Y-132080000D01*
X153670000Y-132080000D02*
X187960000Y-132080000D01*
X132530000Y-128720000D02*
X132530000Y-123760000D01*
X132530000Y-129990000D02*
X132530000Y-128720000D01*
X137160000Y-132080000D02*
X134620000Y-132080000D01*
X134620000Y-132080000D02*
X132530000Y-129990000D01*
X132530000Y-115000000D02*
X132530000Y-123760000D01*
X132080000Y-115000000D02*
X129090000Y-115000000D01*
X132530000Y-123760000D02*
X129090000Y-123760000D01*
X192590000Y-123760000D02*
X196030000Y-123760000D01*
X192590000Y-115000000D02*
X196030000Y-115000000D01*
X192590000Y-117290000D02*
X192590000Y-115000000D01*
X192590000Y-115570000D02*
X192590000Y-117290000D01*
X193040000Y-115000000D02*
X196030000Y-115000000D01*
X192590000Y-122740000D02*
X192590000Y-123760000D01*
X192590000Y-117290000D02*
X192590000Y-122740000D01*
X190500000Y-132080000D02*
X187960000Y-132080000D01*
X192590000Y-129990000D02*
X190500000Y-132080000D01*
X196420000Y-123760000D02*
X196420000Y-115000000D01*
X129090000Y-115000000D02*
X129090000Y-123760000D01*
X133014999Y-114515001D02*
X133014999Y-114064999D01*
X132530000Y-115000000D02*
X133014999Y-114515001D01*
X133014999Y-114064999D02*
X133100000Y-114150000D01*
X133100000Y-114150000D02*
X132350000Y-114150000D01*
X133215893Y-115000000D02*
X133365893Y-115150000D01*
X132530000Y-115000000D02*
X133215893Y-115000000D01*
X133365893Y-115150000D02*
X133365893Y-124134107D01*
X192495001Y-114515001D02*
X192495001Y-114054999D01*
X192980000Y-115000000D02*
X192495001Y-114515001D01*
X192495001Y-114054999D02*
X192100000Y-114450000D01*
X192100000Y-114450000D02*
X192100000Y-123400000D01*
X192100000Y-123400000D02*
X192350000Y-123650000D01*
X192590000Y-122740000D02*
X192350000Y-123650000D01*
X192350000Y-123650000D02*
X192590000Y-129990000D01*
X196420000Y-115000000D02*
X192980000Y-115000000D01*
X196420000Y-123760000D02*
X192980000Y-123760000D01*
X137160000Y-127000000D02*
X135890000Y-125730000D01*
X137160000Y-129540000D02*
X137160000Y-127000000D01*
X142240000Y-114300000D02*
X143510000Y-114300000D01*
X143510000Y-114300000D02*
X144780000Y-115570000D01*
X144780000Y-115570000D02*
X144780000Y-121920000D01*
X144780000Y-121920000D02*
X143510000Y-123190000D01*
X143510000Y-123190000D02*
X137160000Y-123190000D01*
X137160000Y-123190000D02*
X135890000Y-124460000D01*
X135890000Y-124460000D02*
X135890000Y-125730000D01*
X137160000Y-114300000D02*
X137160000Y-119380000D01*
X142240000Y-127000000D02*
X143510000Y-125730000D01*
X142240000Y-129540000D02*
X142240000Y-127000000D01*
X148590000Y-114300000D02*
X148590000Y-119380000D01*
X148590000Y-127000000D02*
X147320000Y-125730000D01*
X148590000Y-129540000D02*
X148590000Y-127000000D01*
X148590000Y-123190000D02*
X147320000Y-124460000D01*
X154940000Y-114300000D02*
X156210000Y-115570000D01*
X147320000Y-124460000D02*
X147320000Y-125730000D01*
X153670000Y-114300000D02*
X154940000Y-114300000D01*
X156210000Y-115570000D02*
X156210000Y-121920000D01*
X154940000Y-123190000D02*
X148590000Y-123190000D01*
X156210000Y-121920000D02*
X154940000Y-123190000D01*
X153670000Y-127000000D02*
X154940000Y-125730000D01*
X153670000Y-129540000D02*
X153670000Y-127000000D01*
X160020000Y-114300000D02*
X160020000Y-119380000D01*
X160020000Y-127000000D02*
X158750000Y-125730000D01*
X160020000Y-129540000D02*
X160020000Y-127000000D01*
X165100000Y-114300000D02*
X166370000Y-114300000D01*
X166370000Y-114300000D02*
X167640000Y-115570000D01*
X167640000Y-115570000D02*
X167640000Y-121920000D01*
X167640000Y-121920000D02*
X166370000Y-123190000D01*
X166370000Y-123190000D02*
X160020000Y-123190000D01*
X160020000Y-123190000D02*
X158750000Y-124460000D01*
X158750000Y-124460000D02*
X158750000Y-125730000D01*
X165100000Y-127000000D02*
X166370000Y-125730000D01*
X165100000Y-129540000D02*
X165100000Y-127000000D01*
X171450000Y-114300000D02*
X171450000Y-119380000D01*
X171450000Y-127000000D02*
X170180000Y-125730000D01*
X171450000Y-129540000D02*
X171450000Y-127000000D01*
X179070000Y-121920000D02*
X177800000Y-123190000D01*
X177800000Y-123190000D02*
X171450000Y-123190000D01*
X171450000Y-123190000D02*
X170180000Y-124460000D01*
X170180000Y-124460000D02*
X170180000Y-125730000D01*
X176530000Y-114300000D02*
X177800000Y-114300000D01*
X179070000Y-115570000D02*
X179070000Y-121920000D01*
X177800000Y-114300000D02*
X179070000Y-115570000D01*
X176530000Y-127000000D02*
X177800000Y-125730000D01*
X176530000Y-129540000D02*
X176530000Y-127000000D01*
X182880000Y-114300000D02*
X182880000Y-119380000D01*
X182880000Y-127000000D02*
X181610000Y-125730000D01*
X182880000Y-129540000D02*
X182880000Y-127000000D01*
X190500000Y-121920000D02*
X189230000Y-123190000D01*
X189230000Y-123190000D02*
X182880000Y-123190000D01*
X181610000Y-124460000D02*
X181610000Y-125730000D01*
X182880000Y-123190000D02*
X181610000Y-124460000D01*
X187960000Y-114300000D02*
X189230000Y-114300000D01*
X189230000Y-114300000D02*
X190500000Y-115570000D01*
X190500000Y-115570000D02*
X190500000Y-121920000D01*
X187960000Y-127000000D02*
X189230000Y-125730000D01*
X187960000Y-129540000D02*
X187960000Y-127000000D01*
D18*
G36*
X198695001Y-113152289D02*
G01*
X196705750Y-113155000D01*
X196547000Y-113313750D01*
X196547000Y-114873000D01*
X196567000Y-114873000D01*
X196567000Y-115127000D01*
X196547000Y-115127000D01*
X196547000Y-116686250D01*
X196705750Y-116845000D01*
X198695001Y-116847711D01*
X198695001Y-121912289D01*
X196705750Y-121915000D01*
X196547000Y-122073750D01*
X196547000Y-123633000D01*
X196567000Y-123633000D01*
X196567000Y-123887000D01*
X196547000Y-123887000D01*
X196547000Y-125446250D01*
X196705750Y-125605000D01*
X198695000Y-125607711D01*
X198695000Y-133925000D01*
X126425000Y-133925000D01*
X126425000Y-132429040D01*
X135768091Y-132429040D01*
X135862930Y-132693881D01*
X136007615Y-132935131D01*
X136196586Y-133143519D01*
X136422580Y-133311037D01*
X136676913Y-133431246D01*
X136810961Y-133471904D01*
X137033000Y-133349915D01*
X137033000Y-132207000D01*
X137287000Y-132207000D01*
X137287000Y-133349915D01*
X137509039Y-133471904D01*
X137643087Y-133431246D01*
X137897420Y-133311037D01*
X138123414Y-133143519D01*
X138312385Y-132935131D01*
X138457070Y-132693881D01*
X138551909Y-132429040D01*
X140848091Y-132429040D01*
X140942930Y-132693881D01*
X141087615Y-132935131D01*
X141276586Y-133143519D01*
X141502580Y-133311037D01*
X141756913Y-133431246D01*
X141890961Y-133471904D01*
X142113000Y-133349915D01*
X142113000Y-132207000D01*
X142367000Y-132207000D01*
X142367000Y-133349915D01*
X142589039Y-133471904D01*
X142723087Y-133431246D01*
X142977420Y-133311037D01*
X143203414Y-133143519D01*
X143392385Y-132935131D01*
X143537070Y-132693881D01*
X143631909Y-132429040D01*
X147198091Y-132429040D01*
X147292930Y-132693881D01*
X147437615Y-132935131D01*
X147626586Y-133143519D01*
X147852580Y-133311037D01*
X148106913Y-133431246D01*
X148240961Y-133471904D01*
X148463000Y-133349915D01*
X148463000Y-132207000D01*
X148717000Y-132207000D01*
X148717000Y-133349915D01*
X148939039Y-133471904D01*
X149073087Y-133431246D01*
X149327420Y-133311037D01*
X149553414Y-133143519D01*
X149742385Y-132935131D01*
X149887070Y-132693881D01*
X149981909Y-132429040D01*
X152278091Y-132429040D01*
X152372930Y-132693881D01*
X152517615Y-132935131D01*
X152706586Y-133143519D01*
X152932580Y-133311037D01*
X153186913Y-133431246D01*
X153320961Y-133471904D01*
X153543000Y-133349915D01*
X153543000Y-132207000D01*
X153797000Y-132207000D01*
X153797000Y-133349915D01*
X154019039Y-133471904D01*
X154153087Y-133431246D01*
X154407420Y-133311037D01*
X154633414Y-133143519D01*
X154822385Y-132935131D01*
X154967070Y-132693881D01*
X155061909Y-132429040D01*
X158628091Y-132429040D01*
X158722930Y-132693881D01*
X158867615Y-132935131D01*
X159056586Y-133143519D01*
X159282580Y-133311037D01*
X159536913Y-133431246D01*
X159670961Y-133471904D01*
X159893000Y-133349915D01*
X159893000Y-132207000D01*
X160147000Y-132207000D01*
X160147000Y-133349915D01*
X160369039Y-133471904D01*
X160503087Y-133431246D01*
X160757420Y-133311037D01*
X160983414Y-133143519D01*
X161172385Y-132935131D01*
X161317070Y-132693881D01*
X161411909Y-132429040D01*
X163708091Y-132429040D01*
X163802930Y-132693881D01*
X163947615Y-132935131D01*
X164136586Y-133143519D01*
X164362580Y-133311037D01*
X164616913Y-133431246D01*
X164750961Y-133471904D01*
X164973000Y-133349915D01*
X164973000Y-132207000D01*
X165227000Y-132207000D01*
X165227000Y-133349915D01*
X165449039Y-133471904D01*
X165583087Y-133431246D01*
X165837420Y-133311037D01*
X166063414Y-133143519D01*
X166252385Y-132935131D01*
X166397070Y-132693881D01*
X166491909Y-132429040D01*
X170058091Y-132429040D01*
X170152930Y-132693881D01*
X170297615Y-132935131D01*
X170486586Y-133143519D01*
X170712580Y-133311037D01*
X170966913Y-133431246D01*
X171100961Y-133471904D01*
X171323000Y-133349915D01*
X171323000Y-132207000D01*
X171577000Y-132207000D01*
X171577000Y-133349915D01*
X171799039Y-133471904D01*
X171933087Y-133431246D01*
X172187420Y-133311037D01*
X172413414Y-133143519D01*
X172602385Y-132935131D01*
X172747070Y-132693881D01*
X172841909Y-132429040D01*
X175138091Y-132429040D01*
X175232930Y-132693881D01*
X175377615Y-132935131D01*
X175566586Y-133143519D01*
X175792580Y-133311037D01*
X176046913Y-133431246D01*
X176180961Y-133471904D01*
X176403000Y-133349915D01*
X176403000Y-132207000D01*
X176657000Y-132207000D01*
X176657000Y-133349915D01*
X176879039Y-133471904D01*
X177013087Y-133431246D01*
X177267420Y-133311037D01*
X177493414Y-133143519D01*
X177682385Y-132935131D01*
X177827070Y-132693881D01*
X177921909Y-132429040D01*
X181488091Y-132429040D01*
X181582930Y-132693881D01*
X181727615Y-132935131D01*
X181916586Y-133143519D01*
X182142580Y-133311037D01*
X182396913Y-133431246D01*
X182530961Y-133471904D01*
X182753000Y-133349915D01*
X182753000Y-132207000D01*
X183007000Y-132207000D01*
X183007000Y-133349915D01*
X183229039Y-133471904D01*
X183363087Y-133431246D01*
X183617420Y-133311037D01*
X183843414Y-133143519D01*
X184032385Y-132935131D01*
X184177070Y-132693881D01*
X184271909Y-132429040D01*
X186568091Y-132429040D01*
X186662930Y-132693881D01*
X186807615Y-132935131D01*
X186996586Y-133143519D01*
X187222580Y-133311037D01*
X187476913Y-133431246D01*
X187610961Y-133471904D01*
X187833000Y-133349915D01*
X187833000Y-132207000D01*
X188087000Y-132207000D01*
X188087000Y-133349915D01*
X188309039Y-133471904D01*
X188443087Y-133431246D01*
X188697420Y-133311037D01*
X188923414Y-133143519D01*
X189112385Y-132935131D01*
X189257070Y-132693881D01*
X189351909Y-132429040D01*
X189230624Y-132207000D01*
X188087000Y-132207000D01*
X187833000Y-132207000D01*
X186689376Y-132207000D01*
X186568091Y-132429040D01*
X184271909Y-132429040D01*
X184150624Y-132207000D01*
X183007000Y-132207000D01*
X182753000Y-132207000D01*
X181609376Y-132207000D01*
X181488091Y-132429040D01*
X177921909Y-132429040D01*
X177800624Y-132207000D01*
X176657000Y-132207000D01*
X176403000Y-132207000D01*
X175259376Y-132207000D01*
X175138091Y-132429040D01*
X172841909Y-132429040D01*
X172720624Y-132207000D01*
X171577000Y-132207000D01*
X171323000Y-132207000D01*
X170179376Y-132207000D01*
X170058091Y-132429040D01*
X166491909Y-132429040D01*
X166370624Y-132207000D01*
X165227000Y-132207000D01*
X164973000Y-132207000D01*
X163829376Y-132207000D01*
X163708091Y-132429040D01*
X161411909Y-132429040D01*
X161290624Y-132207000D01*
X160147000Y-132207000D01*
X159893000Y-132207000D01*
X158749376Y-132207000D01*
X158628091Y-132429040D01*
X155061909Y-132429040D01*
X154940624Y-132207000D01*
X153797000Y-132207000D01*
X153543000Y-132207000D01*
X152399376Y-132207000D01*
X152278091Y-132429040D01*
X149981909Y-132429040D01*
X149860624Y-132207000D01*
X148717000Y-132207000D01*
X148463000Y-132207000D01*
X147319376Y-132207000D01*
X147198091Y-132429040D01*
X143631909Y-132429040D01*
X143510624Y-132207000D01*
X142367000Y-132207000D01*
X142113000Y-132207000D01*
X140969376Y-132207000D01*
X140848091Y-132429040D01*
X138551909Y-132429040D01*
X138430624Y-132207000D01*
X137287000Y-132207000D01*
X137033000Y-132207000D01*
X135889376Y-132207000D01*
X135768091Y-132429040D01*
X126425000Y-132429040D01*
X126425000Y-125595655D01*
X126425518Y-125595812D01*
X126550000Y-125608072D01*
X128804250Y-125605000D01*
X128963000Y-125446250D01*
X128963000Y-123887000D01*
X128943000Y-123887000D01*
X128943000Y-123633000D01*
X128963000Y-123633000D01*
X128963000Y-122073750D01*
X129217000Y-122073750D01*
X129217000Y-123633000D01*
X129237000Y-123633000D01*
X129237000Y-123887000D01*
X129217000Y-123887000D01*
X129217000Y-125446250D01*
X129375750Y-125605000D01*
X131630000Y-125608072D01*
X131754482Y-125595812D01*
X131778042Y-125588665D01*
X134455000Y-125588665D01*
X134455000Y-125871335D01*
X134510147Y-126148574D01*
X134618320Y-126409727D01*
X134775363Y-126644759D01*
X134975241Y-126844637D01*
X135210273Y-127001680D01*
X135471426Y-127109853D01*
X135712718Y-127157850D01*
X136025001Y-127470133D01*
X136025000Y-128655716D01*
X135888320Y-128860273D01*
X135780147Y-129121426D01*
X135725000Y-129398665D01*
X135725000Y-129681335D01*
X135780147Y-129958574D01*
X135888320Y-130219727D01*
X136045363Y-130454759D01*
X136245241Y-130654637D01*
X136480273Y-130811680D01*
X136491565Y-130816357D01*
X136422580Y-130848963D01*
X136196586Y-131016481D01*
X136007615Y-131224869D01*
X135862930Y-131466119D01*
X135768091Y-131730960D01*
X135889376Y-131953000D01*
X137033000Y-131953000D01*
X137033000Y-131933000D01*
X137287000Y-131933000D01*
X137287000Y-131953000D01*
X138430624Y-131953000D01*
X138551909Y-131730960D01*
X138457070Y-131466119D01*
X138312385Y-131224869D01*
X138123414Y-131016481D01*
X137897420Y-130848963D01*
X137828435Y-130816357D01*
X137839727Y-130811680D01*
X138074759Y-130654637D01*
X138274637Y-130454759D01*
X138431680Y-130219727D01*
X138539853Y-129958574D01*
X138595000Y-129681335D01*
X138595000Y-129398665D01*
X138539853Y-129121426D01*
X138431680Y-128860273D01*
X138295000Y-128655716D01*
X138295000Y-127055743D01*
X138300490Y-126999999D01*
X138295000Y-126944255D01*
X138295000Y-126944248D01*
X138278577Y-126777501D01*
X138213676Y-126563553D01*
X138108284Y-126366377D01*
X137966449Y-126193551D01*
X137923140Y-126158008D01*
X137317850Y-125552718D01*
X137269853Y-125311426D01*
X137161680Y-125050273D01*
X137058812Y-124896320D01*
X137630132Y-124325000D01*
X143217847Y-124325000D01*
X143091426Y-124350147D01*
X142830273Y-124458320D01*
X142595241Y-124615363D01*
X142395363Y-124815241D01*
X142238320Y-125050273D01*
X142130147Y-125311426D01*
X142082150Y-125552718D01*
X141476860Y-126158009D01*
X141433552Y-126193551D01*
X141291717Y-126366377D01*
X141268546Y-126409727D01*
X141186324Y-126563554D01*
X141121423Y-126777502D01*
X141099509Y-127000000D01*
X141105001Y-127055761D01*
X141105000Y-128655716D01*
X140968320Y-128860273D01*
X140860147Y-129121426D01*
X140805000Y-129398665D01*
X140805000Y-129681335D01*
X140860147Y-129958574D01*
X140968320Y-130219727D01*
X141125363Y-130454759D01*
X141325241Y-130654637D01*
X141560273Y-130811680D01*
X141571565Y-130816357D01*
X141502580Y-130848963D01*
X141276586Y-131016481D01*
X141087615Y-131224869D01*
X140942930Y-131466119D01*
X140848091Y-131730960D01*
X140969376Y-131953000D01*
X142113000Y-131953000D01*
X142113000Y-131933000D01*
X142367000Y-131933000D01*
X142367000Y-131953000D01*
X143510624Y-131953000D01*
X143631909Y-131730960D01*
X143537070Y-131466119D01*
X143392385Y-131224869D01*
X143203414Y-131016481D01*
X142977420Y-130848963D01*
X142908435Y-130816357D01*
X142919727Y-130811680D01*
X143154759Y-130654637D01*
X143354637Y-130454759D01*
X143511680Y-130219727D01*
X143619853Y-129958574D01*
X143675000Y-129681335D01*
X143675000Y-129398665D01*
X143619853Y-129121426D01*
X143511680Y-128860273D01*
X143375000Y-128655716D01*
X143375000Y-127470131D01*
X143687282Y-127157850D01*
X143928574Y-127109853D01*
X144189727Y-127001680D01*
X144424759Y-126844637D01*
X144624637Y-126644759D01*
X144781680Y-126409727D01*
X144889853Y-126148574D01*
X144945000Y-125871335D01*
X144945000Y-125588665D01*
X145885000Y-125588665D01*
X145885000Y-125871335D01*
X145940147Y-126148574D01*
X146048320Y-126409727D01*
X146205363Y-126644759D01*
X146405241Y-126844637D01*
X146640273Y-127001680D01*
X146901426Y-127109853D01*
X147142718Y-127157850D01*
X147455001Y-127470133D01*
X147455000Y-128655716D01*
X147318320Y-128860273D01*
X147210147Y-129121426D01*
X147155000Y-129398665D01*
X147155000Y-129681335D01*
X147210147Y-129958574D01*
X147318320Y-130219727D01*
X147475363Y-130454759D01*
X147675241Y-130654637D01*
X147910273Y-130811680D01*
X147921565Y-130816357D01*
X147852580Y-130848963D01*
X147626586Y-131016481D01*
X147437615Y-131224869D01*
X147292930Y-131466119D01*
X147198091Y-131730960D01*
X147319376Y-131953000D01*
X148463000Y-131953000D01*
X148463000Y-131933000D01*
X148717000Y-131933000D01*
X148717000Y-131953000D01*
X149860624Y-131953000D01*
X149981909Y-131730960D01*
X149887070Y-131466119D01*
X149742385Y-131224869D01*
X149553414Y-131016481D01*
X149327420Y-130848963D01*
X149258435Y-130816357D01*
X149269727Y-130811680D01*
X149504759Y-130654637D01*
X149704637Y-130454759D01*
X149861680Y-130219727D01*
X149969853Y-129958574D01*
X150025000Y-129681335D01*
X150025000Y-129398665D01*
X149969853Y-129121426D01*
X149861680Y-128860273D01*
X149725000Y-128655716D01*
X149725000Y-127055743D01*
X149730490Y-126999999D01*
X149725000Y-126944255D01*
X149725000Y-126944248D01*
X149708577Y-126777501D01*
X149643676Y-126563553D01*
X149538284Y-126366377D01*
X149396449Y-126193551D01*
X149353140Y-126158008D01*
X148747850Y-125552718D01*
X148699853Y-125311426D01*
X148591680Y-125050273D01*
X148488812Y-124896320D01*
X149060132Y-124325000D01*
X154647847Y-124325000D01*
X154521426Y-124350147D01*
X154260273Y-124458320D01*
X154025241Y-124615363D01*
X153825363Y-124815241D01*
X153668320Y-125050273D01*
X153560147Y-125311426D01*
X153512150Y-125552718D01*
X152906860Y-126158009D01*
X152863552Y-126193551D01*
X152721717Y-126366377D01*
X152698546Y-126409727D01*
X152616324Y-126563554D01*
X152551423Y-126777502D01*
X152529509Y-127000000D01*
X152535001Y-127055761D01*
X152535000Y-128655716D01*
X152398320Y-128860273D01*
X152290147Y-129121426D01*
X152235000Y-129398665D01*
X152235000Y-129681335D01*
X152290147Y-129958574D01*
X152398320Y-130219727D01*
X152555363Y-130454759D01*
X152755241Y-130654637D01*
X152990273Y-130811680D01*
X153001565Y-130816357D01*
X152932580Y-130848963D01*
X152706586Y-131016481D01*
X152517615Y-131224869D01*
X152372930Y-131466119D01*
X152278091Y-131730960D01*
X152399376Y-131953000D01*
X153543000Y-131953000D01*
X153543000Y-131933000D01*
X153797000Y-131933000D01*
X153797000Y-131953000D01*
X154940624Y-131953000D01*
X155061909Y-131730960D01*
X154967070Y-131466119D01*
X154822385Y-131224869D01*
X154633414Y-131016481D01*
X154407420Y-130848963D01*
X154338435Y-130816357D01*
X154349727Y-130811680D01*
X154584759Y-130654637D01*
X154784637Y-130454759D01*
X154941680Y-130219727D01*
X155049853Y-129958574D01*
X155105000Y-129681335D01*
X155105000Y-129398665D01*
X155049853Y-129121426D01*
X154941680Y-128860273D01*
X154805000Y-128655716D01*
X154805000Y-127470131D01*
X155117282Y-127157850D01*
X155358574Y-127109853D01*
X155619727Y-127001680D01*
X155854759Y-126844637D01*
X156054637Y-126644759D01*
X156211680Y-126409727D01*
X156319853Y-126148574D01*
X156375000Y-125871335D01*
X156375000Y-125588665D01*
X157315000Y-125588665D01*
X157315000Y-125871335D01*
X157370147Y-126148574D01*
X157478320Y-126409727D01*
X157635363Y-126644759D01*
X157835241Y-126844637D01*
X158070273Y-127001680D01*
X158331426Y-127109853D01*
X158572718Y-127157850D01*
X158885001Y-127470133D01*
X158885000Y-128655716D01*
X158748320Y-128860273D01*
X158640147Y-129121426D01*
X158585000Y-129398665D01*
X158585000Y-129681335D01*
X158640147Y-129958574D01*
X158748320Y-130219727D01*
X158905363Y-130454759D01*
X159105241Y-130654637D01*
X159340273Y-130811680D01*
X159351565Y-130816357D01*
X159282580Y-130848963D01*
X159056586Y-131016481D01*
X158867615Y-131224869D01*
X158722930Y-131466119D01*
X158628091Y-131730960D01*
X158749376Y-131953000D01*
X159893000Y-131953000D01*
X159893000Y-131933000D01*
X160147000Y-131933000D01*
X160147000Y-131953000D01*
X161290624Y-131953000D01*
X161411909Y-131730960D01*
X161317070Y-131466119D01*
X161172385Y-131224869D01*
X160983414Y-131016481D01*
X160757420Y-130848963D01*
X160688435Y-130816357D01*
X160699727Y-130811680D01*
X160934759Y-130654637D01*
X161134637Y-130454759D01*
X161291680Y-130219727D01*
X161399853Y-129958574D01*
X161455000Y-129681335D01*
X161455000Y-129398665D01*
X161399853Y-129121426D01*
X161291680Y-128860273D01*
X161155000Y-128655716D01*
X161155000Y-127055743D01*
X161160490Y-126999999D01*
X161155000Y-126944255D01*
X161155000Y-126944248D01*
X161138577Y-126777501D01*
X161073676Y-126563553D01*
X160968284Y-126366377D01*
X160826449Y-126193551D01*
X160783140Y-126158008D01*
X160177850Y-125552718D01*
X160129853Y-125311426D01*
X160021680Y-125050273D01*
X159918812Y-124896320D01*
X160490132Y-124325000D01*
X166077847Y-124325000D01*
X165951426Y-124350147D01*
X165690273Y-124458320D01*
X165455241Y-124615363D01*
X165255363Y-124815241D01*
X165098320Y-125050273D01*
X164990147Y-125311426D01*
X164942150Y-125552718D01*
X164336860Y-126158009D01*
X164293552Y-126193551D01*
X164151717Y-126366377D01*
X164128546Y-126409727D01*
X164046324Y-126563554D01*
X163981423Y-126777502D01*
X163959509Y-127000000D01*
X163965001Y-127055761D01*
X163965000Y-128655716D01*
X163828320Y-128860273D01*
X163720147Y-129121426D01*
X163665000Y-129398665D01*
X163665000Y-129681335D01*
X163720147Y-129958574D01*
X163828320Y-130219727D01*
X163985363Y-130454759D01*
X164185241Y-130654637D01*
X164420273Y-130811680D01*
X164431565Y-130816357D01*
X164362580Y-130848963D01*
X164136586Y-131016481D01*
X163947615Y-131224869D01*
X163802930Y-131466119D01*
X163708091Y-131730960D01*
X163829376Y-131953000D01*
X164973000Y-131953000D01*
X164973000Y-131933000D01*
X165227000Y-131933000D01*
X165227000Y-131953000D01*
X166370624Y-131953000D01*
X166491909Y-131730960D01*
X166397070Y-131466119D01*
X166252385Y-131224869D01*
X166063414Y-131016481D01*
X165837420Y-130848963D01*
X165768435Y-130816357D01*
X165779727Y-130811680D01*
X166014759Y-130654637D01*
X166214637Y-130454759D01*
X166371680Y-130219727D01*
X166479853Y-129958574D01*
X166535000Y-129681335D01*
X166535000Y-129398665D01*
X166479853Y-129121426D01*
X166371680Y-128860273D01*
X166235000Y-128655716D01*
X166235000Y-127470131D01*
X166547282Y-127157850D01*
X166788574Y-127109853D01*
X167049727Y-127001680D01*
X167284759Y-126844637D01*
X167484637Y-126644759D01*
X167641680Y-126409727D01*
X167749853Y-126148574D01*
X167805000Y-125871335D01*
X167805000Y-125588665D01*
X168745000Y-125588665D01*
X168745000Y-125871335D01*
X168800147Y-126148574D01*
X168908320Y-126409727D01*
X169065363Y-126644759D01*
X169265241Y-126844637D01*
X169500273Y-127001680D01*
X169761426Y-127109853D01*
X170002718Y-127157850D01*
X170315001Y-127470133D01*
X170315000Y-128655716D01*
X170178320Y-128860273D01*
X170070147Y-129121426D01*
X170015000Y-129398665D01*
X170015000Y-129681335D01*
X170070147Y-129958574D01*
X170178320Y-130219727D01*
X170335363Y-130454759D01*
X170535241Y-130654637D01*
X170770273Y-130811680D01*
X170781565Y-130816357D01*
X170712580Y-130848963D01*
X170486586Y-131016481D01*
X170297615Y-131224869D01*
X170152930Y-131466119D01*
X170058091Y-131730960D01*
X170179376Y-131953000D01*
X171323000Y-131953000D01*
X171323000Y-131933000D01*
X171577000Y-131933000D01*
X171577000Y-131953000D01*
X172720624Y-131953000D01*
X172841909Y-131730960D01*
X172747070Y-131466119D01*
X172602385Y-131224869D01*
X172413414Y-131016481D01*
X172187420Y-130848963D01*
X172118435Y-130816357D01*
X172129727Y-130811680D01*
X172364759Y-130654637D01*
X172564637Y-130454759D01*
X172721680Y-130219727D01*
X172829853Y-129958574D01*
X172885000Y-129681335D01*
X172885000Y-129398665D01*
X172829853Y-129121426D01*
X172721680Y-128860273D01*
X172585000Y-128655716D01*
X172585000Y-127055743D01*
X172590490Y-126999999D01*
X172585000Y-126944255D01*
X172585000Y-126944248D01*
X172568577Y-126777501D01*
X172503676Y-126563553D01*
X172398284Y-126366377D01*
X172256449Y-126193551D01*
X172213140Y-126158008D01*
X171607850Y-125552718D01*
X171559853Y-125311426D01*
X171451680Y-125050273D01*
X171348812Y-124896320D01*
X171920132Y-124325000D01*
X177507847Y-124325000D01*
X177381426Y-124350147D01*
X177120273Y-124458320D01*
X176885241Y-124615363D01*
X176685363Y-124815241D01*
X176528320Y-125050273D01*
X176420147Y-125311426D01*
X176372150Y-125552718D01*
X175766860Y-126158009D01*
X175723552Y-126193551D01*
X175581717Y-126366377D01*
X175558546Y-126409727D01*
X175476324Y-126563554D01*
X175411423Y-126777502D01*
X175389509Y-127000000D01*
X175395001Y-127055761D01*
X175395000Y-128655716D01*
X175258320Y-128860273D01*
X175150147Y-129121426D01*
X175095000Y-129398665D01*
X175095000Y-129681335D01*
X175150147Y-129958574D01*
X175258320Y-130219727D01*
X175415363Y-130454759D01*
X175615241Y-130654637D01*
X175850273Y-130811680D01*
X175861565Y-130816357D01*
X175792580Y-130848963D01*
X175566586Y-131016481D01*
X175377615Y-131224869D01*
X175232930Y-131466119D01*
X175138091Y-131730960D01*
X175259376Y-131953000D01*
X176403000Y-131953000D01*
X176403000Y-131933000D01*
X176657000Y-131933000D01*
X176657000Y-131953000D01*
X177800624Y-131953000D01*
X177921909Y-131730960D01*
X177827070Y-131466119D01*
X177682385Y-131224869D01*
X177493414Y-131016481D01*
X177267420Y-130848963D01*
X177198435Y-130816357D01*
X177209727Y-130811680D01*
X177444759Y-130654637D01*
X177644637Y-130454759D01*
X177801680Y-130219727D01*
X177909853Y-129958574D01*
X177965000Y-129681335D01*
X177965000Y-129398665D01*
X177909853Y-129121426D01*
X177801680Y-128860273D01*
X177665000Y-128655716D01*
X177665000Y-127470131D01*
X177977282Y-127157850D01*
X178218574Y-127109853D01*
X178479727Y-127001680D01*
X178714759Y-126844637D01*
X178914637Y-126644759D01*
X179071680Y-126409727D01*
X179179853Y-126148574D01*
X179235000Y-125871335D01*
X179235000Y-125588665D01*
X180175000Y-125588665D01*
X180175000Y-125871335D01*
X180230147Y-126148574D01*
X180338320Y-126409727D01*
X180495363Y-126644759D01*
X180695241Y-126844637D01*
X180930273Y-127001680D01*
X181191426Y-127109853D01*
X181432718Y-127157850D01*
X181745001Y-127470133D01*
X181745000Y-128655716D01*
X181608320Y-128860273D01*
X181500147Y-129121426D01*
X181445000Y-129398665D01*
X181445000Y-129681335D01*
X181500147Y-129958574D01*
X181608320Y-130219727D01*
X181765363Y-130454759D01*
X181965241Y-130654637D01*
X182200273Y-130811680D01*
X182211565Y-130816357D01*
X182142580Y-130848963D01*
X181916586Y-131016481D01*
X181727615Y-131224869D01*
X181582930Y-131466119D01*
X181488091Y-131730960D01*
X181609376Y-131953000D01*
X182753000Y-131953000D01*
X182753000Y-131933000D01*
X183007000Y-131933000D01*
X183007000Y-131953000D01*
X184150624Y-131953000D01*
X184271909Y-131730960D01*
X184177070Y-131466119D01*
X184032385Y-131224869D01*
X183843414Y-131016481D01*
X183617420Y-130848963D01*
X183548435Y-130816357D01*
X183559727Y-130811680D01*
X183794759Y-130654637D01*
X183994637Y-130454759D01*
X184151680Y-130219727D01*
X184259853Y-129958574D01*
X184315000Y-129681335D01*
X184315000Y-129398665D01*
X184259853Y-129121426D01*
X184151680Y-128860273D01*
X184015000Y-128655716D01*
X184015000Y-127055743D01*
X184020490Y-126999999D01*
X184015000Y-126944255D01*
X184015000Y-126944248D01*
X183998577Y-126777501D01*
X183933676Y-126563553D01*
X183828284Y-126366377D01*
X183686449Y-126193551D01*
X183643140Y-126158008D01*
X183037850Y-125552718D01*
X182989853Y-125311426D01*
X182881680Y-125050273D01*
X182778812Y-124896320D01*
X183350132Y-124325000D01*
X188937847Y-124325000D01*
X188811426Y-124350147D01*
X188550273Y-124458320D01*
X188315241Y-124615363D01*
X188115363Y-124815241D01*
X187958320Y-125050273D01*
X187850147Y-125311426D01*
X187802150Y-125552718D01*
X187196860Y-126158009D01*
X187153552Y-126193551D01*
X187011717Y-126366377D01*
X186988546Y-126409727D01*
X186906324Y-126563554D01*
X186841423Y-126777502D01*
X186819509Y-127000000D01*
X186825001Y-127055761D01*
X186825000Y-128655716D01*
X186688320Y-128860273D01*
X186580147Y-129121426D01*
X186525000Y-129398665D01*
X186525000Y-129681335D01*
X186580147Y-129958574D01*
X186688320Y-130219727D01*
X186845363Y-130454759D01*
X187045241Y-130654637D01*
X187280273Y-130811680D01*
X187291565Y-130816357D01*
X187222580Y-130848963D01*
X186996586Y-131016481D01*
X186807615Y-131224869D01*
X186662930Y-131466119D01*
X186568091Y-131730960D01*
X186689376Y-131953000D01*
X187833000Y-131953000D01*
X187833000Y-131933000D01*
X188087000Y-131933000D01*
X188087000Y-131953000D01*
X189230624Y-131953000D01*
X189351909Y-131730960D01*
X189257070Y-131466119D01*
X189112385Y-131224869D01*
X188923414Y-131016481D01*
X188697420Y-130848963D01*
X188628435Y-130816357D01*
X188639727Y-130811680D01*
X188874759Y-130654637D01*
X189074637Y-130454759D01*
X189231680Y-130219727D01*
X189339853Y-129958574D01*
X189395000Y-129681335D01*
X189395000Y-129398665D01*
X189339853Y-129121426D01*
X189231680Y-128860273D01*
X189095000Y-128655716D01*
X189095000Y-127470131D01*
X189407282Y-127157850D01*
X189648574Y-127109853D01*
X189909727Y-127001680D01*
X190144759Y-126844637D01*
X190344637Y-126644759D01*
X190501680Y-126409727D01*
X190609853Y-126148574D01*
X190665000Y-125871335D01*
X190665000Y-125588665D01*
X190609853Y-125311426D01*
X190501680Y-125050273D01*
X190344637Y-124815241D01*
X190144759Y-124615363D01*
X189909727Y-124458320D01*
X189648574Y-124350147D01*
X189443865Y-124309427D01*
X189452499Y-124308577D01*
X189666447Y-124243676D01*
X189863623Y-124138284D01*
X190036449Y-123996449D01*
X190071996Y-123953135D01*
X190182130Y-123843001D01*
X191857645Y-123843001D01*
X191895404Y-124060367D01*
X191974842Y-124266189D01*
X192000684Y-124314534D01*
X192212584Y-124347811D01*
X192356748Y-124203647D01*
X192370507Y-124245937D01*
X192431669Y-124355048D01*
X192492910Y-124426695D01*
X192392189Y-124527416D01*
X192425466Y-124739316D01*
X192627176Y-124828683D01*
X192842445Y-124876981D01*
X193063001Y-124882355D01*
X193242323Y-124851205D01*
X193241928Y-124970000D01*
X193254188Y-125094482D01*
X193290498Y-125214180D01*
X193349463Y-125324494D01*
X193428815Y-125421185D01*
X193525506Y-125500537D01*
X193635820Y-125559502D01*
X193755518Y-125595812D01*
X193880000Y-125608072D01*
X196134250Y-125605000D01*
X196293000Y-125446250D01*
X196293000Y-123887000D01*
X196273000Y-123887000D01*
X196273000Y-123633000D01*
X196293000Y-123633000D01*
X196293000Y-122073750D01*
X196134250Y-121915000D01*
X193880000Y-121911928D01*
X193755518Y-121924188D01*
X193635820Y-121960498D01*
X193525506Y-122019463D01*
X193428815Y-122098815D01*
X193349463Y-122195506D01*
X193290498Y-122305820D01*
X193254188Y-122425518D01*
X193241928Y-122550000D01*
X193242330Y-122671014D01*
X193117555Y-122643019D01*
X192896999Y-122637645D01*
X192679633Y-122675404D01*
X192473811Y-122754842D01*
X192425466Y-122780684D01*
X192392189Y-122992584D01*
X192492910Y-123093305D01*
X192431669Y-123164952D01*
X192370507Y-123274063D01*
X192356748Y-123316353D01*
X192212584Y-123172189D01*
X192000684Y-123205466D01*
X191911317Y-123407176D01*
X191863019Y-123622445D01*
X191857645Y-123843001D01*
X190182130Y-123843001D01*
X191263140Y-122761992D01*
X191306449Y-122726449D01*
X191448284Y-122553623D01*
X191553676Y-122356447D01*
X191618577Y-122142499D01*
X191635000Y-121975752D01*
X191635000Y-121975745D01*
X191640490Y-121920001D01*
X191635000Y-121864257D01*
X191635000Y-115625743D01*
X191640490Y-115569999D01*
X191635000Y-115514255D01*
X191635000Y-115514248D01*
X191618577Y-115347501D01*
X191553676Y-115133553D01*
X191526656Y-115083001D01*
X191857645Y-115083001D01*
X191895404Y-115300367D01*
X191974842Y-115506189D01*
X192000684Y-115554534D01*
X192212584Y-115587811D01*
X192356748Y-115443647D01*
X192370507Y-115485937D01*
X192431669Y-115595048D01*
X192492910Y-115666695D01*
X192392189Y-115767416D01*
X192425466Y-115979316D01*
X192627176Y-116068683D01*
X192842445Y-116116981D01*
X193063001Y-116122355D01*
X193242323Y-116091205D01*
X193241928Y-116210000D01*
X193254188Y-116334482D01*
X193290498Y-116454180D01*
X193349463Y-116564494D01*
X193428815Y-116661185D01*
X193525506Y-116740537D01*
X193635820Y-116799502D01*
X193755518Y-116835812D01*
X193880000Y-116848072D01*
X196134250Y-116845000D01*
X196293000Y-116686250D01*
X196293000Y-115127000D01*
X196273000Y-115127000D01*
X196273000Y-114873000D01*
X196293000Y-114873000D01*
X196293000Y-113313750D01*
X196134250Y-113155000D01*
X193880000Y-113151928D01*
X193755518Y-113164188D01*
X193635820Y-113200498D01*
X193525506Y-113259463D01*
X193428815Y-113338815D01*
X193349463Y-113435506D01*
X193290498Y-113545820D01*
X193254188Y-113665518D01*
X193241928Y-113790000D01*
X193242330Y-113911014D01*
X193117555Y-113883019D01*
X192896999Y-113877645D01*
X192679633Y-113915404D01*
X192473811Y-113994842D01*
X192425466Y-114020684D01*
X192392189Y-114232584D01*
X192492910Y-114333305D01*
X192431669Y-114404952D01*
X192370507Y-114514063D01*
X192356748Y-114556353D01*
X192212584Y-114412189D01*
X192000684Y-114445466D01*
X191911317Y-114647176D01*
X191863019Y-114862445D01*
X191857645Y-115083001D01*
X191526656Y-115083001D01*
X191448284Y-114936377D01*
X191306449Y-114763551D01*
X191263140Y-114728008D01*
X190071996Y-113536865D01*
X190036449Y-113493551D01*
X189863623Y-113351716D01*
X189666447Y-113246324D01*
X189452499Y-113181423D01*
X189285752Y-113165000D01*
X189285751Y-113165000D01*
X189230000Y-113159509D01*
X189174249Y-113165000D01*
X188925107Y-113165000D01*
X188906632Y-113146525D01*
X188663411Y-112984010D01*
X188393158Y-112872068D01*
X188106260Y-112815000D01*
X187813740Y-112815000D01*
X187526842Y-112872068D01*
X187256589Y-112984010D01*
X187013368Y-113146525D01*
X186806525Y-113353368D01*
X186690000Y-113527760D01*
X186573475Y-113353368D01*
X186366632Y-113146525D01*
X186123411Y-112984010D01*
X185853158Y-112872068D01*
X185566260Y-112815000D01*
X185273740Y-112815000D01*
X184986842Y-112872068D01*
X184716589Y-112984010D01*
X184473368Y-113146525D01*
X184341513Y-113278380D01*
X184319502Y-113205820D01*
X184260537Y-113095506D01*
X184181185Y-112998815D01*
X184084494Y-112919463D01*
X183974180Y-112860498D01*
X183854482Y-112824188D01*
X183730000Y-112811928D01*
X182030000Y-112811928D01*
X181905518Y-112824188D01*
X181785820Y-112860498D01*
X181675506Y-112919463D01*
X181578815Y-112998815D01*
X181499463Y-113095506D01*
X181440498Y-113205820D01*
X181404188Y-113325518D01*
X181391928Y-113450000D01*
X181391928Y-115150000D01*
X181404188Y-115274482D01*
X181440498Y-115394180D01*
X181499463Y-115504494D01*
X181578815Y-115601185D01*
X181675506Y-115680537D01*
X181745000Y-115717683D01*
X181745001Y-118414892D01*
X181726525Y-118433368D01*
X181564010Y-118676589D01*
X181452068Y-118946842D01*
X181395000Y-119233740D01*
X181395000Y-119526260D01*
X181452068Y-119813158D01*
X181564010Y-120083411D01*
X181726525Y-120326632D01*
X181933368Y-120533475D01*
X182176589Y-120695990D01*
X182446842Y-120807932D01*
X182733740Y-120865000D01*
X183026260Y-120865000D01*
X183313158Y-120807932D01*
X183583411Y-120695990D01*
X183826632Y-120533475D01*
X184033475Y-120326632D01*
X184150000Y-120152240D01*
X184266525Y-120326632D01*
X184473368Y-120533475D01*
X184716589Y-120695990D01*
X184986842Y-120807932D01*
X185273740Y-120865000D01*
X185566260Y-120865000D01*
X185853158Y-120807932D01*
X186123411Y-120695990D01*
X186366632Y-120533475D01*
X186498487Y-120401620D01*
X186520498Y-120474180D01*
X186579463Y-120584494D01*
X186658815Y-120681185D01*
X186755506Y-120760537D01*
X186865820Y-120819502D01*
X186985518Y-120855812D01*
X187110000Y-120868072D01*
X188810000Y-120868072D01*
X188934482Y-120855812D01*
X189054180Y-120819502D01*
X189164494Y-120760537D01*
X189261185Y-120681185D01*
X189340537Y-120584494D01*
X189365001Y-120538726D01*
X189365001Y-121449867D01*
X188759869Y-122055000D01*
X182935743Y-122055000D01*
X182879999Y-122049510D01*
X182824255Y-122055000D01*
X182824248Y-122055000D01*
X182678493Y-122069356D01*
X182657500Y-122071423D01*
X182607705Y-122086529D01*
X182443553Y-122136324D01*
X182246377Y-122241716D01*
X182073551Y-122383551D01*
X182038011Y-122426857D01*
X180846865Y-123618004D01*
X180803551Y-123653551D01*
X180661716Y-123826377D01*
X180570812Y-123996448D01*
X180556324Y-124023554D01*
X180491423Y-124237502D01*
X180469509Y-124460000D01*
X180475000Y-124515751D01*
X180475000Y-124845716D01*
X180338320Y-125050273D01*
X180230147Y-125311426D01*
X180175000Y-125588665D01*
X179235000Y-125588665D01*
X179179853Y-125311426D01*
X179071680Y-125050273D01*
X178914637Y-124815241D01*
X178714759Y-124615363D01*
X178479727Y-124458320D01*
X178218574Y-124350147D01*
X178013865Y-124309427D01*
X178022499Y-124308577D01*
X178236447Y-124243676D01*
X178433623Y-124138284D01*
X178606449Y-123996449D01*
X178641996Y-123953135D01*
X179833140Y-122761992D01*
X179876449Y-122726449D01*
X180018284Y-122553623D01*
X180123676Y-122356447D01*
X180188577Y-122142499D01*
X180205000Y-121975752D01*
X180205000Y-121975745D01*
X180210490Y-121920001D01*
X180205000Y-121864257D01*
X180205000Y-115625743D01*
X180210490Y-115569999D01*
X180205000Y-115514255D01*
X180205000Y-115514248D01*
X180188577Y-115347501D01*
X180123676Y-115133553D01*
X180018284Y-114936377D01*
X179876449Y-114763551D01*
X179833140Y-114728008D01*
X178641996Y-113536865D01*
X178606449Y-113493551D01*
X178433623Y-113351716D01*
X178236447Y-113246324D01*
X178022499Y-113181423D01*
X177855752Y-113165000D01*
X177855751Y-113165000D01*
X177800000Y-113159509D01*
X177744249Y-113165000D01*
X177495107Y-113165000D01*
X177476632Y-113146525D01*
X177233411Y-112984010D01*
X176963158Y-112872068D01*
X176676260Y-112815000D01*
X176383740Y-112815000D01*
X176096842Y-112872068D01*
X175826589Y-112984010D01*
X175583368Y-113146525D01*
X175376525Y-113353368D01*
X175260000Y-113527760D01*
X175143475Y-113353368D01*
X174936632Y-113146525D01*
X174693411Y-112984010D01*
X174423158Y-112872068D01*
X174136260Y-112815000D01*
X173843740Y-112815000D01*
X173556842Y-112872068D01*
X173286589Y-112984010D01*
X173043368Y-113146525D01*
X172911513Y-113278380D01*
X172889502Y-113205820D01*
X172830537Y-113095506D01*
X172751185Y-112998815D01*
X172654494Y-112919463D01*
X172544180Y-112860498D01*
X172424482Y-112824188D01*
X172300000Y-112811928D01*
X170600000Y-112811928D01*
X170475518Y-112824188D01*
X170355820Y-112860498D01*
X170245506Y-112919463D01*
X170148815Y-112998815D01*
X170069463Y-113095506D01*
X170010498Y-113205820D01*
X169974188Y-113325518D01*
X169961928Y-113450000D01*
X169961928Y-115150000D01*
X169974188Y-115274482D01*
X170010498Y-115394180D01*
X170069463Y-115504494D01*
X170148815Y-115601185D01*
X170245506Y-115680537D01*
X170315000Y-115717683D01*
X170315001Y-118414892D01*
X170296525Y-118433368D01*
X170134010Y-118676589D01*
X170022068Y-118946842D01*
X169965000Y-119233740D01*
X169965000Y-119526260D01*
X170022068Y-119813158D01*
X170134010Y-120083411D01*
X170296525Y-120326632D01*
X170503368Y-120533475D01*
X170746589Y-120695990D01*
X171016842Y-120807932D01*
X171303740Y-120865000D01*
X171596260Y-120865000D01*
X171883158Y-120807932D01*
X172153411Y-120695990D01*
X172396632Y-120533475D01*
X172603475Y-120326632D01*
X172720000Y-120152240D01*
X172836525Y-120326632D01*
X173043368Y-120533475D01*
X173286589Y-120695990D01*
X173556842Y-120807932D01*
X173843740Y-120865000D01*
X174136260Y-120865000D01*
X174423158Y-120807932D01*
X174693411Y-120695990D01*
X174936632Y-120533475D01*
X175068487Y-120401620D01*
X175090498Y-120474180D01*
X175149463Y-120584494D01*
X175228815Y-120681185D01*
X175325506Y-120760537D01*
X175435820Y-120819502D01*
X175555518Y-120855812D01*
X175680000Y-120868072D01*
X177380000Y-120868072D01*
X177504482Y-120855812D01*
X177624180Y-120819502D01*
X177734494Y-120760537D01*
X177831185Y-120681185D01*
X177910537Y-120584494D01*
X177935001Y-120538726D01*
X177935001Y-121449867D01*
X177329869Y-122055000D01*
X171505743Y-122055000D01*
X171449999Y-122049510D01*
X171394255Y-122055000D01*
X171394248Y-122055000D01*
X171248493Y-122069356D01*
X171227500Y-122071423D01*
X171177705Y-122086529D01*
X171013553Y-122136324D01*
X170816377Y-122241716D01*
X170643551Y-122383551D01*
X170608011Y-122426857D01*
X169416865Y-123618004D01*
X169373551Y-123653551D01*
X169231716Y-123826377D01*
X169140812Y-123996448D01*
X169126324Y-124023554D01*
X169061423Y-124237502D01*
X169039509Y-124460000D01*
X169045000Y-124515751D01*
X169045000Y-124845716D01*
X168908320Y-125050273D01*
X168800147Y-125311426D01*
X168745000Y-125588665D01*
X167805000Y-125588665D01*
X167749853Y-125311426D01*
X167641680Y-125050273D01*
X167484637Y-124815241D01*
X167284759Y-124615363D01*
X167049727Y-124458320D01*
X166788574Y-124350147D01*
X166583865Y-124309427D01*
X166592499Y-124308577D01*
X166806447Y-124243676D01*
X167003623Y-124138284D01*
X167176449Y-123996449D01*
X167211996Y-123953135D01*
X168403140Y-122761992D01*
X168446449Y-122726449D01*
X168588284Y-122553623D01*
X168693676Y-122356447D01*
X168758577Y-122142499D01*
X168775000Y-121975752D01*
X168775000Y-121975745D01*
X168780490Y-121920001D01*
X168775000Y-121864257D01*
X168775000Y-115625743D01*
X168780490Y-115569999D01*
X168775000Y-115514255D01*
X168775000Y-115514248D01*
X168758577Y-115347501D01*
X168693676Y-115133553D01*
X168588284Y-114936377D01*
X168446449Y-114763551D01*
X168403140Y-114728008D01*
X167211996Y-113536865D01*
X167176449Y-113493551D01*
X167003623Y-113351716D01*
X166806447Y-113246324D01*
X166592499Y-113181423D01*
X166425752Y-113165000D01*
X166425751Y-113165000D01*
X166370000Y-113159509D01*
X166314249Y-113165000D01*
X166065107Y-113165000D01*
X166046632Y-113146525D01*
X165803411Y-112984010D01*
X165533158Y-112872068D01*
X165246260Y-112815000D01*
X164953740Y-112815000D01*
X164666842Y-112872068D01*
X164396589Y-112984010D01*
X164153368Y-113146525D01*
X163946525Y-113353368D01*
X163830000Y-113527760D01*
X163713475Y-113353368D01*
X163506632Y-113146525D01*
X163263411Y-112984010D01*
X162993158Y-112872068D01*
X162706260Y-112815000D01*
X162413740Y-112815000D01*
X162126842Y-112872068D01*
X161856589Y-112984010D01*
X161613368Y-113146525D01*
X161481513Y-113278380D01*
X161459502Y-113205820D01*
X161400537Y-113095506D01*
X161321185Y-112998815D01*
X161224494Y-112919463D01*
X161114180Y-112860498D01*
X160994482Y-112824188D01*
X160870000Y-112811928D01*
X159170000Y-112811928D01*
X159045518Y-112824188D01*
X158925820Y-112860498D01*
X158815506Y-112919463D01*
X158718815Y-112998815D01*
X158639463Y-113095506D01*
X158580498Y-113205820D01*
X158544188Y-113325518D01*
X158531928Y-113450000D01*
X158531928Y-115150000D01*
X158544188Y-115274482D01*
X158580498Y-115394180D01*
X158639463Y-115504494D01*
X158718815Y-115601185D01*
X158815506Y-115680537D01*
X158885000Y-115717683D01*
X158885001Y-118414892D01*
X158866525Y-118433368D01*
X158704010Y-118676589D01*
X158592068Y-118946842D01*
X158535000Y-119233740D01*
X158535000Y-119526260D01*
X158592068Y-119813158D01*
X158704010Y-120083411D01*
X158866525Y-120326632D01*
X159073368Y-120533475D01*
X159316589Y-120695990D01*
X159586842Y-120807932D01*
X159873740Y-120865000D01*
X160166260Y-120865000D01*
X160453158Y-120807932D01*
X160723411Y-120695990D01*
X160966632Y-120533475D01*
X161173475Y-120326632D01*
X161290000Y-120152240D01*
X161406525Y-120326632D01*
X161613368Y-120533475D01*
X161856589Y-120695990D01*
X162126842Y-120807932D01*
X162413740Y-120865000D01*
X162706260Y-120865000D01*
X162993158Y-120807932D01*
X163263411Y-120695990D01*
X163506632Y-120533475D01*
X163638487Y-120401620D01*
X163660498Y-120474180D01*
X163719463Y-120584494D01*
X163798815Y-120681185D01*
X163895506Y-120760537D01*
X164005820Y-120819502D01*
X164125518Y-120855812D01*
X164250000Y-120868072D01*
X165950000Y-120868072D01*
X166074482Y-120855812D01*
X166194180Y-120819502D01*
X166304494Y-120760537D01*
X166401185Y-120681185D01*
X166480537Y-120584494D01*
X166505001Y-120538726D01*
X166505001Y-121449867D01*
X165899869Y-122055000D01*
X160075743Y-122055000D01*
X160019999Y-122049510D01*
X159964255Y-122055000D01*
X159964248Y-122055000D01*
X159818493Y-122069356D01*
X159797500Y-122071423D01*
X159747705Y-122086529D01*
X159583553Y-122136324D01*
X159386377Y-122241716D01*
X159213551Y-122383551D01*
X159178011Y-122426857D01*
X157986865Y-123618004D01*
X157943551Y-123653551D01*
X157801716Y-123826377D01*
X157710812Y-123996448D01*
X157696324Y-124023554D01*
X157631423Y-124237502D01*
X157609509Y-124460000D01*
X157615000Y-124515751D01*
X157615000Y-124845716D01*
X157478320Y-125050273D01*
X157370147Y-125311426D01*
X157315000Y-125588665D01*
X156375000Y-125588665D01*
X156319853Y-125311426D01*
X156211680Y-125050273D01*
X156054637Y-124815241D01*
X155854759Y-124615363D01*
X155619727Y-124458320D01*
X155358574Y-124350147D01*
X155153865Y-124309427D01*
X155162499Y-124308577D01*
X155376447Y-124243676D01*
X155573623Y-124138284D01*
X155746449Y-123996449D01*
X155781996Y-123953135D01*
X156973140Y-122761992D01*
X157016449Y-122726449D01*
X157158284Y-122553623D01*
X157263676Y-122356447D01*
X157328577Y-122142499D01*
X157345000Y-121975752D01*
X157345000Y-121975745D01*
X157350490Y-121920001D01*
X157345000Y-121864257D01*
X157345000Y-115625743D01*
X157350490Y-115569999D01*
X157345000Y-115514255D01*
X157345000Y-115514248D01*
X157328577Y-115347501D01*
X157263676Y-115133553D01*
X157158284Y-114936377D01*
X157016449Y-114763551D01*
X156973140Y-114728008D01*
X155781996Y-113536865D01*
X155746449Y-113493551D01*
X155573623Y-113351716D01*
X155376447Y-113246324D01*
X155162499Y-113181423D01*
X154995752Y-113165000D01*
X154995751Y-113165000D01*
X154940000Y-113159509D01*
X154884249Y-113165000D01*
X154635107Y-113165000D01*
X154616632Y-113146525D01*
X154373411Y-112984010D01*
X154103158Y-112872068D01*
X153816260Y-112815000D01*
X153523740Y-112815000D01*
X153236842Y-112872068D01*
X152966589Y-112984010D01*
X152723368Y-113146525D01*
X152516525Y-113353368D01*
X152400000Y-113527760D01*
X152283475Y-113353368D01*
X152076632Y-113146525D01*
X151833411Y-112984010D01*
X151563158Y-112872068D01*
X151276260Y-112815000D01*
X150983740Y-112815000D01*
X150696842Y-112872068D01*
X150426589Y-112984010D01*
X150183368Y-113146525D01*
X150051513Y-113278380D01*
X150029502Y-113205820D01*
X149970537Y-113095506D01*
X149891185Y-112998815D01*
X149794494Y-112919463D01*
X149684180Y-112860498D01*
X149564482Y-112824188D01*
X149440000Y-112811928D01*
X147740000Y-112811928D01*
X147615518Y-112824188D01*
X147495820Y-112860498D01*
X147385506Y-112919463D01*
X147288815Y-112998815D01*
X147209463Y-113095506D01*
X147150498Y-113205820D01*
X147114188Y-113325518D01*
X147101928Y-113450000D01*
X147101928Y-115150000D01*
X147114188Y-115274482D01*
X147150498Y-115394180D01*
X147209463Y-115504494D01*
X147288815Y-115601185D01*
X147385506Y-115680537D01*
X147455000Y-115717683D01*
X147455001Y-118414892D01*
X147436525Y-118433368D01*
X147274010Y-118676589D01*
X147162068Y-118946842D01*
X147105000Y-119233740D01*
X147105000Y-119526260D01*
X147162068Y-119813158D01*
X147274010Y-120083411D01*
X147436525Y-120326632D01*
X147643368Y-120533475D01*
X147886589Y-120695990D01*
X148156842Y-120807932D01*
X148443740Y-120865000D01*
X148736260Y-120865000D01*
X149023158Y-120807932D01*
X149293411Y-120695990D01*
X149536632Y-120533475D01*
X149743475Y-120326632D01*
X149860000Y-120152240D01*
X149976525Y-120326632D01*
X150183368Y-120533475D01*
X150426589Y-120695990D01*
X150696842Y-120807932D01*
X150983740Y-120865000D01*
X151276260Y-120865000D01*
X151563158Y-120807932D01*
X151833411Y-120695990D01*
X152076632Y-120533475D01*
X152208487Y-120401620D01*
X152230498Y-120474180D01*
X152289463Y-120584494D01*
X152368815Y-120681185D01*
X152465506Y-120760537D01*
X152575820Y-120819502D01*
X152695518Y-120855812D01*
X152820000Y-120868072D01*
X154520000Y-120868072D01*
X154644482Y-120855812D01*
X154764180Y-120819502D01*
X154874494Y-120760537D01*
X154971185Y-120681185D01*
X155050537Y-120584494D01*
X155075001Y-120538726D01*
X155075001Y-121449867D01*
X154469869Y-122055000D01*
X148645743Y-122055000D01*
X148589999Y-122049510D01*
X148534255Y-122055000D01*
X148534248Y-122055000D01*
X148388493Y-122069356D01*
X148367500Y-122071423D01*
X148317705Y-122086529D01*
X148153553Y-122136324D01*
X147956377Y-122241716D01*
X147783551Y-122383551D01*
X147748011Y-122426857D01*
X146556865Y-123618004D01*
X146513551Y-123653551D01*
X146371716Y-123826377D01*
X146280812Y-123996448D01*
X146266324Y-124023554D01*
X146201423Y-124237502D01*
X146179509Y-124460000D01*
X146185000Y-124515751D01*
X146185000Y-124845716D01*
X146048320Y-125050273D01*
X145940147Y-125311426D01*
X145885000Y-125588665D01*
X144945000Y-125588665D01*
X144889853Y-125311426D01*
X144781680Y-125050273D01*
X144624637Y-124815241D01*
X144424759Y-124615363D01*
X144189727Y-124458320D01*
X143928574Y-124350147D01*
X143723865Y-124309427D01*
X143732499Y-124308577D01*
X143946447Y-124243676D01*
X144143623Y-124138284D01*
X144316449Y-123996449D01*
X144351996Y-123953135D01*
X145543140Y-122761992D01*
X145586449Y-122726449D01*
X145728284Y-122553623D01*
X145833676Y-122356447D01*
X145898577Y-122142499D01*
X145915000Y-121975752D01*
X145915000Y-121975745D01*
X145920490Y-121920001D01*
X145915000Y-121864257D01*
X145915000Y-115625743D01*
X145920490Y-115569999D01*
X145915000Y-115514255D01*
X145915000Y-115514248D01*
X145898577Y-115347501D01*
X145833676Y-115133553D01*
X145728284Y-114936377D01*
X145586449Y-114763551D01*
X145543140Y-114728008D01*
X144351996Y-113536865D01*
X144316449Y-113493551D01*
X144143623Y-113351716D01*
X143946447Y-113246324D01*
X143732499Y-113181423D01*
X143565752Y-113165000D01*
X143565751Y-113165000D01*
X143510000Y-113159509D01*
X143454249Y-113165000D01*
X143205107Y-113165000D01*
X143186632Y-113146525D01*
X142943411Y-112984010D01*
X142673158Y-112872068D01*
X142386260Y-112815000D01*
X142093740Y-112815000D01*
X141806842Y-112872068D01*
X141536589Y-112984010D01*
X141293368Y-113146525D01*
X141086525Y-113353368D01*
X140970000Y-113527760D01*
X140853475Y-113353368D01*
X140646632Y-113146525D01*
X140403411Y-112984010D01*
X140133158Y-112872068D01*
X139846260Y-112815000D01*
X139553740Y-112815000D01*
X139266842Y-112872068D01*
X138996589Y-112984010D01*
X138753368Y-113146525D01*
X138621513Y-113278380D01*
X138599502Y-113205820D01*
X138540537Y-113095506D01*
X138461185Y-112998815D01*
X138364494Y-112919463D01*
X138254180Y-112860498D01*
X138134482Y-112824188D01*
X138010000Y-112811928D01*
X136310000Y-112811928D01*
X136185518Y-112824188D01*
X136065820Y-112860498D01*
X135955506Y-112919463D01*
X135858815Y-112998815D01*
X135779463Y-113095506D01*
X135720498Y-113205820D01*
X135684188Y-113325518D01*
X135671928Y-113450000D01*
X135671928Y-115150000D01*
X135684188Y-115274482D01*
X135720498Y-115394180D01*
X135779463Y-115504494D01*
X135858815Y-115601185D01*
X135955506Y-115680537D01*
X136025000Y-115717683D01*
X136025001Y-118414892D01*
X136006525Y-118433368D01*
X135844010Y-118676589D01*
X135732068Y-118946842D01*
X135675000Y-119233740D01*
X135675000Y-119526260D01*
X135732068Y-119813158D01*
X135844010Y-120083411D01*
X136006525Y-120326632D01*
X136213368Y-120533475D01*
X136456589Y-120695990D01*
X136726842Y-120807932D01*
X137013740Y-120865000D01*
X137306260Y-120865000D01*
X137593158Y-120807932D01*
X137863411Y-120695990D01*
X138106632Y-120533475D01*
X138313475Y-120326632D01*
X138430000Y-120152240D01*
X138546525Y-120326632D01*
X138753368Y-120533475D01*
X138996589Y-120695990D01*
X139266842Y-120807932D01*
X139553740Y-120865000D01*
X139846260Y-120865000D01*
X140133158Y-120807932D01*
X140403411Y-120695990D01*
X140646632Y-120533475D01*
X140778487Y-120401620D01*
X140800498Y-120474180D01*
X140859463Y-120584494D01*
X140938815Y-120681185D01*
X141035506Y-120760537D01*
X141145820Y-120819502D01*
X141265518Y-120855812D01*
X141390000Y-120868072D01*
X143090000Y-120868072D01*
X143214482Y-120855812D01*
X143334180Y-120819502D01*
X143444494Y-120760537D01*
X143541185Y-120681185D01*
X143620537Y-120584494D01*
X143645001Y-120538726D01*
X143645001Y-121449867D01*
X143039869Y-122055000D01*
X137215743Y-122055000D01*
X137159999Y-122049510D01*
X137104255Y-122055000D01*
X137104248Y-122055000D01*
X136958493Y-122069356D01*
X136937500Y-122071423D01*
X136887705Y-122086529D01*
X136723553Y-122136324D01*
X136526377Y-122241716D01*
X136353551Y-122383551D01*
X136318011Y-122426857D01*
X135126865Y-123618004D01*
X135083551Y-123653551D01*
X134941716Y-123826377D01*
X134850812Y-123996448D01*
X134836324Y-124023554D01*
X134771423Y-124237502D01*
X134749509Y-124460000D01*
X134755000Y-124515751D01*
X134755000Y-124845716D01*
X134618320Y-125050273D01*
X134510147Y-125311426D01*
X134455000Y-125588665D01*
X131778042Y-125588665D01*
X131874180Y-125559502D01*
X131984494Y-125500537D01*
X132081185Y-125421185D01*
X132160537Y-125324494D01*
X132219502Y-125214180D01*
X132255812Y-125094482D01*
X132268072Y-124970000D01*
X132267670Y-124848986D01*
X132392445Y-124876981D01*
X132613001Y-124882355D01*
X132830367Y-124844596D01*
X133036189Y-124765158D01*
X133084534Y-124739316D01*
X133117811Y-124527416D01*
X133017090Y-124426695D01*
X133078331Y-124355048D01*
X133139493Y-124245937D01*
X133153252Y-124203647D01*
X133297416Y-124347811D01*
X133509316Y-124314534D01*
X133598683Y-124112824D01*
X133646981Y-123897555D01*
X133652355Y-123676999D01*
X133614596Y-123459633D01*
X133535158Y-123253811D01*
X133509316Y-123205466D01*
X133297416Y-123172189D01*
X133153252Y-123316353D01*
X133139493Y-123274063D01*
X133078331Y-123164952D01*
X133017090Y-123093305D01*
X133117811Y-122992584D01*
X133084534Y-122780684D01*
X132882824Y-122691317D01*
X132667555Y-122643019D01*
X132446999Y-122637645D01*
X132267677Y-122668795D01*
X132268072Y-122550000D01*
X132255812Y-122425518D01*
X132219502Y-122305820D01*
X132160537Y-122195506D01*
X132081185Y-122098815D01*
X131984494Y-122019463D01*
X131874180Y-121960498D01*
X131754482Y-121924188D01*
X131630000Y-121911928D01*
X129375750Y-121915000D01*
X129217000Y-122073750D01*
X128963000Y-122073750D01*
X128804250Y-121915000D01*
X126550000Y-121911928D01*
X126425518Y-121924188D01*
X126425000Y-121924345D01*
X126425000Y-116835655D01*
X126425518Y-116835812D01*
X126550000Y-116848072D01*
X128804250Y-116845000D01*
X128963000Y-116686250D01*
X128963000Y-115127000D01*
X128943000Y-115127000D01*
X128943000Y-114873000D01*
X128963000Y-114873000D01*
X128963000Y-113313750D01*
X129217000Y-113313750D01*
X129217000Y-114873000D01*
X129237000Y-114873000D01*
X129237000Y-115127000D01*
X129217000Y-115127000D01*
X129217000Y-116686250D01*
X129375750Y-116845000D01*
X131630000Y-116848072D01*
X131754482Y-116835812D01*
X131874180Y-116799502D01*
X131984494Y-116740537D01*
X132081185Y-116661185D01*
X132160537Y-116564494D01*
X132219502Y-116454180D01*
X132255812Y-116334482D01*
X132268072Y-116210000D01*
X132267670Y-116088986D01*
X132392445Y-116116981D01*
X132613001Y-116122355D01*
X132830367Y-116084596D01*
X133036189Y-116005158D01*
X133084534Y-115979316D01*
X133117811Y-115767416D01*
X133017090Y-115666695D01*
X133078331Y-115595048D01*
X133139493Y-115485937D01*
X133153252Y-115443647D01*
X133297416Y-115587811D01*
X133509316Y-115554534D01*
X133598683Y-115352824D01*
X133646981Y-115137555D01*
X133652355Y-114916999D01*
X133614596Y-114699633D01*
X133535158Y-114493811D01*
X133509316Y-114445466D01*
X133297416Y-114412189D01*
X133153252Y-114556353D01*
X133139493Y-114514063D01*
X133078331Y-114404952D01*
X133017090Y-114333305D01*
X133117811Y-114232584D01*
X133084534Y-114020684D01*
X132882824Y-113931317D01*
X132667555Y-113883019D01*
X132446999Y-113877645D01*
X132267677Y-113908795D01*
X132268072Y-113790000D01*
X132255812Y-113665518D01*
X132219502Y-113545820D01*
X132160537Y-113435506D01*
X132081185Y-113338815D01*
X131984494Y-113259463D01*
X131874180Y-113200498D01*
X131754482Y-113164188D01*
X131630000Y-113151928D01*
X129375750Y-113155000D01*
X129217000Y-113313750D01*
X128963000Y-113313750D01*
X128804250Y-113155000D01*
X126550000Y-113151928D01*
X126425518Y-113164188D01*
X126425000Y-113164345D01*
X126425000Y-112455000D01*
X198695001Y-112455000D01*
X198695001Y-113152289D01*
G37*
X198695001Y-113152289D02*
X196705750Y-113155000D01*
X196547000Y-113313750D01*
X196547000Y-114873000D01*
X196567000Y-114873000D01*
X196567000Y-115127000D01*
X196547000Y-115127000D01*
X196547000Y-116686250D01*
X196705750Y-116845000D01*
X198695001Y-116847711D01*
X198695001Y-121912289D01*
X196705750Y-121915000D01*
X196547000Y-122073750D01*
X196547000Y-123633000D01*
X196567000Y-123633000D01*
X196567000Y-123887000D01*
X196547000Y-123887000D01*
X196547000Y-125446250D01*
X196705750Y-125605000D01*
X198695000Y-125607711D01*
X198695000Y-133925000D01*
X126425000Y-133925000D01*
X126425000Y-132429040D01*
X135768091Y-132429040D01*
X135862930Y-132693881D01*
X136007615Y-132935131D01*
X136196586Y-133143519D01*
X136422580Y-133311037D01*
X136676913Y-133431246D01*
X136810961Y-133471904D01*
X137033000Y-133349915D01*
X137033000Y-132207000D01*
X137287000Y-132207000D01*
X137287000Y-133349915D01*
X137509039Y-133471904D01*
X137643087Y-133431246D01*
X137897420Y-133311037D01*
X138123414Y-133143519D01*
X138312385Y-132935131D01*
X138457070Y-132693881D01*
X138551909Y-132429040D01*
X140848091Y-132429040D01*
X140942930Y-132693881D01*
X141087615Y-132935131D01*
X141276586Y-133143519D01*
X141502580Y-133311037D01*
X141756913Y-133431246D01*
X141890961Y-133471904D01*
X142113000Y-133349915D01*
X142113000Y-132207000D01*
X142367000Y-132207000D01*
X142367000Y-133349915D01*
X142589039Y-133471904D01*
X142723087Y-133431246D01*
X142977420Y-133311037D01*
X143203414Y-133143519D01*
X143392385Y-132935131D01*
X143537070Y-132693881D01*
X143631909Y-132429040D01*
X147198091Y-132429040D01*
X147292930Y-132693881D01*
X147437615Y-132935131D01*
X147626586Y-133143519D01*
X147852580Y-133311037D01*
X148106913Y-133431246D01*
X148240961Y-133471904D01*
X148463000Y-133349915D01*
X148463000Y-132207000D01*
X148717000Y-132207000D01*
X148717000Y-133349915D01*
X148939039Y-133471904D01*
X149073087Y-133431246D01*
X149327420Y-133311037D01*
X149553414Y-133143519D01*
X149742385Y-132935131D01*
X149887070Y-132693881D01*
X149981909Y-132429040D01*
X152278091Y-132429040D01*
X152372930Y-132693881D01*
X152517615Y-132935131D01*
X152706586Y-133143519D01*
X152932580Y-133311037D01*
X153186913Y-133431246D01*
X153320961Y-133471904D01*
X153543000Y-133349915D01*
X153543000Y-132207000D01*
X153797000Y-132207000D01*
X153797000Y-133349915D01*
X154019039Y-133471904D01*
X154153087Y-133431246D01*
X154407420Y-133311037D01*
X154633414Y-133143519D01*
X154822385Y-132935131D01*
X154967070Y-132693881D01*
X155061909Y-132429040D01*
X158628091Y-132429040D01*
X158722930Y-132693881D01*
X158867615Y-132935131D01*
X159056586Y-133143519D01*
X159282580Y-133311037D01*
X159536913Y-133431246D01*
X159670961Y-133471904D01*
X159893000Y-133349915D01*
X159893000Y-132207000D01*
X160147000Y-132207000D01*
X160147000Y-133349915D01*
X160369039Y-133471904D01*
X160503087Y-133431246D01*
X160757420Y-133311037D01*
X160983414Y-133143519D01*
X161172385Y-132935131D01*
X161317070Y-132693881D01*
X161411909Y-132429040D01*
X163708091Y-132429040D01*
X163802930Y-132693881D01*
X163947615Y-132935131D01*
X164136586Y-133143519D01*
X164362580Y-133311037D01*
X164616913Y-133431246D01*
X164750961Y-133471904D01*
X164973000Y-133349915D01*
X164973000Y-132207000D01*
X165227000Y-132207000D01*
X165227000Y-133349915D01*
X165449039Y-133471904D01*
X165583087Y-133431246D01*
X165837420Y-133311037D01*
X166063414Y-133143519D01*
X166252385Y-132935131D01*
X166397070Y-132693881D01*
X166491909Y-132429040D01*
X170058091Y-132429040D01*
X170152930Y-132693881D01*
X170297615Y-132935131D01*
X170486586Y-133143519D01*
X170712580Y-133311037D01*
X170966913Y-133431246D01*
X171100961Y-133471904D01*
X171323000Y-133349915D01*
X171323000Y-132207000D01*
X171577000Y-132207000D01*
X171577000Y-133349915D01*
X171799039Y-133471904D01*
X171933087Y-133431246D01*
X172187420Y-133311037D01*
X172413414Y-133143519D01*
X172602385Y-132935131D01*
X172747070Y-132693881D01*
X172841909Y-132429040D01*
X175138091Y-132429040D01*
X175232930Y-132693881D01*
X175377615Y-132935131D01*
X175566586Y-133143519D01*
X175792580Y-133311037D01*
X176046913Y-133431246D01*
X176180961Y-133471904D01*
X176403000Y-133349915D01*
X176403000Y-132207000D01*
X176657000Y-132207000D01*
X176657000Y-133349915D01*
X176879039Y-133471904D01*
X177013087Y-133431246D01*
X177267420Y-133311037D01*
X177493414Y-133143519D01*
X177682385Y-132935131D01*
X177827070Y-132693881D01*
X177921909Y-132429040D01*
X181488091Y-132429040D01*
X181582930Y-132693881D01*
X181727615Y-132935131D01*
X181916586Y-133143519D01*
X182142580Y-133311037D01*
X182396913Y-133431246D01*
X182530961Y-133471904D01*
X182753000Y-133349915D01*
X182753000Y-132207000D01*
X183007000Y-132207000D01*
X183007000Y-133349915D01*
X183229039Y-133471904D01*
X183363087Y-133431246D01*
X183617420Y-133311037D01*
X183843414Y-133143519D01*
X184032385Y-132935131D01*
X184177070Y-132693881D01*
X184271909Y-132429040D01*
X186568091Y-132429040D01*
X186662930Y-132693881D01*
X186807615Y-132935131D01*
X186996586Y-133143519D01*
X187222580Y-133311037D01*
X187476913Y-133431246D01*
X187610961Y-133471904D01*
X187833000Y-133349915D01*
X187833000Y-132207000D01*
X188087000Y-132207000D01*
X188087000Y-133349915D01*
X188309039Y-133471904D01*
X188443087Y-133431246D01*
X188697420Y-133311037D01*
X188923414Y-133143519D01*
X189112385Y-132935131D01*
X189257070Y-132693881D01*
X189351909Y-132429040D01*
X189230624Y-132207000D01*
X188087000Y-132207000D01*
X187833000Y-132207000D01*
X186689376Y-132207000D01*
X186568091Y-132429040D01*
X184271909Y-132429040D01*
X184150624Y-132207000D01*
X183007000Y-132207000D01*
X182753000Y-132207000D01*
X181609376Y-132207000D01*
X181488091Y-132429040D01*
X177921909Y-132429040D01*
X177800624Y-132207000D01*
X176657000Y-132207000D01*
X176403000Y-132207000D01*
X175259376Y-132207000D01*
X175138091Y-132429040D01*
X172841909Y-132429040D01*
X172720624Y-132207000D01*
X171577000Y-132207000D01*
X171323000Y-132207000D01*
X170179376Y-132207000D01*
X170058091Y-132429040D01*
X166491909Y-132429040D01*
X166370624Y-132207000D01*
X165227000Y-132207000D01*
X164973000Y-132207000D01*
X163829376Y-132207000D01*
X163708091Y-132429040D01*
X161411909Y-132429040D01*
X161290624Y-132207000D01*
X160147000Y-132207000D01*
X159893000Y-132207000D01*
X158749376Y-132207000D01*
X158628091Y-132429040D01*
X155061909Y-132429040D01*
X154940624Y-132207000D01*
X153797000Y-132207000D01*
X153543000Y-132207000D01*
X152399376Y-132207000D01*
X152278091Y-132429040D01*
X149981909Y-132429040D01*
X149860624Y-132207000D01*
X148717000Y-132207000D01*
X148463000Y-132207000D01*
X147319376Y-132207000D01*
X147198091Y-132429040D01*
X143631909Y-132429040D01*
X143510624Y-132207000D01*
X142367000Y-132207000D01*
X142113000Y-132207000D01*
X140969376Y-132207000D01*
X140848091Y-132429040D01*
X138551909Y-132429040D01*
X138430624Y-132207000D01*
X137287000Y-132207000D01*
X137033000Y-132207000D01*
X135889376Y-132207000D01*
X135768091Y-132429040D01*
X126425000Y-132429040D01*
X126425000Y-125595655D01*
X126425518Y-125595812D01*
X126550000Y-125608072D01*
X128804250Y-125605000D01*
X128963000Y-125446250D01*
X128963000Y-123887000D01*
X128943000Y-123887000D01*
X128943000Y-123633000D01*
X128963000Y-123633000D01*
X128963000Y-122073750D01*
X129217000Y-122073750D01*
X129217000Y-123633000D01*
X129237000Y-123633000D01*
X129237000Y-123887000D01*
X129217000Y-123887000D01*
X129217000Y-125446250D01*
X129375750Y-125605000D01*
X131630000Y-125608072D01*
X131754482Y-125595812D01*
X131778042Y-125588665D01*
X134455000Y-125588665D01*
X134455000Y-125871335D01*
X134510147Y-126148574D01*
X134618320Y-126409727D01*
X134775363Y-126644759D01*
X134975241Y-126844637D01*
X135210273Y-127001680D01*
X135471426Y-127109853D01*
X135712718Y-127157850D01*
X136025001Y-127470133D01*
X136025000Y-128655716D01*
X135888320Y-128860273D01*
X135780147Y-129121426D01*
X135725000Y-129398665D01*
X135725000Y-129681335D01*
X135780147Y-129958574D01*
X135888320Y-130219727D01*
X136045363Y-130454759D01*
X136245241Y-130654637D01*
X136480273Y-130811680D01*
X136491565Y-130816357D01*
X136422580Y-130848963D01*
X136196586Y-131016481D01*
X136007615Y-131224869D01*
X135862930Y-131466119D01*
X135768091Y-131730960D01*
X135889376Y-131953000D01*
X137033000Y-131953000D01*
X137033000Y-131933000D01*
X137287000Y-131933000D01*
X137287000Y-131953000D01*
X138430624Y-131953000D01*
X138551909Y-131730960D01*
X138457070Y-131466119D01*
X138312385Y-131224869D01*
X138123414Y-131016481D01*
X137897420Y-130848963D01*
X137828435Y-130816357D01*
X137839727Y-130811680D01*
X138074759Y-130654637D01*
X138274637Y-130454759D01*
X138431680Y-130219727D01*
X138539853Y-129958574D01*
X138595000Y-129681335D01*
X138595000Y-129398665D01*
X138539853Y-129121426D01*
X138431680Y-128860273D01*
X138295000Y-128655716D01*
X138295000Y-127055743D01*
X138300490Y-126999999D01*
X138295000Y-126944255D01*
X138295000Y-126944248D01*
X138278577Y-126777501D01*
X138213676Y-126563553D01*
X138108284Y-126366377D01*
X137966449Y-126193551D01*
X137923140Y-126158008D01*
X137317850Y-125552718D01*
X137269853Y-125311426D01*
X137161680Y-125050273D01*
X137058812Y-124896320D01*
X137630132Y-124325000D01*
X143217847Y-124325000D01*
X143091426Y-124350147D01*
X142830273Y-124458320D01*
X142595241Y-124615363D01*
X142395363Y-124815241D01*
X142238320Y-125050273D01*
X142130147Y-125311426D01*
X142082150Y-125552718D01*
X141476860Y-126158009D01*
X141433552Y-126193551D01*
X141291717Y-126366377D01*
X141268546Y-126409727D01*
X141186324Y-126563554D01*
X141121423Y-126777502D01*
X141099509Y-127000000D01*
X141105001Y-127055761D01*
X141105000Y-128655716D01*
X140968320Y-128860273D01*
X140860147Y-129121426D01*
X140805000Y-129398665D01*
X140805000Y-129681335D01*
X140860147Y-129958574D01*
X140968320Y-130219727D01*
X141125363Y-130454759D01*
X141325241Y-130654637D01*
X141560273Y-130811680D01*
X141571565Y-130816357D01*
X141502580Y-130848963D01*
X141276586Y-131016481D01*
X141087615Y-131224869D01*
X140942930Y-131466119D01*
X140848091Y-131730960D01*
X140969376Y-131953000D01*
X142113000Y-131953000D01*
X142113000Y-131933000D01*
X142367000Y-131933000D01*
X142367000Y-131953000D01*
X143510624Y-131953000D01*
X143631909Y-131730960D01*
X143537070Y-131466119D01*
X143392385Y-131224869D01*
X143203414Y-131016481D01*
X142977420Y-130848963D01*
X142908435Y-130816357D01*
X142919727Y-130811680D01*
X143154759Y-130654637D01*
X143354637Y-130454759D01*
X143511680Y-130219727D01*
X143619853Y-129958574D01*
X143675000Y-129681335D01*
X143675000Y-129398665D01*
X143619853Y-129121426D01*
X143511680Y-128860273D01*
X143375000Y-128655716D01*
X143375000Y-127470131D01*
X143687282Y-127157850D01*
X143928574Y-127109853D01*
X144189727Y-127001680D01*
X144424759Y-126844637D01*
X144624637Y-126644759D01*
X144781680Y-126409727D01*
X144889853Y-126148574D01*
X144945000Y-125871335D01*
X144945000Y-125588665D01*
X145885000Y-125588665D01*
X145885000Y-125871335D01*
X145940147Y-126148574D01*
X146048320Y-126409727D01*
X146205363Y-126644759D01*
X146405241Y-126844637D01*
X146640273Y-127001680D01*
X146901426Y-127109853D01*
X147142718Y-127157850D01*
X147455001Y-127470133D01*
X147455000Y-128655716D01*
X147318320Y-128860273D01*
X147210147Y-129121426D01*
X147155000Y-129398665D01*
X147155000Y-129681335D01*
X147210147Y-129958574D01*
X147318320Y-130219727D01*
X147475363Y-130454759D01*
X147675241Y-130654637D01*
X147910273Y-130811680D01*
X147921565Y-130816357D01*
X147852580Y-130848963D01*
X147626586Y-131016481D01*
X147437615Y-131224869D01*
X147292930Y-131466119D01*
X147198091Y-131730960D01*
X147319376Y-131953000D01*
X148463000Y-131953000D01*
X148463000Y-131933000D01*
X148717000Y-131933000D01*
X148717000Y-131953000D01*
X149860624Y-131953000D01*
X149981909Y-131730960D01*
X149887070Y-131466119D01*
X149742385Y-131224869D01*
X149553414Y-131016481D01*
X149327420Y-130848963D01*
X149258435Y-130816357D01*
X149269727Y-130811680D01*
X149504759Y-130654637D01*
X149704637Y-130454759D01*
X149861680Y-130219727D01*
X149969853Y-129958574D01*
X150025000Y-129681335D01*
X150025000Y-129398665D01*
X149969853Y-129121426D01*
X149861680Y-128860273D01*
X149725000Y-128655716D01*
X149725000Y-127055743D01*
X149730490Y-126999999D01*
X149725000Y-126944255D01*
X149725000Y-126944248D01*
X149708577Y-126777501D01*
X149643676Y-126563553D01*
X149538284Y-126366377D01*
X149396449Y-126193551D01*
X149353140Y-126158008D01*
X148747850Y-125552718D01*
X148699853Y-125311426D01*
X148591680Y-125050273D01*
X148488812Y-124896320D01*
X149060132Y-124325000D01*
X154647847Y-124325000D01*
X154521426Y-124350147D01*
X154260273Y-124458320D01*
X154025241Y-124615363D01*
X153825363Y-124815241D01*
X153668320Y-125050273D01*
X153560147Y-125311426D01*
X153512150Y-125552718D01*
X152906860Y-126158009D01*
X152863552Y-126193551D01*
X152721717Y-126366377D01*
X152698546Y-126409727D01*
X152616324Y-126563554D01*
X152551423Y-126777502D01*
X152529509Y-127000000D01*
X152535001Y-127055761D01*
X152535000Y-128655716D01*
X152398320Y-128860273D01*
X152290147Y-129121426D01*
X152235000Y-129398665D01*
X152235000Y-129681335D01*
X152290147Y-129958574D01*
X152398320Y-130219727D01*
X152555363Y-130454759D01*
X152755241Y-130654637D01*
X152990273Y-130811680D01*
X153001565Y-130816357D01*
X152932580Y-130848963D01*
X152706586Y-131016481D01*
X152517615Y-131224869D01*
X152372930Y-131466119D01*
X152278091Y-131730960D01*
X152399376Y-131953000D01*
X153543000Y-131953000D01*
X153543000Y-131933000D01*
X153797000Y-131933000D01*
X153797000Y-131953000D01*
X154940624Y-131953000D01*
X155061909Y-131730960D01*
X154967070Y-131466119D01*
X154822385Y-131224869D01*
X154633414Y-131016481D01*
X154407420Y-130848963D01*
X154338435Y-130816357D01*
X154349727Y-130811680D01*
X154584759Y-130654637D01*
X154784637Y-130454759D01*
X154941680Y-130219727D01*
X155049853Y-129958574D01*
X155105000Y-129681335D01*
X155105000Y-129398665D01*
X155049853Y-129121426D01*
X154941680Y-128860273D01*
X154805000Y-128655716D01*
X154805000Y-127470131D01*
X155117282Y-127157850D01*
X155358574Y-127109853D01*
X155619727Y-127001680D01*
X155854759Y-126844637D01*
X156054637Y-126644759D01*
X156211680Y-126409727D01*
X156319853Y-126148574D01*
X156375000Y-125871335D01*
X156375000Y-125588665D01*
X157315000Y-125588665D01*
X157315000Y-125871335D01*
X157370147Y-126148574D01*
X157478320Y-126409727D01*
X157635363Y-126644759D01*
X157835241Y-126844637D01*
X158070273Y-127001680D01*
X158331426Y-127109853D01*
X158572718Y-127157850D01*
X158885001Y-127470133D01*
X158885000Y-128655716D01*
X158748320Y-128860273D01*
X158640147Y-129121426D01*
X158585000Y-129398665D01*
X158585000Y-129681335D01*
X158640147Y-129958574D01*
X158748320Y-130219727D01*
X158905363Y-130454759D01*
X159105241Y-130654637D01*
X159340273Y-130811680D01*
X159351565Y-130816357D01*
X159282580Y-130848963D01*
X159056586Y-131016481D01*
X158867615Y-131224869D01*
X158722930Y-131466119D01*
X158628091Y-131730960D01*
X158749376Y-131953000D01*
X159893000Y-131953000D01*
X159893000Y-131933000D01*
X160147000Y-131933000D01*
X160147000Y-131953000D01*
X161290624Y-131953000D01*
X161411909Y-131730960D01*
X161317070Y-131466119D01*
X161172385Y-131224869D01*
X160983414Y-131016481D01*
X160757420Y-130848963D01*
X160688435Y-130816357D01*
X160699727Y-130811680D01*
X160934759Y-130654637D01*
X161134637Y-130454759D01*
X161291680Y-130219727D01*
X161399853Y-129958574D01*
X161455000Y-129681335D01*
X161455000Y-129398665D01*
X161399853Y-129121426D01*
X161291680Y-128860273D01*
X161155000Y-128655716D01*
X161155000Y-127055743D01*
X161160490Y-126999999D01*
X161155000Y-126944255D01*
X161155000Y-126944248D01*
X161138577Y-126777501D01*
X161073676Y-126563553D01*
X160968284Y-126366377D01*
X160826449Y-126193551D01*
X160783140Y-126158008D01*
X160177850Y-125552718D01*
X160129853Y-125311426D01*
X160021680Y-125050273D01*
X159918812Y-124896320D01*
X160490132Y-124325000D01*
X166077847Y-124325000D01*
X165951426Y-124350147D01*
X165690273Y-124458320D01*
X165455241Y-124615363D01*
X165255363Y-124815241D01*
X165098320Y-125050273D01*
X164990147Y-125311426D01*
X164942150Y-125552718D01*
X164336860Y-126158009D01*
X164293552Y-126193551D01*
X164151717Y-126366377D01*
X164128546Y-126409727D01*
X164046324Y-126563554D01*
X163981423Y-126777502D01*
X163959509Y-127000000D01*
X163965001Y-127055761D01*
X163965000Y-128655716D01*
X163828320Y-128860273D01*
X163720147Y-129121426D01*
X163665000Y-129398665D01*
X163665000Y-129681335D01*
X163720147Y-129958574D01*
X163828320Y-130219727D01*
X163985363Y-130454759D01*
X164185241Y-130654637D01*
X164420273Y-130811680D01*
X164431565Y-130816357D01*
X164362580Y-130848963D01*
X164136586Y-131016481D01*
X163947615Y-131224869D01*
X163802930Y-131466119D01*
X163708091Y-131730960D01*
X163829376Y-131953000D01*
X164973000Y-131953000D01*
X164973000Y-131933000D01*
X165227000Y-131933000D01*
X165227000Y-131953000D01*
X166370624Y-131953000D01*
X166491909Y-131730960D01*
X166397070Y-131466119D01*
X166252385Y-131224869D01*
X166063414Y-131016481D01*
X165837420Y-130848963D01*
X165768435Y-130816357D01*
X165779727Y-130811680D01*
X166014759Y-130654637D01*
X166214637Y-130454759D01*
X166371680Y-130219727D01*
X166479853Y-129958574D01*
X166535000Y-129681335D01*
X166535000Y-129398665D01*
X166479853Y-129121426D01*
X166371680Y-128860273D01*
X166235000Y-128655716D01*
X166235000Y-127470131D01*
X166547282Y-127157850D01*
X166788574Y-127109853D01*
X167049727Y-127001680D01*
X167284759Y-126844637D01*
X167484637Y-126644759D01*
X167641680Y-126409727D01*
X167749853Y-126148574D01*
X167805000Y-125871335D01*
X167805000Y-125588665D01*
X168745000Y-125588665D01*
X168745000Y-125871335D01*
X168800147Y-126148574D01*
X168908320Y-126409727D01*
X169065363Y-126644759D01*
X169265241Y-126844637D01*
X169500273Y-127001680D01*
X169761426Y-127109853D01*
X170002718Y-127157850D01*
X170315001Y-127470133D01*
X170315000Y-128655716D01*
X170178320Y-128860273D01*
X170070147Y-129121426D01*
X170015000Y-129398665D01*
X170015000Y-129681335D01*
X170070147Y-129958574D01*
X170178320Y-130219727D01*
X170335363Y-130454759D01*
X170535241Y-130654637D01*
X170770273Y-130811680D01*
X170781565Y-130816357D01*
X170712580Y-130848963D01*
X170486586Y-131016481D01*
X170297615Y-131224869D01*
X170152930Y-131466119D01*
X170058091Y-131730960D01*
X170179376Y-131953000D01*
X171323000Y-131953000D01*
X171323000Y-131933000D01*
X171577000Y-131933000D01*
X171577000Y-131953000D01*
X172720624Y-131953000D01*
X172841909Y-131730960D01*
X172747070Y-131466119D01*
X172602385Y-131224869D01*
X172413414Y-131016481D01*
X172187420Y-130848963D01*
X172118435Y-130816357D01*
X172129727Y-130811680D01*
X172364759Y-130654637D01*
X172564637Y-130454759D01*
X172721680Y-130219727D01*
X172829853Y-129958574D01*
X172885000Y-129681335D01*
X172885000Y-129398665D01*
X172829853Y-129121426D01*
X172721680Y-128860273D01*
X172585000Y-128655716D01*
X172585000Y-127055743D01*
X172590490Y-126999999D01*
X172585000Y-126944255D01*
X172585000Y-126944248D01*
X172568577Y-126777501D01*
X172503676Y-126563553D01*
X172398284Y-126366377D01*
X172256449Y-126193551D01*
X172213140Y-126158008D01*
X171607850Y-125552718D01*
X171559853Y-125311426D01*
X171451680Y-125050273D01*
X171348812Y-124896320D01*
X171920132Y-124325000D01*
X177507847Y-124325000D01*
X177381426Y-124350147D01*
X177120273Y-124458320D01*
X176885241Y-124615363D01*
X176685363Y-124815241D01*
X176528320Y-125050273D01*
X176420147Y-125311426D01*
X176372150Y-125552718D01*
X175766860Y-126158009D01*
X175723552Y-126193551D01*
X175581717Y-126366377D01*
X175558546Y-126409727D01*
X175476324Y-126563554D01*
X175411423Y-126777502D01*
X175389509Y-127000000D01*
X175395001Y-127055761D01*
X175395000Y-128655716D01*
X175258320Y-128860273D01*
X175150147Y-129121426D01*
X175095000Y-129398665D01*
X175095000Y-129681335D01*
X175150147Y-129958574D01*
X175258320Y-130219727D01*
X175415363Y-130454759D01*
X175615241Y-130654637D01*
X175850273Y-130811680D01*
X175861565Y-130816357D01*
X175792580Y-130848963D01*
X175566586Y-131016481D01*
X175377615Y-131224869D01*
X175232930Y-131466119D01*
X175138091Y-131730960D01*
X175259376Y-131953000D01*
X176403000Y-131953000D01*
X176403000Y-131933000D01*
X176657000Y-131933000D01*
X176657000Y-131953000D01*
X177800624Y-131953000D01*
X177921909Y-131730960D01*
X177827070Y-131466119D01*
X177682385Y-131224869D01*
X177493414Y-131016481D01*
X177267420Y-130848963D01*
X177198435Y-130816357D01*
X177209727Y-130811680D01*
X177444759Y-130654637D01*
X177644637Y-130454759D01*
X177801680Y-130219727D01*
X177909853Y-129958574D01*
X177965000Y-129681335D01*
X177965000Y-129398665D01*
X177909853Y-129121426D01*
X177801680Y-128860273D01*
X177665000Y-128655716D01*
X177665000Y-127470131D01*
X177977282Y-127157850D01*
X178218574Y-127109853D01*
X178479727Y-127001680D01*
X178714759Y-126844637D01*
X178914637Y-126644759D01*
X179071680Y-126409727D01*
X179179853Y-126148574D01*
X179235000Y-125871335D01*
X179235000Y-125588665D01*
X180175000Y-125588665D01*
X180175000Y-125871335D01*
X180230147Y-126148574D01*
X180338320Y-126409727D01*
X180495363Y-126644759D01*
X180695241Y-126844637D01*
X180930273Y-127001680D01*
X181191426Y-127109853D01*
X181432718Y-127157850D01*
X181745001Y-127470133D01*
X181745000Y-128655716D01*
X181608320Y-128860273D01*
X181500147Y-129121426D01*
X181445000Y-129398665D01*
X181445000Y-129681335D01*
X181500147Y-129958574D01*
X181608320Y-130219727D01*
X181765363Y-130454759D01*
X181965241Y-130654637D01*
X182200273Y-130811680D01*
X182211565Y-130816357D01*
X182142580Y-130848963D01*
X181916586Y-131016481D01*
X181727615Y-131224869D01*
X181582930Y-131466119D01*
X181488091Y-131730960D01*
X181609376Y-131953000D01*
X182753000Y-131953000D01*
X182753000Y-131933000D01*
X183007000Y-131933000D01*
X183007000Y-131953000D01*
X184150624Y-131953000D01*
X184271909Y-131730960D01*
X184177070Y-131466119D01*
X184032385Y-131224869D01*
X183843414Y-131016481D01*
X183617420Y-130848963D01*
X183548435Y-130816357D01*
X183559727Y-130811680D01*
X183794759Y-130654637D01*
X183994637Y-130454759D01*
X184151680Y-130219727D01*
X184259853Y-129958574D01*
X184315000Y-129681335D01*
X184315000Y-129398665D01*
X184259853Y-129121426D01*
X184151680Y-128860273D01*
X184015000Y-128655716D01*
X184015000Y-127055743D01*
X184020490Y-126999999D01*
X184015000Y-126944255D01*
X184015000Y-126944248D01*
X183998577Y-126777501D01*
X183933676Y-126563553D01*
X183828284Y-126366377D01*
X183686449Y-126193551D01*
X183643140Y-126158008D01*
X183037850Y-125552718D01*
X182989853Y-125311426D01*
X182881680Y-125050273D01*
X182778812Y-124896320D01*
X183350132Y-124325000D01*
X188937847Y-124325000D01*
X188811426Y-124350147D01*
X188550273Y-124458320D01*
X188315241Y-124615363D01*
X188115363Y-124815241D01*
X187958320Y-125050273D01*
X187850147Y-125311426D01*
X187802150Y-125552718D01*
X187196860Y-126158009D01*
X187153552Y-126193551D01*
X187011717Y-126366377D01*
X186988546Y-126409727D01*
X186906324Y-126563554D01*
X186841423Y-126777502D01*
X186819509Y-127000000D01*
X186825001Y-127055761D01*
X186825000Y-128655716D01*
X186688320Y-128860273D01*
X186580147Y-129121426D01*
X186525000Y-129398665D01*
X186525000Y-129681335D01*
X186580147Y-129958574D01*
X186688320Y-130219727D01*
X186845363Y-130454759D01*
X187045241Y-130654637D01*
X187280273Y-130811680D01*
X187291565Y-130816357D01*
X187222580Y-130848963D01*
X186996586Y-131016481D01*
X186807615Y-131224869D01*
X186662930Y-131466119D01*
X186568091Y-131730960D01*
X186689376Y-131953000D01*
X187833000Y-131953000D01*
X187833000Y-131933000D01*
X188087000Y-131933000D01*
X188087000Y-131953000D01*
X189230624Y-131953000D01*
X189351909Y-131730960D01*
X189257070Y-131466119D01*
X189112385Y-131224869D01*
X188923414Y-131016481D01*
X188697420Y-130848963D01*
X188628435Y-130816357D01*
X188639727Y-130811680D01*
X188874759Y-130654637D01*
X189074637Y-130454759D01*
X189231680Y-130219727D01*
X189339853Y-129958574D01*
X189395000Y-129681335D01*
X189395000Y-129398665D01*
X189339853Y-129121426D01*
X189231680Y-128860273D01*
X189095000Y-128655716D01*
X189095000Y-127470131D01*
X189407282Y-127157850D01*
X189648574Y-127109853D01*
X189909727Y-127001680D01*
X190144759Y-126844637D01*
X190344637Y-126644759D01*
X190501680Y-126409727D01*
X190609853Y-126148574D01*
X190665000Y-125871335D01*
X190665000Y-125588665D01*
X190609853Y-125311426D01*
X190501680Y-125050273D01*
X190344637Y-124815241D01*
X190144759Y-124615363D01*
X189909727Y-124458320D01*
X189648574Y-124350147D01*
X189443865Y-124309427D01*
X189452499Y-124308577D01*
X189666447Y-124243676D01*
X189863623Y-124138284D01*
X190036449Y-123996449D01*
X190071996Y-123953135D01*
X190182130Y-123843001D01*
X191857645Y-123843001D01*
X191895404Y-124060367D01*
X191974842Y-124266189D01*
X192000684Y-124314534D01*
X192212584Y-124347811D01*
X192356748Y-124203647D01*
X192370507Y-124245937D01*
X192431669Y-124355048D01*
X192492910Y-124426695D01*
X192392189Y-124527416D01*
X192425466Y-124739316D01*
X192627176Y-124828683D01*
X192842445Y-124876981D01*
X193063001Y-124882355D01*
X193242323Y-124851205D01*
X193241928Y-124970000D01*
X193254188Y-125094482D01*
X193290498Y-125214180D01*
X193349463Y-125324494D01*
X193428815Y-125421185D01*
X193525506Y-125500537D01*
X193635820Y-125559502D01*
X193755518Y-125595812D01*
X193880000Y-125608072D01*
X196134250Y-125605000D01*
X196293000Y-125446250D01*
X196293000Y-123887000D01*
X196273000Y-123887000D01*
X196273000Y-123633000D01*
X196293000Y-123633000D01*
X196293000Y-122073750D01*
X196134250Y-121915000D01*
X193880000Y-121911928D01*
X193755518Y-121924188D01*
X193635820Y-121960498D01*
X193525506Y-122019463D01*
X193428815Y-122098815D01*
X193349463Y-122195506D01*
X193290498Y-122305820D01*
X193254188Y-122425518D01*
X193241928Y-122550000D01*
X193242330Y-122671014D01*
X193117555Y-122643019D01*
X192896999Y-122637645D01*
X192679633Y-122675404D01*
X192473811Y-122754842D01*
X192425466Y-122780684D01*
X192392189Y-122992584D01*
X192492910Y-123093305D01*
X192431669Y-123164952D01*
X192370507Y-123274063D01*
X192356748Y-123316353D01*
X192212584Y-123172189D01*
X192000684Y-123205466D01*
X191911317Y-123407176D01*
X191863019Y-123622445D01*
X191857645Y-123843001D01*
X190182130Y-123843001D01*
X191263140Y-122761992D01*
X191306449Y-122726449D01*
X191448284Y-122553623D01*
X191553676Y-122356447D01*
X191618577Y-122142499D01*
X191635000Y-121975752D01*
X191635000Y-121975745D01*
X191640490Y-121920001D01*
X191635000Y-121864257D01*
X191635000Y-115625743D01*
X191640490Y-115569999D01*
X191635000Y-115514255D01*
X191635000Y-115514248D01*
X191618577Y-115347501D01*
X191553676Y-115133553D01*
X191526656Y-115083001D01*
X191857645Y-115083001D01*
X191895404Y-115300367D01*
X191974842Y-115506189D01*
X192000684Y-115554534D01*
X192212584Y-115587811D01*
X192356748Y-115443647D01*
X192370507Y-115485937D01*
X192431669Y-115595048D01*
X192492910Y-115666695D01*
X192392189Y-115767416D01*
X192425466Y-115979316D01*
X192627176Y-116068683D01*
X192842445Y-116116981D01*
X193063001Y-116122355D01*
X193242323Y-116091205D01*
X193241928Y-116210000D01*
X193254188Y-116334482D01*
X193290498Y-116454180D01*
X193349463Y-116564494D01*
X193428815Y-116661185D01*
X193525506Y-116740537D01*
X193635820Y-116799502D01*
X193755518Y-116835812D01*
X193880000Y-116848072D01*
X196134250Y-116845000D01*
X196293000Y-116686250D01*
X196293000Y-115127000D01*
X196273000Y-115127000D01*
X196273000Y-114873000D01*
X196293000Y-114873000D01*
X196293000Y-113313750D01*
X196134250Y-113155000D01*
X193880000Y-113151928D01*
X193755518Y-113164188D01*
X193635820Y-113200498D01*
X193525506Y-113259463D01*
X193428815Y-113338815D01*
X193349463Y-113435506D01*
X193290498Y-113545820D01*
X193254188Y-113665518D01*
X193241928Y-113790000D01*
X193242330Y-113911014D01*
X193117555Y-113883019D01*
X192896999Y-113877645D01*
X192679633Y-113915404D01*
X192473811Y-113994842D01*
X192425466Y-114020684D01*
X192392189Y-114232584D01*
X192492910Y-114333305D01*
X192431669Y-114404952D01*
X192370507Y-114514063D01*
X192356748Y-114556353D01*
X192212584Y-114412189D01*
X192000684Y-114445466D01*
X191911317Y-114647176D01*
X191863019Y-114862445D01*
X191857645Y-115083001D01*
X191526656Y-115083001D01*
X191448284Y-114936377D01*
X191306449Y-114763551D01*
X191263140Y-114728008D01*
X190071996Y-113536865D01*
X190036449Y-113493551D01*
X189863623Y-113351716D01*
X189666447Y-113246324D01*
X189452499Y-113181423D01*
X189285752Y-113165000D01*
X189285751Y-113165000D01*
X189230000Y-113159509D01*
X189174249Y-113165000D01*
X188925107Y-113165000D01*
X188906632Y-113146525D01*
X188663411Y-112984010D01*
X188393158Y-112872068D01*
X188106260Y-112815000D01*
X187813740Y-112815000D01*
X187526842Y-112872068D01*
X187256589Y-112984010D01*
X187013368Y-113146525D01*
X186806525Y-113353368D01*
X186690000Y-113527760D01*
X186573475Y-113353368D01*
X186366632Y-113146525D01*
X186123411Y-112984010D01*
X185853158Y-112872068D01*
X185566260Y-112815000D01*
X185273740Y-112815000D01*
X184986842Y-112872068D01*
X184716589Y-112984010D01*
X184473368Y-113146525D01*
X184341513Y-113278380D01*
X184319502Y-113205820D01*
X184260537Y-113095506D01*
X184181185Y-112998815D01*
X184084494Y-112919463D01*
X183974180Y-112860498D01*
X183854482Y-112824188D01*
X183730000Y-112811928D01*
X182030000Y-112811928D01*
X181905518Y-112824188D01*
X181785820Y-112860498D01*
X181675506Y-112919463D01*
X181578815Y-112998815D01*
X181499463Y-113095506D01*
X181440498Y-113205820D01*
X181404188Y-113325518D01*
X181391928Y-113450000D01*
X181391928Y-115150000D01*
X181404188Y-115274482D01*
X181440498Y-115394180D01*
X181499463Y-115504494D01*
X181578815Y-115601185D01*
X181675506Y-115680537D01*
X181745000Y-115717683D01*
X181745001Y-118414892D01*
X181726525Y-118433368D01*
X181564010Y-118676589D01*
X181452068Y-118946842D01*
X181395000Y-119233740D01*
X181395000Y-119526260D01*
X181452068Y-119813158D01*
X181564010Y-120083411D01*
X181726525Y-120326632D01*
X181933368Y-120533475D01*
X182176589Y-120695990D01*
X182446842Y-120807932D01*
X182733740Y-120865000D01*
X183026260Y-120865000D01*
X183313158Y-120807932D01*
X183583411Y-120695990D01*
X183826632Y-120533475D01*
X184033475Y-120326632D01*
X184150000Y-120152240D01*
X184266525Y-120326632D01*
X184473368Y-120533475D01*
X184716589Y-120695990D01*
X184986842Y-120807932D01*
X185273740Y-120865000D01*
X185566260Y-120865000D01*
X185853158Y-120807932D01*
X186123411Y-120695990D01*
X186366632Y-120533475D01*
X186498487Y-120401620D01*
X186520498Y-120474180D01*
X186579463Y-120584494D01*
X186658815Y-120681185D01*
X186755506Y-120760537D01*
X186865820Y-120819502D01*
X186985518Y-120855812D01*
X187110000Y-120868072D01*
X188810000Y-120868072D01*
X188934482Y-120855812D01*
X189054180Y-120819502D01*
X189164494Y-120760537D01*
X189261185Y-120681185D01*
X189340537Y-120584494D01*
X189365001Y-120538726D01*
X189365001Y-121449867D01*
X188759869Y-122055000D01*
X182935743Y-122055000D01*
X182879999Y-122049510D01*
X182824255Y-122055000D01*
X182824248Y-122055000D01*
X182678493Y-122069356D01*
X182657500Y-122071423D01*
X182607705Y-122086529D01*
X182443553Y-122136324D01*
X182246377Y-122241716D01*
X182073551Y-122383551D01*
X182038011Y-122426857D01*
X180846865Y-123618004D01*
X180803551Y-123653551D01*
X180661716Y-123826377D01*
X180570812Y-123996448D01*
X180556324Y-124023554D01*
X180491423Y-124237502D01*
X180469509Y-124460000D01*
X180475000Y-124515751D01*
X180475000Y-124845716D01*
X180338320Y-125050273D01*
X180230147Y-125311426D01*
X180175000Y-125588665D01*
X179235000Y-125588665D01*
X179179853Y-125311426D01*
X179071680Y-125050273D01*
X178914637Y-124815241D01*
X178714759Y-124615363D01*
X178479727Y-124458320D01*
X178218574Y-124350147D01*
X178013865Y-124309427D01*
X178022499Y-124308577D01*
X178236447Y-124243676D01*
X178433623Y-124138284D01*
X178606449Y-123996449D01*
X178641996Y-123953135D01*
X179833140Y-122761992D01*
X179876449Y-122726449D01*
X180018284Y-122553623D01*
X180123676Y-122356447D01*
X180188577Y-122142499D01*
X180205000Y-121975752D01*
X180205000Y-121975745D01*
X180210490Y-121920001D01*
X180205000Y-121864257D01*
X180205000Y-115625743D01*
X180210490Y-115569999D01*
X180205000Y-115514255D01*
X180205000Y-115514248D01*
X180188577Y-115347501D01*
X180123676Y-115133553D01*
X180018284Y-114936377D01*
X179876449Y-114763551D01*
X179833140Y-114728008D01*
X178641996Y-113536865D01*
X178606449Y-113493551D01*
X178433623Y-113351716D01*
X178236447Y-113246324D01*
X178022499Y-113181423D01*
X177855752Y-113165000D01*
X177855751Y-113165000D01*
X177800000Y-113159509D01*
X177744249Y-113165000D01*
X177495107Y-113165000D01*
X177476632Y-113146525D01*
X177233411Y-112984010D01*
X176963158Y-112872068D01*
X176676260Y-112815000D01*
X176383740Y-112815000D01*
X176096842Y-112872068D01*
X175826589Y-112984010D01*
X175583368Y-113146525D01*
X175376525Y-113353368D01*
X175260000Y-113527760D01*
X175143475Y-113353368D01*
X174936632Y-113146525D01*
X174693411Y-112984010D01*
X174423158Y-112872068D01*
X174136260Y-112815000D01*
X173843740Y-112815000D01*
X173556842Y-112872068D01*
X173286589Y-112984010D01*
X173043368Y-113146525D01*
X172911513Y-113278380D01*
X172889502Y-113205820D01*
X172830537Y-113095506D01*
X172751185Y-112998815D01*
X172654494Y-112919463D01*
X172544180Y-112860498D01*
X172424482Y-112824188D01*
X172300000Y-112811928D01*
X170600000Y-112811928D01*
X170475518Y-112824188D01*
X170355820Y-112860498D01*
X170245506Y-112919463D01*
X170148815Y-112998815D01*
X170069463Y-113095506D01*
X170010498Y-113205820D01*
X169974188Y-113325518D01*
X169961928Y-113450000D01*
X169961928Y-115150000D01*
X169974188Y-115274482D01*
X170010498Y-115394180D01*
X170069463Y-115504494D01*
X170148815Y-115601185D01*
X170245506Y-115680537D01*
X170315000Y-115717683D01*
X170315001Y-118414892D01*
X170296525Y-118433368D01*
X170134010Y-118676589D01*
X170022068Y-118946842D01*
X169965000Y-119233740D01*
X169965000Y-119526260D01*
X170022068Y-119813158D01*
X170134010Y-120083411D01*
X170296525Y-120326632D01*
X170503368Y-120533475D01*
X170746589Y-120695990D01*
X171016842Y-120807932D01*
X171303740Y-120865000D01*
X171596260Y-120865000D01*
X171883158Y-120807932D01*
X172153411Y-120695990D01*
X172396632Y-120533475D01*
X172603475Y-120326632D01*
X172720000Y-120152240D01*
X172836525Y-120326632D01*
X173043368Y-120533475D01*
X173286589Y-120695990D01*
X173556842Y-120807932D01*
X173843740Y-120865000D01*
X174136260Y-120865000D01*
X174423158Y-120807932D01*
X174693411Y-120695990D01*
X174936632Y-120533475D01*
X175068487Y-120401620D01*
X175090498Y-120474180D01*
X175149463Y-120584494D01*
X175228815Y-120681185D01*
X175325506Y-120760537D01*
X175435820Y-120819502D01*
X175555518Y-120855812D01*
X175680000Y-120868072D01*
X177380000Y-120868072D01*
X177504482Y-120855812D01*
X177624180Y-120819502D01*
X177734494Y-120760537D01*
X177831185Y-120681185D01*
X177910537Y-120584494D01*
X177935001Y-120538726D01*
X177935001Y-121449867D01*
X177329869Y-122055000D01*
X171505743Y-122055000D01*
X171449999Y-122049510D01*
X171394255Y-122055000D01*
X171394248Y-122055000D01*
X171248493Y-122069356D01*
X171227500Y-122071423D01*
X171177705Y-122086529D01*
X171013553Y-122136324D01*
X170816377Y-122241716D01*
X170643551Y-122383551D01*
X170608011Y-122426857D01*
X169416865Y-123618004D01*
X169373551Y-123653551D01*
X169231716Y-123826377D01*
X169140812Y-123996448D01*
X169126324Y-124023554D01*
X169061423Y-124237502D01*
X169039509Y-124460000D01*
X169045000Y-124515751D01*
X169045000Y-124845716D01*
X168908320Y-125050273D01*
X168800147Y-125311426D01*
X168745000Y-125588665D01*
X167805000Y-125588665D01*
X167749853Y-125311426D01*
X167641680Y-125050273D01*
X167484637Y-124815241D01*
X167284759Y-124615363D01*
X167049727Y-124458320D01*
X166788574Y-124350147D01*
X166583865Y-124309427D01*
X166592499Y-124308577D01*
X166806447Y-124243676D01*
X167003623Y-124138284D01*
X167176449Y-123996449D01*
X167211996Y-123953135D01*
X168403140Y-122761992D01*
X168446449Y-122726449D01*
X168588284Y-122553623D01*
X168693676Y-122356447D01*
X168758577Y-122142499D01*
X168775000Y-121975752D01*
X168775000Y-121975745D01*
X168780490Y-121920001D01*
X168775000Y-121864257D01*
X168775000Y-115625743D01*
X168780490Y-115569999D01*
X168775000Y-115514255D01*
X168775000Y-115514248D01*
X168758577Y-115347501D01*
X168693676Y-115133553D01*
X168588284Y-114936377D01*
X168446449Y-114763551D01*
X168403140Y-114728008D01*
X167211996Y-113536865D01*
X167176449Y-113493551D01*
X167003623Y-113351716D01*
X166806447Y-113246324D01*
X166592499Y-113181423D01*
X166425752Y-113165000D01*
X166425751Y-113165000D01*
X166370000Y-113159509D01*
X166314249Y-113165000D01*
X166065107Y-113165000D01*
X166046632Y-113146525D01*
X165803411Y-112984010D01*
X165533158Y-112872068D01*
X165246260Y-112815000D01*
X164953740Y-112815000D01*
X164666842Y-112872068D01*
X164396589Y-112984010D01*
X164153368Y-113146525D01*
X163946525Y-113353368D01*
X163830000Y-113527760D01*
X163713475Y-113353368D01*
X163506632Y-113146525D01*
X163263411Y-112984010D01*
X162993158Y-112872068D01*
X162706260Y-112815000D01*
X162413740Y-112815000D01*
X162126842Y-112872068D01*
X161856589Y-112984010D01*
X161613368Y-113146525D01*
X161481513Y-113278380D01*
X161459502Y-113205820D01*
X161400537Y-113095506D01*
X161321185Y-112998815D01*
X161224494Y-112919463D01*
X161114180Y-112860498D01*
X160994482Y-112824188D01*
X160870000Y-112811928D01*
X159170000Y-112811928D01*
X159045518Y-112824188D01*
X158925820Y-112860498D01*
X158815506Y-112919463D01*
X158718815Y-112998815D01*
X158639463Y-113095506D01*
X158580498Y-113205820D01*
X158544188Y-113325518D01*
X158531928Y-113450000D01*
X158531928Y-115150000D01*
X158544188Y-115274482D01*
X158580498Y-115394180D01*
X158639463Y-115504494D01*
X158718815Y-115601185D01*
X158815506Y-115680537D01*
X158885000Y-115717683D01*
X158885001Y-118414892D01*
X158866525Y-118433368D01*
X158704010Y-118676589D01*
X158592068Y-118946842D01*
X158535000Y-119233740D01*
X158535000Y-119526260D01*
X158592068Y-119813158D01*
X158704010Y-120083411D01*
X158866525Y-120326632D01*
X159073368Y-120533475D01*
X159316589Y-120695990D01*
X159586842Y-120807932D01*
X159873740Y-120865000D01*
X160166260Y-120865000D01*
X160453158Y-120807932D01*
X160723411Y-120695990D01*
X160966632Y-120533475D01*
X161173475Y-120326632D01*
X161290000Y-120152240D01*
X161406525Y-120326632D01*
X161613368Y-120533475D01*
X161856589Y-120695990D01*
X162126842Y-120807932D01*
X162413740Y-120865000D01*
X162706260Y-120865000D01*
X162993158Y-120807932D01*
X163263411Y-120695990D01*
X163506632Y-120533475D01*
X163638487Y-120401620D01*
X163660498Y-120474180D01*
X163719463Y-120584494D01*
X163798815Y-120681185D01*
X163895506Y-120760537D01*
X164005820Y-120819502D01*
X164125518Y-120855812D01*
X164250000Y-120868072D01*
X165950000Y-120868072D01*
X166074482Y-120855812D01*
X166194180Y-120819502D01*
X166304494Y-120760537D01*
X166401185Y-120681185D01*
X166480537Y-120584494D01*
X166505001Y-120538726D01*
X166505001Y-121449867D01*
X165899869Y-122055000D01*
X160075743Y-122055000D01*
X160019999Y-122049510D01*
X159964255Y-122055000D01*
X159964248Y-122055000D01*
X159818493Y-122069356D01*
X159797500Y-122071423D01*
X159747705Y-122086529D01*
X159583553Y-122136324D01*
X159386377Y-122241716D01*
X159213551Y-122383551D01*
X159178011Y-122426857D01*
X157986865Y-123618004D01*
X157943551Y-123653551D01*
X157801716Y-123826377D01*
X157710812Y-123996448D01*
X157696324Y-124023554D01*
X157631423Y-124237502D01*
X157609509Y-124460000D01*
X157615000Y-124515751D01*
X157615000Y-124845716D01*
X157478320Y-125050273D01*
X157370147Y-125311426D01*
X157315000Y-125588665D01*
X156375000Y-125588665D01*
X156319853Y-125311426D01*
X156211680Y-125050273D01*
X156054637Y-124815241D01*
X155854759Y-124615363D01*
X155619727Y-124458320D01*
X155358574Y-124350147D01*
X155153865Y-124309427D01*
X155162499Y-124308577D01*
X155376447Y-124243676D01*
X155573623Y-124138284D01*
X155746449Y-123996449D01*
X155781996Y-123953135D01*
X156973140Y-122761992D01*
X157016449Y-122726449D01*
X157158284Y-122553623D01*
X157263676Y-122356447D01*
X157328577Y-122142499D01*
X157345000Y-121975752D01*
X157345000Y-121975745D01*
X157350490Y-121920001D01*
X157345000Y-121864257D01*
X157345000Y-115625743D01*
X157350490Y-115569999D01*
X157345000Y-115514255D01*
X157345000Y-115514248D01*
X157328577Y-115347501D01*
X157263676Y-115133553D01*
X157158284Y-114936377D01*
X157016449Y-114763551D01*
X156973140Y-114728008D01*
X155781996Y-113536865D01*
X155746449Y-113493551D01*
X155573623Y-113351716D01*
X155376447Y-113246324D01*
X155162499Y-113181423D01*
X154995752Y-113165000D01*
X154995751Y-113165000D01*
X154940000Y-113159509D01*
X154884249Y-113165000D01*
X154635107Y-113165000D01*
X154616632Y-113146525D01*
X154373411Y-112984010D01*
X154103158Y-112872068D01*
X153816260Y-112815000D01*
X153523740Y-112815000D01*
X153236842Y-112872068D01*
X152966589Y-112984010D01*
X152723368Y-113146525D01*
X152516525Y-113353368D01*
X152400000Y-113527760D01*
X152283475Y-113353368D01*
X152076632Y-113146525D01*
X151833411Y-112984010D01*
X151563158Y-112872068D01*
X151276260Y-112815000D01*
X150983740Y-112815000D01*
X150696842Y-112872068D01*
X150426589Y-112984010D01*
X150183368Y-113146525D01*
X150051513Y-113278380D01*
X150029502Y-113205820D01*
X149970537Y-113095506D01*
X149891185Y-112998815D01*
X149794494Y-112919463D01*
X149684180Y-112860498D01*
X149564482Y-112824188D01*
X149440000Y-112811928D01*
X147740000Y-112811928D01*
X147615518Y-112824188D01*
X147495820Y-112860498D01*
X147385506Y-112919463D01*
X147288815Y-112998815D01*
X147209463Y-113095506D01*
X147150498Y-113205820D01*
X147114188Y-113325518D01*
X147101928Y-113450000D01*
X147101928Y-115150000D01*
X147114188Y-115274482D01*
X147150498Y-115394180D01*
X147209463Y-115504494D01*
X147288815Y-115601185D01*
X147385506Y-115680537D01*
X147455000Y-115717683D01*
X147455001Y-118414892D01*
X147436525Y-118433368D01*
X147274010Y-118676589D01*
X147162068Y-118946842D01*
X147105000Y-119233740D01*
X147105000Y-119526260D01*
X147162068Y-119813158D01*
X147274010Y-120083411D01*
X147436525Y-120326632D01*
X147643368Y-120533475D01*
X147886589Y-120695990D01*
X148156842Y-120807932D01*
X148443740Y-120865000D01*
X148736260Y-120865000D01*
X149023158Y-120807932D01*
X149293411Y-120695990D01*
X149536632Y-120533475D01*
X149743475Y-120326632D01*
X149860000Y-120152240D01*
X149976525Y-120326632D01*
X150183368Y-120533475D01*
X150426589Y-120695990D01*
X150696842Y-120807932D01*
X150983740Y-120865000D01*
X151276260Y-120865000D01*
X151563158Y-120807932D01*
X151833411Y-120695990D01*
X152076632Y-120533475D01*
X152208487Y-120401620D01*
X152230498Y-120474180D01*
X152289463Y-120584494D01*
X152368815Y-120681185D01*
X152465506Y-120760537D01*
X152575820Y-120819502D01*
X152695518Y-120855812D01*
X152820000Y-120868072D01*
X154520000Y-120868072D01*
X154644482Y-120855812D01*
X154764180Y-120819502D01*
X154874494Y-120760537D01*
X154971185Y-120681185D01*
X155050537Y-120584494D01*
X155075001Y-120538726D01*
X155075001Y-121449867D01*
X154469869Y-122055000D01*
X148645743Y-122055000D01*
X148589999Y-122049510D01*
X148534255Y-122055000D01*
X148534248Y-122055000D01*
X148388493Y-122069356D01*
X148367500Y-122071423D01*
X148317705Y-122086529D01*
X148153553Y-122136324D01*
X147956377Y-122241716D01*
X147783551Y-122383551D01*
X147748011Y-122426857D01*
X146556865Y-123618004D01*
X146513551Y-123653551D01*
X146371716Y-123826377D01*
X146280812Y-123996448D01*
X146266324Y-124023554D01*
X146201423Y-124237502D01*
X146179509Y-124460000D01*
X146185000Y-124515751D01*
X146185000Y-124845716D01*
X146048320Y-125050273D01*
X145940147Y-125311426D01*
X145885000Y-125588665D01*
X144945000Y-125588665D01*
X144889853Y-125311426D01*
X144781680Y-125050273D01*
X144624637Y-124815241D01*
X144424759Y-124615363D01*
X144189727Y-124458320D01*
X143928574Y-124350147D01*
X143723865Y-124309427D01*
X143732499Y-124308577D01*
X143946447Y-124243676D01*
X144143623Y-124138284D01*
X144316449Y-123996449D01*
X144351996Y-123953135D01*
X145543140Y-122761992D01*
X145586449Y-122726449D01*
X145728284Y-122553623D01*
X145833676Y-122356447D01*
X145898577Y-122142499D01*
X145915000Y-121975752D01*
X145915000Y-121975745D01*
X145920490Y-121920001D01*
X145915000Y-121864257D01*
X145915000Y-115625743D01*
X145920490Y-115569999D01*
X145915000Y-115514255D01*
X145915000Y-115514248D01*
X145898577Y-115347501D01*
X145833676Y-115133553D01*
X145728284Y-114936377D01*
X145586449Y-114763551D01*
X145543140Y-114728008D01*
X144351996Y-113536865D01*
X144316449Y-113493551D01*
X144143623Y-113351716D01*
X143946447Y-113246324D01*
X143732499Y-113181423D01*
X143565752Y-113165000D01*
X143565751Y-113165000D01*
X143510000Y-113159509D01*
X143454249Y-113165000D01*
X143205107Y-113165000D01*
X143186632Y-113146525D01*
X142943411Y-112984010D01*
X142673158Y-112872068D01*
X142386260Y-112815000D01*
X142093740Y-112815000D01*
X141806842Y-112872068D01*
X141536589Y-112984010D01*
X141293368Y-113146525D01*
X141086525Y-113353368D01*
X140970000Y-113527760D01*
X140853475Y-113353368D01*
X140646632Y-113146525D01*
X140403411Y-112984010D01*
X140133158Y-112872068D01*
X139846260Y-112815000D01*
X139553740Y-112815000D01*
X139266842Y-112872068D01*
X138996589Y-112984010D01*
X138753368Y-113146525D01*
X138621513Y-113278380D01*
X138599502Y-113205820D01*
X138540537Y-113095506D01*
X138461185Y-112998815D01*
X138364494Y-112919463D01*
X138254180Y-112860498D01*
X138134482Y-112824188D01*
X138010000Y-112811928D01*
X136310000Y-112811928D01*
X136185518Y-112824188D01*
X136065820Y-112860498D01*
X135955506Y-112919463D01*
X135858815Y-112998815D01*
X135779463Y-113095506D01*
X135720498Y-113205820D01*
X135684188Y-113325518D01*
X135671928Y-113450000D01*
X135671928Y-115150000D01*
X135684188Y-115274482D01*
X135720498Y-115394180D01*
X135779463Y-115504494D01*
X135858815Y-115601185D01*
X135955506Y-115680537D01*
X136025000Y-115717683D01*
X136025001Y-118414892D01*
X136006525Y-118433368D01*
X135844010Y-118676589D01*
X135732068Y-118946842D01*
X135675000Y-119233740D01*
X135675000Y-119526260D01*
X135732068Y-119813158D01*
X135844010Y-120083411D01*
X136006525Y-120326632D01*
X136213368Y-120533475D01*
X136456589Y-120695990D01*
X136726842Y-120807932D01*
X137013740Y-120865000D01*
X137306260Y-120865000D01*
X137593158Y-120807932D01*
X137863411Y-120695990D01*
X138106632Y-120533475D01*
X138313475Y-120326632D01*
X138430000Y-120152240D01*
X138546525Y-120326632D01*
X138753368Y-120533475D01*
X138996589Y-120695990D01*
X139266842Y-120807932D01*
X139553740Y-120865000D01*
X139846260Y-120865000D01*
X140133158Y-120807932D01*
X140403411Y-120695990D01*
X140646632Y-120533475D01*
X140778487Y-120401620D01*
X140800498Y-120474180D01*
X140859463Y-120584494D01*
X140938815Y-120681185D01*
X141035506Y-120760537D01*
X141145820Y-120819502D01*
X141265518Y-120855812D01*
X141390000Y-120868072D01*
X143090000Y-120868072D01*
X143214482Y-120855812D01*
X143334180Y-120819502D01*
X143444494Y-120760537D01*
X143541185Y-120681185D01*
X143620537Y-120584494D01*
X143645001Y-120538726D01*
X143645001Y-121449867D01*
X143039869Y-122055000D01*
X137215743Y-122055000D01*
X137159999Y-122049510D01*
X137104255Y-122055000D01*
X137104248Y-122055000D01*
X136958493Y-122069356D01*
X136937500Y-122071423D01*
X136887705Y-122086529D01*
X136723553Y-122136324D01*
X136526377Y-122241716D01*
X136353551Y-122383551D01*
X136318011Y-122426857D01*
X135126865Y-123618004D01*
X135083551Y-123653551D01*
X134941716Y-123826377D01*
X134850812Y-123996448D01*
X134836324Y-124023554D01*
X134771423Y-124237502D01*
X134749509Y-124460000D01*
X134755000Y-124515751D01*
X134755000Y-124845716D01*
X134618320Y-125050273D01*
X134510147Y-125311426D01*
X134455000Y-125588665D01*
X131778042Y-125588665D01*
X131874180Y-125559502D01*
X131984494Y-125500537D01*
X132081185Y-125421185D01*
X132160537Y-125324494D01*
X132219502Y-125214180D01*
X132255812Y-125094482D01*
X132268072Y-124970000D01*
X132267670Y-124848986D01*
X132392445Y-124876981D01*
X132613001Y-124882355D01*
X132830367Y-124844596D01*
X133036189Y-124765158D01*
X133084534Y-124739316D01*
X133117811Y-124527416D01*
X133017090Y-124426695D01*
X133078331Y-124355048D01*
X133139493Y-124245937D01*
X133153252Y-124203647D01*
X133297416Y-124347811D01*
X133509316Y-124314534D01*
X133598683Y-124112824D01*
X133646981Y-123897555D01*
X133652355Y-123676999D01*
X133614596Y-123459633D01*
X133535158Y-123253811D01*
X133509316Y-123205466D01*
X133297416Y-123172189D01*
X133153252Y-123316353D01*
X133139493Y-123274063D01*
X133078331Y-123164952D01*
X133017090Y-123093305D01*
X133117811Y-122992584D01*
X133084534Y-122780684D01*
X132882824Y-122691317D01*
X132667555Y-122643019D01*
X132446999Y-122637645D01*
X132267677Y-122668795D01*
X132268072Y-122550000D01*
X132255812Y-122425518D01*
X132219502Y-122305820D01*
X132160537Y-122195506D01*
X132081185Y-122098815D01*
X131984494Y-122019463D01*
X131874180Y-121960498D01*
X131754482Y-121924188D01*
X131630000Y-121911928D01*
X129375750Y-121915000D01*
X129217000Y-122073750D01*
X128963000Y-122073750D01*
X128804250Y-121915000D01*
X126550000Y-121911928D01*
X126425518Y-121924188D01*
X126425000Y-121924345D01*
X126425000Y-116835655D01*
X126425518Y-116835812D01*
X126550000Y-116848072D01*
X128804250Y-116845000D01*
X128963000Y-116686250D01*
X128963000Y-115127000D01*
X128943000Y-115127000D01*
X128943000Y-114873000D01*
X128963000Y-114873000D01*
X128963000Y-113313750D01*
X129217000Y-113313750D01*
X129217000Y-114873000D01*
X129237000Y-114873000D01*
X129237000Y-115127000D01*
X129217000Y-115127000D01*
X129217000Y-116686250D01*
X129375750Y-116845000D01*
X131630000Y-116848072D01*
X131754482Y-116835812D01*
X131874180Y-116799502D01*
X131984494Y-116740537D01*
X132081185Y-116661185D01*
X132160537Y-116564494D01*
X132219502Y-116454180D01*
X132255812Y-116334482D01*
X132268072Y-116210000D01*
X132267670Y-116088986D01*
X132392445Y-116116981D01*
X132613001Y-116122355D01*
X132830367Y-116084596D01*
X133036189Y-116005158D01*
X133084534Y-115979316D01*
X133117811Y-115767416D01*
X133017090Y-115666695D01*
X133078331Y-115595048D01*
X133139493Y-115485937D01*
X133153252Y-115443647D01*
X133297416Y-115587811D01*
X133509316Y-115554534D01*
X133598683Y-115352824D01*
X133646981Y-115137555D01*
X133652355Y-114916999D01*
X133614596Y-114699633D01*
X133535158Y-114493811D01*
X133509316Y-114445466D01*
X133297416Y-114412189D01*
X133153252Y-114556353D01*
X133139493Y-114514063D01*
X133078331Y-114404952D01*
X133017090Y-114333305D01*
X133117811Y-114232584D01*
X133084534Y-114020684D01*
X132882824Y-113931317D01*
X132667555Y-113883019D01*
X132446999Y-113877645D01*
X132267677Y-113908795D01*
X132268072Y-113790000D01*
X132255812Y-113665518D01*
X132219502Y-113545820D01*
X132160537Y-113435506D01*
X132081185Y-113338815D01*
X131984494Y-113259463D01*
X131874180Y-113200498D01*
X131754482Y-113164188D01*
X131630000Y-113151928D01*
X129375750Y-113155000D01*
X129217000Y-113313750D01*
X128963000Y-113313750D01*
X128804250Y-113155000D01*
X126550000Y-113151928D01*
X126425518Y-113164188D01*
X126425000Y-113164345D01*
X126425000Y-112455000D01*
X198695001Y-112455000D01*
X198695001Y-113152289D01*
M02*
