G04 #@! TF.GenerationSoftware,KiCad,Pcbnew,(5.1.5)-3*
G04 #@! TF.CreationDate,2020-04-03T09:15:43-04:00*
G04 #@! TF.ProjectId,Project,50726f6a-6563-4742-9e6b-696361645f70,rev?*
G04 #@! TF.SameCoordinates,Original*
G04 #@! TF.FileFunction,Legend,Top*
G04 #@! TF.FilePolarity,Positive*
%FSLAX46Y46*%
G04 Gerber Fmt 4.6, Leading zero omitted, Abs format (unit mm)*
G04 Created by KiCad (PCBNEW (5.1.5)-3) date 2020-04-03 09:15:43*
%MOMM*%
%LPD*%
G04 APERTURE LIST*
%ADD10C,0.150000*%
%ADD11C,0.120000*%
G04 APERTURE END LIST*
D10*
X182522857Y-116768571D02*
X182665714Y-116816190D01*
X182713333Y-116863809D01*
X182760952Y-116959047D01*
X182760952Y-117101904D01*
X182713333Y-117197142D01*
X182665714Y-117244761D01*
X182570476Y-117292380D01*
X182189523Y-117292380D01*
X182189523Y-116292380D01*
X182522857Y-116292380D01*
X182618095Y-116340000D01*
X182665714Y-116387619D01*
X182713333Y-116482857D01*
X182713333Y-116578095D01*
X182665714Y-116673333D01*
X182618095Y-116720952D01*
X182522857Y-116768571D01*
X182189523Y-116768571D01*
X183380000Y-116816190D02*
X183380000Y-117292380D01*
X183046666Y-116292380D02*
X183380000Y-116816190D01*
X183713333Y-116292380D01*
X159662857Y-116768571D02*
X159805714Y-116816190D01*
X159853333Y-116863809D01*
X159900952Y-116959047D01*
X159900952Y-117101904D01*
X159853333Y-117197142D01*
X159805714Y-117244761D01*
X159710476Y-117292380D01*
X159329523Y-117292380D01*
X159329523Y-116292380D01*
X159662857Y-116292380D01*
X159758095Y-116340000D01*
X159805714Y-116387619D01*
X159853333Y-116482857D01*
X159853333Y-116578095D01*
X159805714Y-116673333D01*
X159758095Y-116720952D01*
X159662857Y-116768571D01*
X159329523Y-116768571D01*
X160520000Y-116816190D02*
X160520000Y-117292380D01*
X160186666Y-116292380D02*
X160520000Y-116816190D01*
X160853333Y-116292380D01*
X171092857Y-116768571D02*
X171235714Y-116816190D01*
X171283333Y-116863809D01*
X171330952Y-116959047D01*
X171330952Y-117101904D01*
X171283333Y-117197142D01*
X171235714Y-117244761D01*
X171140476Y-117292380D01*
X170759523Y-117292380D01*
X170759523Y-116292380D01*
X171092857Y-116292380D01*
X171188095Y-116340000D01*
X171235714Y-116387619D01*
X171283333Y-116482857D01*
X171283333Y-116578095D01*
X171235714Y-116673333D01*
X171188095Y-116720952D01*
X171092857Y-116768571D01*
X170759523Y-116768571D01*
X171950000Y-116816190D02*
X171950000Y-117292380D01*
X171616666Y-116292380D02*
X171950000Y-116816190D01*
X172283333Y-116292380D01*
X148232857Y-116768571D02*
X148375714Y-116816190D01*
X148423333Y-116863809D01*
X148470952Y-116959047D01*
X148470952Y-117101904D01*
X148423333Y-117197142D01*
X148375714Y-117244761D01*
X148280476Y-117292380D01*
X147899523Y-117292380D01*
X147899523Y-116292380D01*
X148232857Y-116292380D01*
X148328095Y-116340000D01*
X148375714Y-116387619D01*
X148423333Y-116482857D01*
X148423333Y-116578095D01*
X148375714Y-116673333D01*
X148328095Y-116720952D01*
X148232857Y-116768571D01*
X147899523Y-116768571D01*
X149090000Y-116816190D02*
X149090000Y-117292380D01*
X148756666Y-116292380D02*
X149090000Y-116816190D01*
X149423333Y-116292380D01*
X136802857Y-116768571D02*
X136945714Y-116816190D01*
X136993333Y-116863809D01*
X137040952Y-116959047D01*
X137040952Y-117101904D01*
X136993333Y-117197142D01*
X136945714Y-117244761D01*
X136850476Y-117292380D01*
X136469523Y-117292380D01*
X136469523Y-116292380D01*
X136802857Y-116292380D01*
X136898095Y-116340000D01*
X136945714Y-116387619D01*
X136993333Y-116482857D01*
X136993333Y-116578095D01*
X136945714Y-116673333D01*
X136898095Y-116720952D01*
X136802857Y-116768571D01*
X136469523Y-116768571D01*
X137660000Y-116816190D02*
X137660000Y-117292380D01*
X137326666Y-116292380D02*
X137660000Y-116816190D01*
X137993333Y-116292380D01*
D11*
X186690000Y-115570000D02*
X186690000Y-118050000D01*
X189290000Y-115630000D02*
X189290000Y-118050000D01*
X177860000Y-115630000D02*
X177860000Y-118050000D01*
X175260000Y-115570000D02*
X175260000Y-118050000D01*
X163830000Y-115570000D02*
X163830000Y-118050000D01*
X166430000Y-115630000D02*
X166430000Y-118050000D01*
X155000000Y-115630000D02*
X155000000Y-118050000D01*
X152400000Y-115570000D02*
X152400000Y-118050000D01*
X143570000Y-115630000D02*
X143570000Y-118050000D01*
X140970000Y-115570000D02*
X140970000Y-118050000D01*
D10*
X164480952Y-117006666D02*
X164957142Y-117006666D01*
X164385714Y-117292380D02*
X164719047Y-116292380D01*
X165052380Y-117292380D01*
X165242857Y-116292380D02*
X165814285Y-116292380D01*
X165528571Y-117292380D02*
X165528571Y-116292380D01*
X101916309Y-122737619D02*
X101963928Y-122690000D01*
X102059166Y-122642380D01*
X102297261Y-122642380D01*
X102392500Y-122690000D01*
X102440119Y-122737619D01*
X102487738Y-122832857D01*
X102487738Y-122928095D01*
X102440119Y-123070952D01*
X101868690Y-123642380D01*
X102487738Y-123642380D01*
X102868690Y-122737619D02*
X102916309Y-122690000D01*
X103011547Y-122642380D01*
X103249642Y-122642380D01*
X103344880Y-122690000D01*
X103392500Y-122737619D01*
X103440119Y-122832857D01*
X103440119Y-122928095D01*
X103392500Y-123070952D01*
X102821071Y-123642380D01*
X103440119Y-123642380D01*
X103868690Y-123547142D02*
X103916309Y-123594761D01*
X103868690Y-123642380D01*
X103821071Y-123594761D01*
X103868690Y-123547142D01*
X103868690Y-123642380D01*
X104487738Y-123070952D02*
X104392500Y-123023333D01*
X104344880Y-122975714D01*
X104297261Y-122880476D01*
X104297261Y-122832857D01*
X104344880Y-122737619D01*
X104392500Y-122690000D01*
X104487738Y-122642380D01*
X104678214Y-122642380D01*
X104773452Y-122690000D01*
X104821071Y-122737619D01*
X104868690Y-122832857D01*
X104868690Y-122880476D01*
X104821071Y-122975714D01*
X104773452Y-123023333D01*
X104678214Y-123070952D01*
X104487738Y-123070952D01*
X104392500Y-123118571D01*
X104344880Y-123166190D01*
X104297261Y-123261428D01*
X104297261Y-123451904D01*
X104344880Y-123547142D01*
X104392500Y-123594761D01*
X104487738Y-123642380D01*
X104678214Y-123642380D01*
X104773452Y-123594761D01*
X104821071Y-123547142D01*
X104868690Y-123451904D01*
X104868690Y-123261428D01*
X104821071Y-123166190D01*
X104773452Y-123118571D01*
X104678214Y-123070952D01*
X105725833Y-122642380D02*
X105535357Y-122642380D01*
X105440119Y-122690000D01*
X105392500Y-122737619D01*
X105297261Y-122880476D01*
X105249642Y-123070952D01*
X105249642Y-123451904D01*
X105297261Y-123547142D01*
X105344880Y-123594761D01*
X105440119Y-123642380D01*
X105630595Y-123642380D01*
X105725833Y-123594761D01*
X105773452Y-123547142D01*
X105821071Y-123451904D01*
X105821071Y-123213809D01*
X105773452Y-123118571D01*
X105725833Y-123070952D01*
X105630595Y-123023333D01*
X105440119Y-123023333D01*
X105344880Y-123070952D01*
X105297261Y-123118571D01*
X105249642Y-123213809D01*
X106440119Y-122642380D02*
X106535357Y-122642380D01*
X106630595Y-122690000D01*
X106678214Y-122737619D01*
X106725833Y-122832857D01*
X106773452Y-123023333D01*
X106773452Y-123261428D01*
X106725833Y-123451904D01*
X106678214Y-123547142D01*
X106630595Y-123594761D01*
X106535357Y-123642380D01*
X106440119Y-123642380D01*
X106344880Y-123594761D01*
X106297261Y-123547142D01*
X106249642Y-123451904D01*
X106202023Y-123261428D01*
X106202023Y-123023333D01*
X106249642Y-122832857D01*
X106297261Y-122737619D01*
X106344880Y-122690000D01*
X106440119Y-122642380D01*
X107963928Y-123642380D02*
X107963928Y-122975714D01*
X107963928Y-123070952D02*
X108011547Y-123023333D01*
X108106785Y-122975714D01*
X108249642Y-122975714D01*
X108344880Y-123023333D01*
X108392500Y-123118571D01*
X108392500Y-123642380D01*
X108392500Y-123118571D02*
X108440119Y-123023333D01*
X108535357Y-122975714D01*
X108678214Y-122975714D01*
X108773452Y-123023333D01*
X108821071Y-123118571D01*
X108821071Y-123642380D01*
X109297261Y-123642380D02*
X109297261Y-122975714D01*
X109297261Y-123070952D02*
X109344880Y-123023333D01*
X109440119Y-122975714D01*
X109582976Y-122975714D01*
X109678214Y-123023333D01*
X109725833Y-123118571D01*
X109725833Y-123642380D01*
X109725833Y-123118571D02*
X109773452Y-123023333D01*
X109868690Y-122975714D01*
X110011547Y-122975714D01*
X110106785Y-123023333D01*
X110154404Y-123118571D01*
X110154404Y-123642380D01*
D11*
X111760000Y-111760000D02*
X111760000Y-134620000D01*
X125730000Y-111760000D02*
X111173579Y-111760000D01*
X125730000Y-134620000D02*
X111173579Y-134620000D01*
X111760000Y-134620000D02*
X111173579Y-133493496D01*
X111760000Y-134620000D02*
X112346421Y-133493496D01*
X111760000Y-111760000D02*
X111173579Y-112886504D01*
X111760000Y-111760000D02*
X112346421Y-112886504D01*
D10*
X158369523Y-102322380D02*
X159036190Y-102322380D01*
X158607619Y-103322380D01*
X159321904Y-102322380D02*
X159940952Y-102322380D01*
X159607619Y-102703333D01*
X159750476Y-102703333D01*
X159845714Y-102750952D01*
X159893333Y-102798571D01*
X159940952Y-102893809D01*
X159940952Y-103131904D01*
X159893333Y-103227142D01*
X159845714Y-103274761D01*
X159750476Y-103322380D01*
X159464761Y-103322380D01*
X159369523Y-103274761D01*
X159321904Y-103227142D01*
X160369523Y-103227142D02*
X160417142Y-103274761D01*
X160369523Y-103322380D01*
X160321904Y-103274761D01*
X160369523Y-103227142D01*
X160369523Y-103322380D01*
X161274285Y-102322380D02*
X161083809Y-102322380D01*
X160988571Y-102370000D01*
X160940952Y-102417619D01*
X160845714Y-102560476D01*
X160798095Y-102750952D01*
X160798095Y-103131904D01*
X160845714Y-103227142D01*
X160893333Y-103274761D01*
X160988571Y-103322380D01*
X161179047Y-103322380D01*
X161274285Y-103274761D01*
X161321904Y-103227142D01*
X161369523Y-103131904D01*
X161369523Y-102893809D01*
X161321904Y-102798571D01*
X161274285Y-102750952D01*
X161179047Y-102703333D01*
X160988571Y-102703333D01*
X160893333Y-102750952D01*
X160845714Y-102798571D01*
X160798095Y-102893809D01*
X162226666Y-102322380D02*
X162036190Y-102322380D01*
X161940952Y-102370000D01*
X161893333Y-102417619D01*
X161798095Y-102560476D01*
X161750476Y-102750952D01*
X161750476Y-103131904D01*
X161798095Y-103227142D01*
X161845714Y-103274761D01*
X161940952Y-103322380D01*
X162131428Y-103322380D01*
X162226666Y-103274761D01*
X162274285Y-103227142D01*
X162321904Y-103131904D01*
X162321904Y-102893809D01*
X162274285Y-102798571D01*
X162226666Y-102750952D01*
X162131428Y-102703333D01*
X161940952Y-102703333D01*
X161845714Y-102750952D01*
X161798095Y-102798571D01*
X161750476Y-102893809D01*
X162940952Y-102322380D02*
X163036190Y-102322380D01*
X163131428Y-102370000D01*
X163179047Y-102417619D01*
X163226666Y-102512857D01*
X163274285Y-102703333D01*
X163274285Y-102941428D01*
X163226666Y-103131904D01*
X163179047Y-103227142D01*
X163131428Y-103274761D01*
X163036190Y-103322380D01*
X162940952Y-103322380D01*
X162845714Y-103274761D01*
X162798095Y-103227142D01*
X162750476Y-103131904D01*
X162702857Y-102941428D01*
X162702857Y-102703333D01*
X162750476Y-102512857D01*
X162798095Y-102417619D01*
X162845714Y-102370000D01*
X162940952Y-102322380D01*
X164464761Y-103322380D02*
X164464761Y-102655714D01*
X164464761Y-102750952D02*
X164512380Y-102703333D01*
X164607619Y-102655714D01*
X164750476Y-102655714D01*
X164845714Y-102703333D01*
X164893333Y-102798571D01*
X164893333Y-103322380D01*
X164893333Y-102798571D02*
X164940952Y-102703333D01*
X165036190Y-102655714D01*
X165179047Y-102655714D01*
X165274285Y-102703333D01*
X165321904Y-102798571D01*
X165321904Y-103322380D01*
X165798095Y-103322380D02*
X165798095Y-102655714D01*
X165798095Y-102750952D02*
X165845714Y-102703333D01*
X165940952Y-102655714D01*
X166083809Y-102655714D01*
X166179047Y-102703333D01*
X166226666Y-102798571D01*
X166226666Y-103322380D01*
X166226666Y-102798571D02*
X166274285Y-102703333D01*
X166369523Y-102655714D01*
X166512380Y-102655714D01*
X166607619Y-102703333D01*
X166655238Y-102798571D01*
X166655238Y-103322380D01*
D11*
X125730000Y-104140000D02*
X199390000Y-104140000D01*
X125730000Y-111760000D02*
X125730000Y-103553579D01*
X199390000Y-111760000D02*
X199390000Y-103553579D01*
X199390000Y-104140000D02*
X198263496Y-104726421D01*
X199390000Y-104140000D02*
X198263496Y-103553579D01*
X125730000Y-104140000D02*
X126856504Y-104726421D01*
X125730000Y-104140000D02*
X126856504Y-103553579D01*
D10*
X175910952Y-117006666D02*
X176387142Y-117006666D01*
X175815714Y-117292380D02*
X176149047Y-116292380D01*
X176482380Y-117292380D01*
X176672857Y-116292380D02*
X177244285Y-116292380D01*
X176958571Y-117292380D02*
X176958571Y-116292380D01*
X187340952Y-117006666D02*
X187817142Y-117006666D01*
X187245714Y-117292380D02*
X187579047Y-116292380D01*
X187912380Y-117292380D01*
X188102857Y-116292380D02*
X188674285Y-116292380D01*
X188388571Y-117292380D02*
X188388571Y-116292380D01*
X153050952Y-117006666D02*
X153527142Y-117006666D01*
X152955714Y-117292380D02*
X153289047Y-116292380D01*
X153622380Y-117292380D01*
X153812857Y-116292380D02*
X154384285Y-116292380D01*
X154098571Y-117292380D02*
X154098571Y-116292380D01*
X141620952Y-117006666D02*
X142097142Y-117006666D01*
X141525714Y-117292380D02*
X141859047Y-116292380D01*
X142192380Y-117292380D01*
X142382857Y-116292380D02*
X142954285Y-116292380D01*
X142668571Y-117292380D02*
X142668571Y-116292380D01*
X184181904Y-122975714D02*
X184181904Y-123642380D01*
X183943809Y-122594761D02*
X183705714Y-123309047D01*
X184324761Y-123309047D01*
X184896190Y-122642380D02*
X184991428Y-122642380D01*
X185086666Y-122690000D01*
X185134285Y-122737619D01*
X185181904Y-122832857D01*
X185229523Y-123023333D01*
X185229523Y-123261428D01*
X185181904Y-123451904D01*
X185134285Y-123547142D01*
X185086666Y-123594761D01*
X184991428Y-123642380D01*
X184896190Y-123642380D01*
X184800952Y-123594761D01*
X184753333Y-123547142D01*
X184705714Y-123451904D01*
X184658095Y-123261428D01*
X184658095Y-123023333D01*
X184705714Y-122832857D01*
X184753333Y-122737619D01*
X184800952Y-122690000D01*
X184896190Y-122642380D01*
X186086666Y-123642380D02*
X186086666Y-122642380D01*
X186086666Y-123594761D02*
X185991428Y-123642380D01*
X185800952Y-123642380D01*
X185705714Y-123594761D01*
X185658095Y-123547142D01*
X185610476Y-123451904D01*
X185610476Y-123166190D01*
X185658095Y-123070952D01*
X185705714Y-123023333D01*
X185800952Y-122975714D01*
X185991428Y-122975714D01*
X186086666Y-123023333D01*
X186896190Y-123118571D02*
X187039047Y-123166190D01*
X187086666Y-123213809D01*
X187134285Y-123309047D01*
X187134285Y-123451904D01*
X187086666Y-123547142D01*
X187039047Y-123594761D01*
X186943809Y-123642380D01*
X186562857Y-123642380D01*
X186562857Y-122642380D01*
X186896190Y-122642380D01*
X186991428Y-122690000D01*
X187039047Y-122737619D01*
X187086666Y-122832857D01*
X187086666Y-122928095D01*
X187039047Y-123023333D01*
X186991428Y-123070952D01*
X186896190Y-123118571D01*
X186562857Y-123118571D01*
X172275714Y-122737619D02*
X172323333Y-122690000D01*
X172418571Y-122642380D01*
X172656666Y-122642380D01*
X172751904Y-122690000D01*
X172799523Y-122737619D01*
X172847142Y-122832857D01*
X172847142Y-122928095D01*
X172799523Y-123070952D01*
X172228095Y-123642380D01*
X172847142Y-123642380D01*
X173466190Y-122642380D02*
X173561428Y-122642380D01*
X173656666Y-122690000D01*
X173704285Y-122737619D01*
X173751904Y-122832857D01*
X173799523Y-123023333D01*
X173799523Y-123261428D01*
X173751904Y-123451904D01*
X173704285Y-123547142D01*
X173656666Y-123594761D01*
X173561428Y-123642380D01*
X173466190Y-123642380D01*
X173370952Y-123594761D01*
X173323333Y-123547142D01*
X173275714Y-123451904D01*
X173228095Y-123261428D01*
X173228095Y-123023333D01*
X173275714Y-122832857D01*
X173323333Y-122737619D01*
X173370952Y-122690000D01*
X173466190Y-122642380D01*
X174656666Y-123642380D02*
X174656666Y-122642380D01*
X174656666Y-123594761D02*
X174561428Y-123642380D01*
X174370952Y-123642380D01*
X174275714Y-123594761D01*
X174228095Y-123547142D01*
X174180476Y-123451904D01*
X174180476Y-123166190D01*
X174228095Y-123070952D01*
X174275714Y-123023333D01*
X174370952Y-122975714D01*
X174561428Y-122975714D01*
X174656666Y-123023333D01*
X175466190Y-123118571D02*
X175609047Y-123166190D01*
X175656666Y-123213809D01*
X175704285Y-123309047D01*
X175704285Y-123451904D01*
X175656666Y-123547142D01*
X175609047Y-123594761D01*
X175513809Y-123642380D01*
X175132857Y-123642380D01*
X175132857Y-122642380D01*
X175466190Y-122642380D01*
X175561428Y-122690000D01*
X175609047Y-122737619D01*
X175656666Y-122832857D01*
X175656666Y-122928095D01*
X175609047Y-123023333D01*
X175561428Y-123070952D01*
X175466190Y-123118571D01*
X175132857Y-123118571D01*
X161417142Y-123642380D02*
X160845714Y-123642380D01*
X161131428Y-123642380D02*
X161131428Y-122642380D01*
X161036190Y-122785238D01*
X160940952Y-122880476D01*
X160845714Y-122928095D01*
X162036190Y-122642380D02*
X162131428Y-122642380D01*
X162226666Y-122690000D01*
X162274285Y-122737619D01*
X162321904Y-122832857D01*
X162369523Y-123023333D01*
X162369523Y-123261428D01*
X162321904Y-123451904D01*
X162274285Y-123547142D01*
X162226666Y-123594761D01*
X162131428Y-123642380D01*
X162036190Y-123642380D01*
X161940952Y-123594761D01*
X161893333Y-123547142D01*
X161845714Y-123451904D01*
X161798095Y-123261428D01*
X161798095Y-123023333D01*
X161845714Y-122832857D01*
X161893333Y-122737619D01*
X161940952Y-122690000D01*
X162036190Y-122642380D01*
X163226666Y-123642380D02*
X163226666Y-122642380D01*
X163226666Y-123594761D02*
X163131428Y-123642380D01*
X162940952Y-123642380D01*
X162845714Y-123594761D01*
X162798095Y-123547142D01*
X162750476Y-123451904D01*
X162750476Y-123166190D01*
X162798095Y-123070952D01*
X162845714Y-123023333D01*
X162940952Y-122975714D01*
X163131428Y-122975714D01*
X163226666Y-123023333D01*
X164036190Y-123118571D02*
X164179047Y-123166190D01*
X164226666Y-123213809D01*
X164274285Y-123309047D01*
X164274285Y-123451904D01*
X164226666Y-123547142D01*
X164179047Y-123594761D01*
X164083809Y-123642380D01*
X163702857Y-123642380D01*
X163702857Y-122642380D01*
X164036190Y-122642380D01*
X164131428Y-122690000D01*
X164179047Y-122737619D01*
X164226666Y-122832857D01*
X164226666Y-122928095D01*
X164179047Y-123023333D01*
X164131428Y-123070952D01*
X164036190Y-123118571D01*
X163702857Y-123118571D01*
X150415714Y-122642380D02*
X149939523Y-122642380D01*
X149891904Y-123118571D01*
X149939523Y-123070952D01*
X150034761Y-123023333D01*
X150272857Y-123023333D01*
X150368095Y-123070952D01*
X150415714Y-123118571D01*
X150463333Y-123213809D01*
X150463333Y-123451904D01*
X150415714Y-123547142D01*
X150368095Y-123594761D01*
X150272857Y-123642380D01*
X150034761Y-123642380D01*
X149939523Y-123594761D01*
X149891904Y-123547142D01*
X151320476Y-123642380D02*
X151320476Y-122642380D01*
X151320476Y-123594761D02*
X151225238Y-123642380D01*
X151034761Y-123642380D01*
X150939523Y-123594761D01*
X150891904Y-123547142D01*
X150844285Y-123451904D01*
X150844285Y-123166190D01*
X150891904Y-123070952D01*
X150939523Y-123023333D01*
X151034761Y-122975714D01*
X151225238Y-122975714D01*
X151320476Y-123023333D01*
X152130000Y-123118571D02*
X152272857Y-123166190D01*
X152320476Y-123213809D01*
X152368095Y-123309047D01*
X152368095Y-123451904D01*
X152320476Y-123547142D01*
X152272857Y-123594761D01*
X152177619Y-123642380D01*
X151796666Y-123642380D01*
X151796666Y-122642380D01*
X152130000Y-122642380D01*
X152225238Y-122690000D01*
X152272857Y-122737619D01*
X152320476Y-122832857D01*
X152320476Y-122928095D01*
X152272857Y-123023333D01*
X152225238Y-123070952D01*
X152130000Y-123118571D01*
X151796666Y-123118571D01*
X137747619Y-122737619D02*
X137795238Y-122690000D01*
X137890476Y-122642380D01*
X138128571Y-122642380D01*
X138223809Y-122690000D01*
X138271428Y-122737619D01*
X138319047Y-122832857D01*
X138319047Y-122928095D01*
X138271428Y-123070952D01*
X137700000Y-123642380D01*
X138319047Y-123642380D01*
X138747619Y-123547142D02*
X138795238Y-123594761D01*
X138747619Y-123642380D01*
X138700000Y-123594761D01*
X138747619Y-123547142D01*
X138747619Y-123642380D01*
X139700000Y-122642380D02*
X139223809Y-122642380D01*
X139176190Y-123118571D01*
X139223809Y-123070952D01*
X139319047Y-123023333D01*
X139557142Y-123023333D01*
X139652380Y-123070952D01*
X139700000Y-123118571D01*
X139747619Y-123213809D01*
X139747619Y-123451904D01*
X139700000Y-123547142D01*
X139652380Y-123594761D01*
X139557142Y-123642380D01*
X139319047Y-123642380D01*
X139223809Y-123594761D01*
X139176190Y-123547142D01*
X140604761Y-123642380D02*
X140604761Y-122642380D01*
X140604761Y-123594761D02*
X140509523Y-123642380D01*
X140319047Y-123642380D01*
X140223809Y-123594761D01*
X140176190Y-123547142D01*
X140128571Y-123451904D01*
X140128571Y-123166190D01*
X140176190Y-123070952D01*
X140223809Y-123023333D01*
X140319047Y-122975714D01*
X140509523Y-122975714D01*
X140604761Y-123023333D01*
X141414285Y-123118571D02*
X141557142Y-123166190D01*
X141604761Y-123213809D01*
X141652380Y-123309047D01*
X141652380Y-123451904D01*
X141604761Y-123547142D01*
X141557142Y-123594761D01*
X141461904Y-123642380D01*
X141080952Y-123642380D01*
X141080952Y-122642380D01*
X141414285Y-122642380D01*
X141509523Y-122690000D01*
X141557142Y-122737619D01*
X141604761Y-122832857D01*
X141604761Y-122928095D01*
X141557142Y-123023333D01*
X141509523Y-123070952D01*
X141414285Y-123118571D01*
X141080952Y-123118571D01*
D11*
X192700000Y-119380000D02*
X192200000Y-119630000D01*
X192200000Y-119630000D02*
X192200000Y-119130000D01*
X192200000Y-119130000D02*
X192700000Y-119380000D01*
X137160000Y-130910000D02*
X137160000Y-130980000D01*
X138530000Y-129540000D02*
G75*
G03X138530000Y-129540000I-1370000J0D01*
G01*
X136430000Y-124360000D02*
X136430000Y-124690000D01*
X142970000Y-124360000D02*
X136430000Y-124360000D01*
X142970000Y-124690000D02*
X142970000Y-124360000D01*
X136430000Y-127100000D02*
X136430000Y-126770000D01*
X142970000Y-127100000D02*
X136430000Y-127100000D01*
X142970000Y-126770000D02*
X142970000Y-127100000D01*
X147860000Y-124360000D02*
X147860000Y-124690000D01*
X154400000Y-124360000D02*
X147860000Y-124360000D01*
X154400000Y-124690000D02*
X154400000Y-124360000D01*
X147860000Y-127100000D02*
X147860000Y-126770000D01*
X154400000Y-127100000D02*
X147860000Y-127100000D01*
X154400000Y-126770000D02*
X154400000Y-127100000D01*
X159290000Y-124360000D02*
X159290000Y-124690000D01*
X165830000Y-124360000D02*
X159290000Y-124360000D01*
X165830000Y-124690000D02*
X165830000Y-124360000D01*
X159290000Y-127100000D02*
X159290000Y-126770000D01*
X165830000Y-127100000D02*
X159290000Y-127100000D01*
X165830000Y-126770000D02*
X165830000Y-127100000D01*
X170720000Y-124360000D02*
X170720000Y-124690000D01*
X177260000Y-124360000D02*
X170720000Y-124360000D01*
X177260000Y-124690000D02*
X177260000Y-124360000D01*
X170720000Y-127100000D02*
X170720000Y-126770000D01*
X177260000Y-127100000D02*
X170720000Y-127100000D01*
X177260000Y-126770000D02*
X177260000Y-127100000D01*
X182150000Y-124360000D02*
X182150000Y-124690000D01*
X188690000Y-124360000D02*
X182150000Y-124360000D01*
X188690000Y-124690000D02*
X188690000Y-124360000D01*
X182150000Y-127100000D02*
X182150000Y-126770000D01*
X188690000Y-127100000D02*
X182150000Y-127100000D01*
X188690000Y-126770000D02*
X188690000Y-127100000D01*
X182880000Y-130910000D02*
X182880000Y-130980000D01*
X184250000Y-129540000D02*
G75*
G03X184250000Y-129540000I-1370000J0D01*
G01*
X176530000Y-130910000D02*
X176530000Y-130980000D01*
X177900000Y-129540000D02*
G75*
G03X177900000Y-129540000I-1370000J0D01*
G01*
X148590000Y-130910000D02*
X148590000Y-130980000D01*
X149960000Y-129540000D02*
G75*
G03X149960000Y-129540000I-1370000J0D01*
G01*
X142240000Y-130910000D02*
X142240000Y-130980000D01*
X143610000Y-129540000D02*
G75*
G03X143610000Y-129540000I-1370000J0D01*
G01*
X187960000Y-130910000D02*
X187960000Y-130980000D01*
X189330000Y-129540000D02*
G75*
G03X189330000Y-129540000I-1370000J0D01*
G01*
X153670000Y-130910000D02*
X153670000Y-130980000D01*
X155040000Y-129540000D02*
G75*
G03X155040000Y-129540000I-1370000J0D01*
G01*
X160020000Y-130910000D02*
X160020000Y-130980000D01*
X161390000Y-129540000D02*
G75*
G03X161390000Y-129540000I-1370000J0D01*
G01*
X171450000Y-130910000D02*
X171450000Y-130980000D01*
X172820000Y-129540000D02*
G75*
G03X172820000Y-129540000I-1370000J0D01*
G01*
X165100000Y-130910000D02*
X165100000Y-130980000D01*
X166470000Y-129540000D02*
G75*
G03X166470000Y-129540000I-1370000J0D01*
G01*
X133310000Y-119630000D02*
X132810000Y-119380000D01*
X133310000Y-119130000D02*
X133310000Y-119630000D01*
X132810000Y-119380000D02*
X133310000Y-119130000D01*
X135830000Y-115630000D02*
X135830000Y-114300000D01*
X137160000Y-115630000D02*
X135830000Y-115630000D01*
X138430000Y-115630000D02*
X138430000Y-112970000D01*
X138430000Y-112970000D02*
X143570000Y-112970000D01*
X138430000Y-115630000D02*
X143570000Y-115630000D01*
X143570000Y-115630000D02*
X143570000Y-112970000D01*
X135830000Y-118050000D02*
X135830000Y-120710000D01*
X140970000Y-118050000D02*
X135830000Y-118050000D01*
X140970000Y-120710000D02*
X135830000Y-120710000D01*
X140970000Y-118050000D02*
X140970000Y-120710000D01*
X142240000Y-118050000D02*
X143570000Y-118050000D01*
X143570000Y-118050000D02*
X143570000Y-119380000D01*
X155000000Y-115630000D02*
X155000000Y-112970000D01*
X149860000Y-115630000D02*
X155000000Y-115630000D01*
X149860000Y-112970000D02*
X155000000Y-112970000D01*
X149860000Y-115630000D02*
X149860000Y-112970000D01*
X148590000Y-115630000D02*
X147260000Y-115630000D01*
X147260000Y-115630000D02*
X147260000Y-114300000D01*
X155000000Y-118050000D02*
X155000000Y-119380000D01*
X153670000Y-118050000D02*
X155000000Y-118050000D01*
X152400000Y-118050000D02*
X152400000Y-120710000D01*
X152400000Y-120710000D02*
X147260000Y-120710000D01*
X152400000Y-118050000D02*
X147260000Y-118050000D01*
X147260000Y-118050000D02*
X147260000Y-120710000D01*
X166430000Y-115630000D02*
X166430000Y-112970000D01*
X161290000Y-115630000D02*
X166430000Y-115630000D01*
X161290000Y-112970000D02*
X166430000Y-112970000D01*
X161290000Y-115630000D02*
X161290000Y-112970000D01*
X160020000Y-115630000D02*
X158690000Y-115630000D01*
X158690000Y-115630000D02*
X158690000Y-114300000D01*
X166430000Y-118050000D02*
X166430000Y-119380000D01*
X165100000Y-118050000D02*
X166430000Y-118050000D01*
X163830000Y-118050000D02*
X163830000Y-120710000D01*
X163830000Y-120710000D02*
X158690000Y-120710000D01*
X163830000Y-118050000D02*
X158690000Y-118050000D01*
X158690000Y-118050000D02*
X158690000Y-120710000D01*
X177860000Y-115630000D02*
X177860000Y-112970000D01*
X172720000Y-115630000D02*
X177860000Y-115630000D01*
X172720000Y-112970000D02*
X177860000Y-112970000D01*
X172720000Y-115630000D02*
X172720000Y-112970000D01*
X171450000Y-115630000D02*
X170120000Y-115630000D01*
X170120000Y-115630000D02*
X170120000Y-114300000D01*
X177860000Y-118050000D02*
X177860000Y-119380000D01*
X176530000Y-118050000D02*
X177860000Y-118050000D01*
X175260000Y-118050000D02*
X175260000Y-120710000D01*
X175260000Y-120710000D02*
X170120000Y-120710000D01*
X175260000Y-118050000D02*
X170120000Y-118050000D01*
X170120000Y-118050000D02*
X170120000Y-120710000D01*
X189290000Y-115630000D02*
X189290000Y-112970000D01*
X184150000Y-115630000D02*
X189290000Y-115630000D01*
X184150000Y-112970000D02*
X189290000Y-112970000D01*
X184150000Y-115630000D02*
X184150000Y-112970000D01*
X182880000Y-115630000D02*
X181550000Y-115630000D01*
X181550000Y-115630000D02*
X181550000Y-114300000D01*
X189290000Y-118050000D02*
X189290000Y-119380000D01*
X187960000Y-118050000D02*
X189290000Y-118050000D01*
X186690000Y-118050000D02*
X186690000Y-120710000D01*
X186690000Y-120710000D02*
X181550000Y-120710000D01*
X186690000Y-118050000D02*
X181550000Y-118050000D01*
X181550000Y-118050000D02*
X181550000Y-120710000D01*
D10*
X195540476Y-126102380D02*
X195540476Y-126816666D01*
X195492857Y-126959523D01*
X195397619Y-127054761D01*
X195254761Y-127102380D01*
X195159523Y-127102380D01*
X196540476Y-127102380D02*
X195969047Y-127102380D01*
X196254761Y-127102380D02*
X196254761Y-126102380D01*
X196159523Y-126245238D01*
X196064285Y-126340476D01*
X195969047Y-126388095D01*
X196921428Y-126197619D02*
X196969047Y-126150000D01*
X197064285Y-126102380D01*
X197302380Y-126102380D01*
X197397619Y-126150000D01*
X197445238Y-126197619D01*
X197492857Y-126292857D01*
X197492857Y-126388095D01*
X197445238Y-126530952D01*
X196873809Y-127102380D01*
X197492857Y-127102380D01*
X135072380Y-130976666D02*
X134596190Y-131310000D01*
X135072380Y-131548095D02*
X134072380Y-131548095D01*
X134072380Y-131167142D01*
X134120000Y-131071904D01*
X134167619Y-131024285D01*
X134262857Y-130976666D01*
X134405714Y-130976666D01*
X134500952Y-131024285D01*
X134548571Y-131071904D01*
X134596190Y-131167142D01*
X134596190Y-131548095D01*
X135072380Y-130024285D02*
X135072380Y-130595714D01*
X135072380Y-130310000D02*
X134072380Y-130310000D01*
X134215238Y-130405238D01*
X134310476Y-130500476D01*
X134358095Y-130595714D01*
X139533333Y-128552380D02*
X139200000Y-128076190D01*
X138961904Y-128552380D02*
X138961904Y-127552380D01*
X139342857Y-127552380D01*
X139438095Y-127600000D01*
X139485714Y-127647619D01*
X139533333Y-127742857D01*
X139533333Y-127885714D01*
X139485714Y-127980952D01*
X139438095Y-128028571D01*
X139342857Y-128076190D01*
X138961904Y-128076190D01*
X139914285Y-127647619D02*
X139961904Y-127600000D01*
X140057142Y-127552380D01*
X140295238Y-127552380D01*
X140390476Y-127600000D01*
X140438095Y-127647619D01*
X140485714Y-127742857D01*
X140485714Y-127838095D01*
X140438095Y-127980952D01*
X139866666Y-128552380D01*
X140485714Y-128552380D01*
X150963333Y-128552380D02*
X150630000Y-128076190D01*
X150391904Y-128552380D02*
X150391904Y-127552380D01*
X150772857Y-127552380D01*
X150868095Y-127600000D01*
X150915714Y-127647619D01*
X150963333Y-127742857D01*
X150963333Y-127885714D01*
X150915714Y-127980952D01*
X150868095Y-128028571D01*
X150772857Y-128076190D01*
X150391904Y-128076190D01*
X151868095Y-127552380D02*
X151391904Y-127552380D01*
X151344285Y-128028571D01*
X151391904Y-127980952D01*
X151487142Y-127933333D01*
X151725238Y-127933333D01*
X151820476Y-127980952D01*
X151868095Y-128028571D01*
X151915714Y-128123809D01*
X151915714Y-128361904D01*
X151868095Y-128457142D01*
X151820476Y-128504761D01*
X151725238Y-128552380D01*
X151487142Y-128552380D01*
X151391904Y-128504761D01*
X151344285Y-128457142D01*
X162393333Y-128552380D02*
X162060000Y-128076190D01*
X161821904Y-128552380D02*
X161821904Y-127552380D01*
X162202857Y-127552380D01*
X162298095Y-127600000D01*
X162345714Y-127647619D01*
X162393333Y-127742857D01*
X162393333Y-127885714D01*
X162345714Y-127980952D01*
X162298095Y-128028571D01*
X162202857Y-128076190D01*
X161821904Y-128076190D01*
X162964761Y-127980952D02*
X162869523Y-127933333D01*
X162821904Y-127885714D01*
X162774285Y-127790476D01*
X162774285Y-127742857D01*
X162821904Y-127647619D01*
X162869523Y-127600000D01*
X162964761Y-127552380D01*
X163155238Y-127552380D01*
X163250476Y-127600000D01*
X163298095Y-127647619D01*
X163345714Y-127742857D01*
X163345714Y-127790476D01*
X163298095Y-127885714D01*
X163250476Y-127933333D01*
X163155238Y-127980952D01*
X162964761Y-127980952D01*
X162869523Y-128028571D01*
X162821904Y-128076190D01*
X162774285Y-128171428D01*
X162774285Y-128361904D01*
X162821904Y-128457142D01*
X162869523Y-128504761D01*
X162964761Y-128552380D01*
X163155238Y-128552380D01*
X163250476Y-128504761D01*
X163298095Y-128457142D01*
X163345714Y-128361904D01*
X163345714Y-128171428D01*
X163298095Y-128076190D01*
X163250476Y-128028571D01*
X163155238Y-127980952D01*
X173347142Y-128552380D02*
X173013809Y-128076190D01*
X172775714Y-128552380D02*
X172775714Y-127552380D01*
X173156666Y-127552380D01*
X173251904Y-127600000D01*
X173299523Y-127647619D01*
X173347142Y-127742857D01*
X173347142Y-127885714D01*
X173299523Y-127980952D01*
X173251904Y-128028571D01*
X173156666Y-128076190D01*
X172775714Y-128076190D01*
X174299523Y-128552380D02*
X173728095Y-128552380D01*
X174013809Y-128552380D02*
X174013809Y-127552380D01*
X173918571Y-127695238D01*
X173823333Y-127790476D01*
X173728095Y-127838095D01*
X175251904Y-128552380D02*
X174680476Y-128552380D01*
X174966190Y-128552380D02*
X174966190Y-127552380D01*
X174870952Y-127695238D01*
X174775714Y-127790476D01*
X174680476Y-127838095D01*
X184777142Y-128552380D02*
X184443809Y-128076190D01*
X184205714Y-128552380D02*
X184205714Y-127552380D01*
X184586666Y-127552380D01*
X184681904Y-127600000D01*
X184729523Y-127647619D01*
X184777142Y-127742857D01*
X184777142Y-127885714D01*
X184729523Y-127980952D01*
X184681904Y-128028571D01*
X184586666Y-128076190D01*
X184205714Y-128076190D01*
X185729523Y-128552380D02*
X185158095Y-128552380D01*
X185443809Y-128552380D02*
X185443809Y-127552380D01*
X185348571Y-127695238D01*
X185253333Y-127790476D01*
X185158095Y-127838095D01*
X186586666Y-127885714D02*
X186586666Y-128552380D01*
X186348571Y-127504761D02*
X186110476Y-128219047D01*
X186729523Y-128219047D01*
X180792380Y-131452857D02*
X180316190Y-131786190D01*
X180792380Y-132024285D02*
X179792380Y-132024285D01*
X179792380Y-131643333D01*
X179840000Y-131548095D01*
X179887619Y-131500476D01*
X179982857Y-131452857D01*
X180125714Y-131452857D01*
X180220952Y-131500476D01*
X180268571Y-131548095D01*
X180316190Y-131643333D01*
X180316190Y-132024285D01*
X180792380Y-130500476D02*
X180792380Y-131071904D01*
X180792380Y-130786190D02*
X179792380Y-130786190D01*
X179935238Y-130881428D01*
X180030476Y-130976666D01*
X180078095Y-131071904D01*
X179792380Y-130167142D02*
X179792380Y-129548095D01*
X180173333Y-129881428D01*
X180173333Y-129738571D01*
X180220952Y-129643333D01*
X180268571Y-129595714D01*
X180363809Y-129548095D01*
X180601904Y-129548095D01*
X180697142Y-129595714D01*
X180744761Y-129643333D01*
X180792380Y-129738571D01*
X180792380Y-130024285D01*
X180744761Y-130119523D01*
X180697142Y-130167142D01*
X174442380Y-131452857D02*
X173966190Y-131786190D01*
X174442380Y-132024285D02*
X173442380Y-132024285D01*
X173442380Y-131643333D01*
X173490000Y-131548095D01*
X173537619Y-131500476D01*
X173632857Y-131452857D01*
X173775714Y-131452857D01*
X173870952Y-131500476D01*
X173918571Y-131548095D01*
X173966190Y-131643333D01*
X173966190Y-132024285D01*
X174442380Y-130500476D02*
X174442380Y-131071904D01*
X174442380Y-130786190D02*
X173442380Y-130786190D01*
X173585238Y-130881428D01*
X173680476Y-130976666D01*
X173728095Y-131071904D01*
X173537619Y-130119523D02*
X173490000Y-130071904D01*
X173442380Y-129976666D01*
X173442380Y-129738571D01*
X173490000Y-129643333D01*
X173537619Y-129595714D01*
X173632857Y-129548095D01*
X173728095Y-129548095D01*
X173870952Y-129595714D01*
X174442380Y-130167142D01*
X174442380Y-129548095D01*
X146502380Y-130976666D02*
X146026190Y-131310000D01*
X146502380Y-131548095D02*
X145502380Y-131548095D01*
X145502380Y-131167142D01*
X145550000Y-131071904D01*
X145597619Y-131024285D01*
X145692857Y-130976666D01*
X145835714Y-130976666D01*
X145930952Y-131024285D01*
X145978571Y-131071904D01*
X146026190Y-131167142D01*
X146026190Y-131548095D01*
X145835714Y-130119523D02*
X146502380Y-130119523D01*
X145454761Y-130357619D02*
X146169047Y-130595714D01*
X146169047Y-129976666D01*
X140152380Y-130976666D02*
X139676190Y-131310000D01*
X140152380Y-131548095D02*
X139152380Y-131548095D01*
X139152380Y-131167142D01*
X139200000Y-131071904D01*
X139247619Y-131024285D01*
X139342857Y-130976666D01*
X139485714Y-130976666D01*
X139580952Y-131024285D01*
X139628571Y-131071904D01*
X139676190Y-131167142D01*
X139676190Y-131548095D01*
X139152380Y-130643333D02*
X139152380Y-130024285D01*
X139533333Y-130357619D01*
X139533333Y-130214761D01*
X139580952Y-130119523D01*
X139628571Y-130071904D01*
X139723809Y-130024285D01*
X139961904Y-130024285D01*
X140057142Y-130071904D01*
X140104761Y-130119523D01*
X140152380Y-130214761D01*
X140152380Y-130500476D01*
X140104761Y-130595714D01*
X140057142Y-130643333D01*
X185872380Y-131452857D02*
X185396190Y-131786190D01*
X185872380Y-132024285D02*
X184872380Y-132024285D01*
X184872380Y-131643333D01*
X184920000Y-131548095D01*
X184967619Y-131500476D01*
X185062857Y-131452857D01*
X185205714Y-131452857D01*
X185300952Y-131500476D01*
X185348571Y-131548095D01*
X185396190Y-131643333D01*
X185396190Y-132024285D01*
X185872380Y-130500476D02*
X185872380Y-131071904D01*
X185872380Y-130786190D02*
X184872380Y-130786190D01*
X185015238Y-130881428D01*
X185110476Y-130976666D01*
X185158095Y-131071904D01*
X184872380Y-129595714D02*
X184872380Y-130071904D01*
X185348571Y-130119523D01*
X185300952Y-130071904D01*
X185253333Y-129976666D01*
X185253333Y-129738571D01*
X185300952Y-129643333D01*
X185348571Y-129595714D01*
X185443809Y-129548095D01*
X185681904Y-129548095D01*
X185777142Y-129595714D01*
X185824761Y-129643333D01*
X185872380Y-129738571D01*
X185872380Y-129976666D01*
X185824761Y-130071904D01*
X185777142Y-130119523D01*
X151582380Y-130976666D02*
X151106190Y-131310000D01*
X151582380Y-131548095D02*
X150582380Y-131548095D01*
X150582380Y-131167142D01*
X150630000Y-131071904D01*
X150677619Y-131024285D01*
X150772857Y-130976666D01*
X150915714Y-130976666D01*
X151010952Y-131024285D01*
X151058571Y-131071904D01*
X151106190Y-131167142D01*
X151106190Y-131548095D01*
X150582380Y-130119523D02*
X150582380Y-130310000D01*
X150630000Y-130405238D01*
X150677619Y-130452857D01*
X150820476Y-130548095D01*
X151010952Y-130595714D01*
X151391904Y-130595714D01*
X151487142Y-130548095D01*
X151534761Y-130500476D01*
X151582380Y-130405238D01*
X151582380Y-130214761D01*
X151534761Y-130119523D01*
X151487142Y-130071904D01*
X151391904Y-130024285D01*
X151153809Y-130024285D01*
X151058571Y-130071904D01*
X151010952Y-130119523D01*
X150963333Y-130214761D01*
X150963333Y-130405238D01*
X151010952Y-130500476D01*
X151058571Y-130548095D01*
X151153809Y-130595714D01*
X157932380Y-130976666D02*
X157456190Y-131310000D01*
X157932380Y-131548095D02*
X156932380Y-131548095D01*
X156932380Y-131167142D01*
X156980000Y-131071904D01*
X157027619Y-131024285D01*
X157122857Y-130976666D01*
X157265714Y-130976666D01*
X157360952Y-131024285D01*
X157408571Y-131071904D01*
X157456190Y-131167142D01*
X157456190Y-131548095D01*
X156932380Y-130643333D02*
X156932380Y-129976666D01*
X157932380Y-130405238D01*
X169362380Y-131452857D02*
X168886190Y-131786190D01*
X169362380Y-132024285D02*
X168362380Y-132024285D01*
X168362380Y-131643333D01*
X168410000Y-131548095D01*
X168457619Y-131500476D01*
X168552857Y-131452857D01*
X168695714Y-131452857D01*
X168790952Y-131500476D01*
X168838571Y-131548095D01*
X168886190Y-131643333D01*
X168886190Y-132024285D01*
X169362380Y-130500476D02*
X169362380Y-131071904D01*
X169362380Y-130786190D02*
X168362380Y-130786190D01*
X168505238Y-130881428D01*
X168600476Y-130976666D01*
X168648095Y-131071904D01*
X168362380Y-129881428D02*
X168362380Y-129786190D01*
X168410000Y-129690952D01*
X168457619Y-129643333D01*
X168552857Y-129595714D01*
X168743333Y-129548095D01*
X168981428Y-129548095D01*
X169171904Y-129595714D01*
X169267142Y-129643333D01*
X169314761Y-129690952D01*
X169362380Y-129786190D01*
X169362380Y-129881428D01*
X169314761Y-129976666D01*
X169267142Y-130024285D01*
X169171904Y-130071904D01*
X168981428Y-130119523D01*
X168743333Y-130119523D01*
X168552857Y-130071904D01*
X168457619Y-130024285D01*
X168410000Y-129976666D01*
X168362380Y-129881428D01*
X163012380Y-130976666D02*
X162536190Y-131310000D01*
X163012380Y-131548095D02*
X162012380Y-131548095D01*
X162012380Y-131167142D01*
X162060000Y-131071904D01*
X162107619Y-131024285D01*
X162202857Y-130976666D01*
X162345714Y-130976666D01*
X162440952Y-131024285D01*
X162488571Y-131071904D01*
X162536190Y-131167142D01*
X162536190Y-131548095D01*
X163012380Y-130500476D02*
X163012380Y-130310000D01*
X162964761Y-130214761D01*
X162917142Y-130167142D01*
X162774285Y-130071904D01*
X162583809Y-130024285D01*
X162202857Y-130024285D01*
X162107619Y-130071904D01*
X162060000Y-130119523D01*
X162012380Y-130214761D01*
X162012380Y-130405238D01*
X162060000Y-130500476D01*
X162107619Y-130548095D01*
X162202857Y-130595714D01*
X162440952Y-130595714D01*
X162536190Y-130548095D01*
X162583809Y-130500476D01*
X162631428Y-130405238D01*
X162631428Y-130214761D01*
X162583809Y-130119523D01*
X162536190Y-130071904D01*
X162440952Y-130024285D01*
X128976666Y-125832380D02*
X128976666Y-126546666D01*
X128929047Y-126689523D01*
X128833809Y-126784761D01*
X128690952Y-126832380D01*
X128595714Y-126832380D01*
X129976666Y-126832380D02*
X129405238Y-126832380D01*
X129690952Y-126832380D02*
X129690952Y-125832380D01*
X129595714Y-125975238D01*
X129500476Y-126070476D01*
X129405238Y-126118095D01*
X134282380Y-114633333D02*
X134996666Y-114633333D01*
X135139523Y-114680952D01*
X135234761Y-114776190D01*
X135282380Y-114919047D01*
X135282380Y-115014285D01*
X134377619Y-114204761D02*
X134330000Y-114157142D01*
X134282380Y-114061904D01*
X134282380Y-113823809D01*
X134330000Y-113728571D01*
X134377619Y-113680952D01*
X134472857Y-113633333D01*
X134568095Y-113633333D01*
X134710952Y-113680952D01*
X135282380Y-114252380D01*
X135282380Y-113633333D01*
X144232380Y-119713333D02*
X144946666Y-119713333D01*
X145089523Y-119760952D01*
X145184761Y-119856190D01*
X145232380Y-119999047D01*
X145232380Y-120094285D01*
X144232380Y-119332380D02*
X144232380Y-118713333D01*
X144613333Y-119046666D01*
X144613333Y-118903809D01*
X144660952Y-118808571D01*
X144708571Y-118760952D01*
X144803809Y-118713333D01*
X145041904Y-118713333D01*
X145137142Y-118760952D01*
X145184761Y-118808571D01*
X145232380Y-118903809D01*
X145232380Y-119189523D01*
X145184761Y-119284761D01*
X145137142Y-119332380D01*
X145712380Y-114633333D02*
X146426666Y-114633333D01*
X146569523Y-114680952D01*
X146664761Y-114776190D01*
X146712380Y-114919047D01*
X146712380Y-115014285D01*
X146045714Y-113728571D02*
X146712380Y-113728571D01*
X145664761Y-113966666D02*
X146379047Y-114204761D01*
X146379047Y-113585714D01*
X155452380Y-119713333D02*
X156166666Y-119713333D01*
X156309523Y-119760952D01*
X156404761Y-119856190D01*
X156452380Y-119999047D01*
X156452380Y-120094285D01*
X155452380Y-118760952D02*
X155452380Y-119237142D01*
X155928571Y-119284761D01*
X155880952Y-119237142D01*
X155833333Y-119141904D01*
X155833333Y-118903809D01*
X155880952Y-118808571D01*
X155928571Y-118760952D01*
X156023809Y-118713333D01*
X156261904Y-118713333D01*
X156357142Y-118760952D01*
X156404761Y-118808571D01*
X156452380Y-118903809D01*
X156452380Y-119141904D01*
X156404761Y-119237142D01*
X156357142Y-119284761D01*
X157142380Y-114633333D02*
X157856666Y-114633333D01*
X157999523Y-114680952D01*
X158094761Y-114776190D01*
X158142380Y-114919047D01*
X158142380Y-115014285D01*
X157142380Y-113728571D02*
X157142380Y-113919047D01*
X157190000Y-114014285D01*
X157237619Y-114061904D01*
X157380476Y-114157142D01*
X157570952Y-114204761D01*
X157951904Y-114204761D01*
X158047142Y-114157142D01*
X158094761Y-114109523D01*
X158142380Y-114014285D01*
X158142380Y-113823809D01*
X158094761Y-113728571D01*
X158047142Y-113680952D01*
X157951904Y-113633333D01*
X157713809Y-113633333D01*
X157618571Y-113680952D01*
X157570952Y-113728571D01*
X157523333Y-113823809D01*
X157523333Y-114014285D01*
X157570952Y-114109523D01*
X157618571Y-114157142D01*
X157713809Y-114204761D01*
X166882380Y-119713333D02*
X167596666Y-119713333D01*
X167739523Y-119760952D01*
X167834761Y-119856190D01*
X167882380Y-119999047D01*
X167882380Y-120094285D01*
X166882380Y-119332380D02*
X166882380Y-118665714D01*
X167882380Y-119094285D01*
X168572380Y-114633333D02*
X169286666Y-114633333D01*
X169429523Y-114680952D01*
X169524761Y-114776190D01*
X169572380Y-114919047D01*
X169572380Y-115014285D01*
X169000952Y-114014285D02*
X168953333Y-114109523D01*
X168905714Y-114157142D01*
X168810476Y-114204761D01*
X168762857Y-114204761D01*
X168667619Y-114157142D01*
X168620000Y-114109523D01*
X168572380Y-114014285D01*
X168572380Y-113823809D01*
X168620000Y-113728571D01*
X168667619Y-113680952D01*
X168762857Y-113633333D01*
X168810476Y-113633333D01*
X168905714Y-113680952D01*
X168953333Y-113728571D01*
X169000952Y-113823809D01*
X169000952Y-114014285D01*
X169048571Y-114109523D01*
X169096190Y-114157142D01*
X169191428Y-114204761D01*
X169381904Y-114204761D01*
X169477142Y-114157142D01*
X169524761Y-114109523D01*
X169572380Y-114014285D01*
X169572380Y-113823809D01*
X169524761Y-113728571D01*
X169477142Y-113680952D01*
X169381904Y-113633333D01*
X169191428Y-113633333D01*
X169096190Y-113680952D01*
X169048571Y-113728571D01*
X169000952Y-113823809D01*
X178312380Y-119713333D02*
X179026666Y-119713333D01*
X179169523Y-119760952D01*
X179264761Y-119856190D01*
X179312380Y-119999047D01*
X179312380Y-120094285D01*
X179312380Y-119189523D02*
X179312380Y-118999047D01*
X179264761Y-118903809D01*
X179217142Y-118856190D01*
X179074285Y-118760952D01*
X178883809Y-118713333D01*
X178502857Y-118713333D01*
X178407619Y-118760952D01*
X178360000Y-118808571D01*
X178312380Y-118903809D01*
X178312380Y-119094285D01*
X178360000Y-119189523D01*
X178407619Y-119237142D01*
X178502857Y-119284761D01*
X178740952Y-119284761D01*
X178836190Y-119237142D01*
X178883809Y-119189523D01*
X178931428Y-119094285D01*
X178931428Y-118903809D01*
X178883809Y-118808571D01*
X178836190Y-118760952D01*
X178740952Y-118713333D01*
X180002380Y-115109523D02*
X180716666Y-115109523D01*
X180859523Y-115157142D01*
X180954761Y-115252380D01*
X181002380Y-115395238D01*
X181002380Y-115490476D01*
X181002380Y-114109523D02*
X181002380Y-114680952D01*
X181002380Y-114395238D02*
X180002380Y-114395238D01*
X180145238Y-114490476D01*
X180240476Y-114585714D01*
X180288095Y-114680952D01*
X180002380Y-113490476D02*
X180002380Y-113395238D01*
X180050000Y-113300000D01*
X180097619Y-113252380D01*
X180192857Y-113204761D01*
X180383333Y-113157142D01*
X180621428Y-113157142D01*
X180811904Y-113204761D01*
X180907142Y-113252380D01*
X180954761Y-113300000D01*
X181002380Y-113395238D01*
X181002380Y-113490476D01*
X180954761Y-113585714D01*
X180907142Y-113633333D01*
X180811904Y-113680952D01*
X180621428Y-113728571D01*
X180383333Y-113728571D01*
X180192857Y-113680952D01*
X180097619Y-113633333D01*
X180050000Y-113585714D01*
X180002380Y-113490476D01*
X189742380Y-120189523D02*
X190456666Y-120189523D01*
X190599523Y-120237142D01*
X190694761Y-120332380D01*
X190742380Y-120475238D01*
X190742380Y-120570476D01*
X190742380Y-119189523D02*
X190742380Y-119760952D01*
X190742380Y-119475238D02*
X189742380Y-119475238D01*
X189885238Y-119570476D01*
X189980476Y-119665714D01*
X190028095Y-119760952D01*
X190742380Y-118237142D02*
X190742380Y-118808571D01*
X190742380Y-118522857D02*
X189742380Y-118522857D01*
X189885238Y-118618095D01*
X189980476Y-118713333D01*
X190028095Y-118808571D01*
M02*
