G04 #@! TF.GenerationSoftware,KiCad,Pcbnew,(5.1.5)-3*
G04 #@! TF.CreationDate,2020-04-26T18:25:33-04:00*
G04 #@! TF.ProjectId,Froelich_Reciever,46726f65-6c69-4636-985f-526563696576,rev?*
G04 #@! TF.SameCoordinates,Original*
G04 #@! TF.FileFunction,Soldermask,Top*
G04 #@! TF.FilePolarity,Negative*
%FSLAX46Y46*%
G04 Gerber Fmt 4.6, Leading zero omitted, Abs format (unit mm)*
G04 Created by KiCad (PCBNEW (5.1.5)-3) date 2020-04-26 18:25:33*
%MOMM*%
%LPD*%
G04 APERTURE LIST*
%ADD10C,0.100000*%
G04 APERTURE END LIST*
D10*
G36*
X131593981Y-156877468D02*
G01*
X131672942Y-156910175D01*
X131773216Y-156951710D01*
X131776151Y-156952926D01*
X131940100Y-157062473D01*
X132079527Y-157201900D01*
X132189074Y-157365849D01*
X132189075Y-157365851D01*
X132211175Y-157419205D01*
X132264532Y-157548019D01*
X132303000Y-157741410D01*
X132303000Y-157938590D01*
X132264532Y-158131981D01*
X132189074Y-158314151D01*
X132079527Y-158478100D01*
X131940100Y-158617527D01*
X131776151Y-158727074D01*
X131593981Y-158802532D01*
X131497285Y-158821766D01*
X131400591Y-158841000D01*
X131203409Y-158841000D01*
X131106715Y-158821766D01*
X131010019Y-158802532D01*
X130827849Y-158727074D01*
X130663900Y-158617527D01*
X130524473Y-158478100D01*
X130414926Y-158314151D01*
X130339468Y-158131981D01*
X130301000Y-157938590D01*
X130301000Y-157741410D01*
X130339468Y-157548019D01*
X130392825Y-157419205D01*
X130414925Y-157365851D01*
X130414926Y-157365849D01*
X130524473Y-157201900D01*
X130663900Y-157062473D01*
X130827849Y-156952926D01*
X130830785Y-156951710D01*
X130931058Y-156910175D01*
X131010019Y-156877468D01*
X131203409Y-156839000D01*
X131400591Y-156839000D01*
X131593981Y-156877468D01*
G37*
G36*
X124803000Y-158191000D02*
G01*
X122801000Y-158191000D01*
X122801000Y-156189000D01*
X124803000Y-156189000D01*
X124803000Y-158191000D01*
G37*
G36*
X127962721Y-156910174D02*
G01*
X128062995Y-156951709D01*
X128064816Y-156952926D01*
X128153242Y-157012010D01*
X128229990Y-157088758D01*
X128229991Y-157088760D01*
X128290291Y-157179005D01*
X128331826Y-157279279D01*
X128353000Y-157385730D01*
X128353000Y-157494270D01*
X128331826Y-157600721D01*
X128290291Y-157700995D01*
X128290290Y-157700996D01*
X128229990Y-157791242D01*
X128153242Y-157867990D01*
X128107812Y-157898345D01*
X128062995Y-157928291D01*
X127962721Y-157969826D01*
X127856270Y-157991000D01*
X127747730Y-157991000D01*
X127641279Y-157969826D01*
X127541005Y-157928291D01*
X127496188Y-157898345D01*
X127450758Y-157867990D01*
X127374010Y-157791242D01*
X127313710Y-157700996D01*
X127313709Y-157700995D01*
X127272174Y-157600721D01*
X127251000Y-157494270D01*
X127251000Y-157385730D01*
X127272174Y-157279279D01*
X127313709Y-157179005D01*
X127374009Y-157088760D01*
X127374010Y-157088758D01*
X127450758Y-157012010D01*
X127539184Y-156952926D01*
X127541005Y-156951709D01*
X127641279Y-156910174D01*
X127747730Y-156889000D01*
X127856270Y-156889000D01*
X127962721Y-156910174D01*
G37*
G36*
X38856228Y-155137703D02*
G01*
X39011100Y-155201853D01*
X39150481Y-155294985D01*
X39269015Y-155413519D01*
X39362147Y-155552900D01*
X39426297Y-155707772D01*
X39459000Y-155872184D01*
X39459000Y-156039816D01*
X39426297Y-156204228D01*
X39362147Y-156359100D01*
X39269015Y-156498481D01*
X39150481Y-156617015D01*
X39011100Y-156710147D01*
X38856228Y-156774297D01*
X38691816Y-156807000D01*
X38524184Y-156807000D01*
X38359772Y-156774297D01*
X38204900Y-156710147D01*
X38065519Y-156617015D01*
X37946985Y-156498481D01*
X37853853Y-156359100D01*
X37789703Y-156204228D01*
X37757000Y-156039816D01*
X37757000Y-155872184D01*
X37789703Y-155707772D01*
X37853853Y-155552900D01*
X37946985Y-155413519D01*
X38065519Y-155294985D01*
X38204900Y-155201853D01*
X38359772Y-155137703D01*
X38524184Y-155105000D01*
X38691816Y-155105000D01*
X38856228Y-155137703D01*
G37*
G36*
X54096228Y-155137703D02*
G01*
X54251100Y-155201853D01*
X54390481Y-155294985D01*
X54509015Y-155413519D01*
X54602147Y-155552900D01*
X54666297Y-155707772D01*
X54699000Y-155872184D01*
X54699000Y-156039816D01*
X54666297Y-156204228D01*
X54602147Y-156359100D01*
X54509015Y-156498481D01*
X54390481Y-156617015D01*
X54251100Y-156710147D01*
X54096228Y-156774297D01*
X53931816Y-156807000D01*
X53764184Y-156807000D01*
X53599772Y-156774297D01*
X53444900Y-156710147D01*
X53305519Y-156617015D01*
X53186985Y-156498481D01*
X53093853Y-156359100D01*
X53029703Y-156204228D01*
X52997000Y-156039816D01*
X52997000Y-155872184D01*
X53029703Y-155707772D01*
X53093853Y-155552900D01*
X53186985Y-155413519D01*
X53305519Y-155294985D01*
X53444900Y-155201853D01*
X53599772Y-155137703D01*
X53764184Y-155105000D01*
X53931816Y-155105000D01*
X54096228Y-155137703D01*
G37*
G36*
X98437000Y-156603000D02*
G01*
X96635000Y-156603000D01*
X96635000Y-154801000D01*
X98437000Y-154801000D01*
X98437000Y-156603000D01*
G37*
G36*
X93357000Y-156603000D02*
G01*
X91555000Y-156603000D01*
X91555000Y-154801000D01*
X93357000Y-154801000D01*
X93357000Y-156603000D01*
G37*
G36*
X69989000Y-156476000D02*
G01*
X68187000Y-156476000D01*
X68187000Y-154674000D01*
X69989000Y-154674000D01*
X69989000Y-156476000D01*
G37*
G36*
X64909000Y-156476000D02*
G01*
X63107000Y-156476000D01*
X63107000Y-154674000D01*
X64909000Y-154674000D01*
X64909000Y-156476000D01*
G37*
G36*
X59829000Y-156476000D02*
G01*
X58027000Y-156476000D01*
X58027000Y-154674000D01*
X59829000Y-154674000D01*
X59829000Y-156476000D01*
G37*
G36*
X73908228Y-154549703D02*
G01*
X74063100Y-154613853D01*
X74202481Y-154706985D01*
X74321015Y-154825519D01*
X74414147Y-154964900D01*
X74478297Y-155119772D01*
X74511000Y-155284184D01*
X74511000Y-155451816D01*
X74478297Y-155616228D01*
X74414147Y-155771100D01*
X74321015Y-155910481D01*
X74202481Y-156029015D01*
X74063100Y-156122147D01*
X73908228Y-156186297D01*
X73743816Y-156219000D01*
X73576184Y-156219000D01*
X73411772Y-156186297D01*
X73256900Y-156122147D01*
X73117519Y-156029015D01*
X72998985Y-155910481D01*
X72905853Y-155771100D01*
X72841703Y-155616228D01*
X72809000Y-155451816D01*
X72809000Y-155284184D01*
X72841703Y-155119772D01*
X72905853Y-154964900D01*
X72998985Y-154825519D01*
X73117519Y-154706985D01*
X73256900Y-154613853D01*
X73411772Y-154549703D01*
X73576184Y-154517000D01*
X73743816Y-154517000D01*
X73908228Y-154549703D01*
G37*
G36*
X54096228Y-152597703D02*
G01*
X54251100Y-152661853D01*
X54390481Y-152754985D01*
X54509015Y-152873519D01*
X54602147Y-153012900D01*
X54666297Y-153167772D01*
X54699000Y-153332184D01*
X54699000Y-153499816D01*
X54666297Y-153664228D01*
X54602147Y-153819100D01*
X54509015Y-153958481D01*
X54390481Y-154077015D01*
X54251100Y-154170147D01*
X54096228Y-154234297D01*
X53931816Y-154267000D01*
X53764184Y-154267000D01*
X53599772Y-154234297D01*
X53444900Y-154170147D01*
X53305519Y-154077015D01*
X53186985Y-153958481D01*
X53093853Y-153819100D01*
X53029703Y-153664228D01*
X52997000Y-153499816D01*
X52997000Y-153332184D01*
X53029703Y-153167772D01*
X53093853Y-153012900D01*
X53186985Y-152873519D01*
X53305519Y-152754985D01*
X53444900Y-152661853D01*
X53599772Y-152597703D01*
X53764184Y-152565000D01*
X53931816Y-152565000D01*
X54096228Y-152597703D01*
G37*
G36*
X38856228Y-152597703D02*
G01*
X39011100Y-152661853D01*
X39150481Y-152754985D01*
X39269015Y-152873519D01*
X39362147Y-153012900D01*
X39426297Y-153167772D01*
X39459000Y-153332184D01*
X39459000Y-153499816D01*
X39426297Y-153664228D01*
X39362147Y-153819100D01*
X39269015Y-153958481D01*
X39150481Y-154077015D01*
X39011100Y-154170147D01*
X38856228Y-154234297D01*
X38691816Y-154267000D01*
X38524184Y-154267000D01*
X38359772Y-154234297D01*
X38204900Y-154170147D01*
X38065519Y-154077015D01*
X37946985Y-153958481D01*
X37853853Y-153819100D01*
X37789703Y-153664228D01*
X37757000Y-153499816D01*
X37757000Y-153332184D01*
X37789703Y-153167772D01*
X37853853Y-153012900D01*
X37946985Y-152873519D01*
X38065519Y-152754985D01*
X38204900Y-152661853D01*
X38359772Y-152597703D01*
X38524184Y-152565000D01*
X38691816Y-152565000D01*
X38856228Y-152597703D01*
G37*
G36*
X123927210Y-151694295D02*
G01*
X124093981Y-151727468D01*
X124143597Y-151748020D01*
X124239212Y-151787625D01*
X124276151Y-151802926D01*
X124440100Y-151912473D01*
X124579527Y-152051900D01*
X124689074Y-152215849D01*
X124689075Y-152215851D01*
X124693783Y-152227218D01*
X124759442Y-152385730D01*
X124764532Y-152398020D01*
X124803000Y-152591409D01*
X124803000Y-152788591D01*
X124797244Y-152817527D01*
X124764532Y-152981981D01*
X124689074Y-153164151D01*
X124579527Y-153328100D01*
X124440100Y-153467527D01*
X124276151Y-153577074D01*
X124093981Y-153652532D01*
X124035181Y-153664228D01*
X123900591Y-153691000D01*
X123703409Y-153691000D01*
X123568819Y-153664228D01*
X123510019Y-153652532D01*
X123327849Y-153577074D01*
X123163900Y-153467527D01*
X123024473Y-153328100D01*
X122914926Y-153164151D01*
X122839468Y-152981981D01*
X122806756Y-152817527D01*
X122801000Y-152788591D01*
X122801000Y-152591409D01*
X122839468Y-152398020D01*
X122844559Y-152385730D01*
X122910217Y-152227218D01*
X122914925Y-152215851D01*
X122914926Y-152215849D01*
X123024473Y-152051900D01*
X123163900Y-151912473D01*
X123327849Y-151802926D01*
X123364789Y-151787625D01*
X123460403Y-151748020D01*
X123510019Y-151727468D01*
X123676790Y-151694295D01*
X123703409Y-151689000D01*
X123900591Y-151689000D01*
X123927210Y-151694295D01*
G37*
G36*
X117741000Y-153555000D02*
G01*
X115939000Y-153555000D01*
X115939000Y-151753000D01*
X117741000Y-151753000D01*
X117741000Y-153555000D01*
G37*
G36*
X119493512Y-151757927D02*
G01*
X119642812Y-151787624D01*
X119806784Y-151855544D01*
X119954354Y-151954147D01*
X120079853Y-152079646D01*
X120178456Y-152227216D01*
X120246376Y-152391188D01*
X120270834Y-152514149D01*
X120280949Y-152565000D01*
X120281000Y-152565259D01*
X120281000Y-152742741D01*
X120246376Y-152916812D01*
X120178456Y-153080784D01*
X120079853Y-153228354D01*
X119954354Y-153353853D01*
X119806784Y-153452456D01*
X119642812Y-153520376D01*
X119493512Y-153550073D01*
X119468742Y-153555000D01*
X119291258Y-153555000D01*
X119266488Y-153550073D01*
X119117188Y-153520376D01*
X118953216Y-153452456D01*
X118805646Y-153353853D01*
X118680147Y-153228354D01*
X118581544Y-153080784D01*
X118513624Y-152916812D01*
X118479000Y-152742741D01*
X118479000Y-152565259D01*
X118479052Y-152565000D01*
X118489166Y-152514149D01*
X118513624Y-152391188D01*
X118581544Y-152227216D01*
X118680147Y-152079646D01*
X118805646Y-151954147D01*
X118953216Y-151855544D01*
X119117188Y-151787624D01*
X119266488Y-151757927D01*
X119291258Y-151753000D01*
X119468742Y-151753000D01*
X119493512Y-151757927D01*
G37*
G36*
X131593981Y-151077468D02*
G01*
X131776151Y-151152926D01*
X131940100Y-151262473D01*
X132079527Y-151401900D01*
X132189074Y-151565849D01*
X132264532Y-151748019D01*
X132275454Y-151802926D01*
X132303000Y-151941409D01*
X132303000Y-152138591D01*
X132264532Y-152331980D01*
X132197310Y-152494269D01*
X132189074Y-152514151D01*
X132079527Y-152678100D01*
X131940100Y-152817527D01*
X131776151Y-152927074D01*
X131776150Y-152927075D01*
X131776149Y-152927075D01*
X131773213Y-152928291D01*
X131593981Y-153002532D01*
X131497285Y-153021766D01*
X131400591Y-153041000D01*
X131203409Y-153041000D01*
X131106715Y-153021766D01*
X131010019Y-153002532D01*
X130830787Y-152928291D01*
X130827851Y-152927075D01*
X130827850Y-152927075D01*
X130827849Y-152927074D01*
X130663900Y-152817527D01*
X130524473Y-152678100D01*
X130414926Y-152514151D01*
X130406691Y-152494269D01*
X130339468Y-152331980D01*
X130301000Y-152138591D01*
X130301000Y-151941409D01*
X130328546Y-151802926D01*
X130339468Y-151748019D01*
X130414926Y-151565849D01*
X130524473Y-151401900D01*
X130663900Y-151262473D01*
X130827849Y-151152926D01*
X131010019Y-151077468D01*
X131203409Y-151039000D01*
X131400591Y-151039000D01*
X131593981Y-151077468D01*
G37*
G36*
X127962721Y-151910174D02*
G01*
X128062995Y-151951709D01*
X128066645Y-151954148D01*
X128153242Y-152012010D01*
X128229990Y-152088758D01*
X128229991Y-152088760D01*
X128290291Y-152179005D01*
X128331826Y-152279279D01*
X128353000Y-152385730D01*
X128353000Y-152494270D01*
X128331826Y-152600721D01*
X128290291Y-152700995D01*
X128290290Y-152700996D01*
X128229990Y-152791242D01*
X128153242Y-152867990D01*
X128107812Y-152898345D01*
X128062995Y-152928291D01*
X127962721Y-152969826D01*
X127856270Y-152991000D01*
X127747730Y-152991000D01*
X127641279Y-152969826D01*
X127541005Y-152928291D01*
X127496188Y-152898345D01*
X127450758Y-152867990D01*
X127374010Y-152791242D01*
X127313710Y-152700996D01*
X127313709Y-152700995D01*
X127272174Y-152600721D01*
X127251000Y-152494270D01*
X127251000Y-152385730D01*
X127272174Y-152279279D01*
X127313709Y-152179005D01*
X127374009Y-152088760D01*
X127374010Y-152088758D01*
X127450758Y-152012010D01*
X127537355Y-151954148D01*
X127541005Y-151951709D01*
X127641279Y-151910174D01*
X127747730Y-151889000D01*
X127856270Y-151889000D01*
X127962721Y-151910174D01*
G37*
G36*
X38856228Y-150057703D02*
G01*
X39011100Y-150121853D01*
X39150481Y-150214985D01*
X39269015Y-150333519D01*
X39362147Y-150472900D01*
X39426297Y-150627772D01*
X39459000Y-150792184D01*
X39459000Y-150959816D01*
X39426297Y-151124228D01*
X39362147Y-151279100D01*
X39269015Y-151418481D01*
X39150481Y-151537015D01*
X39011100Y-151630147D01*
X38856228Y-151694297D01*
X38691816Y-151727000D01*
X38524184Y-151727000D01*
X38359772Y-151694297D01*
X38204900Y-151630147D01*
X38065519Y-151537015D01*
X37946985Y-151418481D01*
X37853853Y-151279100D01*
X37789703Y-151124228D01*
X37757000Y-150959816D01*
X37757000Y-150792184D01*
X37789703Y-150627772D01*
X37853853Y-150472900D01*
X37946985Y-150333519D01*
X38065519Y-150214985D01*
X38204900Y-150121853D01*
X38359772Y-150057703D01*
X38524184Y-150025000D01*
X38691816Y-150025000D01*
X38856228Y-150057703D01*
G37*
G36*
X54096228Y-150057703D02*
G01*
X54251100Y-150121853D01*
X54390481Y-150214985D01*
X54509015Y-150333519D01*
X54602147Y-150472900D01*
X54666297Y-150627772D01*
X54699000Y-150792184D01*
X54699000Y-150959816D01*
X54666297Y-151124228D01*
X54602147Y-151279100D01*
X54509015Y-151418481D01*
X54390481Y-151537015D01*
X54251100Y-151630147D01*
X54096228Y-151694297D01*
X53931816Y-151727000D01*
X53764184Y-151727000D01*
X53599772Y-151694297D01*
X53444900Y-151630147D01*
X53305519Y-151537015D01*
X53186985Y-151418481D01*
X53093853Y-151279100D01*
X53029703Y-151124228D01*
X52997000Y-150959816D01*
X52997000Y-150792184D01*
X53029703Y-150627772D01*
X53093853Y-150472900D01*
X53186985Y-150333519D01*
X53305519Y-150214985D01*
X53444900Y-150121853D01*
X53599772Y-150057703D01*
X53764184Y-150025000D01*
X53931816Y-150025000D01*
X54096228Y-150057703D01*
G37*
G36*
X73908228Y-149549703D02*
G01*
X74063100Y-149613853D01*
X74202481Y-149706985D01*
X74321015Y-149825519D01*
X74414147Y-149964900D01*
X74478297Y-150119772D01*
X74511000Y-150284184D01*
X74511000Y-150451816D01*
X74478297Y-150616228D01*
X74414147Y-150771100D01*
X74321015Y-150910481D01*
X74202481Y-151029015D01*
X74063100Y-151122147D01*
X73908228Y-151186297D01*
X73743816Y-151219000D01*
X73576184Y-151219000D01*
X73411772Y-151186297D01*
X73256900Y-151122147D01*
X73117519Y-151029015D01*
X72998985Y-150910481D01*
X72905853Y-150771100D01*
X72841703Y-150616228D01*
X72809000Y-150451816D01*
X72809000Y-150284184D01*
X72841703Y-150119772D01*
X72905853Y-149964900D01*
X72998985Y-149825519D01*
X73117519Y-149706985D01*
X73256900Y-149613853D01*
X73411772Y-149549703D01*
X73576184Y-149517000D01*
X73743816Y-149517000D01*
X73908228Y-149549703D01*
G37*
G36*
X63668228Y-148025703D02*
G01*
X63823100Y-148089853D01*
X63962481Y-148182985D01*
X64081015Y-148301519D01*
X64174147Y-148440900D01*
X64238297Y-148595772D01*
X64271000Y-148760184D01*
X64271000Y-148927816D01*
X64238297Y-149092228D01*
X64174147Y-149247100D01*
X64081015Y-149386481D01*
X63962481Y-149505015D01*
X63823100Y-149598147D01*
X63668228Y-149662297D01*
X63503816Y-149695000D01*
X63336184Y-149695000D01*
X63171772Y-149662297D01*
X63016900Y-149598147D01*
X62877519Y-149505015D01*
X62758985Y-149386481D01*
X62665853Y-149247100D01*
X62601703Y-149092228D01*
X62569000Y-148927816D01*
X62569000Y-148760184D01*
X62601703Y-148595772D01*
X62665853Y-148440900D01*
X62758985Y-148301519D01*
X62877519Y-148182985D01*
X63016900Y-148089853D01*
X63171772Y-148025703D01*
X63336184Y-147993000D01*
X63503816Y-147993000D01*
X63668228Y-148025703D01*
G37*
G36*
X58668228Y-148025703D02*
G01*
X58823100Y-148089853D01*
X58962481Y-148182985D01*
X59081015Y-148301519D01*
X59174147Y-148440900D01*
X59238297Y-148595772D01*
X59271000Y-148760184D01*
X59271000Y-148927816D01*
X59238297Y-149092228D01*
X59174147Y-149247100D01*
X59081015Y-149386481D01*
X58962481Y-149505015D01*
X58823100Y-149598147D01*
X58668228Y-149662297D01*
X58503816Y-149695000D01*
X58336184Y-149695000D01*
X58171772Y-149662297D01*
X58016900Y-149598147D01*
X57877519Y-149505015D01*
X57758985Y-149386481D01*
X57665853Y-149247100D01*
X57601703Y-149092228D01*
X57569000Y-148927816D01*
X57569000Y-148760184D01*
X57601703Y-148595772D01*
X57665853Y-148440900D01*
X57758985Y-148301519D01*
X57877519Y-148182985D01*
X58016900Y-148089853D01*
X58171772Y-148025703D01*
X58336184Y-147993000D01*
X58503816Y-147993000D01*
X58668228Y-148025703D01*
G37*
G36*
X38856228Y-147517703D02*
G01*
X39011100Y-147581853D01*
X39150481Y-147674985D01*
X39269015Y-147793519D01*
X39362147Y-147932900D01*
X39426297Y-148087772D01*
X39459000Y-148252184D01*
X39459000Y-148419816D01*
X39426297Y-148584228D01*
X39362147Y-148739100D01*
X39269015Y-148878481D01*
X39150481Y-148997015D01*
X39011100Y-149090147D01*
X38856228Y-149154297D01*
X38691816Y-149187000D01*
X38524184Y-149187000D01*
X38359772Y-149154297D01*
X38204900Y-149090147D01*
X38065519Y-148997015D01*
X37946985Y-148878481D01*
X37853853Y-148739100D01*
X37789703Y-148584228D01*
X37757000Y-148419816D01*
X37757000Y-148252184D01*
X37789703Y-148087772D01*
X37853853Y-147932900D01*
X37946985Y-147793519D01*
X38065519Y-147674985D01*
X38204900Y-147581853D01*
X38359772Y-147517703D01*
X38524184Y-147485000D01*
X38691816Y-147485000D01*
X38856228Y-147517703D01*
G37*
G36*
X54096228Y-147517703D02*
G01*
X54251100Y-147581853D01*
X54390481Y-147674985D01*
X54509015Y-147793519D01*
X54602147Y-147932900D01*
X54666297Y-148087772D01*
X54699000Y-148252184D01*
X54699000Y-148419816D01*
X54666297Y-148584228D01*
X54602147Y-148739100D01*
X54509015Y-148878481D01*
X54390481Y-148997015D01*
X54251100Y-149090147D01*
X54096228Y-149154297D01*
X53931816Y-149187000D01*
X53764184Y-149187000D01*
X53599772Y-149154297D01*
X53444900Y-149090147D01*
X53305519Y-148997015D01*
X53186985Y-148878481D01*
X53093853Y-148739100D01*
X53029703Y-148584228D01*
X52997000Y-148419816D01*
X52997000Y-148252184D01*
X53029703Y-148087772D01*
X53093853Y-147932900D01*
X53186985Y-147793519D01*
X53305519Y-147674985D01*
X53444900Y-147581853D01*
X53599772Y-147517703D01*
X53764184Y-147485000D01*
X53931816Y-147485000D01*
X54096228Y-147517703D01*
G37*
G36*
X126232228Y-146501703D02*
G01*
X126387100Y-146565853D01*
X126526481Y-146658985D01*
X126645015Y-146777519D01*
X126738147Y-146916900D01*
X126802297Y-147071772D01*
X126835000Y-147236184D01*
X126835000Y-147403816D01*
X126802297Y-147568228D01*
X126738147Y-147723100D01*
X126645015Y-147862481D01*
X126526481Y-147981015D01*
X126387100Y-148074147D01*
X126232228Y-148138297D01*
X126067816Y-148171000D01*
X125900184Y-148171000D01*
X125735772Y-148138297D01*
X125580900Y-148074147D01*
X125441519Y-147981015D01*
X125322985Y-147862481D01*
X125229853Y-147723100D01*
X125165703Y-147568228D01*
X125133000Y-147403816D01*
X125133000Y-147236184D01*
X125165703Y-147071772D01*
X125229853Y-146916900D01*
X125322985Y-146777519D01*
X125441519Y-146658985D01*
X125580900Y-146565853D01*
X125735772Y-146501703D01*
X125900184Y-146469000D01*
X126067816Y-146469000D01*
X126232228Y-146501703D01*
G37*
G36*
X94736228Y-146501703D02*
G01*
X94891100Y-146565853D01*
X95030481Y-146658985D01*
X95149015Y-146777519D01*
X95242147Y-146916900D01*
X95306297Y-147071772D01*
X95339000Y-147236184D01*
X95339000Y-147403816D01*
X95306297Y-147568228D01*
X95242147Y-147723100D01*
X95149015Y-147862481D01*
X95030481Y-147981015D01*
X94891100Y-148074147D01*
X94736228Y-148138297D01*
X94571816Y-148171000D01*
X94404184Y-148171000D01*
X94239772Y-148138297D01*
X94084900Y-148074147D01*
X93945519Y-147981015D01*
X93826985Y-147862481D01*
X93733853Y-147723100D01*
X93669703Y-147568228D01*
X93637000Y-147403816D01*
X93637000Y-147236184D01*
X93669703Y-147071772D01*
X93733853Y-146916900D01*
X93826985Y-146777519D01*
X93945519Y-146658985D01*
X94084900Y-146565853D01*
X94239772Y-146501703D01*
X94404184Y-146469000D01*
X94571816Y-146469000D01*
X94736228Y-146501703D01*
G37*
G36*
X73400228Y-145993703D02*
G01*
X73555100Y-146057853D01*
X73694481Y-146150985D01*
X73813015Y-146269519D01*
X73906147Y-146408900D01*
X73970297Y-146563772D01*
X74003000Y-146728184D01*
X74003000Y-146895816D01*
X73970297Y-147060228D01*
X73906147Y-147215100D01*
X73813015Y-147354481D01*
X73694481Y-147473015D01*
X73555100Y-147566147D01*
X73400228Y-147630297D01*
X73235816Y-147663000D01*
X73068184Y-147663000D01*
X72903772Y-147630297D01*
X72748900Y-147566147D01*
X72609519Y-147473015D01*
X72490985Y-147354481D01*
X72397853Y-147215100D01*
X72333703Y-147060228D01*
X72301000Y-146895816D01*
X72301000Y-146728184D01*
X72333703Y-146563772D01*
X72397853Y-146408900D01*
X72490985Y-146269519D01*
X72609519Y-146150985D01*
X72748900Y-146057853D01*
X72903772Y-145993703D01*
X73068184Y-145961000D01*
X73235816Y-145961000D01*
X73400228Y-145993703D01*
G37*
G36*
X81623000Y-147663000D02*
G01*
X79921000Y-147663000D01*
X79921000Y-145961000D01*
X81623000Y-145961000D01*
X81623000Y-147663000D01*
G37*
G36*
X38856228Y-144977703D02*
G01*
X39011100Y-145041853D01*
X39150481Y-145134985D01*
X39269015Y-145253519D01*
X39362147Y-145392900D01*
X39426297Y-145547772D01*
X39459000Y-145712184D01*
X39459000Y-145879816D01*
X39426297Y-146044228D01*
X39362147Y-146199100D01*
X39269015Y-146338481D01*
X39150481Y-146457015D01*
X39011100Y-146550147D01*
X38856228Y-146614297D01*
X38691816Y-146647000D01*
X38524184Y-146647000D01*
X38359772Y-146614297D01*
X38204900Y-146550147D01*
X38065519Y-146457015D01*
X37946985Y-146338481D01*
X37853853Y-146199100D01*
X37789703Y-146044228D01*
X37757000Y-145879816D01*
X37757000Y-145712184D01*
X37789703Y-145547772D01*
X37853853Y-145392900D01*
X37946985Y-145253519D01*
X38065519Y-145134985D01*
X38204900Y-145041853D01*
X38359772Y-144977703D01*
X38524184Y-144945000D01*
X38691816Y-144945000D01*
X38856228Y-144977703D01*
G37*
G36*
X54096228Y-144977703D02*
G01*
X54251100Y-145041853D01*
X54390481Y-145134985D01*
X54509015Y-145253519D01*
X54602147Y-145392900D01*
X54666297Y-145547772D01*
X54699000Y-145712184D01*
X54699000Y-145879816D01*
X54666297Y-146044228D01*
X54602147Y-146199100D01*
X54509015Y-146338481D01*
X54390481Y-146457015D01*
X54251100Y-146550147D01*
X54096228Y-146614297D01*
X53931816Y-146647000D01*
X53764184Y-146647000D01*
X53599772Y-146614297D01*
X53444900Y-146550147D01*
X53305519Y-146457015D01*
X53186985Y-146338481D01*
X53093853Y-146199100D01*
X53029703Y-146044228D01*
X52997000Y-145879816D01*
X52997000Y-145712184D01*
X53029703Y-145547772D01*
X53093853Y-145392900D01*
X53186985Y-145253519D01*
X53305519Y-145134985D01*
X53444900Y-145041853D01*
X53599772Y-144977703D01*
X53764184Y-144945000D01*
X53931816Y-144945000D01*
X54096228Y-144977703D01*
G37*
G36*
X73400228Y-143453703D02*
G01*
X73555100Y-143517853D01*
X73694481Y-143610985D01*
X73813015Y-143729519D01*
X73906147Y-143868900D01*
X73970297Y-144023772D01*
X74003000Y-144188184D01*
X74003000Y-144355816D01*
X73970297Y-144520228D01*
X73906147Y-144675100D01*
X73813015Y-144814481D01*
X73694481Y-144933015D01*
X73555100Y-145026147D01*
X73400228Y-145090297D01*
X73235816Y-145123000D01*
X73068184Y-145123000D01*
X72903772Y-145090297D01*
X72748900Y-145026147D01*
X72609519Y-144933015D01*
X72490985Y-144814481D01*
X72397853Y-144675100D01*
X72333703Y-144520228D01*
X72301000Y-144355816D01*
X72301000Y-144188184D01*
X72333703Y-144023772D01*
X72397853Y-143868900D01*
X72490985Y-143729519D01*
X72609519Y-143610985D01*
X72748900Y-143517853D01*
X72903772Y-143453703D01*
X73068184Y-143421000D01*
X73235816Y-143421000D01*
X73400228Y-143453703D01*
G37*
G36*
X81020228Y-143453703D02*
G01*
X81175100Y-143517853D01*
X81314481Y-143610985D01*
X81433015Y-143729519D01*
X81526147Y-143868900D01*
X81590297Y-144023772D01*
X81623000Y-144188184D01*
X81623000Y-144355816D01*
X81590297Y-144520228D01*
X81526147Y-144675100D01*
X81433015Y-144814481D01*
X81314481Y-144933015D01*
X81175100Y-145026147D01*
X81020228Y-145090297D01*
X80855816Y-145123000D01*
X80688184Y-145123000D01*
X80523772Y-145090297D01*
X80368900Y-145026147D01*
X80229519Y-144933015D01*
X80110985Y-144814481D01*
X80017853Y-144675100D01*
X79953703Y-144520228D01*
X79921000Y-144355816D01*
X79921000Y-144188184D01*
X79953703Y-144023772D01*
X80017853Y-143868900D01*
X80110985Y-143729519D01*
X80229519Y-143610985D01*
X80368900Y-143517853D01*
X80523772Y-143453703D01*
X80688184Y-143421000D01*
X80855816Y-143421000D01*
X81020228Y-143453703D01*
G37*
G36*
X38856228Y-142437703D02*
G01*
X39011100Y-142501853D01*
X39150481Y-142594985D01*
X39269015Y-142713519D01*
X39362147Y-142852900D01*
X39426297Y-143007772D01*
X39459000Y-143172184D01*
X39459000Y-143339816D01*
X39426297Y-143504228D01*
X39362147Y-143659100D01*
X39269015Y-143798481D01*
X39150481Y-143917015D01*
X39011100Y-144010147D01*
X38856228Y-144074297D01*
X38691816Y-144107000D01*
X38524184Y-144107000D01*
X38359772Y-144074297D01*
X38204900Y-144010147D01*
X38065519Y-143917015D01*
X37946985Y-143798481D01*
X37853853Y-143659100D01*
X37789703Y-143504228D01*
X37757000Y-143339816D01*
X37757000Y-143172184D01*
X37789703Y-143007772D01*
X37853853Y-142852900D01*
X37946985Y-142713519D01*
X38065519Y-142594985D01*
X38204900Y-142501853D01*
X38359772Y-142437703D01*
X38524184Y-142405000D01*
X38691816Y-142405000D01*
X38856228Y-142437703D01*
G37*
G36*
X54096228Y-142437703D02*
G01*
X54251100Y-142501853D01*
X54390481Y-142594985D01*
X54509015Y-142713519D01*
X54602147Y-142852900D01*
X54666297Y-143007772D01*
X54699000Y-143172184D01*
X54699000Y-143339816D01*
X54666297Y-143504228D01*
X54602147Y-143659100D01*
X54509015Y-143798481D01*
X54390481Y-143917015D01*
X54251100Y-144010147D01*
X54096228Y-144074297D01*
X53931816Y-144107000D01*
X53764184Y-144107000D01*
X53599772Y-144074297D01*
X53444900Y-144010147D01*
X53305519Y-143917015D01*
X53186985Y-143798481D01*
X53093853Y-143659100D01*
X53029703Y-143504228D01*
X52997000Y-143339816D01*
X52997000Y-143172184D01*
X53029703Y-143007772D01*
X53093853Y-142852900D01*
X53186985Y-142713519D01*
X53305519Y-142594985D01*
X53444900Y-142501853D01*
X53599772Y-142437703D01*
X53764184Y-142405000D01*
X53931816Y-142405000D01*
X54096228Y-142437703D01*
G37*
G36*
X66733000Y-142651000D02*
G01*
X64331000Y-142651000D01*
X64331000Y-141149000D01*
X66733000Y-141149000D01*
X66733000Y-142651000D01*
G37*
G36*
X81020228Y-140913703D02*
G01*
X81175100Y-140977853D01*
X81314481Y-141070985D01*
X81433015Y-141189519D01*
X81526147Y-141328900D01*
X81590297Y-141483772D01*
X81623000Y-141648184D01*
X81623000Y-141815816D01*
X81590297Y-141980228D01*
X81526147Y-142135100D01*
X81433015Y-142274481D01*
X81314481Y-142393015D01*
X81175100Y-142486147D01*
X81020228Y-142550297D01*
X80855816Y-142583000D01*
X80688184Y-142583000D01*
X80523772Y-142550297D01*
X80368900Y-142486147D01*
X80229519Y-142393015D01*
X80110985Y-142274481D01*
X80017853Y-142135100D01*
X79953703Y-141980228D01*
X79921000Y-141815816D01*
X79921000Y-141648184D01*
X79953703Y-141483772D01*
X80017853Y-141328900D01*
X80110985Y-141189519D01*
X80229519Y-141070985D01*
X80368900Y-140977853D01*
X80523772Y-140913703D01*
X80688184Y-140881000D01*
X80855816Y-140881000D01*
X81020228Y-140913703D01*
G37*
G36*
X73400228Y-140913703D02*
G01*
X73555100Y-140977853D01*
X73694481Y-141070985D01*
X73813015Y-141189519D01*
X73906147Y-141328900D01*
X73970297Y-141483772D01*
X74003000Y-141648184D01*
X74003000Y-141815816D01*
X73970297Y-141980228D01*
X73906147Y-142135100D01*
X73813015Y-142274481D01*
X73694481Y-142393015D01*
X73555100Y-142486147D01*
X73400228Y-142550297D01*
X73235816Y-142583000D01*
X73068184Y-142583000D01*
X72903772Y-142550297D01*
X72748900Y-142486147D01*
X72609519Y-142393015D01*
X72490985Y-142274481D01*
X72397853Y-142135100D01*
X72333703Y-141980228D01*
X72301000Y-141815816D01*
X72301000Y-141648184D01*
X72333703Y-141483772D01*
X72397853Y-141328900D01*
X72490985Y-141189519D01*
X72609519Y-141070985D01*
X72748900Y-140977853D01*
X72903772Y-140913703D01*
X73068184Y-140881000D01*
X73235816Y-140881000D01*
X73400228Y-140913703D01*
G37*
G36*
X54096228Y-139897703D02*
G01*
X54251100Y-139961853D01*
X54390481Y-140054985D01*
X54509015Y-140173519D01*
X54602147Y-140312900D01*
X54666297Y-140467772D01*
X54699000Y-140632184D01*
X54699000Y-140799816D01*
X54666297Y-140964228D01*
X54602147Y-141119100D01*
X54509015Y-141258481D01*
X54390481Y-141377015D01*
X54251100Y-141470147D01*
X54096228Y-141534297D01*
X53931816Y-141567000D01*
X53764184Y-141567000D01*
X53599772Y-141534297D01*
X53444900Y-141470147D01*
X53305519Y-141377015D01*
X53186985Y-141258481D01*
X53093853Y-141119100D01*
X53029703Y-140964228D01*
X52997000Y-140799816D01*
X52997000Y-140632184D01*
X53029703Y-140467772D01*
X53093853Y-140312900D01*
X53186985Y-140173519D01*
X53305519Y-140054985D01*
X53444900Y-139961853D01*
X53599772Y-139897703D01*
X53764184Y-139865000D01*
X53931816Y-139865000D01*
X54096228Y-139897703D01*
G37*
G36*
X106928228Y-139897703D02*
G01*
X107083100Y-139961853D01*
X107222481Y-140054985D01*
X107341015Y-140173519D01*
X107434147Y-140312900D01*
X107498297Y-140467772D01*
X107531000Y-140632184D01*
X107531000Y-140799816D01*
X107498297Y-140964228D01*
X107434147Y-141119100D01*
X107341015Y-141258481D01*
X107222481Y-141377015D01*
X107083100Y-141470147D01*
X106928228Y-141534297D01*
X106763816Y-141567000D01*
X106596184Y-141567000D01*
X106431772Y-141534297D01*
X106276900Y-141470147D01*
X106137519Y-141377015D01*
X106018985Y-141258481D01*
X105925853Y-141119100D01*
X105861703Y-140964228D01*
X105829000Y-140799816D01*
X105829000Y-140632184D01*
X105861703Y-140467772D01*
X105925853Y-140312900D01*
X106018985Y-140173519D01*
X106137519Y-140054985D01*
X106276900Y-139961853D01*
X106431772Y-139897703D01*
X106596184Y-139865000D01*
X106763816Y-139865000D01*
X106928228Y-139897703D01*
G37*
G36*
X38856228Y-139897703D02*
G01*
X39011100Y-139961853D01*
X39150481Y-140054985D01*
X39269015Y-140173519D01*
X39362147Y-140312900D01*
X39426297Y-140467772D01*
X39459000Y-140632184D01*
X39459000Y-140799816D01*
X39426297Y-140964228D01*
X39362147Y-141119100D01*
X39269015Y-141258481D01*
X39150481Y-141377015D01*
X39011100Y-141470147D01*
X38856228Y-141534297D01*
X38691816Y-141567000D01*
X38524184Y-141567000D01*
X38359772Y-141534297D01*
X38204900Y-141470147D01*
X38065519Y-141377015D01*
X37946985Y-141258481D01*
X37853853Y-141119100D01*
X37789703Y-140964228D01*
X37757000Y-140799816D01*
X37757000Y-140632184D01*
X37789703Y-140467772D01*
X37853853Y-140312900D01*
X37946985Y-140173519D01*
X38065519Y-140054985D01*
X38204900Y-139961853D01*
X38359772Y-139897703D01*
X38524184Y-139865000D01*
X38691816Y-139865000D01*
X38856228Y-139897703D01*
G37*
G36*
X114040228Y-139857703D02*
G01*
X114195100Y-139921853D01*
X114334481Y-140014985D01*
X114453015Y-140133519D01*
X114546147Y-140272900D01*
X114610297Y-140427772D01*
X114643000Y-140592184D01*
X114643000Y-140759816D01*
X114610297Y-140924228D01*
X114546147Y-141079100D01*
X114453015Y-141218481D01*
X114334481Y-141337015D01*
X114195100Y-141430147D01*
X114040228Y-141494297D01*
X113875816Y-141527000D01*
X113708184Y-141527000D01*
X113543772Y-141494297D01*
X113388900Y-141430147D01*
X113249519Y-141337015D01*
X113130985Y-141218481D01*
X113037853Y-141079100D01*
X112973703Y-140924228D01*
X112941000Y-140759816D01*
X112941000Y-140592184D01*
X112973703Y-140427772D01*
X113037853Y-140272900D01*
X113130985Y-140133519D01*
X113249519Y-140014985D01*
X113388900Y-139921853D01*
X113543772Y-139857703D01*
X113708184Y-139825000D01*
X113875816Y-139825000D01*
X114040228Y-139857703D01*
G37*
G36*
X94736228Y-138881703D02*
G01*
X94891100Y-138945853D01*
X95030481Y-139038985D01*
X95149015Y-139157519D01*
X95242147Y-139296900D01*
X95306297Y-139451772D01*
X95339000Y-139616184D01*
X95339000Y-139783816D01*
X95306297Y-139948228D01*
X95242147Y-140103100D01*
X95149015Y-140242481D01*
X95030481Y-140361015D01*
X94891100Y-140454147D01*
X94736228Y-140518297D01*
X94571816Y-140551000D01*
X94404184Y-140551000D01*
X94239772Y-140518297D01*
X94084900Y-140454147D01*
X93945519Y-140361015D01*
X93826985Y-140242481D01*
X93733853Y-140103100D01*
X93669703Y-139948228D01*
X93637000Y-139783816D01*
X93637000Y-139616184D01*
X93669703Y-139451772D01*
X93733853Y-139296900D01*
X93826985Y-139157519D01*
X93945519Y-139038985D01*
X94084900Y-138945853D01*
X94239772Y-138881703D01*
X94404184Y-138849000D01*
X94571816Y-138849000D01*
X94736228Y-138881703D01*
G37*
G36*
X126232228Y-138881703D02*
G01*
X126387100Y-138945853D01*
X126526481Y-139038985D01*
X126645015Y-139157519D01*
X126738147Y-139296900D01*
X126802297Y-139451772D01*
X126835000Y-139616184D01*
X126835000Y-139783816D01*
X126802297Y-139948228D01*
X126738147Y-140103100D01*
X126645015Y-140242481D01*
X126526481Y-140361015D01*
X126387100Y-140454147D01*
X126232228Y-140518297D01*
X126067816Y-140551000D01*
X125900184Y-140551000D01*
X125735772Y-140518297D01*
X125580900Y-140454147D01*
X125441519Y-140361015D01*
X125322985Y-140242481D01*
X125229853Y-140103100D01*
X125165703Y-139948228D01*
X125133000Y-139783816D01*
X125133000Y-139616184D01*
X125165703Y-139451772D01*
X125229853Y-139296900D01*
X125322985Y-139157519D01*
X125441519Y-139038985D01*
X125580900Y-138945853D01*
X125735772Y-138881703D01*
X125900184Y-138849000D01*
X126067816Y-138849000D01*
X126232228Y-138881703D01*
G37*
G36*
X73400228Y-138373703D02*
G01*
X73555100Y-138437853D01*
X73694481Y-138530985D01*
X73813015Y-138649519D01*
X73906147Y-138788900D01*
X73970297Y-138943772D01*
X74003000Y-139108184D01*
X74003000Y-139275816D01*
X73970297Y-139440228D01*
X73906147Y-139595100D01*
X73813015Y-139734481D01*
X73694481Y-139853015D01*
X73555100Y-139946147D01*
X73400228Y-140010297D01*
X73235816Y-140043000D01*
X73068184Y-140043000D01*
X72903772Y-140010297D01*
X72748900Y-139946147D01*
X72609519Y-139853015D01*
X72490985Y-139734481D01*
X72397853Y-139595100D01*
X72333703Y-139440228D01*
X72301000Y-139275816D01*
X72301000Y-139108184D01*
X72333703Y-138943772D01*
X72397853Y-138788900D01*
X72490985Y-138649519D01*
X72609519Y-138530985D01*
X72748900Y-138437853D01*
X72903772Y-138373703D01*
X73068184Y-138341000D01*
X73235816Y-138341000D01*
X73400228Y-138373703D01*
G37*
G36*
X81020228Y-138373703D02*
G01*
X81175100Y-138437853D01*
X81314481Y-138530985D01*
X81433015Y-138649519D01*
X81526147Y-138788900D01*
X81590297Y-138943772D01*
X81623000Y-139108184D01*
X81623000Y-139275816D01*
X81590297Y-139440228D01*
X81526147Y-139595100D01*
X81433015Y-139734481D01*
X81314481Y-139853015D01*
X81175100Y-139946147D01*
X81020228Y-140010297D01*
X80855816Y-140043000D01*
X80688184Y-140043000D01*
X80523772Y-140010297D01*
X80368900Y-139946147D01*
X80229519Y-139853015D01*
X80110985Y-139734481D01*
X80017853Y-139595100D01*
X79953703Y-139440228D01*
X79921000Y-139275816D01*
X79921000Y-139108184D01*
X79953703Y-138943772D01*
X80017853Y-138788900D01*
X80110985Y-138649519D01*
X80229519Y-138530985D01*
X80368900Y-138437853D01*
X80523772Y-138373703D01*
X80688184Y-138341000D01*
X80855816Y-138341000D01*
X81020228Y-138373703D01*
G37*
G36*
X106928228Y-137397703D02*
G01*
X107083100Y-137461853D01*
X107222481Y-137554985D01*
X107341015Y-137673519D01*
X107434147Y-137812900D01*
X107498297Y-137967772D01*
X107531000Y-138132184D01*
X107531000Y-138299816D01*
X107498297Y-138464228D01*
X107434147Y-138619100D01*
X107341015Y-138758481D01*
X107222481Y-138877015D01*
X107083100Y-138970147D01*
X106928228Y-139034297D01*
X106763816Y-139067000D01*
X106596184Y-139067000D01*
X106431772Y-139034297D01*
X106276900Y-138970147D01*
X106137519Y-138877015D01*
X106018985Y-138758481D01*
X105925853Y-138619100D01*
X105861703Y-138464228D01*
X105829000Y-138299816D01*
X105829000Y-138132184D01*
X105861703Y-137967772D01*
X105925853Y-137812900D01*
X106018985Y-137673519D01*
X106137519Y-137554985D01*
X106276900Y-137461853D01*
X106431772Y-137397703D01*
X106596184Y-137365000D01*
X106763816Y-137365000D01*
X106928228Y-137397703D01*
G37*
G36*
X114040228Y-137357703D02*
G01*
X114195100Y-137421853D01*
X114334481Y-137514985D01*
X114453015Y-137633519D01*
X114546147Y-137772900D01*
X114610297Y-137927772D01*
X114643000Y-138092184D01*
X114643000Y-138259816D01*
X114610297Y-138424228D01*
X114546147Y-138579100D01*
X114453015Y-138718481D01*
X114334481Y-138837015D01*
X114195100Y-138930147D01*
X114040228Y-138994297D01*
X113875816Y-139027000D01*
X113708184Y-139027000D01*
X113543772Y-138994297D01*
X113388900Y-138930147D01*
X113249519Y-138837015D01*
X113130985Y-138718481D01*
X113037853Y-138579100D01*
X112973703Y-138424228D01*
X112941000Y-138259816D01*
X112941000Y-138092184D01*
X112973703Y-137927772D01*
X113037853Y-137772900D01*
X113130985Y-137633519D01*
X113249519Y-137514985D01*
X113388900Y-137421853D01*
X113543772Y-137357703D01*
X113708184Y-137325000D01*
X113875816Y-137325000D01*
X114040228Y-137357703D01*
G37*
G36*
X54096228Y-137357703D02*
G01*
X54251100Y-137421853D01*
X54390481Y-137514985D01*
X54509015Y-137633519D01*
X54602147Y-137772900D01*
X54666297Y-137927772D01*
X54699000Y-138092184D01*
X54699000Y-138259816D01*
X54666297Y-138424228D01*
X54602147Y-138579100D01*
X54509015Y-138718481D01*
X54390481Y-138837015D01*
X54251100Y-138930147D01*
X54096228Y-138994297D01*
X53931816Y-139027000D01*
X53764184Y-139027000D01*
X53599772Y-138994297D01*
X53444900Y-138930147D01*
X53305519Y-138837015D01*
X53186985Y-138718481D01*
X53093853Y-138579100D01*
X53029703Y-138424228D01*
X52997000Y-138259816D01*
X52997000Y-138092184D01*
X53029703Y-137927772D01*
X53093853Y-137772900D01*
X53186985Y-137633519D01*
X53305519Y-137514985D01*
X53444900Y-137421853D01*
X53599772Y-137357703D01*
X53764184Y-137325000D01*
X53931816Y-137325000D01*
X54096228Y-137357703D01*
G37*
G36*
X38856228Y-137357703D02*
G01*
X39011100Y-137421853D01*
X39150481Y-137514985D01*
X39269015Y-137633519D01*
X39362147Y-137772900D01*
X39426297Y-137927772D01*
X39459000Y-138092184D01*
X39459000Y-138259816D01*
X39426297Y-138424228D01*
X39362147Y-138579100D01*
X39269015Y-138718481D01*
X39150481Y-138837015D01*
X39011100Y-138930147D01*
X38856228Y-138994297D01*
X38691816Y-139027000D01*
X38524184Y-139027000D01*
X38359772Y-138994297D01*
X38204900Y-138930147D01*
X38065519Y-138837015D01*
X37946985Y-138718481D01*
X37853853Y-138579100D01*
X37789703Y-138424228D01*
X37757000Y-138259816D01*
X37757000Y-138092184D01*
X37789703Y-137927772D01*
X37853853Y-137772900D01*
X37946985Y-137633519D01*
X38065519Y-137514985D01*
X38204900Y-137421853D01*
X38359772Y-137357703D01*
X38524184Y-137325000D01*
X38691816Y-137325000D01*
X38856228Y-137357703D01*
G37*
G36*
X66733000Y-138251000D02*
G01*
X64331000Y-138251000D01*
X64331000Y-136749000D01*
X66733000Y-136749000D01*
X66733000Y-138251000D01*
G37*
G36*
X73400228Y-135833703D02*
G01*
X73555100Y-135897853D01*
X73694481Y-135990985D01*
X73813015Y-136109519D01*
X73906147Y-136248900D01*
X73970297Y-136403772D01*
X74003000Y-136568184D01*
X74003000Y-136735816D01*
X73970297Y-136900228D01*
X73906147Y-137055100D01*
X73813015Y-137194481D01*
X73694481Y-137313015D01*
X73555100Y-137406147D01*
X73400228Y-137470297D01*
X73235816Y-137503000D01*
X73068184Y-137503000D01*
X72903772Y-137470297D01*
X72748900Y-137406147D01*
X72609519Y-137313015D01*
X72490985Y-137194481D01*
X72397853Y-137055100D01*
X72333703Y-136900228D01*
X72301000Y-136735816D01*
X72301000Y-136568184D01*
X72333703Y-136403772D01*
X72397853Y-136248900D01*
X72490985Y-136109519D01*
X72609519Y-135990985D01*
X72748900Y-135897853D01*
X72903772Y-135833703D01*
X73068184Y-135801000D01*
X73235816Y-135801000D01*
X73400228Y-135833703D01*
G37*
G36*
X81020228Y-135833703D02*
G01*
X81175100Y-135897853D01*
X81314481Y-135990985D01*
X81433015Y-136109519D01*
X81526147Y-136248900D01*
X81590297Y-136403772D01*
X81623000Y-136568184D01*
X81623000Y-136735816D01*
X81590297Y-136900228D01*
X81526147Y-137055100D01*
X81433015Y-137194481D01*
X81314481Y-137313015D01*
X81175100Y-137406147D01*
X81020228Y-137470297D01*
X80855816Y-137503000D01*
X80688184Y-137503000D01*
X80523772Y-137470297D01*
X80368900Y-137406147D01*
X80229519Y-137313015D01*
X80110985Y-137194481D01*
X80017853Y-137055100D01*
X79953703Y-136900228D01*
X79921000Y-136735816D01*
X79921000Y-136568184D01*
X79953703Y-136403772D01*
X80017853Y-136248900D01*
X80110985Y-136109519D01*
X80229519Y-135990985D01*
X80368900Y-135897853D01*
X80523772Y-135833703D01*
X80688184Y-135801000D01*
X80855816Y-135801000D01*
X81020228Y-135833703D01*
G37*
G36*
X94736228Y-135325703D02*
G01*
X94891100Y-135389853D01*
X95030481Y-135482985D01*
X95149015Y-135601519D01*
X95242147Y-135740900D01*
X95306297Y-135895772D01*
X95339000Y-136060184D01*
X95339000Y-136227816D01*
X95306297Y-136392228D01*
X95242147Y-136547100D01*
X95149015Y-136686481D01*
X95030481Y-136805015D01*
X94891100Y-136898147D01*
X94736228Y-136962297D01*
X94571816Y-136995000D01*
X94404184Y-136995000D01*
X94239772Y-136962297D01*
X94084900Y-136898147D01*
X93945519Y-136805015D01*
X93826985Y-136686481D01*
X93733853Y-136547100D01*
X93669703Y-136392228D01*
X93637000Y-136227816D01*
X93637000Y-136060184D01*
X93669703Y-135895772D01*
X93733853Y-135740900D01*
X93826985Y-135601519D01*
X93945519Y-135482985D01*
X94084900Y-135389853D01*
X94239772Y-135325703D01*
X94404184Y-135293000D01*
X94571816Y-135293000D01*
X94736228Y-135325703D01*
G37*
G36*
X126232228Y-135325703D02*
G01*
X126387100Y-135389853D01*
X126526481Y-135482985D01*
X126645015Y-135601519D01*
X126738147Y-135740900D01*
X126802297Y-135895772D01*
X126835000Y-136060184D01*
X126835000Y-136227816D01*
X126802297Y-136392228D01*
X126738147Y-136547100D01*
X126645015Y-136686481D01*
X126526481Y-136805015D01*
X126387100Y-136898147D01*
X126232228Y-136962297D01*
X126067816Y-136995000D01*
X125900184Y-136995000D01*
X125735772Y-136962297D01*
X125580900Y-136898147D01*
X125441519Y-136805015D01*
X125322985Y-136686481D01*
X125229853Y-136547100D01*
X125165703Y-136392228D01*
X125133000Y-136227816D01*
X125133000Y-136060184D01*
X125165703Y-135895772D01*
X125229853Y-135740900D01*
X125322985Y-135601519D01*
X125441519Y-135482985D01*
X125580900Y-135389853D01*
X125735772Y-135325703D01*
X125900184Y-135293000D01*
X126067816Y-135293000D01*
X126232228Y-135325703D01*
G37*
G36*
X54096228Y-134817703D02*
G01*
X54251100Y-134881853D01*
X54390481Y-134974985D01*
X54509015Y-135093519D01*
X54602147Y-135232900D01*
X54666297Y-135387772D01*
X54699000Y-135552184D01*
X54699000Y-135719816D01*
X54666297Y-135884228D01*
X54602147Y-136039100D01*
X54509015Y-136178481D01*
X54390481Y-136297015D01*
X54251100Y-136390147D01*
X54096228Y-136454297D01*
X53931816Y-136487000D01*
X53764184Y-136487000D01*
X53599772Y-136454297D01*
X53444900Y-136390147D01*
X53305519Y-136297015D01*
X53186985Y-136178481D01*
X53093853Y-136039100D01*
X53029703Y-135884228D01*
X52997000Y-135719816D01*
X52997000Y-135552184D01*
X53029703Y-135387772D01*
X53093853Y-135232900D01*
X53186985Y-135093519D01*
X53305519Y-134974985D01*
X53444900Y-134881853D01*
X53599772Y-134817703D01*
X53764184Y-134785000D01*
X53931816Y-134785000D01*
X54096228Y-134817703D01*
G37*
G36*
X38856228Y-134817703D02*
G01*
X39011100Y-134881853D01*
X39150481Y-134974985D01*
X39269015Y-135093519D01*
X39362147Y-135232900D01*
X39426297Y-135387772D01*
X39459000Y-135552184D01*
X39459000Y-135719816D01*
X39426297Y-135884228D01*
X39362147Y-136039100D01*
X39269015Y-136178481D01*
X39150481Y-136297015D01*
X39011100Y-136390147D01*
X38856228Y-136454297D01*
X38691816Y-136487000D01*
X38524184Y-136487000D01*
X38359772Y-136454297D01*
X38204900Y-136390147D01*
X38065519Y-136297015D01*
X37946985Y-136178481D01*
X37853853Y-136039100D01*
X37789703Y-135884228D01*
X37757000Y-135719816D01*
X37757000Y-135552184D01*
X37789703Y-135387772D01*
X37853853Y-135232900D01*
X37946985Y-135093519D01*
X38065519Y-134974985D01*
X38204900Y-134881853D01*
X38359772Y-134817703D01*
X38524184Y-134785000D01*
X38691816Y-134785000D01*
X38856228Y-134817703D01*
G37*
G36*
X126232228Y-133325703D02*
G01*
X126387100Y-133389853D01*
X126526481Y-133482985D01*
X126645015Y-133601519D01*
X126738147Y-133740900D01*
X126802297Y-133895772D01*
X126835000Y-134060184D01*
X126835000Y-134227816D01*
X126802297Y-134392228D01*
X126738147Y-134547100D01*
X126645015Y-134686481D01*
X126526481Y-134805015D01*
X126387100Y-134898147D01*
X126232228Y-134962297D01*
X126067816Y-134995000D01*
X125900184Y-134995000D01*
X125735772Y-134962297D01*
X125580900Y-134898147D01*
X125441519Y-134805015D01*
X125322985Y-134686481D01*
X125229853Y-134547100D01*
X125165703Y-134392228D01*
X125133000Y-134227816D01*
X125133000Y-134060184D01*
X125165703Y-133895772D01*
X125229853Y-133740900D01*
X125322985Y-133601519D01*
X125441519Y-133482985D01*
X125580900Y-133389853D01*
X125735772Y-133325703D01*
X125900184Y-133293000D01*
X126067816Y-133293000D01*
X126232228Y-133325703D01*
G37*
G36*
X94736228Y-133325703D02*
G01*
X94891100Y-133389853D01*
X95030481Y-133482985D01*
X95149015Y-133601519D01*
X95242147Y-133740900D01*
X95306297Y-133895772D01*
X95339000Y-134060184D01*
X95339000Y-134227816D01*
X95306297Y-134392228D01*
X95242147Y-134547100D01*
X95149015Y-134686481D01*
X95030481Y-134805015D01*
X94891100Y-134898147D01*
X94736228Y-134962297D01*
X94571816Y-134995000D01*
X94404184Y-134995000D01*
X94239772Y-134962297D01*
X94084900Y-134898147D01*
X93945519Y-134805015D01*
X93826985Y-134686481D01*
X93733853Y-134547100D01*
X93669703Y-134392228D01*
X93637000Y-134227816D01*
X93637000Y-134060184D01*
X93669703Y-133895772D01*
X93733853Y-133740900D01*
X93826985Y-133601519D01*
X93945519Y-133482985D01*
X94084900Y-133389853D01*
X94239772Y-133325703D01*
X94404184Y-133293000D01*
X94571816Y-133293000D01*
X94736228Y-133325703D01*
G37*
G36*
X73400228Y-133293703D02*
G01*
X73555100Y-133357853D01*
X73694481Y-133450985D01*
X73813015Y-133569519D01*
X73906147Y-133708900D01*
X73970297Y-133863772D01*
X74003000Y-134028184D01*
X74003000Y-134195816D01*
X73970297Y-134360228D01*
X73906147Y-134515100D01*
X73813015Y-134654481D01*
X73694481Y-134773015D01*
X73555100Y-134866147D01*
X73400228Y-134930297D01*
X73235816Y-134963000D01*
X73068184Y-134963000D01*
X72903772Y-134930297D01*
X72748900Y-134866147D01*
X72609519Y-134773015D01*
X72490985Y-134654481D01*
X72397853Y-134515100D01*
X72333703Y-134360228D01*
X72301000Y-134195816D01*
X72301000Y-134028184D01*
X72333703Y-133863772D01*
X72397853Y-133708900D01*
X72490985Y-133569519D01*
X72609519Y-133450985D01*
X72748900Y-133357853D01*
X72903772Y-133293703D01*
X73068184Y-133261000D01*
X73235816Y-133261000D01*
X73400228Y-133293703D01*
G37*
G36*
X81020228Y-133293703D02*
G01*
X81175100Y-133357853D01*
X81314481Y-133450985D01*
X81433015Y-133569519D01*
X81526147Y-133708900D01*
X81590297Y-133863772D01*
X81623000Y-134028184D01*
X81623000Y-134195816D01*
X81590297Y-134360228D01*
X81526147Y-134515100D01*
X81433015Y-134654481D01*
X81314481Y-134773015D01*
X81175100Y-134866147D01*
X81020228Y-134930297D01*
X80855816Y-134963000D01*
X80688184Y-134963000D01*
X80523772Y-134930297D01*
X80368900Y-134866147D01*
X80229519Y-134773015D01*
X80110985Y-134654481D01*
X80017853Y-134515100D01*
X79953703Y-134360228D01*
X79921000Y-134195816D01*
X79921000Y-134028184D01*
X79953703Y-133863772D01*
X80017853Y-133708900D01*
X80110985Y-133569519D01*
X80229519Y-133450985D01*
X80368900Y-133357853D01*
X80523772Y-133293703D01*
X80688184Y-133261000D01*
X80855816Y-133261000D01*
X81020228Y-133293703D01*
G37*
G36*
X114029142Y-132822242D02*
G01*
X114177101Y-132883529D01*
X114310255Y-132972499D01*
X114423501Y-133085745D01*
X114512471Y-133218899D01*
X114573758Y-133366858D01*
X114605000Y-133523925D01*
X114605000Y-133684075D01*
X114573758Y-133841142D01*
X114512471Y-133989101D01*
X114423501Y-134122255D01*
X114310255Y-134235501D01*
X114177101Y-134324471D01*
X114029142Y-134385758D01*
X113872075Y-134417000D01*
X113711925Y-134417000D01*
X113554858Y-134385758D01*
X113406899Y-134324471D01*
X113273745Y-134235501D01*
X113160499Y-134122255D01*
X113071529Y-133989101D01*
X113010242Y-133841142D01*
X112979000Y-133684075D01*
X112979000Y-133523925D01*
X113010242Y-133366858D01*
X113071529Y-133218899D01*
X113160499Y-133085745D01*
X113273745Y-132972499D01*
X113406899Y-132883529D01*
X113554858Y-132822242D01*
X113711925Y-132791000D01*
X113872075Y-132791000D01*
X114029142Y-132822242D01*
G37*
G36*
X106409142Y-132822242D02*
G01*
X106557101Y-132883529D01*
X106690255Y-132972499D01*
X106803501Y-133085745D01*
X106892471Y-133218899D01*
X106953758Y-133366858D01*
X106985000Y-133523925D01*
X106985000Y-133684075D01*
X106953758Y-133841142D01*
X106892471Y-133989101D01*
X106803501Y-134122255D01*
X106690255Y-134235501D01*
X106557101Y-134324471D01*
X106409142Y-134385758D01*
X106252075Y-134417000D01*
X106091925Y-134417000D01*
X105934858Y-134385758D01*
X105786899Y-134324471D01*
X105653745Y-134235501D01*
X105540499Y-134122255D01*
X105451529Y-133989101D01*
X105390242Y-133841142D01*
X105359000Y-133684075D01*
X105359000Y-133523925D01*
X105390242Y-133366858D01*
X105451529Y-133218899D01*
X105540499Y-133085745D01*
X105653745Y-132972499D01*
X105786899Y-132883529D01*
X105934858Y-132822242D01*
X106091925Y-132791000D01*
X106252075Y-132791000D01*
X106409142Y-132822242D01*
G37*
G36*
X38856228Y-132277703D02*
G01*
X39011100Y-132341853D01*
X39150481Y-132434985D01*
X39269015Y-132553519D01*
X39362147Y-132692900D01*
X39426297Y-132847772D01*
X39459000Y-133012184D01*
X39459000Y-133179816D01*
X39426297Y-133344228D01*
X39362147Y-133499100D01*
X39269015Y-133638481D01*
X39150481Y-133757015D01*
X39011100Y-133850147D01*
X38856228Y-133914297D01*
X38691816Y-133947000D01*
X38524184Y-133947000D01*
X38359772Y-133914297D01*
X38204900Y-133850147D01*
X38065519Y-133757015D01*
X37946985Y-133638481D01*
X37853853Y-133499100D01*
X37789703Y-133344228D01*
X37757000Y-133179816D01*
X37757000Y-133012184D01*
X37789703Y-132847772D01*
X37853853Y-132692900D01*
X37946985Y-132553519D01*
X38065519Y-132434985D01*
X38204900Y-132341853D01*
X38359772Y-132277703D01*
X38524184Y-132245000D01*
X38691816Y-132245000D01*
X38856228Y-132277703D01*
G37*
G36*
X54096228Y-132277703D02*
G01*
X54251100Y-132341853D01*
X54390481Y-132434985D01*
X54509015Y-132553519D01*
X54602147Y-132692900D01*
X54666297Y-132847772D01*
X54699000Y-133012184D01*
X54699000Y-133179816D01*
X54666297Y-133344228D01*
X54602147Y-133499100D01*
X54509015Y-133638481D01*
X54390481Y-133757015D01*
X54251100Y-133850147D01*
X54096228Y-133914297D01*
X53931816Y-133947000D01*
X53764184Y-133947000D01*
X53599772Y-133914297D01*
X53444900Y-133850147D01*
X53305519Y-133757015D01*
X53186985Y-133638481D01*
X53093853Y-133499100D01*
X53029703Y-133344228D01*
X52997000Y-133179816D01*
X52997000Y-133012184D01*
X53029703Y-132847772D01*
X53093853Y-132692900D01*
X53186985Y-132553519D01*
X53305519Y-132434985D01*
X53444900Y-132341853D01*
X53599772Y-132277703D01*
X53764184Y-132245000D01*
X53931816Y-132245000D01*
X54096228Y-132277703D01*
G37*
G36*
X67812228Y-132277703D02*
G01*
X67967100Y-132341853D01*
X68106481Y-132434985D01*
X68225015Y-132553519D01*
X68318147Y-132692900D01*
X68382297Y-132847772D01*
X68415000Y-133012184D01*
X68415000Y-133179816D01*
X68382297Y-133344228D01*
X68318147Y-133499100D01*
X68225015Y-133638481D01*
X68106481Y-133757015D01*
X67967100Y-133850147D01*
X67812228Y-133914297D01*
X67647816Y-133947000D01*
X67480184Y-133947000D01*
X67315772Y-133914297D01*
X67160900Y-133850147D01*
X67021519Y-133757015D01*
X66902985Y-133638481D01*
X66809853Y-133499100D01*
X66745703Y-133344228D01*
X66713000Y-133179816D01*
X66713000Y-133012184D01*
X66745703Y-132847772D01*
X66809853Y-132692900D01*
X66902985Y-132553519D01*
X67021519Y-132434985D01*
X67160900Y-132341853D01*
X67315772Y-132277703D01*
X67480184Y-132245000D01*
X67647816Y-132245000D01*
X67812228Y-132277703D01*
G37*
G36*
X73400228Y-130753703D02*
G01*
X73555100Y-130817853D01*
X73694481Y-130910985D01*
X73813015Y-131029519D01*
X73906147Y-131168900D01*
X73970297Y-131323772D01*
X74003000Y-131488184D01*
X74003000Y-131655816D01*
X73970297Y-131820228D01*
X73906147Y-131975100D01*
X73813015Y-132114481D01*
X73694481Y-132233015D01*
X73555100Y-132326147D01*
X73400228Y-132390297D01*
X73235816Y-132423000D01*
X73068184Y-132423000D01*
X72903772Y-132390297D01*
X72748900Y-132326147D01*
X72609519Y-132233015D01*
X72490985Y-132114481D01*
X72397853Y-131975100D01*
X72333703Y-131820228D01*
X72301000Y-131655816D01*
X72301000Y-131488184D01*
X72333703Y-131323772D01*
X72397853Y-131168900D01*
X72490985Y-131029519D01*
X72609519Y-130910985D01*
X72748900Y-130817853D01*
X72903772Y-130753703D01*
X73068184Y-130721000D01*
X73235816Y-130721000D01*
X73400228Y-130753703D01*
G37*
G36*
X81020228Y-130753703D02*
G01*
X81175100Y-130817853D01*
X81314481Y-130910985D01*
X81433015Y-131029519D01*
X81526147Y-131168900D01*
X81590297Y-131323772D01*
X81623000Y-131488184D01*
X81623000Y-131655816D01*
X81590297Y-131820228D01*
X81526147Y-131975100D01*
X81433015Y-132114481D01*
X81314481Y-132233015D01*
X81175100Y-132326147D01*
X81020228Y-132390297D01*
X80855816Y-132423000D01*
X80688184Y-132423000D01*
X80523772Y-132390297D01*
X80368900Y-132326147D01*
X80229519Y-132233015D01*
X80110985Y-132114481D01*
X80017853Y-131975100D01*
X79953703Y-131820228D01*
X79921000Y-131655816D01*
X79921000Y-131488184D01*
X79953703Y-131323772D01*
X80017853Y-131168900D01*
X80110985Y-131029519D01*
X80229519Y-130910985D01*
X80368900Y-130817853D01*
X80523772Y-130753703D01*
X80688184Y-130721000D01*
X80855816Y-130721000D01*
X81020228Y-130753703D01*
G37*
G36*
X90817000Y-131965000D02*
G01*
X89015000Y-131965000D01*
X89015000Y-130163000D01*
X90817000Y-130163000D01*
X90817000Y-131965000D01*
G37*
G36*
X120136228Y-130245703D02*
G01*
X120291100Y-130309853D01*
X120430481Y-130402985D01*
X120549015Y-130521519D01*
X120642147Y-130660900D01*
X120706297Y-130815772D01*
X120739000Y-130980184D01*
X120739000Y-131147816D01*
X120706297Y-131312228D01*
X120642147Y-131467100D01*
X120549015Y-131606481D01*
X120430481Y-131725015D01*
X120291100Y-131818147D01*
X120136228Y-131882297D01*
X119971816Y-131915000D01*
X119804184Y-131915000D01*
X119639772Y-131882297D01*
X119484900Y-131818147D01*
X119345519Y-131725015D01*
X119226985Y-131606481D01*
X119133853Y-131467100D01*
X119069703Y-131312228D01*
X119037000Y-131147816D01*
X119037000Y-130980184D01*
X119069703Y-130815772D01*
X119133853Y-130660900D01*
X119226985Y-130521519D01*
X119345519Y-130402985D01*
X119484900Y-130309853D01*
X119639772Y-130245703D01*
X119804184Y-130213000D01*
X119971816Y-130213000D01*
X120136228Y-130245703D01*
G37*
G36*
X100832228Y-130245703D02*
G01*
X100987100Y-130309853D01*
X101126481Y-130402985D01*
X101245015Y-130521519D01*
X101338147Y-130660900D01*
X101402297Y-130815772D01*
X101435000Y-130980184D01*
X101435000Y-131147816D01*
X101402297Y-131312228D01*
X101338147Y-131467100D01*
X101245015Y-131606481D01*
X101126481Y-131725015D01*
X100987100Y-131818147D01*
X100832228Y-131882297D01*
X100667816Y-131915000D01*
X100500184Y-131915000D01*
X100335772Y-131882297D01*
X100180900Y-131818147D01*
X100041519Y-131725015D01*
X99922985Y-131606481D01*
X99829853Y-131467100D01*
X99765703Y-131312228D01*
X99733000Y-131147816D01*
X99733000Y-130980184D01*
X99765703Y-130815772D01*
X99829853Y-130660900D01*
X99922985Y-130521519D01*
X100041519Y-130402985D01*
X100180900Y-130309853D01*
X100335772Y-130245703D01*
X100500184Y-130213000D01*
X100667816Y-130213000D01*
X100832228Y-130245703D01*
G37*
G36*
X106409142Y-130282242D02*
G01*
X106557101Y-130343529D01*
X106690255Y-130432499D01*
X106803501Y-130545745D01*
X106892471Y-130678899D01*
X106953758Y-130826858D01*
X106985000Y-130983925D01*
X106985000Y-131144075D01*
X106953758Y-131301142D01*
X106892471Y-131449101D01*
X106803501Y-131582255D01*
X106690255Y-131695501D01*
X106557101Y-131784471D01*
X106409142Y-131845758D01*
X106252075Y-131877000D01*
X106091925Y-131877000D01*
X105934858Y-131845758D01*
X105786899Y-131784471D01*
X105653745Y-131695501D01*
X105540499Y-131582255D01*
X105451529Y-131449101D01*
X105390242Y-131301142D01*
X105359000Y-131144075D01*
X105359000Y-130983925D01*
X105390242Y-130826858D01*
X105451529Y-130678899D01*
X105540499Y-130545745D01*
X105653745Y-130432499D01*
X105786899Y-130343529D01*
X105934858Y-130282242D01*
X106091925Y-130251000D01*
X106252075Y-130251000D01*
X106409142Y-130282242D01*
G37*
G36*
X114029142Y-130282242D02*
G01*
X114177101Y-130343529D01*
X114310255Y-130432499D01*
X114423501Y-130545745D01*
X114512471Y-130678899D01*
X114573758Y-130826858D01*
X114605000Y-130983925D01*
X114605000Y-131144075D01*
X114573758Y-131301142D01*
X114512471Y-131449101D01*
X114423501Y-131582255D01*
X114310255Y-131695501D01*
X114177101Y-131784471D01*
X114029142Y-131845758D01*
X113872075Y-131877000D01*
X113711925Y-131877000D01*
X113554858Y-131845758D01*
X113406899Y-131784471D01*
X113273745Y-131695501D01*
X113160499Y-131582255D01*
X113071529Y-131449101D01*
X113010242Y-131301142D01*
X112979000Y-131144075D01*
X112979000Y-130983925D01*
X113010242Y-130826858D01*
X113071529Y-130678899D01*
X113160499Y-130545745D01*
X113273745Y-130432499D01*
X113406899Y-130343529D01*
X113554858Y-130282242D01*
X113711925Y-130251000D01*
X113872075Y-130251000D01*
X114029142Y-130282242D01*
G37*
G36*
X132727000Y-131838000D02*
G01*
X130925000Y-131838000D01*
X130925000Y-130036000D01*
X132727000Y-130036000D01*
X132727000Y-131838000D01*
G37*
G36*
X61193642Y-130093781D02*
G01*
X61339414Y-130154162D01*
X61339416Y-130154163D01*
X61470608Y-130241822D01*
X61582178Y-130353392D01*
X61661552Y-130472185D01*
X61669838Y-130484586D01*
X61730219Y-130630358D01*
X61761000Y-130785107D01*
X61761000Y-130942893D01*
X61730219Y-131097642D01*
X61680773Y-131217015D01*
X61669837Y-131243416D01*
X61582178Y-131374608D01*
X61470608Y-131486178D01*
X61339416Y-131573837D01*
X61339415Y-131573838D01*
X61339414Y-131573838D01*
X61193642Y-131634219D01*
X61038893Y-131665000D01*
X60881107Y-131665000D01*
X60726358Y-131634219D01*
X60580586Y-131573838D01*
X60580585Y-131573838D01*
X60580584Y-131573837D01*
X60449392Y-131486178D01*
X60337822Y-131374608D01*
X60250163Y-131243416D01*
X60239227Y-131217015D01*
X60189781Y-131097642D01*
X60159000Y-130942893D01*
X60159000Y-130785107D01*
X60189781Y-130630358D01*
X60250162Y-130484586D01*
X60258448Y-130472185D01*
X60337822Y-130353392D01*
X60449392Y-130241822D01*
X60580584Y-130154163D01*
X60580586Y-130154162D01*
X60726358Y-130093781D01*
X60881107Y-130063000D01*
X61038893Y-130063000D01*
X61193642Y-130093781D01*
G37*
G36*
X54096228Y-129737703D02*
G01*
X54251100Y-129801853D01*
X54390481Y-129894985D01*
X54509015Y-130013519D01*
X54602147Y-130152900D01*
X54666297Y-130307772D01*
X54699000Y-130472184D01*
X54699000Y-130639816D01*
X54666297Y-130804228D01*
X54602147Y-130959100D01*
X54509015Y-131098481D01*
X54390481Y-131217015D01*
X54251100Y-131310147D01*
X54096228Y-131374297D01*
X53931816Y-131407000D01*
X53764184Y-131407000D01*
X53599772Y-131374297D01*
X53444900Y-131310147D01*
X53305519Y-131217015D01*
X53186985Y-131098481D01*
X53093853Y-130959100D01*
X53029703Y-130804228D01*
X52997000Y-130639816D01*
X52997000Y-130472184D01*
X53029703Y-130307772D01*
X53093853Y-130152900D01*
X53186985Y-130013519D01*
X53305519Y-129894985D01*
X53444900Y-129801853D01*
X53599772Y-129737703D01*
X53764184Y-129705000D01*
X53931816Y-129705000D01*
X54096228Y-129737703D01*
G37*
G36*
X38856228Y-129737703D02*
G01*
X39011100Y-129801853D01*
X39150481Y-129894985D01*
X39269015Y-130013519D01*
X39362147Y-130152900D01*
X39426297Y-130307772D01*
X39459000Y-130472184D01*
X39459000Y-130639816D01*
X39426297Y-130804228D01*
X39362147Y-130959100D01*
X39269015Y-131098481D01*
X39150481Y-131217015D01*
X39011100Y-131310147D01*
X38856228Y-131374297D01*
X38691816Y-131407000D01*
X38524184Y-131407000D01*
X38359772Y-131374297D01*
X38204900Y-131310147D01*
X38065519Y-131217015D01*
X37946985Y-131098481D01*
X37853853Y-130959100D01*
X37789703Y-130804228D01*
X37757000Y-130639816D01*
X37757000Y-130472184D01*
X37789703Y-130307772D01*
X37853853Y-130152900D01*
X37946985Y-130013519D01*
X38065519Y-129894985D01*
X38204900Y-129801853D01*
X38359772Y-129737703D01*
X38524184Y-129705000D01*
X38691816Y-129705000D01*
X38856228Y-129737703D01*
G37*
G36*
X94736228Y-127705703D02*
G01*
X94891100Y-127769853D01*
X95030481Y-127862985D01*
X95149015Y-127981519D01*
X95242147Y-128120900D01*
X95306297Y-128275772D01*
X95339000Y-128440184D01*
X95339000Y-128607816D01*
X95306297Y-128772228D01*
X95242147Y-128927100D01*
X95149015Y-129066481D01*
X95030481Y-129185015D01*
X94891100Y-129278147D01*
X94736228Y-129342297D01*
X94571816Y-129375000D01*
X94404184Y-129375000D01*
X94239772Y-129342297D01*
X94084900Y-129278147D01*
X93945519Y-129185015D01*
X93826985Y-129066481D01*
X93733853Y-128927100D01*
X93669703Y-128772228D01*
X93637000Y-128607816D01*
X93637000Y-128440184D01*
X93669703Y-128275772D01*
X93733853Y-128120900D01*
X93826985Y-127981519D01*
X93945519Y-127862985D01*
X94084900Y-127769853D01*
X94239772Y-127705703D01*
X94404184Y-127673000D01*
X94571816Y-127673000D01*
X94736228Y-127705703D01*
G37*
G36*
X114029142Y-127742242D02*
G01*
X114177101Y-127803529D01*
X114310255Y-127892499D01*
X114423501Y-128005745D01*
X114512471Y-128138899D01*
X114573758Y-128286858D01*
X114605000Y-128443925D01*
X114605000Y-128604075D01*
X114573758Y-128761142D01*
X114512471Y-128909101D01*
X114423501Y-129042255D01*
X114310255Y-129155501D01*
X114177101Y-129244471D01*
X114029142Y-129305758D01*
X113872075Y-129337000D01*
X113711925Y-129337000D01*
X113554858Y-129305758D01*
X113406899Y-129244471D01*
X113273745Y-129155501D01*
X113160499Y-129042255D01*
X113071529Y-128909101D01*
X113010242Y-128761142D01*
X112979000Y-128604075D01*
X112979000Y-128443925D01*
X113010242Y-128286858D01*
X113071529Y-128138899D01*
X113160499Y-128005745D01*
X113273745Y-127892499D01*
X113406899Y-127803529D01*
X113554858Y-127742242D01*
X113711925Y-127711000D01*
X113872075Y-127711000D01*
X114029142Y-127742242D01*
G37*
G36*
X106409142Y-127742242D02*
G01*
X106557101Y-127803529D01*
X106690255Y-127892499D01*
X106803501Y-128005745D01*
X106892471Y-128138899D01*
X106953758Y-128286858D01*
X106985000Y-128443925D01*
X106985000Y-128604075D01*
X106953758Y-128761142D01*
X106892471Y-128909101D01*
X106803501Y-129042255D01*
X106690255Y-129155501D01*
X106557101Y-129244471D01*
X106409142Y-129305758D01*
X106252075Y-129337000D01*
X106091925Y-129337000D01*
X105934858Y-129305758D01*
X105786899Y-129244471D01*
X105653745Y-129155501D01*
X105540499Y-129042255D01*
X105451529Y-128909101D01*
X105390242Y-128761142D01*
X105359000Y-128604075D01*
X105359000Y-128443925D01*
X105390242Y-128286858D01*
X105451529Y-128138899D01*
X105540499Y-128005745D01*
X105653745Y-127892499D01*
X105786899Y-127803529D01*
X105934858Y-127742242D01*
X106091925Y-127711000D01*
X106252075Y-127711000D01*
X106409142Y-127742242D01*
G37*
G36*
X126232228Y-127625703D02*
G01*
X126387100Y-127689853D01*
X126526481Y-127782985D01*
X126645015Y-127901519D01*
X126738147Y-128040900D01*
X126802297Y-128195772D01*
X126835000Y-128360184D01*
X126835000Y-128527816D01*
X126802297Y-128692228D01*
X126738147Y-128847100D01*
X126645015Y-128986481D01*
X126526481Y-129105015D01*
X126387100Y-129198147D01*
X126232228Y-129262297D01*
X126067816Y-129295000D01*
X125900184Y-129295000D01*
X125735772Y-129262297D01*
X125580900Y-129198147D01*
X125441519Y-129105015D01*
X125322985Y-128986481D01*
X125229853Y-128847100D01*
X125165703Y-128692228D01*
X125133000Y-128527816D01*
X125133000Y-128360184D01*
X125165703Y-128195772D01*
X125229853Y-128040900D01*
X125322985Y-127901519D01*
X125441519Y-127782985D01*
X125580900Y-127689853D01*
X125735772Y-127625703D01*
X125900184Y-127593000D01*
X126067816Y-127593000D01*
X126232228Y-127625703D01*
G37*
G36*
X67812228Y-127277703D02*
G01*
X67967100Y-127341853D01*
X68106481Y-127434985D01*
X68225015Y-127553519D01*
X68318147Y-127692900D01*
X68382297Y-127847772D01*
X68415000Y-128012184D01*
X68415000Y-128179816D01*
X68382297Y-128344228D01*
X68318147Y-128499100D01*
X68225015Y-128638481D01*
X68106481Y-128757015D01*
X67967100Y-128850147D01*
X67812228Y-128914297D01*
X67647816Y-128947000D01*
X67480184Y-128947000D01*
X67315772Y-128914297D01*
X67160900Y-128850147D01*
X67021519Y-128757015D01*
X66902985Y-128638481D01*
X66809853Y-128499100D01*
X66745703Y-128344228D01*
X66713000Y-128179816D01*
X66713000Y-128012184D01*
X66745703Y-127847772D01*
X66809853Y-127692900D01*
X66902985Y-127553519D01*
X67021519Y-127434985D01*
X67160900Y-127341853D01*
X67315772Y-127277703D01*
X67480184Y-127245000D01*
X67647816Y-127245000D01*
X67812228Y-127277703D01*
G37*
G36*
X54096228Y-127197703D02*
G01*
X54251100Y-127261853D01*
X54390481Y-127354985D01*
X54509015Y-127473519D01*
X54602147Y-127612900D01*
X54666297Y-127767772D01*
X54699000Y-127932184D01*
X54699000Y-128099816D01*
X54666297Y-128264228D01*
X54602147Y-128419100D01*
X54509015Y-128558481D01*
X54390481Y-128677015D01*
X54251100Y-128770147D01*
X54096228Y-128834297D01*
X53931816Y-128867000D01*
X53764184Y-128867000D01*
X53599772Y-128834297D01*
X53444900Y-128770147D01*
X53305519Y-128677015D01*
X53186985Y-128558481D01*
X53093853Y-128419100D01*
X53029703Y-128264228D01*
X52997000Y-128099816D01*
X52997000Y-127932184D01*
X53029703Y-127767772D01*
X53093853Y-127612900D01*
X53186985Y-127473519D01*
X53305519Y-127354985D01*
X53444900Y-127261853D01*
X53599772Y-127197703D01*
X53764184Y-127165000D01*
X53931816Y-127165000D01*
X54096228Y-127197703D01*
G37*
G36*
X38856228Y-127197703D02*
G01*
X39011100Y-127261853D01*
X39150481Y-127354985D01*
X39269015Y-127473519D01*
X39362147Y-127612900D01*
X39426297Y-127767772D01*
X39459000Y-127932184D01*
X39459000Y-128099816D01*
X39426297Y-128264228D01*
X39362147Y-128419100D01*
X39269015Y-128558481D01*
X39150481Y-128677015D01*
X39011100Y-128770147D01*
X38856228Y-128834297D01*
X38691816Y-128867000D01*
X38524184Y-128867000D01*
X38359772Y-128834297D01*
X38204900Y-128770147D01*
X38065519Y-128677015D01*
X37946985Y-128558481D01*
X37853853Y-128419100D01*
X37789703Y-128264228D01*
X37757000Y-128099816D01*
X37757000Y-127932184D01*
X37789703Y-127767772D01*
X37853853Y-127612900D01*
X37946985Y-127473519D01*
X38065519Y-127354985D01*
X38204900Y-127261853D01*
X38359772Y-127197703D01*
X38524184Y-127165000D01*
X38691816Y-127165000D01*
X38856228Y-127197703D01*
G37*
G36*
X106985000Y-126797000D02*
G01*
X105359000Y-126797000D01*
X105359000Y-125171000D01*
X106985000Y-125171000D01*
X106985000Y-126797000D01*
G37*
G36*
X114029142Y-125202242D02*
G01*
X114177101Y-125263529D01*
X114310255Y-125352499D01*
X114423501Y-125465745D01*
X114512471Y-125598899D01*
X114573758Y-125746858D01*
X114605000Y-125903925D01*
X114605000Y-126064075D01*
X114573758Y-126221142D01*
X114512471Y-126369101D01*
X114423501Y-126502255D01*
X114310255Y-126615501D01*
X114177101Y-126704471D01*
X114029142Y-126765758D01*
X113872075Y-126797000D01*
X113711925Y-126797000D01*
X113554858Y-126765758D01*
X113406899Y-126704471D01*
X113273745Y-126615501D01*
X113160499Y-126502255D01*
X113071529Y-126369101D01*
X113010242Y-126221142D01*
X112979000Y-126064075D01*
X112979000Y-125903925D01*
X113010242Y-125746858D01*
X113071529Y-125598899D01*
X113160499Y-125465745D01*
X113273745Y-125352499D01*
X113406899Y-125263529D01*
X113554858Y-125202242D01*
X113711925Y-125171000D01*
X113872075Y-125171000D01*
X114029142Y-125202242D01*
G37*
G36*
X61193642Y-125213781D02*
G01*
X61339414Y-125274162D01*
X61339416Y-125274163D01*
X61470608Y-125361822D01*
X61582178Y-125473392D01*
X61639924Y-125559816D01*
X61669838Y-125604586D01*
X61730219Y-125750358D01*
X61761000Y-125905107D01*
X61761000Y-126062893D01*
X61730219Y-126217642D01*
X61698468Y-126294295D01*
X61669837Y-126363416D01*
X61582178Y-126494608D01*
X61470608Y-126606178D01*
X61339416Y-126693837D01*
X61339415Y-126693838D01*
X61339414Y-126693838D01*
X61193642Y-126754219D01*
X61038893Y-126785000D01*
X60881107Y-126785000D01*
X60726358Y-126754219D01*
X60580586Y-126693838D01*
X60580585Y-126693838D01*
X60580584Y-126693837D01*
X60449392Y-126606178D01*
X60337822Y-126494608D01*
X60250163Y-126363416D01*
X60221532Y-126294295D01*
X60189781Y-126217642D01*
X60159000Y-126062893D01*
X60159000Y-125905107D01*
X60189781Y-125750358D01*
X60250162Y-125604586D01*
X60280076Y-125559816D01*
X60337822Y-125473392D01*
X60449392Y-125361822D01*
X60580584Y-125274163D01*
X60580586Y-125274162D01*
X60726358Y-125213781D01*
X60881107Y-125183000D01*
X61038893Y-125183000D01*
X61193642Y-125213781D01*
G37*
G36*
X54096228Y-124657703D02*
G01*
X54251100Y-124721853D01*
X54390481Y-124814985D01*
X54509015Y-124933519D01*
X54602147Y-125072900D01*
X54666297Y-125227772D01*
X54699000Y-125392184D01*
X54699000Y-125559816D01*
X54666297Y-125724228D01*
X54602147Y-125879100D01*
X54509015Y-126018481D01*
X54390481Y-126137015D01*
X54251100Y-126230147D01*
X54096228Y-126294297D01*
X53931816Y-126327000D01*
X53764184Y-126327000D01*
X53599772Y-126294297D01*
X53444900Y-126230147D01*
X53305519Y-126137015D01*
X53186985Y-126018481D01*
X53093853Y-125879100D01*
X53029703Y-125724228D01*
X52997000Y-125559816D01*
X52997000Y-125392184D01*
X53029703Y-125227772D01*
X53093853Y-125072900D01*
X53186985Y-124933519D01*
X53305519Y-124814985D01*
X53444900Y-124721853D01*
X53599772Y-124657703D01*
X53764184Y-124625000D01*
X53931816Y-124625000D01*
X54096228Y-124657703D01*
G37*
G36*
X38856228Y-124657703D02*
G01*
X39011100Y-124721853D01*
X39150481Y-124814985D01*
X39269015Y-124933519D01*
X39362147Y-125072900D01*
X39426297Y-125227772D01*
X39459000Y-125392184D01*
X39459000Y-125559816D01*
X39426297Y-125724228D01*
X39362147Y-125879100D01*
X39269015Y-126018481D01*
X39150481Y-126137015D01*
X39011100Y-126230147D01*
X38856228Y-126294297D01*
X38691816Y-126327000D01*
X38524184Y-126327000D01*
X38359772Y-126294297D01*
X38204900Y-126230147D01*
X38065519Y-126137015D01*
X37946985Y-126018481D01*
X37853853Y-125879100D01*
X37789703Y-125724228D01*
X37757000Y-125559816D01*
X37757000Y-125392184D01*
X37789703Y-125227772D01*
X37853853Y-125072900D01*
X37946985Y-124933519D01*
X38065519Y-124814985D01*
X38204900Y-124721853D01*
X38359772Y-124657703D01*
X38524184Y-124625000D01*
X38691816Y-124625000D01*
X38856228Y-124657703D01*
G37*
G36*
X94736228Y-122705703D02*
G01*
X94891100Y-122769853D01*
X95030481Y-122862985D01*
X95149015Y-122981519D01*
X95242147Y-123120900D01*
X95306297Y-123275772D01*
X95339000Y-123440184D01*
X95339000Y-123607816D01*
X95306297Y-123772228D01*
X95242147Y-123927100D01*
X95149015Y-124066481D01*
X95030481Y-124185015D01*
X94891100Y-124278147D01*
X94736228Y-124342297D01*
X94571816Y-124375000D01*
X94404184Y-124375000D01*
X94239772Y-124342297D01*
X94084900Y-124278147D01*
X93945519Y-124185015D01*
X93826985Y-124066481D01*
X93733853Y-123927100D01*
X93669703Y-123772228D01*
X93637000Y-123607816D01*
X93637000Y-123440184D01*
X93669703Y-123275772D01*
X93733853Y-123120900D01*
X93826985Y-122981519D01*
X93945519Y-122862985D01*
X94084900Y-122769853D01*
X94239772Y-122705703D01*
X94404184Y-122673000D01*
X94571816Y-122673000D01*
X94736228Y-122705703D01*
G37*
G36*
X100832228Y-122625703D02*
G01*
X100987100Y-122689853D01*
X101126481Y-122782985D01*
X101245015Y-122901519D01*
X101338147Y-123040900D01*
X101402297Y-123195772D01*
X101435000Y-123360184D01*
X101435000Y-123527816D01*
X101402297Y-123692228D01*
X101338147Y-123847100D01*
X101245015Y-123986481D01*
X101126481Y-124105015D01*
X100987100Y-124198147D01*
X100832228Y-124262297D01*
X100667816Y-124295000D01*
X100500184Y-124295000D01*
X100335772Y-124262297D01*
X100180900Y-124198147D01*
X100041519Y-124105015D01*
X99922985Y-123986481D01*
X99829853Y-123847100D01*
X99765703Y-123692228D01*
X99733000Y-123527816D01*
X99733000Y-123360184D01*
X99765703Y-123195772D01*
X99829853Y-123040900D01*
X99922985Y-122901519D01*
X100041519Y-122782985D01*
X100180900Y-122689853D01*
X100335772Y-122625703D01*
X100500184Y-122593000D01*
X100667816Y-122593000D01*
X100832228Y-122625703D01*
G37*
G36*
X126232228Y-122625703D02*
G01*
X126387100Y-122689853D01*
X126526481Y-122782985D01*
X126645015Y-122901519D01*
X126738147Y-123040900D01*
X126802297Y-123195772D01*
X126835000Y-123360184D01*
X126835000Y-123527816D01*
X126802297Y-123692228D01*
X126738147Y-123847100D01*
X126645015Y-123986481D01*
X126526481Y-124105015D01*
X126387100Y-124198147D01*
X126232228Y-124262297D01*
X126067816Y-124295000D01*
X125900184Y-124295000D01*
X125735772Y-124262297D01*
X125580900Y-124198147D01*
X125441519Y-124105015D01*
X125322985Y-123986481D01*
X125229853Y-123847100D01*
X125165703Y-123692228D01*
X125133000Y-123527816D01*
X125133000Y-123360184D01*
X125165703Y-123195772D01*
X125229853Y-123040900D01*
X125322985Y-122901519D01*
X125441519Y-122782985D01*
X125580900Y-122689853D01*
X125735772Y-122625703D01*
X125900184Y-122593000D01*
X126067816Y-122593000D01*
X126232228Y-122625703D01*
G37*
G36*
X120136228Y-122625703D02*
G01*
X120291100Y-122689853D01*
X120430481Y-122782985D01*
X120549015Y-122901519D01*
X120642147Y-123040900D01*
X120706297Y-123195772D01*
X120739000Y-123360184D01*
X120739000Y-123527816D01*
X120706297Y-123692228D01*
X120642147Y-123847100D01*
X120549015Y-123986481D01*
X120430481Y-124105015D01*
X120291100Y-124198147D01*
X120136228Y-124262297D01*
X119971816Y-124295000D01*
X119804184Y-124295000D01*
X119639772Y-124262297D01*
X119484900Y-124198147D01*
X119345519Y-124105015D01*
X119226985Y-123986481D01*
X119133853Y-123847100D01*
X119069703Y-123692228D01*
X119037000Y-123527816D01*
X119037000Y-123360184D01*
X119069703Y-123195772D01*
X119133853Y-123040900D01*
X119226985Y-122901519D01*
X119345519Y-122782985D01*
X119484900Y-122689853D01*
X119639772Y-122625703D01*
X119804184Y-122593000D01*
X119971816Y-122593000D01*
X120136228Y-122625703D01*
G37*
G36*
X54096228Y-122117703D02*
G01*
X54251100Y-122181853D01*
X54390481Y-122274985D01*
X54509015Y-122393519D01*
X54602147Y-122532900D01*
X54666297Y-122687772D01*
X54699000Y-122852184D01*
X54699000Y-123019816D01*
X54666297Y-123184228D01*
X54602147Y-123339100D01*
X54509015Y-123478481D01*
X54390481Y-123597015D01*
X54251100Y-123690147D01*
X54096228Y-123754297D01*
X53931816Y-123787000D01*
X53764184Y-123787000D01*
X53599772Y-123754297D01*
X53444900Y-123690147D01*
X53305519Y-123597015D01*
X53186985Y-123478481D01*
X53093853Y-123339100D01*
X53029703Y-123184228D01*
X52997000Y-123019816D01*
X52997000Y-122852184D01*
X53029703Y-122687772D01*
X53093853Y-122532900D01*
X53186985Y-122393519D01*
X53305519Y-122274985D01*
X53444900Y-122181853D01*
X53599772Y-122117703D01*
X53764184Y-122085000D01*
X53931816Y-122085000D01*
X54096228Y-122117703D01*
G37*
G36*
X38856228Y-122117703D02*
G01*
X39011100Y-122181853D01*
X39150481Y-122274985D01*
X39269015Y-122393519D01*
X39362147Y-122532900D01*
X39426297Y-122687772D01*
X39459000Y-122852184D01*
X39459000Y-123019816D01*
X39426297Y-123184228D01*
X39362147Y-123339100D01*
X39269015Y-123478481D01*
X39150481Y-123597015D01*
X39011100Y-123690147D01*
X38856228Y-123754297D01*
X38691816Y-123787000D01*
X38524184Y-123787000D01*
X38359772Y-123754297D01*
X38204900Y-123690147D01*
X38065519Y-123597015D01*
X37946985Y-123478481D01*
X37853853Y-123339100D01*
X37789703Y-123184228D01*
X37757000Y-123019816D01*
X37757000Y-122852184D01*
X37789703Y-122687772D01*
X37853853Y-122532900D01*
X37946985Y-122393519D01*
X38065519Y-122274985D01*
X38204900Y-122181853D01*
X38359772Y-122117703D01*
X38524184Y-122085000D01*
X38691816Y-122085000D01*
X38856228Y-122117703D01*
G37*
G36*
X112944228Y-120085703D02*
G01*
X113099100Y-120149853D01*
X113238481Y-120242985D01*
X113357015Y-120361519D01*
X113450147Y-120500900D01*
X113514297Y-120655772D01*
X113547000Y-120820184D01*
X113547000Y-120987816D01*
X113514297Y-121152228D01*
X113450147Y-121307100D01*
X113357015Y-121446481D01*
X113238481Y-121565015D01*
X113099100Y-121658147D01*
X112944228Y-121722297D01*
X112779816Y-121755000D01*
X112612184Y-121755000D01*
X112447772Y-121722297D01*
X112292900Y-121658147D01*
X112153519Y-121565015D01*
X112034985Y-121446481D01*
X111941853Y-121307100D01*
X111877703Y-121152228D01*
X111845000Y-120987816D01*
X111845000Y-120820184D01*
X111877703Y-120655772D01*
X111941853Y-120500900D01*
X112034985Y-120361519D01*
X112153519Y-120242985D01*
X112292900Y-120149853D01*
X112447772Y-120085703D01*
X112612184Y-120053000D01*
X112779816Y-120053000D01*
X112944228Y-120085703D01*
G37*
G36*
X107944228Y-120085703D02*
G01*
X108099100Y-120149853D01*
X108238481Y-120242985D01*
X108357015Y-120361519D01*
X108450147Y-120500900D01*
X108514297Y-120655772D01*
X108547000Y-120820184D01*
X108547000Y-120987816D01*
X108514297Y-121152228D01*
X108450147Y-121307100D01*
X108357015Y-121446481D01*
X108238481Y-121565015D01*
X108099100Y-121658147D01*
X107944228Y-121722297D01*
X107779816Y-121755000D01*
X107612184Y-121755000D01*
X107447772Y-121722297D01*
X107292900Y-121658147D01*
X107153519Y-121565015D01*
X107034985Y-121446481D01*
X106941853Y-121307100D01*
X106877703Y-121152228D01*
X106845000Y-120987816D01*
X106845000Y-120820184D01*
X106877703Y-120655772D01*
X106941853Y-120500900D01*
X107034985Y-120361519D01*
X107153519Y-120242985D01*
X107292900Y-120149853D01*
X107447772Y-120085703D01*
X107612184Y-120053000D01*
X107779816Y-120053000D01*
X107944228Y-120085703D01*
G37*
G36*
X54096228Y-119577703D02*
G01*
X54251100Y-119641853D01*
X54390481Y-119734985D01*
X54509015Y-119853519D01*
X54602147Y-119992900D01*
X54666297Y-120147772D01*
X54699000Y-120312184D01*
X54699000Y-120479816D01*
X54666297Y-120644228D01*
X54602147Y-120799100D01*
X54509015Y-120938481D01*
X54390481Y-121057015D01*
X54251100Y-121150147D01*
X54096228Y-121214297D01*
X53931816Y-121247000D01*
X53764184Y-121247000D01*
X53599772Y-121214297D01*
X53444900Y-121150147D01*
X53305519Y-121057015D01*
X53186985Y-120938481D01*
X53093853Y-120799100D01*
X53029703Y-120644228D01*
X52997000Y-120479816D01*
X52997000Y-120312184D01*
X53029703Y-120147772D01*
X53093853Y-119992900D01*
X53186985Y-119853519D01*
X53305519Y-119734985D01*
X53444900Y-119641853D01*
X53599772Y-119577703D01*
X53764184Y-119545000D01*
X53931816Y-119545000D01*
X54096228Y-119577703D01*
G37*
G36*
X94736228Y-119577703D02*
G01*
X94891100Y-119641853D01*
X95030481Y-119734985D01*
X95149015Y-119853519D01*
X95242147Y-119992900D01*
X95306297Y-120147772D01*
X95339000Y-120312184D01*
X95339000Y-120479816D01*
X95306297Y-120644228D01*
X95242147Y-120799100D01*
X95149015Y-120938481D01*
X95030481Y-121057015D01*
X94891100Y-121150147D01*
X94736228Y-121214297D01*
X94571816Y-121247000D01*
X94404184Y-121247000D01*
X94239772Y-121214297D01*
X94084900Y-121150147D01*
X93945519Y-121057015D01*
X93826985Y-120938481D01*
X93733853Y-120799100D01*
X93669703Y-120644228D01*
X93637000Y-120479816D01*
X93637000Y-120312184D01*
X93669703Y-120147772D01*
X93733853Y-119992900D01*
X93826985Y-119853519D01*
X93945519Y-119734985D01*
X94084900Y-119641853D01*
X94239772Y-119577703D01*
X94404184Y-119545000D01*
X94571816Y-119545000D01*
X94736228Y-119577703D01*
G37*
G36*
X126232228Y-119577703D02*
G01*
X126387100Y-119641853D01*
X126526481Y-119734985D01*
X126645015Y-119853519D01*
X126738147Y-119992900D01*
X126802297Y-120147772D01*
X126835000Y-120312184D01*
X126835000Y-120479816D01*
X126802297Y-120644228D01*
X126738147Y-120799100D01*
X126645015Y-120938481D01*
X126526481Y-121057015D01*
X126387100Y-121150147D01*
X126232228Y-121214297D01*
X126067816Y-121247000D01*
X125900184Y-121247000D01*
X125735772Y-121214297D01*
X125580900Y-121150147D01*
X125441519Y-121057015D01*
X125322985Y-120938481D01*
X125229853Y-120799100D01*
X125165703Y-120644228D01*
X125133000Y-120479816D01*
X125133000Y-120312184D01*
X125165703Y-120147772D01*
X125229853Y-119992900D01*
X125322985Y-119853519D01*
X125441519Y-119734985D01*
X125580900Y-119641853D01*
X125735772Y-119577703D01*
X125900184Y-119545000D01*
X126067816Y-119545000D01*
X126232228Y-119577703D01*
G37*
G36*
X39459000Y-121247000D02*
G01*
X37757000Y-121247000D01*
X37757000Y-119545000D01*
X39459000Y-119545000D01*
X39459000Y-121247000D01*
G37*
G36*
X58668228Y-116783703D02*
G01*
X58823100Y-116847853D01*
X58962481Y-116940985D01*
X59081015Y-117059519D01*
X59174147Y-117198900D01*
X59238297Y-117353772D01*
X59271000Y-117518184D01*
X59271000Y-117685816D01*
X59238297Y-117850228D01*
X59174147Y-118005100D01*
X59081015Y-118144481D01*
X58962481Y-118263015D01*
X58823100Y-118356147D01*
X58668228Y-118420297D01*
X58503816Y-118453000D01*
X58336184Y-118453000D01*
X58171772Y-118420297D01*
X58016900Y-118356147D01*
X57877519Y-118263015D01*
X57758985Y-118144481D01*
X57665853Y-118005100D01*
X57601703Y-117850228D01*
X57569000Y-117685816D01*
X57569000Y-117518184D01*
X57601703Y-117353772D01*
X57665853Y-117198900D01*
X57758985Y-117059519D01*
X57877519Y-116940985D01*
X58016900Y-116847853D01*
X58171772Y-116783703D01*
X58336184Y-116751000D01*
X58503816Y-116751000D01*
X58668228Y-116783703D01*
G37*
G36*
X63668228Y-116783703D02*
G01*
X63823100Y-116847853D01*
X63962481Y-116940985D01*
X64081015Y-117059519D01*
X64174147Y-117198900D01*
X64238297Y-117353772D01*
X64271000Y-117518184D01*
X64271000Y-117685816D01*
X64238297Y-117850228D01*
X64174147Y-118005100D01*
X64081015Y-118144481D01*
X63962481Y-118263015D01*
X63823100Y-118356147D01*
X63668228Y-118420297D01*
X63503816Y-118453000D01*
X63336184Y-118453000D01*
X63171772Y-118420297D01*
X63016900Y-118356147D01*
X62877519Y-118263015D01*
X62758985Y-118144481D01*
X62665853Y-118005100D01*
X62601703Y-117850228D01*
X62569000Y-117685816D01*
X62569000Y-117518184D01*
X62601703Y-117353772D01*
X62665853Y-117198900D01*
X62758985Y-117059519D01*
X62877519Y-116940985D01*
X63016900Y-116847853D01*
X63171772Y-116783703D01*
X63336184Y-116751000D01*
X63503816Y-116751000D01*
X63668228Y-116783703D01*
G37*
G36*
X46849512Y-112006927D02*
G01*
X46998812Y-112036624D01*
X47162784Y-112104544D01*
X47310354Y-112203147D01*
X47435853Y-112328646D01*
X47534456Y-112476216D01*
X47602376Y-112640188D01*
X47637000Y-112814259D01*
X47637000Y-112991741D01*
X47602376Y-113165812D01*
X47534456Y-113329784D01*
X47435853Y-113477354D01*
X47310354Y-113602853D01*
X47162784Y-113701456D01*
X46998812Y-113769376D01*
X46849512Y-113799073D01*
X46824742Y-113804000D01*
X46647258Y-113804000D01*
X46622488Y-113799073D01*
X46473188Y-113769376D01*
X46309216Y-113701456D01*
X46161646Y-113602853D01*
X46036147Y-113477354D01*
X45937544Y-113329784D01*
X45869624Y-113165812D01*
X45835000Y-112991741D01*
X45835000Y-112814259D01*
X45869624Y-112640188D01*
X45937544Y-112476216D01*
X46036147Y-112328646D01*
X46161646Y-112203147D01*
X46309216Y-112104544D01*
X46473188Y-112036624D01*
X46622488Y-112006927D01*
X46647258Y-112002000D01*
X46824742Y-112002000D01*
X46849512Y-112006927D01*
G37*
G36*
X90817000Y-113677000D02*
G01*
X89015000Y-113677000D01*
X89015000Y-111875000D01*
X90817000Y-111875000D01*
X90817000Y-113677000D01*
G37*
G36*
X132727000Y-113677000D02*
G01*
X130925000Y-113677000D01*
X130925000Y-111875000D01*
X132727000Y-111875000D01*
X132727000Y-113677000D01*
G37*
G36*
X94736228Y-111957703D02*
G01*
X94891100Y-112021853D01*
X95030481Y-112114985D01*
X95149015Y-112233519D01*
X95242147Y-112372900D01*
X95306297Y-112527772D01*
X95339000Y-112692184D01*
X95339000Y-112859816D01*
X95306297Y-113024228D01*
X95242147Y-113179100D01*
X95149015Y-113318481D01*
X95030481Y-113437015D01*
X94891100Y-113530147D01*
X94736228Y-113594297D01*
X94571816Y-113627000D01*
X94404184Y-113627000D01*
X94239772Y-113594297D01*
X94084900Y-113530147D01*
X93945519Y-113437015D01*
X93826985Y-113318481D01*
X93733853Y-113179100D01*
X93669703Y-113024228D01*
X93637000Y-112859816D01*
X93637000Y-112692184D01*
X93669703Y-112527772D01*
X93733853Y-112372900D01*
X93826985Y-112233519D01*
X93945519Y-112114985D01*
X94084900Y-112021853D01*
X94239772Y-111957703D01*
X94404184Y-111925000D01*
X94571816Y-111925000D01*
X94736228Y-111957703D01*
G37*
G36*
X126232228Y-111957703D02*
G01*
X126387100Y-112021853D01*
X126526481Y-112114985D01*
X126645015Y-112233519D01*
X126738147Y-112372900D01*
X126802297Y-112527772D01*
X126835000Y-112692184D01*
X126835000Y-112859816D01*
X126802297Y-113024228D01*
X126738147Y-113179100D01*
X126645015Y-113318481D01*
X126526481Y-113437015D01*
X126387100Y-113530147D01*
X126232228Y-113594297D01*
X126067816Y-113627000D01*
X125900184Y-113627000D01*
X125735772Y-113594297D01*
X125580900Y-113530147D01*
X125441519Y-113437015D01*
X125322985Y-113318481D01*
X125229853Y-113179100D01*
X125165703Y-113024228D01*
X125133000Y-112859816D01*
X125133000Y-112692184D01*
X125165703Y-112527772D01*
X125229853Y-112372900D01*
X125322985Y-112233519D01*
X125441519Y-112114985D01*
X125580900Y-112021853D01*
X125735772Y-111957703D01*
X125900184Y-111925000D01*
X126067816Y-111925000D01*
X126232228Y-111957703D01*
G37*
G36*
X47637000Y-111264000D02*
G01*
X45835000Y-111264000D01*
X45835000Y-109462000D01*
X47637000Y-109462000D01*
X47637000Y-111264000D01*
G37*
G36*
X67304228Y-107813703D02*
G01*
X67459100Y-107877853D01*
X67598481Y-107970985D01*
X67717015Y-108089519D01*
X67810147Y-108228900D01*
X67874297Y-108383772D01*
X67907000Y-108548184D01*
X67907000Y-108715816D01*
X67874297Y-108880228D01*
X67810147Y-109035100D01*
X67717015Y-109174481D01*
X67598481Y-109293015D01*
X67459100Y-109386147D01*
X67304228Y-109450297D01*
X67139816Y-109483000D01*
X66972184Y-109483000D01*
X66807772Y-109450297D01*
X66652900Y-109386147D01*
X66513519Y-109293015D01*
X66394985Y-109174481D01*
X66301853Y-109035100D01*
X66237703Y-108880228D01*
X66205000Y-108715816D01*
X66205000Y-108548184D01*
X66237703Y-108383772D01*
X66301853Y-108228900D01*
X66394985Y-108089519D01*
X66513519Y-107970985D01*
X66652900Y-107877853D01*
X66807772Y-107813703D01*
X66972184Y-107781000D01*
X67139816Y-107781000D01*
X67304228Y-107813703D01*
G37*
G36*
X78226228Y-107131703D02*
G01*
X78381100Y-107195853D01*
X78520481Y-107288985D01*
X78639015Y-107407519D01*
X78732147Y-107546900D01*
X78796297Y-107701772D01*
X78829000Y-107866184D01*
X78829000Y-108033816D01*
X78796297Y-108198228D01*
X78732147Y-108353100D01*
X78639015Y-108492481D01*
X78520481Y-108611015D01*
X78381100Y-108704147D01*
X78226228Y-108768297D01*
X78061816Y-108801000D01*
X77894184Y-108801000D01*
X77729772Y-108768297D01*
X77574900Y-108704147D01*
X77435519Y-108611015D01*
X77316985Y-108492481D01*
X77223853Y-108353100D01*
X77159703Y-108198228D01*
X77127000Y-108033816D01*
X77127000Y-107866184D01*
X77159703Y-107701772D01*
X77223853Y-107546900D01*
X77316985Y-107407519D01*
X77435519Y-107288985D01*
X77574900Y-107195853D01*
X77729772Y-107131703D01*
X77894184Y-107099000D01*
X78061816Y-107099000D01*
X78226228Y-107131703D01*
G37*
G36*
X59811228Y-106115703D02*
G01*
X59966100Y-106179853D01*
X60105481Y-106272985D01*
X60224015Y-106391519D01*
X60317147Y-106530900D01*
X60381297Y-106685772D01*
X60414000Y-106850184D01*
X60414000Y-107017816D01*
X60381297Y-107182228D01*
X60317147Y-107337100D01*
X60224015Y-107476481D01*
X60105481Y-107595015D01*
X59966100Y-107688147D01*
X59811228Y-107752297D01*
X59646816Y-107785000D01*
X59479184Y-107785000D01*
X59314772Y-107752297D01*
X59159900Y-107688147D01*
X59020519Y-107595015D01*
X58901985Y-107476481D01*
X58808853Y-107337100D01*
X58744703Y-107182228D01*
X58712000Y-107017816D01*
X58712000Y-106850184D01*
X58744703Y-106685772D01*
X58808853Y-106530900D01*
X58901985Y-106391519D01*
X59020519Y-106272985D01*
X59159900Y-106179853D01*
X59314772Y-106115703D01*
X59479184Y-106083000D01*
X59646816Y-106083000D01*
X59811228Y-106115703D01*
G37*
G36*
X61811228Y-106115703D02*
G01*
X61966100Y-106179853D01*
X62105481Y-106272985D01*
X62224015Y-106391519D01*
X62317147Y-106530900D01*
X62381297Y-106685772D01*
X62414000Y-106850184D01*
X62414000Y-107017816D01*
X62381297Y-107182228D01*
X62317147Y-107337100D01*
X62224015Y-107476481D01*
X62105481Y-107595015D01*
X61966100Y-107688147D01*
X61811228Y-107752297D01*
X61646816Y-107785000D01*
X61479184Y-107785000D01*
X61314772Y-107752297D01*
X61159900Y-107688147D01*
X61020519Y-107595015D01*
X60901985Y-107476481D01*
X60808853Y-107337100D01*
X60744703Y-107182228D01*
X60712000Y-107017816D01*
X60712000Y-106850184D01*
X60744703Y-106685772D01*
X60808853Y-106530900D01*
X60901985Y-106391519D01*
X61020519Y-106272985D01*
X61159900Y-106179853D01*
X61314772Y-106115703D01*
X61479184Y-106083000D01*
X61646816Y-106083000D01*
X61811228Y-106115703D01*
G37*
G36*
X113162928Y-104829764D02*
G01*
X113184009Y-104836160D01*
X113203445Y-104846548D01*
X113220476Y-104860524D01*
X113234452Y-104877555D01*
X113244840Y-104896991D01*
X113251236Y-104918072D01*
X113254000Y-104946140D01*
X113254000Y-106759860D01*
X113251236Y-106787928D01*
X113244840Y-106809009D01*
X113234452Y-106828445D01*
X113220476Y-106845476D01*
X113203445Y-106859452D01*
X113184009Y-106869840D01*
X113162928Y-106876236D01*
X113134860Y-106879000D01*
X112671140Y-106879000D01*
X112643072Y-106876236D01*
X112621991Y-106869840D01*
X112602555Y-106859452D01*
X112585524Y-106845476D01*
X112571548Y-106828445D01*
X112561160Y-106809009D01*
X112554764Y-106787928D01*
X112552000Y-106759860D01*
X112552000Y-104946140D01*
X112554764Y-104918072D01*
X112561160Y-104896991D01*
X112571548Y-104877555D01*
X112585524Y-104860524D01*
X112602555Y-104846548D01*
X112621991Y-104836160D01*
X112643072Y-104829764D01*
X112671140Y-104827000D01*
X113134860Y-104827000D01*
X113162928Y-104829764D01*
G37*
G36*
X114432928Y-104829764D02*
G01*
X114454009Y-104836160D01*
X114473445Y-104846548D01*
X114490476Y-104860524D01*
X114504452Y-104877555D01*
X114514840Y-104896991D01*
X114521236Y-104918072D01*
X114524000Y-104946140D01*
X114524000Y-106759860D01*
X114521236Y-106787928D01*
X114514840Y-106809009D01*
X114504452Y-106828445D01*
X114490476Y-106845476D01*
X114473445Y-106859452D01*
X114454009Y-106869840D01*
X114432928Y-106876236D01*
X114404860Y-106879000D01*
X113941140Y-106879000D01*
X113913072Y-106876236D01*
X113891991Y-106869840D01*
X113872555Y-106859452D01*
X113855524Y-106845476D01*
X113841548Y-106828445D01*
X113831160Y-106809009D01*
X113824764Y-106787928D01*
X113822000Y-106759860D01*
X113822000Y-104946140D01*
X113824764Y-104918072D01*
X113831160Y-104896991D01*
X113841548Y-104877555D01*
X113855524Y-104860524D01*
X113872555Y-104846548D01*
X113891991Y-104836160D01*
X113913072Y-104829764D01*
X113941140Y-104827000D01*
X114404860Y-104827000D01*
X114432928Y-104829764D01*
G37*
G36*
X111892928Y-104829764D02*
G01*
X111914009Y-104836160D01*
X111933445Y-104846548D01*
X111950476Y-104860524D01*
X111964452Y-104877555D01*
X111974840Y-104896991D01*
X111981236Y-104918072D01*
X111984000Y-104946140D01*
X111984000Y-106759860D01*
X111981236Y-106787928D01*
X111974840Y-106809009D01*
X111964452Y-106828445D01*
X111950476Y-106845476D01*
X111933445Y-106859452D01*
X111914009Y-106869840D01*
X111892928Y-106876236D01*
X111864860Y-106879000D01*
X111401140Y-106879000D01*
X111373072Y-106876236D01*
X111351991Y-106869840D01*
X111332555Y-106859452D01*
X111315524Y-106845476D01*
X111301548Y-106828445D01*
X111291160Y-106809009D01*
X111284764Y-106787928D01*
X111282000Y-106759860D01*
X111282000Y-104946140D01*
X111284764Y-104918072D01*
X111291160Y-104896991D01*
X111301548Y-104877555D01*
X111315524Y-104860524D01*
X111332555Y-104846548D01*
X111351991Y-104836160D01*
X111373072Y-104829764D01*
X111401140Y-104827000D01*
X111864860Y-104827000D01*
X111892928Y-104829764D01*
G37*
G36*
X110622928Y-104829764D02*
G01*
X110644009Y-104836160D01*
X110663445Y-104846548D01*
X110680476Y-104860524D01*
X110694452Y-104877555D01*
X110704840Y-104896991D01*
X110711236Y-104918072D01*
X110714000Y-104946140D01*
X110714000Y-106759860D01*
X110711236Y-106787928D01*
X110704840Y-106809009D01*
X110694452Y-106828445D01*
X110680476Y-106845476D01*
X110663445Y-106859452D01*
X110644009Y-106869840D01*
X110622928Y-106876236D01*
X110594860Y-106879000D01*
X110131140Y-106879000D01*
X110103072Y-106876236D01*
X110081991Y-106869840D01*
X110062555Y-106859452D01*
X110045524Y-106845476D01*
X110031548Y-106828445D01*
X110021160Y-106809009D01*
X110014764Y-106787928D01*
X110012000Y-106759860D01*
X110012000Y-104946140D01*
X110014764Y-104918072D01*
X110021160Y-104896991D01*
X110031548Y-104877555D01*
X110045524Y-104860524D01*
X110062555Y-104846548D01*
X110081991Y-104836160D01*
X110103072Y-104829764D01*
X110131140Y-104827000D01*
X110594860Y-104827000D01*
X110622928Y-104829764D01*
G37*
G36*
X109352928Y-104829764D02*
G01*
X109374009Y-104836160D01*
X109393445Y-104846548D01*
X109410476Y-104860524D01*
X109424452Y-104877555D01*
X109434840Y-104896991D01*
X109441236Y-104918072D01*
X109444000Y-104946140D01*
X109444000Y-106759860D01*
X109441236Y-106787928D01*
X109434840Y-106809009D01*
X109424452Y-106828445D01*
X109410476Y-106845476D01*
X109393445Y-106859452D01*
X109374009Y-106869840D01*
X109352928Y-106876236D01*
X109324860Y-106879000D01*
X108861140Y-106879000D01*
X108833072Y-106876236D01*
X108811991Y-106869840D01*
X108792555Y-106859452D01*
X108775524Y-106845476D01*
X108761548Y-106828445D01*
X108751160Y-106809009D01*
X108744764Y-106787928D01*
X108742000Y-106759860D01*
X108742000Y-104946140D01*
X108744764Y-104918072D01*
X108751160Y-104896991D01*
X108761548Y-104877555D01*
X108775524Y-104860524D01*
X108792555Y-104846548D01*
X108811991Y-104836160D01*
X108833072Y-104829764D01*
X108861140Y-104827000D01*
X109324860Y-104827000D01*
X109352928Y-104829764D01*
G37*
G36*
X108082928Y-104829764D02*
G01*
X108104009Y-104836160D01*
X108123445Y-104846548D01*
X108140476Y-104860524D01*
X108154452Y-104877555D01*
X108164840Y-104896991D01*
X108171236Y-104918072D01*
X108174000Y-104946140D01*
X108174000Y-106759860D01*
X108171236Y-106787928D01*
X108164840Y-106809009D01*
X108154452Y-106828445D01*
X108140476Y-106845476D01*
X108123445Y-106859452D01*
X108104009Y-106869840D01*
X108082928Y-106876236D01*
X108054860Y-106879000D01*
X107591140Y-106879000D01*
X107563072Y-106876236D01*
X107541991Y-106869840D01*
X107522555Y-106859452D01*
X107505524Y-106845476D01*
X107491548Y-106828445D01*
X107481160Y-106809009D01*
X107474764Y-106787928D01*
X107472000Y-106759860D01*
X107472000Y-104946140D01*
X107474764Y-104918072D01*
X107481160Y-104896991D01*
X107491548Y-104877555D01*
X107505524Y-104860524D01*
X107522555Y-104846548D01*
X107541991Y-104836160D01*
X107563072Y-104829764D01*
X107591140Y-104827000D01*
X108054860Y-104827000D01*
X108082928Y-104829764D01*
G37*
G36*
X106812928Y-104829764D02*
G01*
X106834009Y-104836160D01*
X106853445Y-104846548D01*
X106870476Y-104860524D01*
X106884452Y-104877555D01*
X106894840Y-104896991D01*
X106901236Y-104918072D01*
X106904000Y-104946140D01*
X106904000Y-106759860D01*
X106901236Y-106787928D01*
X106894840Y-106809009D01*
X106884452Y-106828445D01*
X106870476Y-106845476D01*
X106853445Y-106859452D01*
X106834009Y-106869840D01*
X106812928Y-106876236D01*
X106784860Y-106879000D01*
X106321140Y-106879000D01*
X106293072Y-106876236D01*
X106271991Y-106869840D01*
X106252555Y-106859452D01*
X106235524Y-106845476D01*
X106221548Y-106828445D01*
X106211160Y-106809009D01*
X106204764Y-106787928D01*
X106202000Y-106759860D01*
X106202000Y-104946140D01*
X106204764Y-104918072D01*
X106211160Y-104896991D01*
X106221548Y-104877555D01*
X106235524Y-104860524D01*
X106252555Y-104846548D01*
X106271991Y-104836160D01*
X106293072Y-104829764D01*
X106321140Y-104827000D01*
X106784860Y-104827000D01*
X106812928Y-104829764D01*
G37*
G36*
X105542928Y-104829764D02*
G01*
X105564009Y-104836160D01*
X105583445Y-104846548D01*
X105600476Y-104860524D01*
X105614452Y-104877555D01*
X105624840Y-104896991D01*
X105631236Y-104918072D01*
X105634000Y-104946140D01*
X105634000Y-106759860D01*
X105631236Y-106787928D01*
X105624840Y-106809009D01*
X105614452Y-106828445D01*
X105600476Y-106845476D01*
X105583445Y-106859452D01*
X105564009Y-106869840D01*
X105542928Y-106876236D01*
X105514860Y-106879000D01*
X105051140Y-106879000D01*
X105023072Y-106876236D01*
X105001991Y-106869840D01*
X104982555Y-106859452D01*
X104965524Y-106845476D01*
X104951548Y-106828445D01*
X104941160Y-106809009D01*
X104934764Y-106787928D01*
X104932000Y-106759860D01*
X104932000Y-104946140D01*
X104934764Y-104918072D01*
X104941160Y-104896991D01*
X104951548Y-104877555D01*
X104965524Y-104860524D01*
X104982555Y-104846548D01*
X105001991Y-104836160D01*
X105023072Y-104829764D01*
X105051140Y-104827000D01*
X105514860Y-104827000D01*
X105542928Y-104829764D01*
G37*
G36*
X101086228Y-105019703D02*
G01*
X101241100Y-105083853D01*
X101380481Y-105176985D01*
X101499015Y-105295519D01*
X101592147Y-105434900D01*
X101656297Y-105589772D01*
X101689000Y-105754184D01*
X101689000Y-105921816D01*
X101656297Y-106086228D01*
X101592147Y-106241100D01*
X101499015Y-106380481D01*
X101380481Y-106499015D01*
X101241100Y-106592147D01*
X101086228Y-106656297D01*
X100921816Y-106689000D01*
X100754184Y-106689000D01*
X100589772Y-106656297D01*
X100434900Y-106592147D01*
X100295519Y-106499015D01*
X100176985Y-106380481D01*
X100083853Y-106241100D01*
X100019703Y-106086228D01*
X99987000Y-105921816D01*
X99987000Y-105754184D01*
X100019703Y-105589772D01*
X100083853Y-105434900D01*
X100176985Y-105295519D01*
X100295519Y-105176985D01*
X100434900Y-105083853D01*
X100589772Y-105019703D01*
X100754184Y-104987000D01*
X100921816Y-104987000D01*
X101086228Y-105019703D01*
G37*
G36*
X67304228Y-102813703D02*
G01*
X67459100Y-102877853D01*
X67598481Y-102970985D01*
X67717015Y-103089519D01*
X67810147Y-103228900D01*
X67874297Y-103383772D01*
X67907000Y-103548184D01*
X67907000Y-103715816D01*
X67874297Y-103880228D01*
X67810147Y-104035100D01*
X67717015Y-104174481D01*
X67598481Y-104293015D01*
X67459100Y-104386147D01*
X67304228Y-104450297D01*
X67139816Y-104483000D01*
X66972184Y-104483000D01*
X66807772Y-104450297D01*
X66652900Y-104386147D01*
X66513519Y-104293015D01*
X66394985Y-104174481D01*
X66301853Y-104035100D01*
X66237703Y-103880228D01*
X66205000Y-103715816D01*
X66205000Y-103548184D01*
X66237703Y-103383772D01*
X66301853Y-103228900D01*
X66394985Y-103089519D01*
X66513519Y-102970985D01*
X66652900Y-102877853D01*
X66807772Y-102813703D01*
X66972184Y-102781000D01*
X67139816Y-102781000D01*
X67304228Y-102813703D01*
G37*
G36*
X58922228Y-100273703D02*
G01*
X59077100Y-100337853D01*
X59216481Y-100430985D01*
X59335015Y-100549519D01*
X59428147Y-100688900D01*
X59492297Y-100843772D01*
X59525000Y-101008184D01*
X59525000Y-101175816D01*
X59492297Y-101340228D01*
X59428147Y-101495100D01*
X59335015Y-101634481D01*
X59216481Y-101753015D01*
X59077100Y-101846147D01*
X58922228Y-101910297D01*
X58757816Y-101943000D01*
X58590184Y-101943000D01*
X58425772Y-101910297D01*
X58270900Y-101846147D01*
X58131519Y-101753015D01*
X58012985Y-101634481D01*
X57919853Y-101495100D01*
X57855703Y-101340228D01*
X57823000Y-101175816D01*
X57823000Y-101008184D01*
X57855703Y-100843772D01*
X57919853Y-100688900D01*
X58012985Y-100549519D01*
X58131519Y-100430985D01*
X58270900Y-100337853D01*
X58425772Y-100273703D01*
X58590184Y-100241000D01*
X58757816Y-100241000D01*
X58922228Y-100273703D01*
G37*
G36*
X113162928Y-99879764D02*
G01*
X113184009Y-99886160D01*
X113203445Y-99896548D01*
X113220476Y-99910524D01*
X113234452Y-99927555D01*
X113244840Y-99946991D01*
X113251236Y-99968072D01*
X113254000Y-99996140D01*
X113254000Y-101809860D01*
X113251236Y-101837928D01*
X113244840Y-101859009D01*
X113234452Y-101878445D01*
X113220476Y-101895476D01*
X113203445Y-101909452D01*
X113184009Y-101919840D01*
X113162928Y-101926236D01*
X113134860Y-101929000D01*
X112671140Y-101929000D01*
X112643072Y-101926236D01*
X112621991Y-101919840D01*
X112602555Y-101909452D01*
X112585524Y-101895476D01*
X112571548Y-101878445D01*
X112561160Y-101859009D01*
X112554764Y-101837928D01*
X112552000Y-101809860D01*
X112552000Y-99996140D01*
X112554764Y-99968072D01*
X112561160Y-99946991D01*
X112571548Y-99927555D01*
X112585524Y-99910524D01*
X112602555Y-99896548D01*
X112621991Y-99886160D01*
X112643072Y-99879764D01*
X112671140Y-99877000D01*
X113134860Y-99877000D01*
X113162928Y-99879764D01*
G37*
G36*
X110622928Y-99879764D02*
G01*
X110644009Y-99886160D01*
X110663445Y-99896548D01*
X110680476Y-99910524D01*
X110694452Y-99927555D01*
X110704840Y-99946991D01*
X110711236Y-99968072D01*
X110714000Y-99996140D01*
X110714000Y-101809860D01*
X110711236Y-101837928D01*
X110704840Y-101859009D01*
X110694452Y-101878445D01*
X110680476Y-101895476D01*
X110663445Y-101909452D01*
X110644009Y-101919840D01*
X110622928Y-101926236D01*
X110594860Y-101929000D01*
X110131140Y-101929000D01*
X110103072Y-101926236D01*
X110081991Y-101919840D01*
X110062555Y-101909452D01*
X110045524Y-101895476D01*
X110031548Y-101878445D01*
X110021160Y-101859009D01*
X110014764Y-101837928D01*
X110012000Y-101809860D01*
X110012000Y-99996140D01*
X110014764Y-99968072D01*
X110021160Y-99946991D01*
X110031548Y-99927555D01*
X110045524Y-99910524D01*
X110062555Y-99896548D01*
X110081991Y-99886160D01*
X110103072Y-99879764D01*
X110131140Y-99877000D01*
X110594860Y-99877000D01*
X110622928Y-99879764D01*
G37*
G36*
X105542928Y-99879764D02*
G01*
X105564009Y-99886160D01*
X105583445Y-99896548D01*
X105600476Y-99910524D01*
X105614452Y-99927555D01*
X105624840Y-99946991D01*
X105631236Y-99968072D01*
X105634000Y-99996140D01*
X105634000Y-101809860D01*
X105631236Y-101837928D01*
X105624840Y-101859009D01*
X105614452Y-101878445D01*
X105600476Y-101895476D01*
X105583445Y-101909452D01*
X105564009Y-101919840D01*
X105542928Y-101926236D01*
X105514860Y-101929000D01*
X105051140Y-101929000D01*
X105023072Y-101926236D01*
X105001991Y-101919840D01*
X104982555Y-101909452D01*
X104965524Y-101895476D01*
X104951548Y-101878445D01*
X104941160Y-101859009D01*
X104934764Y-101837928D01*
X104932000Y-101809860D01*
X104932000Y-99996140D01*
X104934764Y-99968072D01*
X104941160Y-99946991D01*
X104951548Y-99927555D01*
X104965524Y-99910524D01*
X104982555Y-99896548D01*
X105001991Y-99886160D01*
X105023072Y-99879764D01*
X105051140Y-99877000D01*
X105514860Y-99877000D01*
X105542928Y-99879764D01*
G37*
G36*
X114432928Y-99879764D02*
G01*
X114454009Y-99886160D01*
X114473445Y-99896548D01*
X114490476Y-99910524D01*
X114504452Y-99927555D01*
X114514840Y-99946991D01*
X114521236Y-99968072D01*
X114524000Y-99996140D01*
X114524000Y-101809860D01*
X114521236Y-101837928D01*
X114514840Y-101859009D01*
X114504452Y-101878445D01*
X114490476Y-101895476D01*
X114473445Y-101909452D01*
X114454009Y-101919840D01*
X114432928Y-101926236D01*
X114404860Y-101929000D01*
X113941140Y-101929000D01*
X113913072Y-101926236D01*
X113891991Y-101919840D01*
X113872555Y-101909452D01*
X113855524Y-101895476D01*
X113841548Y-101878445D01*
X113831160Y-101859009D01*
X113824764Y-101837928D01*
X113822000Y-101809860D01*
X113822000Y-99996140D01*
X113824764Y-99968072D01*
X113831160Y-99946991D01*
X113841548Y-99927555D01*
X113855524Y-99910524D01*
X113872555Y-99896548D01*
X113891991Y-99886160D01*
X113913072Y-99879764D01*
X113941140Y-99877000D01*
X114404860Y-99877000D01*
X114432928Y-99879764D01*
G37*
G36*
X106812928Y-99879764D02*
G01*
X106834009Y-99886160D01*
X106853445Y-99896548D01*
X106870476Y-99910524D01*
X106884452Y-99927555D01*
X106894840Y-99946991D01*
X106901236Y-99968072D01*
X106904000Y-99996140D01*
X106904000Y-101809860D01*
X106901236Y-101837928D01*
X106894840Y-101859009D01*
X106884452Y-101878445D01*
X106870476Y-101895476D01*
X106853445Y-101909452D01*
X106834009Y-101919840D01*
X106812928Y-101926236D01*
X106784860Y-101929000D01*
X106321140Y-101929000D01*
X106293072Y-101926236D01*
X106271991Y-101919840D01*
X106252555Y-101909452D01*
X106235524Y-101895476D01*
X106221548Y-101878445D01*
X106211160Y-101859009D01*
X106204764Y-101837928D01*
X106202000Y-101809860D01*
X106202000Y-99996140D01*
X106204764Y-99968072D01*
X106211160Y-99946991D01*
X106221548Y-99927555D01*
X106235524Y-99910524D01*
X106252555Y-99896548D01*
X106271991Y-99886160D01*
X106293072Y-99879764D01*
X106321140Y-99877000D01*
X106784860Y-99877000D01*
X106812928Y-99879764D01*
G37*
G36*
X108082928Y-99879764D02*
G01*
X108104009Y-99886160D01*
X108123445Y-99896548D01*
X108140476Y-99910524D01*
X108154452Y-99927555D01*
X108164840Y-99946991D01*
X108171236Y-99968072D01*
X108174000Y-99996140D01*
X108174000Y-101809860D01*
X108171236Y-101837928D01*
X108164840Y-101859009D01*
X108154452Y-101878445D01*
X108140476Y-101895476D01*
X108123445Y-101909452D01*
X108104009Y-101919840D01*
X108082928Y-101926236D01*
X108054860Y-101929000D01*
X107591140Y-101929000D01*
X107563072Y-101926236D01*
X107541991Y-101919840D01*
X107522555Y-101909452D01*
X107505524Y-101895476D01*
X107491548Y-101878445D01*
X107481160Y-101859009D01*
X107474764Y-101837928D01*
X107472000Y-101809860D01*
X107472000Y-99996140D01*
X107474764Y-99968072D01*
X107481160Y-99946991D01*
X107491548Y-99927555D01*
X107505524Y-99910524D01*
X107522555Y-99896548D01*
X107541991Y-99886160D01*
X107563072Y-99879764D01*
X107591140Y-99877000D01*
X108054860Y-99877000D01*
X108082928Y-99879764D01*
G37*
G36*
X111892928Y-99879764D02*
G01*
X111914009Y-99886160D01*
X111933445Y-99896548D01*
X111950476Y-99910524D01*
X111964452Y-99927555D01*
X111974840Y-99946991D01*
X111981236Y-99968072D01*
X111984000Y-99996140D01*
X111984000Y-101809860D01*
X111981236Y-101837928D01*
X111974840Y-101859009D01*
X111964452Y-101878445D01*
X111950476Y-101895476D01*
X111933445Y-101909452D01*
X111914009Y-101919840D01*
X111892928Y-101926236D01*
X111864860Y-101929000D01*
X111401140Y-101929000D01*
X111373072Y-101926236D01*
X111351991Y-101919840D01*
X111332555Y-101909452D01*
X111315524Y-101895476D01*
X111301548Y-101878445D01*
X111291160Y-101859009D01*
X111284764Y-101837928D01*
X111282000Y-101809860D01*
X111282000Y-99996140D01*
X111284764Y-99968072D01*
X111291160Y-99946991D01*
X111301548Y-99927555D01*
X111315524Y-99910524D01*
X111332555Y-99896548D01*
X111351991Y-99886160D01*
X111373072Y-99879764D01*
X111401140Y-99877000D01*
X111864860Y-99877000D01*
X111892928Y-99879764D01*
G37*
G36*
X109352928Y-99879764D02*
G01*
X109374009Y-99886160D01*
X109393445Y-99896548D01*
X109410476Y-99910524D01*
X109424452Y-99927555D01*
X109434840Y-99946991D01*
X109441236Y-99968072D01*
X109444000Y-99996140D01*
X109444000Y-101809860D01*
X109441236Y-101837928D01*
X109434840Y-101859009D01*
X109424452Y-101878445D01*
X109410476Y-101895476D01*
X109393445Y-101909452D01*
X109374009Y-101919840D01*
X109352928Y-101926236D01*
X109324860Y-101929000D01*
X108861140Y-101929000D01*
X108833072Y-101926236D01*
X108811991Y-101919840D01*
X108792555Y-101909452D01*
X108775524Y-101895476D01*
X108761548Y-101878445D01*
X108751160Y-101859009D01*
X108744764Y-101837928D01*
X108742000Y-101809860D01*
X108742000Y-99996140D01*
X108744764Y-99968072D01*
X108751160Y-99946991D01*
X108761548Y-99927555D01*
X108775524Y-99910524D01*
X108792555Y-99896548D01*
X108811991Y-99886160D01*
X108833072Y-99879764D01*
X108861140Y-99877000D01*
X109324860Y-99877000D01*
X109352928Y-99879764D01*
G37*
G36*
X101086228Y-100019703D02*
G01*
X101241100Y-100083853D01*
X101380481Y-100176985D01*
X101499015Y-100295519D01*
X101592147Y-100434900D01*
X101656297Y-100589772D01*
X101689000Y-100754184D01*
X101689000Y-100921816D01*
X101656297Y-101086228D01*
X101592147Y-101241100D01*
X101499015Y-101380481D01*
X101380481Y-101499015D01*
X101241100Y-101592147D01*
X101086228Y-101656297D01*
X100921816Y-101689000D01*
X100754184Y-101689000D01*
X100589772Y-101656297D01*
X100434900Y-101592147D01*
X100295519Y-101499015D01*
X100176985Y-101380481D01*
X100083853Y-101241100D01*
X100019703Y-101086228D01*
X99987000Y-100921816D01*
X99987000Y-100754184D01*
X100019703Y-100589772D01*
X100083853Y-100434900D01*
X100176985Y-100295519D01*
X100295519Y-100176985D01*
X100434900Y-100083853D01*
X100589772Y-100019703D01*
X100754184Y-99987000D01*
X100921816Y-99987000D01*
X101086228Y-100019703D01*
G37*
G36*
X78226228Y-99511703D02*
G01*
X78381100Y-99575853D01*
X78520481Y-99668985D01*
X78639015Y-99787519D01*
X78732147Y-99926900D01*
X78796297Y-100081772D01*
X78829000Y-100246184D01*
X78829000Y-100413816D01*
X78796297Y-100578228D01*
X78732147Y-100733100D01*
X78639015Y-100872481D01*
X78520481Y-100991015D01*
X78381100Y-101084147D01*
X78226228Y-101148297D01*
X78061816Y-101181000D01*
X77894184Y-101181000D01*
X77729772Y-101148297D01*
X77574900Y-101084147D01*
X77435519Y-100991015D01*
X77316985Y-100872481D01*
X77223853Y-100733100D01*
X77159703Y-100578228D01*
X77127000Y-100413816D01*
X77127000Y-100246184D01*
X77159703Y-100081772D01*
X77223853Y-99926900D01*
X77316985Y-99787519D01*
X77435519Y-99668985D01*
X77574900Y-99575853D01*
X77729772Y-99511703D01*
X77894184Y-99479000D01*
X78061816Y-99479000D01*
X78226228Y-99511703D01*
G37*
G36*
X47238228Y-99511703D02*
G01*
X47393100Y-99575853D01*
X47532481Y-99668985D01*
X47651015Y-99787519D01*
X47744147Y-99926900D01*
X47808297Y-100081772D01*
X47841000Y-100246184D01*
X47841000Y-100413816D01*
X47808297Y-100578228D01*
X47744147Y-100733100D01*
X47651015Y-100872481D01*
X47532481Y-100991015D01*
X47393100Y-101084147D01*
X47238228Y-101148297D01*
X47073816Y-101181000D01*
X46906184Y-101181000D01*
X46741772Y-101148297D01*
X46586900Y-101084147D01*
X46447519Y-100991015D01*
X46328985Y-100872481D01*
X46235853Y-100733100D01*
X46171703Y-100578228D01*
X46139000Y-100413816D01*
X46139000Y-100246184D01*
X46171703Y-100081772D01*
X46235853Y-99926900D01*
X46328985Y-99787519D01*
X46447519Y-99668985D01*
X46586900Y-99575853D01*
X46741772Y-99511703D01*
X46906184Y-99479000D01*
X47073816Y-99479000D01*
X47238228Y-99511703D01*
G37*
G36*
X42238228Y-99511703D02*
G01*
X42393100Y-99575853D01*
X42532481Y-99668985D01*
X42651015Y-99787519D01*
X42744147Y-99926900D01*
X42808297Y-100081772D01*
X42841000Y-100246184D01*
X42841000Y-100413816D01*
X42808297Y-100578228D01*
X42744147Y-100733100D01*
X42651015Y-100872481D01*
X42532481Y-100991015D01*
X42393100Y-101084147D01*
X42238228Y-101148297D01*
X42073816Y-101181000D01*
X41906184Y-101181000D01*
X41741772Y-101148297D01*
X41586900Y-101084147D01*
X41447519Y-100991015D01*
X41328985Y-100872481D01*
X41235853Y-100733100D01*
X41171703Y-100578228D01*
X41139000Y-100413816D01*
X41139000Y-100246184D01*
X41171703Y-100081772D01*
X41235853Y-99926900D01*
X41328985Y-99787519D01*
X41447519Y-99668985D01*
X41586900Y-99575853D01*
X41741772Y-99511703D01*
X41906184Y-99479000D01*
X42073816Y-99479000D01*
X42238228Y-99511703D01*
G37*
G36*
X67304228Y-99511703D02*
G01*
X67459100Y-99575853D01*
X67598481Y-99668985D01*
X67717015Y-99787519D01*
X67810147Y-99926900D01*
X67874297Y-100081772D01*
X67907000Y-100246184D01*
X67907000Y-100413816D01*
X67874297Y-100578228D01*
X67810147Y-100733100D01*
X67717015Y-100872481D01*
X67598481Y-100991015D01*
X67459100Y-101084147D01*
X67304228Y-101148297D01*
X67139816Y-101181000D01*
X66972184Y-101181000D01*
X66807772Y-101148297D01*
X66652900Y-101084147D01*
X66513519Y-100991015D01*
X66394985Y-100872481D01*
X66301853Y-100733100D01*
X66237703Y-100578228D01*
X66205000Y-100413816D01*
X66205000Y-100246184D01*
X66237703Y-100081772D01*
X66301853Y-99926900D01*
X66394985Y-99787519D01*
X66513519Y-99668985D01*
X66652900Y-99575853D01*
X66807772Y-99511703D01*
X66972184Y-99479000D01*
X67139816Y-99479000D01*
X67304228Y-99511703D01*
G37*
G36*
X74924228Y-99511703D02*
G01*
X75079100Y-99575853D01*
X75218481Y-99668985D01*
X75337015Y-99787519D01*
X75430147Y-99926900D01*
X75494297Y-100081772D01*
X75527000Y-100246184D01*
X75527000Y-100413816D01*
X75494297Y-100578228D01*
X75430147Y-100733100D01*
X75337015Y-100872481D01*
X75218481Y-100991015D01*
X75079100Y-101084147D01*
X74924228Y-101148297D01*
X74759816Y-101181000D01*
X74592184Y-101181000D01*
X74427772Y-101148297D01*
X74272900Y-101084147D01*
X74133519Y-100991015D01*
X74014985Y-100872481D01*
X73921853Y-100733100D01*
X73857703Y-100578228D01*
X73825000Y-100413816D01*
X73825000Y-100246184D01*
X73857703Y-100081772D01*
X73921853Y-99926900D01*
X74014985Y-99787519D01*
X74133519Y-99668985D01*
X74272900Y-99575853D01*
X74427772Y-99511703D01*
X74592184Y-99479000D01*
X74759816Y-99479000D01*
X74924228Y-99511703D01*
G37*
G36*
X42285228Y-95955703D02*
G01*
X42440100Y-96019853D01*
X42579481Y-96112985D01*
X42698015Y-96231519D01*
X42791147Y-96370900D01*
X42855297Y-96525772D01*
X42888000Y-96690184D01*
X42888000Y-96857816D01*
X42855297Y-97022228D01*
X42791147Y-97177100D01*
X42698015Y-97316481D01*
X42579481Y-97435015D01*
X42440100Y-97528147D01*
X42285228Y-97592297D01*
X42120816Y-97625000D01*
X41953184Y-97625000D01*
X41788772Y-97592297D01*
X41633900Y-97528147D01*
X41494519Y-97435015D01*
X41375985Y-97316481D01*
X41282853Y-97177100D01*
X41218703Y-97022228D01*
X41186000Y-96857816D01*
X41186000Y-96690184D01*
X41218703Y-96525772D01*
X41282853Y-96370900D01*
X41375985Y-96231519D01*
X41494519Y-96112985D01*
X41633900Y-96019853D01*
X41788772Y-95955703D01*
X41953184Y-95923000D01*
X42120816Y-95923000D01*
X42285228Y-95955703D01*
G37*
G36*
X47238228Y-95955703D02*
G01*
X47393100Y-96019853D01*
X47532481Y-96112985D01*
X47651015Y-96231519D01*
X47744147Y-96370900D01*
X47808297Y-96525772D01*
X47841000Y-96690184D01*
X47841000Y-96857816D01*
X47808297Y-97022228D01*
X47744147Y-97177100D01*
X47651015Y-97316481D01*
X47532481Y-97435015D01*
X47393100Y-97528147D01*
X47238228Y-97592297D01*
X47073816Y-97625000D01*
X46906184Y-97625000D01*
X46741772Y-97592297D01*
X46586900Y-97528147D01*
X46447519Y-97435015D01*
X46328985Y-97316481D01*
X46235853Y-97177100D01*
X46171703Y-97022228D01*
X46139000Y-96857816D01*
X46139000Y-96690184D01*
X46171703Y-96525772D01*
X46235853Y-96370900D01*
X46328985Y-96231519D01*
X46447519Y-96112985D01*
X46586900Y-96019853D01*
X46741772Y-95955703D01*
X46906184Y-95923000D01*
X47073816Y-95923000D01*
X47238228Y-95955703D01*
G37*
G36*
X75323000Y-97421000D02*
G01*
X73521000Y-97421000D01*
X73521000Y-95619000D01*
X75323000Y-95619000D01*
X75323000Y-97421000D01*
G37*
G36*
X68155916Y-93412334D02*
G01*
X68264492Y-93445271D01*
X68264495Y-93445272D01*
X68300601Y-93464571D01*
X68364557Y-93498756D01*
X68452264Y-93570736D01*
X68524244Y-93658443D01*
X68557268Y-93720228D01*
X68577728Y-93758505D01*
X68577729Y-93758508D01*
X68610666Y-93867084D01*
X68621787Y-93980000D01*
X68610666Y-94092916D01*
X68577729Y-94201492D01*
X68577728Y-94201495D01*
X68564551Y-94226147D01*
X68524244Y-94301557D01*
X68452264Y-94389264D01*
X68364557Y-94461244D01*
X68283141Y-94504761D01*
X68262766Y-94518375D01*
X68245439Y-94535702D01*
X68231826Y-94556076D01*
X68222448Y-94578715D01*
X68217668Y-94602748D01*
X68217668Y-94627252D01*
X68222448Y-94651285D01*
X68231826Y-94673924D01*
X68245440Y-94694299D01*
X68262767Y-94711626D01*
X68283141Y-94725239D01*
X68364557Y-94768756D01*
X68452264Y-94840736D01*
X68524244Y-94928443D01*
X68558429Y-94992399D01*
X68577728Y-95028505D01*
X68577729Y-95028508D01*
X68610666Y-95137084D01*
X68621787Y-95250000D01*
X68610666Y-95362916D01*
X68577729Y-95471492D01*
X68577728Y-95471495D01*
X68558429Y-95507601D01*
X68524244Y-95571557D01*
X68452264Y-95659264D01*
X68375354Y-95722383D01*
X68358035Y-95739702D01*
X68344421Y-95760077D01*
X68335043Y-95782716D01*
X68330263Y-95806749D01*
X68330263Y-95831253D01*
X68335043Y-95855286D01*
X68344421Y-95877925D01*
X68358034Y-95898299D01*
X68375361Y-95915626D01*
X68395736Y-95929240D01*
X68418375Y-95938618D01*
X68442408Y-95943398D01*
X68454660Y-95944000D01*
X68619000Y-95944000D01*
X68619000Y-97096000D01*
X67017000Y-97096000D01*
X67017000Y-95944000D01*
X67181340Y-95944000D01*
X67205726Y-95941598D01*
X67229175Y-95934485D01*
X67250786Y-95922934D01*
X67269728Y-95907389D01*
X67285273Y-95888447D01*
X67296824Y-95866836D01*
X67303937Y-95843387D01*
X67306339Y-95819001D01*
X67303937Y-95794615D01*
X67296824Y-95771166D01*
X67285273Y-95749555D01*
X67269728Y-95730613D01*
X67260655Y-95722391D01*
X67183736Y-95659264D01*
X67111756Y-95571557D01*
X67077571Y-95507601D01*
X67058272Y-95471495D01*
X67058271Y-95471492D01*
X67025334Y-95362916D01*
X67014213Y-95250000D01*
X67025334Y-95137084D01*
X67058271Y-95028508D01*
X67058272Y-95028505D01*
X67077571Y-94992399D01*
X67111756Y-94928443D01*
X67183736Y-94840736D01*
X67271443Y-94768756D01*
X67352859Y-94725239D01*
X67373234Y-94711625D01*
X67390561Y-94694298D01*
X67404174Y-94673924D01*
X67413552Y-94651285D01*
X67418332Y-94627252D01*
X67418332Y-94602748D01*
X67413552Y-94578715D01*
X67404174Y-94556076D01*
X67390560Y-94535701D01*
X67373233Y-94518374D01*
X67352859Y-94504761D01*
X67271443Y-94461244D01*
X67183736Y-94389264D01*
X67111756Y-94301557D01*
X67071449Y-94226147D01*
X67058272Y-94201495D01*
X67058271Y-94201492D01*
X67025334Y-94092916D01*
X67014213Y-93980000D01*
X67025334Y-93867084D01*
X67058271Y-93758508D01*
X67058272Y-93758505D01*
X67078732Y-93720228D01*
X67111756Y-93658443D01*
X67183736Y-93570736D01*
X67271443Y-93498756D01*
X67335399Y-93464571D01*
X67371505Y-93445272D01*
X67371508Y-93445271D01*
X67480084Y-93412334D01*
X67564702Y-93404000D01*
X68071298Y-93404000D01*
X68155916Y-93412334D01*
G37*
G36*
X80657000Y-95135000D02*
G01*
X78855000Y-95135000D01*
X78855000Y-93333000D01*
X80657000Y-93333000D01*
X80657000Y-95135000D01*
G37*
G36*
X58922228Y-92653703D02*
G01*
X59077100Y-92717853D01*
X59216481Y-92810985D01*
X59335015Y-92929519D01*
X59428147Y-93068900D01*
X59492297Y-93223772D01*
X59525000Y-93388184D01*
X59525000Y-93555816D01*
X59492297Y-93720228D01*
X59428147Y-93875100D01*
X59335015Y-94014481D01*
X59216481Y-94133015D01*
X59077100Y-94226147D01*
X58922228Y-94290297D01*
X58757816Y-94323000D01*
X58590184Y-94323000D01*
X58425772Y-94290297D01*
X58270900Y-94226147D01*
X58131519Y-94133015D01*
X58012985Y-94014481D01*
X57919853Y-93875100D01*
X57855703Y-93720228D01*
X57823000Y-93555816D01*
X57823000Y-93388184D01*
X57855703Y-93223772D01*
X57919853Y-93068900D01*
X58012985Y-92929519D01*
X58131519Y-92810985D01*
X58270900Y-92717853D01*
X58425772Y-92653703D01*
X58590184Y-92621000D01*
X58757816Y-92621000D01*
X58922228Y-92653703D01*
G37*
G36*
X79869512Y-90797927D02*
G01*
X80018812Y-90827624D01*
X80182784Y-90895544D01*
X80330354Y-90994147D01*
X80455853Y-91119646D01*
X80554456Y-91267216D01*
X80622376Y-91431188D01*
X80657000Y-91605259D01*
X80657000Y-91782741D01*
X80622376Y-91956812D01*
X80554456Y-92120784D01*
X80455853Y-92268354D01*
X80330354Y-92393853D01*
X80182784Y-92492456D01*
X80018812Y-92560376D01*
X79869512Y-92590073D01*
X79844742Y-92595000D01*
X79667258Y-92595000D01*
X79642488Y-92590073D01*
X79493188Y-92560376D01*
X79329216Y-92492456D01*
X79181646Y-92393853D01*
X79056147Y-92268354D01*
X78957544Y-92120784D01*
X78889624Y-91956812D01*
X78855000Y-91782741D01*
X78855000Y-91605259D01*
X78889624Y-91431188D01*
X78957544Y-91267216D01*
X79056147Y-91119646D01*
X79181646Y-90994147D01*
X79329216Y-90895544D01*
X79493188Y-90827624D01*
X79642488Y-90797927D01*
X79667258Y-90793000D01*
X79844742Y-90793000D01*
X79869512Y-90797927D01*
G37*
G36*
X75323000Y-92595000D02*
G01*
X73521000Y-92595000D01*
X73521000Y-90793000D01*
X75323000Y-90793000D01*
X75323000Y-92595000D01*
G37*
G36*
X42285228Y-88335703D02*
G01*
X42440100Y-88399853D01*
X42579481Y-88492985D01*
X42698015Y-88611519D01*
X42791147Y-88750900D01*
X42855297Y-88905772D01*
X42888000Y-89070184D01*
X42888000Y-89237816D01*
X42855297Y-89402228D01*
X42791147Y-89557100D01*
X42698015Y-89696481D01*
X42579481Y-89815015D01*
X42440100Y-89908147D01*
X42285228Y-89972297D01*
X42120816Y-90005000D01*
X41953184Y-90005000D01*
X41788772Y-89972297D01*
X41633900Y-89908147D01*
X41494519Y-89815015D01*
X41375985Y-89696481D01*
X41282853Y-89557100D01*
X41218703Y-89402228D01*
X41186000Y-89237816D01*
X41186000Y-89070184D01*
X41218703Y-88905772D01*
X41282853Y-88750900D01*
X41375985Y-88611519D01*
X41494519Y-88492985D01*
X41633900Y-88399853D01*
X41788772Y-88335703D01*
X41953184Y-88303000D01*
X42120816Y-88303000D01*
X42285228Y-88335703D01*
G37*
G36*
X47238228Y-88335703D02*
G01*
X47393100Y-88399853D01*
X47532481Y-88492985D01*
X47651015Y-88611519D01*
X47744147Y-88750900D01*
X47808297Y-88905772D01*
X47841000Y-89070184D01*
X47841000Y-89237816D01*
X47808297Y-89402228D01*
X47744147Y-89557100D01*
X47651015Y-89696481D01*
X47532481Y-89815015D01*
X47393100Y-89908147D01*
X47238228Y-89972297D01*
X47073816Y-90005000D01*
X46906184Y-90005000D01*
X46741772Y-89972297D01*
X46586900Y-89908147D01*
X46447519Y-89815015D01*
X46328985Y-89696481D01*
X46235853Y-89557100D01*
X46171703Y-89402228D01*
X46139000Y-89237816D01*
X46139000Y-89070184D01*
X46171703Y-88905772D01*
X46235853Y-88750900D01*
X46328985Y-88611519D01*
X46447519Y-88492985D01*
X46586900Y-88399853D01*
X46741772Y-88335703D01*
X46906184Y-88303000D01*
X47073816Y-88303000D01*
X47238228Y-88335703D01*
G37*
G36*
X109214228Y-87914703D02*
G01*
X109369100Y-87978853D01*
X109508481Y-88071985D01*
X109627015Y-88190519D01*
X109720147Y-88329900D01*
X109784297Y-88484772D01*
X109817000Y-88649184D01*
X109817000Y-88816816D01*
X109784297Y-88981228D01*
X109720147Y-89136100D01*
X109627015Y-89275481D01*
X109508481Y-89394015D01*
X109369100Y-89487147D01*
X109214228Y-89551297D01*
X109049816Y-89584000D01*
X108882184Y-89584000D01*
X108717772Y-89551297D01*
X108562900Y-89487147D01*
X108423519Y-89394015D01*
X108304985Y-89275481D01*
X108211853Y-89136100D01*
X108147703Y-88981228D01*
X108115000Y-88816816D01*
X108115000Y-88649184D01*
X108147703Y-88484772D01*
X108211853Y-88329900D01*
X108304985Y-88190519D01*
X108423519Y-88071985D01*
X108562900Y-87978853D01*
X108717772Y-87914703D01*
X108882184Y-87882000D01*
X109049816Y-87882000D01*
X109214228Y-87914703D01*
G37*
G36*
X105404228Y-87914703D02*
G01*
X105559100Y-87978853D01*
X105698481Y-88071985D01*
X105817015Y-88190519D01*
X105910147Y-88329900D01*
X105974297Y-88484772D01*
X106007000Y-88649184D01*
X106007000Y-88816816D01*
X105974297Y-88981228D01*
X105910147Y-89136100D01*
X105817015Y-89275481D01*
X105698481Y-89394015D01*
X105559100Y-89487147D01*
X105404228Y-89551297D01*
X105239816Y-89584000D01*
X105072184Y-89584000D01*
X104907772Y-89551297D01*
X104752900Y-89487147D01*
X104613519Y-89394015D01*
X104494985Y-89275481D01*
X104401853Y-89136100D01*
X104337703Y-88981228D01*
X104305000Y-88816816D01*
X104305000Y-88649184D01*
X104337703Y-88484772D01*
X104401853Y-88329900D01*
X104494985Y-88190519D01*
X104613519Y-88071985D01*
X104752900Y-87978853D01*
X104907772Y-87914703D01*
X105072184Y-87882000D01*
X105239816Y-87882000D01*
X105404228Y-87914703D01*
G37*
G36*
X97276228Y-85882703D02*
G01*
X97431100Y-85946853D01*
X97570481Y-86039985D01*
X97689015Y-86158519D01*
X97782147Y-86297900D01*
X97846297Y-86452772D01*
X97879000Y-86617184D01*
X97879000Y-86784816D01*
X97846297Y-86949228D01*
X97782147Y-87104100D01*
X97689015Y-87243481D01*
X97570481Y-87362015D01*
X97431100Y-87455147D01*
X97276228Y-87519297D01*
X97111816Y-87552000D01*
X96944184Y-87552000D01*
X96779772Y-87519297D01*
X96624900Y-87455147D01*
X96485519Y-87362015D01*
X96366985Y-87243481D01*
X96273853Y-87104100D01*
X96209703Y-86949228D01*
X96177000Y-86784816D01*
X96177000Y-86617184D01*
X96209703Y-86452772D01*
X96273853Y-86297900D01*
X96366985Y-86158519D01*
X96485519Y-86039985D01*
X96624900Y-85946853D01*
X96779772Y-85882703D01*
X96944184Y-85850000D01*
X97111816Y-85850000D01*
X97276228Y-85882703D01*
G37*
G36*
X116580228Y-85628703D02*
G01*
X116735100Y-85692853D01*
X116874481Y-85785985D01*
X116993015Y-85904519D01*
X117086147Y-86043900D01*
X117150297Y-86198772D01*
X117183000Y-86363184D01*
X117183000Y-86530816D01*
X117150297Y-86695228D01*
X117086147Y-86850100D01*
X116993015Y-86989481D01*
X116874481Y-87108015D01*
X116735100Y-87201147D01*
X116580228Y-87265297D01*
X116415816Y-87298000D01*
X116248184Y-87298000D01*
X116083772Y-87265297D01*
X115928900Y-87201147D01*
X115789519Y-87108015D01*
X115670985Y-86989481D01*
X115577853Y-86850100D01*
X115513703Y-86695228D01*
X115481000Y-86530816D01*
X115481000Y-86363184D01*
X115513703Y-86198772D01*
X115577853Y-86043900D01*
X115670985Y-85904519D01*
X115789519Y-85785985D01*
X115928900Y-85692853D01*
X116083772Y-85628703D01*
X116248184Y-85596000D01*
X116415816Y-85596000D01*
X116580228Y-85628703D01*
G37*
G36*
X109214228Y-85414703D02*
G01*
X109369100Y-85478853D01*
X109508481Y-85571985D01*
X109627015Y-85690519D01*
X109720147Y-85829900D01*
X109784297Y-85984772D01*
X109817000Y-86149184D01*
X109817000Y-86316816D01*
X109784297Y-86481228D01*
X109720147Y-86636100D01*
X109627015Y-86775481D01*
X109508481Y-86894015D01*
X109369100Y-86987147D01*
X109214228Y-87051297D01*
X109049816Y-87084000D01*
X108882184Y-87084000D01*
X108717772Y-87051297D01*
X108562900Y-86987147D01*
X108423519Y-86894015D01*
X108304985Y-86775481D01*
X108211853Y-86636100D01*
X108147703Y-86481228D01*
X108115000Y-86316816D01*
X108115000Y-86149184D01*
X108147703Y-85984772D01*
X108211853Y-85829900D01*
X108304985Y-85690519D01*
X108423519Y-85571985D01*
X108562900Y-85478853D01*
X108717772Y-85414703D01*
X108882184Y-85382000D01*
X109049816Y-85382000D01*
X109214228Y-85414703D01*
G37*
G36*
X105404228Y-85414703D02*
G01*
X105559100Y-85478853D01*
X105698481Y-85571985D01*
X105817015Y-85690519D01*
X105910147Y-85829900D01*
X105974297Y-85984772D01*
X106007000Y-86149184D01*
X106007000Y-86316816D01*
X105974297Y-86481228D01*
X105910147Y-86636100D01*
X105817015Y-86775481D01*
X105698481Y-86894015D01*
X105559100Y-86987147D01*
X105404228Y-87051297D01*
X105239816Y-87084000D01*
X105072184Y-87084000D01*
X104907772Y-87051297D01*
X104752900Y-86987147D01*
X104613519Y-86894015D01*
X104494985Y-86775481D01*
X104401853Y-86636100D01*
X104337703Y-86481228D01*
X104305000Y-86316816D01*
X104305000Y-86149184D01*
X104337703Y-85984772D01*
X104401853Y-85829900D01*
X104494985Y-85690519D01*
X104613519Y-85571985D01*
X104752900Y-85478853D01*
X104907772Y-85414703D01*
X105072184Y-85382000D01*
X105239816Y-85382000D01*
X105404228Y-85414703D01*
G37*
G36*
X91141000Y-86950000D02*
G01*
X90469000Y-86950000D01*
X90469000Y-84878000D01*
X91141000Y-84878000D01*
X91141000Y-86950000D01*
G37*
G36*
X89871000Y-86950000D02*
G01*
X89199000Y-86950000D01*
X89199000Y-84878000D01*
X89871000Y-84878000D01*
X89871000Y-86950000D01*
G37*
G36*
X92411000Y-86950000D02*
G01*
X91739000Y-86950000D01*
X91739000Y-84878000D01*
X92411000Y-84878000D01*
X92411000Y-86950000D01*
G37*
G36*
X93681000Y-86950000D02*
G01*
X93009000Y-86950000D01*
X93009000Y-84878000D01*
X93681000Y-84878000D01*
X93681000Y-86950000D01*
G37*
G36*
X57925072Y-84298918D02*
G01*
X58131192Y-84384295D01*
X58170939Y-84400759D01*
X58195245Y-84417000D01*
X58392211Y-84548609D01*
X58580391Y-84736789D01*
X58584862Y-84743481D01*
X58726295Y-84955148D01*
X58728242Y-84958063D01*
X58830082Y-85203928D01*
X58882000Y-85464937D01*
X58882000Y-85731063D01*
X58830082Y-85992072D01*
X58728242Y-86237937D01*
X58580391Y-86459211D01*
X58392211Y-86647391D01*
X58282328Y-86720813D01*
X58170939Y-86795241D01*
X58170938Y-86795242D01*
X58170937Y-86795242D01*
X57925072Y-86897082D01*
X57664063Y-86949000D01*
X57397937Y-86949000D01*
X57136928Y-86897082D01*
X56891063Y-86795242D01*
X56891062Y-86795242D01*
X56891061Y-86795241D01*
X56779672Y-86720813D01*
X56669789Y-86647391D01*
X56481609Y-86459211D01*
X56333758Y-86237937D01*
X56231918Y-85992072D01*
X56180000Y-85731063D01*
X56180000Y-85464937D01*
X56231918Y-85203928D01*
X56333758Y-84958063D01*
X56335706Y-84955148D01*
X56477138Y-84743481D01*
X56481609Y-84736789D01*
X56669789Y-84548609D01*
X56866755Y-84417000D01*
X56891061Y-84400759D01*
X56930809Y-84384295D01*
X57136928Y-84298918D01*
X57397937Y-84247000D01*
X57664063Y-84247000D01*
X57925072Y-84298918D01*
G37*
G36*
X85592228Y-85160703D02*
G01*
X85747100Y-85224853D01*
X85886481Y-85317985D01*
X86005015Y-85436519D01*
X86098147Y-85575900D01*
X86162297Y-85730772D01*
X86195000Y-85895184D01*
X86195000Y-86062816D01*
X86162297Y-86227228D01*
X86098147Y-86382100D01*
X86005015Y-86521481D01*
X85886481Y-86640015D01*
X85747100Y-86733147D01*
X85592228Y-86797297D01*
X85427816Y-86830000D01*
X85260184Y-86830000D01*
X85095772Y-86797297D01*
X84940900Y-86733147D01*
X84801519Y-86640015D01*
X84682985Y-86521481D01*
X84589853Y-86382100D01*
X84525703Y-86227228D01*
X84493000Y-86062816D01*
X84493000Y-85895184D01*
X84525703Y-85730772D01*
X84589853Y-85575900D01*
X84682985Y-85436519D01*
X84801519Y-85317985D01*
X84940900Y-85224853D01*
X85095772Y-85160703D01*
X85260184Y-85128000D01*
X85427816Y-85128000D01*
X85592228Y-85160703D01*
G37*
G36*
X127502228Y-84826703D02*
G01*
X127657100Y-84890853D01*
X127796481Y-84983985D01*
X127915015Y-85102519D01*
X128008147Y-85241900D01*
X128072297Y-85396772D01*
X128105000Y-85561184D01*
X128105000Y-85728816D01*
X128072297Y-85893228D01*
X128008147Y-86048100D01*
X127915015Y-86187481D01*
X127796481Y-86306015D01*
X127657100Y-86399147D01*
X127502228Y-86463297D01*
X127337816Y-86496000D01*
X127170184Y-86496000D01*
X127005772Y-86463297D01*
X126850900Y-86399147D01*
X126711519Y-86306015D01*
X126592985Y-86187481D01*
X126499853Y-86048100D01*
X126435703Y-85893228D01*
X126403000Y-85728816D01*
X126403000Y-85561184D01*
X126435703Y-85396772D01*
X126499853Y-85241900D01*
X126592985Y-85102519D01*
X126711519Y-84983985D01*
X126850900Y-84890853D01*
X127005772Y-84826703D01*
X127170184Y-84794000D01*
X127337816Y-84794000D01*
X127502228Y-84826703D01*
G37*
G36*
X121113000Y-86442000D02*
G01*
X120441000Y-86442000D01*
X120441000Y-84370000D01*
X121113000Y-84370000D01*
X121113000Y-86442000D01*
G37*
G36*
X123653000Y-86442000D02*
G01*
X122981000Y-86442000D01*
X122981000Y-84370000D01*
X123653000Y-84370000D01*
X123653000Y-86442000D01*
G37*
G36*
X122383000Y-86442000D02*
G01*
X121711000Y-86442000D01*
X121711000Y-84370000D01*
X122383000Y-84370000D01*
X122383000Y-86442000D01*
G37*
G36*
X119843000Y-86442000D02*
G01*
X119171000Y-86442000D01*
X119171000Y-84370000D01*
X119843000Y-84370000D01*
X119843000Y-86442000D01*
G37*
G36*
X97276228Y-83382703D02*
G01*
X97431100Y-83446853D01*
X97570481Y-83539985D01*
X97689015Y-83658519D01*
X97782147Y-83797900D01*
X97846297Y-83952772D01*
X97879000Y-84117184D01*
X97879000Y-84284816D01*
X97846297Y-84449228D01*
X97782147Y-84604100D01*
X97689015Y-84743481D01*
X97570481Y-84862015D01*
X97431100Y-84955147D01*
X97276228Y-85019297D01*
X97111816Y-85052000D01*
X96944184Y-85052000D01*
X96779772Y-85019297D01*
X96624900Y-84955147D01*
X96485519Y-84862015D01*
X96366985Y-84743481D01*
X96273853Y-84604100D01*
X96209703Y-84449228D01*
X96177000Y-84284816D01*
X96177000Y-84117184D01*
X96209703Y-83952772D01*
X96273853Y-83797900D01*
X96366985Y-83658519D01*
X96485519Y-83539985D01*
X96624900Y-83446853D01*
X96779772Y-83382703D01*
X96944184Y-83350000D01*
X97111816Y-83350000D01*
X97276228Y-83382703D01*
G37*
G36*
X116580228Y-83128703D02*
G01*
X116735100Y-83192853D01*
X116874481Y-83285985D01*
X116993015Y-83404519D01*
X117086147Y-83543900D01*
X117150297Y-83698772D01*
X117183000Y-83863184D01*
X117183000Y-84030816D01*
X117150297Y-84195228D01*
X117086147Y-84350100D01*
X116993015Y-84489481D01*
X116874481Y-84608015D01*
X116735100Y-84701147D01*
X116580228Y-84765297D01*
X116415816Y-84798000D01*
X116248184Y-84798000D01*
X116083772Y-84765297D01*
X115928900Y-84701147D01*
X115789519Y-84608015D01*
X115670985Y-84489481D01*
X115577853Y-84350100D01*
X115513703Y-84195228D01*
X115481000Y-84030816D01*
X115481000Y-83863184D01*
X115513703Y-83698772D01*
X115577853Y-83543900D01*
X115670985Y-83404519D01*
X115789519Y-83285985D01*
X115928900Y-83192853D01*
X116083772Y-83128703D01*
X116248184Y-83096000D01*
X116415816Y-83096000D01*
X116580228Y-83128703D01*
G37*
G36*
X38239000Y-84467000D02*
G01*
X36437000Y-84467000D01*
X36437000Y-82665000D01*
X38239000Y-82665000D01*
X38239000Y-84467000D01*
G37*
G36*
X75098228Y-82747703D02*
G01*
X75253100Y-82811853D01*
X75392481Y-82904985D01*
X75511015Y-83023519D01*
X75604147Y-83162900D01*
X75668297Y-83317772D01*
X75701000Y-83482184D01*
X75701000Y-83649816D01*
X75668297Y-83814228D01*
X75604147Y-83969100D01*
X75511015Y-84108481D01*
X75392481Y-84227015D01*
X75253100Y-84320147D01*
X75098228Y-84384297D01*
X74933816Y-84417000D01*
X74766184Y-84417000D01*
X74601772Y-84384297D01*
X74446900Y-84320147D01*
X74307519Y-84227015D01*
X74188985Y-84108481D01*
X74095853Y-83969100D01*
X74031703Y-83814228D01*
X73999000Y-83649816D01*
X73999000Y-83482184D01*
X74031703Y-83317772D01*
X74095853Y-83162900D01*
X74188985Y-83023519D01*
X74307519Y-82904985D01*
X74446900Y-82811853D01*
X74601772Y-82747703D01*
X74766184Y-82715000D01*
X74933816Y-82715000D01*
X75098228Y-82747703D01*
G37*
G36*
X70098228Y-82747703D02*
G01*
X70253100Y-82811853D01*
X70392481Y-82904985D01*
X70511015Y-83023519D01*
X70604147Y-83162900D01*
X70668297Y-83317772D01*
X70701000Y-83482184D01*
X70701000Y-83649816D01*
X70668297Y-83814228D01*
X70604147Y-83969100D01*
X70511015Y-84108481D01*
X70392481Y-84227015D01*
X70253100Y-84320147D01*
X70098228Y-84384297D01*
X69933816Y-84417000D01*
X69766184Y-84417000D01*
X69601772Y-84384297D01*
X69446900Y-84320147D01*
X69307519Y-84227015D01*
X69188985Y-84108481D01*
X69095853Y-83969100D01*
X69031703Y-83814228D01*
X68999000Y-83649816D01*
X68999000Y-83482184D01*
X69031703Y-83317772D01*
X69095853Y-83162900D01*
X69188985Y-83023519D01*
X69307519Y-82904985D01*
X69446900Y-82811853D01*
X69601772Y-82747703D01*
X69766184Y-82715000D01*
X69933816Y-82715000D01*
X70098228Y-82747703D01*
G37*
G36*
X93681000Y-82000000D02*
G01*
X93009000Y-82000000D01*
X93009000Y-79928000D01*
X93681000Y-79928000D01*
X93681000Y-82000000D01*
G37*
G36*
X89871000Y-82000000D02*
G01*
X89199000Y-82000000D01*
X89199000Y-79928000D01*
X89871000Y-79928000D01*
X89871000Y-82000000D01*
G37*
G36*
X91141000Y-82000000D02*
G01*
X90469000Y-82000000D01*
X90469000Y-79928000D01*
X91141000Y-79928000D01*
X91141000Y-82000000D01*
G37*
G36*
X92411000Y-82000000D02*
G01*
X91739000Y-82000000D01*
X91739000Y-79928000D01*
X92411000Y-79928000D01*
X92411000Y-82000000D01*
G37*
G36*
X85592228Y-80160703D02*
G01*
X85747100Y-80224853D01*
X85886481Y-80317985D01*
X86005015Y-80436519D01*
X86098147Y-80575900D01*
X86162297Y-80730772D01*
X86195000Y-80895184D01*
X86195000Y-81062816D01*
X86162297Y-81227228D01*
X86098147Y-81382100D01*
X86005015Y-81521481D01*
X85886481Y-81640015D01*
X85747100Y-81733147D01*
X85592228Y-81797297D01*
X85427816Y-81830000D01*
X85260184Y-81830000D01*
X85095772Y-81797297D01*
X84940900Y-81733147D01*
X84801519Y-81640015D01*
X84682985Y-81521481D01*
X84589853Y-81382100D01*
X84525703Y-81227228D01*
X84493000Y-81062816D01*
X84493000Y-80895184D01*
X84525703Y-80730772D01*
X84589853Y-80575900D01*
X84682985Y-80436519D01*
X84801519Y-80317985D01*
X84940900Y-80224853D01*
X85095772Y-80160703D01*
X85260184Y-80128000D01*
X85427816Y-80128000D01*
X85592228Y-80160703D01*
G37*
G36*
X108960228Y-80080703D02*
G01*
X109115100Y-80144853D01*
X109254481Y-80237985D01*
X109373015Y-80356519D01*
X109466147Y-80495900D01*
X109530297Y-80650772D01*
X109563000Y-80815184D01*
X109563000Y-80982816D01*
X109530297Y-81147228D01*
X109466147Y-81302100D01*
X109373015Y-81441481D01*
X109254481Y-81560015D01*
X109115100Y-81653147D01*
X108960228Y-81717297D01*
X108795816Y-81750000D01*
X108628184Y-81750000D01*
X108463772Y-81717297D01*
X108308900Y-81653147D01*
X108169519Y-81560015D01*
X108050985Y-81441481D01*
X107957853Y-81302100D01*
X107893703Y-81147228D01*
X107861000Y-80982816D01*
X107861000Y-80815184D01*
X107893703Y-80650772D01*
X107957853Y-80495900D01*
X108050985Y-80356519D01*
X108169519Y-80237985D01*
X108308900Y-80144853D01*
X108463772Y-80080703D01*
X108628184Y-80048000D01*
X108795816Y-80048000D01*
X108960228Y-80080703D01*
G37*
G36*
X105404228Y-80080703D02*
G01*
X105559100Y-80144853D01*
X105698481Y-80237985D01*
X105817015Y-80356519D01*
X105910147Y-80495900D01*
X105974297Y-80650772D01*
X106007000Y-80815184D01*
X106007000Y-80982816D01*
X105974297Y-81147228D01*
X105910147Y-81302100D01*
X105817015Y-81441481D01*
X105698481Y-81560015D01*
X105559100Y-81653147D01*
X105404228Y-81717297D01*
X105239816Y-81750000D01*
X105072184Y-81750000D01*
X104907772Y-81717297D01*
X104752900Y-81653147D01*
X104613519Y-81560015D01*
X104494985Y-81441481D01*
X104401853Y-81302100D01*
X104337703Y-81147228D01*
X104305000Y-80982816D01*
X104305000Y-80815184D01*
X104337703Y-80650772D01*
X104401853Y-80495900D01*
X104494985Y-80356519D01*
X104613519Y-80237985D01*
X104752900Y-80144853D01*
X104907772Y-80080703D01*
X105072184Y-80048000D01*
X105239816Y-80048000D01*
X105404228Y-80080703D01*
G37*
G36*
X127502228Y-79826703D02*
G01*
X127657100Y-79890853D01*
X127796481Y-79983985D01*
X127915015Y-80102519D01*
X128008147Y-80241900D01*
X128072297Y-80396772D01*
X128105000Y-80561184D01*
X128105000Y-80728816D01*
X128072297Y-80893228D01*
X128008147Y-81048100D01*
X127915015Y-81187481D01*
X127796481Y-81306015D01*
X127657100Y-81399147D01*
X127502228Y-81463297D01*
X127337816Y-81496000D01*
X127170184Y-81496000D01*
X127005772Y-81463297D01*
X126850900Y-81399147D01*
X126711519Y-81306015D01*
X126592985Y-81187481D01*
X126499853Y-81048100D01*
X126435703Y-80893228D01*
X126403000Y-80728816D01*
X126403000Y-80561184D01*
X126435703Y-80396772D01*
X126499853Y-80241900D01*
X126592985Y-80102519D01*
X126711519Y-79983985D01*
X126850900Y-79890853D01*
X127005772Y-79826703D01*
X127170184Y-79794000D01*
X127337816Y-79794000D01*
X127502228Y-79826703D01*
G37*
G36*
X123653000Y-81492000D02*
G01*
X122981000Y-81492000D01*
X122981000Y-79420000D01*
X123653000Y-79420000D01*
X123653000Y-81492000D01*
G37*
G36*
X121113000Y-81492000D02*
G01*
X120441000Y-81492000D01*
X120441000Y-79420000D01*
X121113000Y-79420000D01*
X121113000Y-81492000D01*
G37*
G36*
X122383000Y-81492000D02*
G01*
X121711000Y-81492000D01*
X121711000Y-79420000D01*
X122383000Y-79420000D01*
X122383000Y-81492000D01*
G37*
G36*
X119843000Y-81492000D02*
G01*
X119171000Y-81492000D01*
X119171000Y-79420000D01*
X119843000Y-79420000D01*
X119843000Y-81492000D01*
G37*
G36*
X57819166Y-78677852D02*
G01*
X57925072Y-78698918D01*
X58170939Y-78800759D01*
X58392212Y-78948610D01*
X58580390Y-79136788D01*
X58716520Y-79340519D01*
X58728242Y-79358063D01*
X58830082Y-79603928D01*
X58882000Y-79864937D01*
X58882000Y-80131063D01*
X58830082Y-80392072D01*
X58760034Y-80561185D01*
X58728241Y-80637939D01*
X58664055Y-80734000D01*
X58580391Y-80859211D01*
X58392211Y-81047391D01*
X58369127Y-81062815D01*
X58170939Y-81195241D01*
X58170938Y-81195242D01*
X58170937Y-81195242D01*
X57925072Y-81297082D01*
X57664063Y-81349000D01*
X57397937Y-81349000D01*
X57136928Y-81297082D01*
X56891063Y-81195242D01*
X56891062Y-81195242D01*
X56891061Y-81195241D01*
X56692873Y-81062815D01*
X56669789Y-81047391D01*
X56481609Y-80859211D01*
X56397945Y-80734000D01*
X56333759Y-80637939D01*
X56301967Y-80561185D01*
X56231918Y-80392072D01*
X56180000Y-80131063D01*
X56180000Y-79864937D01*
X56231918Y-79603928D01*
X56333758Y-79358063D01*
X56345481Y-79340519D01*
X56481610Y-79136788D01*
X56669788Y-78948610D01*
X56891061Y-78800759D01*
X57136928Y-78698918D01*
X57242834Y-78677852D01*
X57397937Y-78647000D01*
X57664063Y-78647000D01*
X57819166Y-78677852D01*
G37*
G36*
X116580228Y-79064703D02*
G01*
X116735100Y-79128853D01*
X116874481Y-79221985D01*
X116993015Y-79340519D01*
X117086147Y-79479900D01*
X117150297Y-79634772D01*
X117183000Y-79799184D01*
X117183000Y-79966816D01*
X117150297Y-80131228D01*
X117086147Y-80286100D01*
X116993015Y-80425481D01*
X116874481Y-80544015D01*
X116735100Y-80637147D01*
X116580228Y-80701297D01*
X116415816Y-80734000D01*
X116248184Y-80734000D01*
X116083772Y-80701297D01*
X115928900Y-80637147D01*
X115789519Y-80544015D01*
X115670985Y-80425481D01*
X115577853Y-80286100D01*
X115513703Y-80131228D01*
X115481000Y-79966816D01*
X115481000Y-79799184D01*
X115513703Y-79634772D01*
X115577853Y-79479900D01*
X115670985Y-79340519D01*
X115789519Y-79221985D01*
X115928900Y-79128853D01*
X116083772Y-79064703D01*
X116248184Y-79032000D01*
X116415816Y-79032000D01*
X116580228Y-79064703D01*
G37*
G36*
X97276228Y-79064703D02*
G01*
X97431100Y-79128853D01*
X97570481Y-79221985D01*
X97689015Y-79340519D01*
X97782147Y-79479900D01*
X97846297Y-79634772D01*
X97879000Y-79799184D01*
X97879000Y-79966816D01*
X97846297Y-80131228D01*
X97782147Y-80286100D01*
X97689015Y-80425481D01*
X97570481Y-80544015D01*
X97431100Y-80637147D01*
X97276228Y-80701297D01*
X97111816Y-80734000D01*
X96944184Y-80734000D01*
X96779772Y-80701297D01*
X96624900Y-80637147D01*
X96485519Y-80544015D01*
X96366985Y-80425481D01*
X96273853Y-80286100D01*
X96209703Y-80131228D01*
X96177000Y-79966816D01*
X96177000Y-79799184D01*
X96209703Y-79634772D01*
X96273853Y-79479900D01*
X96366985Y-79340519D01*
X96485519Y-79221985D01*
X96624900Y-79128853D01*
X96779772Y-79064703D01*
X96944184Y-79032000D01*
X97111816Y-79032000D01*
X97276228Y-79064703D01*
G37*
G36*
X41033000Y-78879000D02*
G01*
X39231000Y-78879000D01*
X39231000Y-77077000D01*
X41033000Y-77077000D01*
X41033000Y-78879000D01*
G37*
G36*
X37701590Y-77081147D02*
G01*
X37854812Y-77111624D01*
X38018784Y-77179544D01*
X38166354Y-77278147D01*
X38291853Y-77403646D01*
X38390456Y-77551216D01*
X38458376Y-77715188D01*
X38493000Y-77889259D01*
X38493000Y-78066741D01*
X38458376Y-78240812D01*
X38390456Y-78404784D01*
X38291853Y-78552354D01*
X38166354Y-78677853D01*
X38018784Y-78776456D01*
X37854812Y-78844376D01*
X37705512Y-78874073D01*
X37680742Y-78879000D01*
X37503258Y-78879000D01*
X37478488Y-78874073D01*
X37329188Y-78844376D01*
X37165216Y-78776456D01*
X37017646Y-78677853D01*
X36892147Y-78552354D01*
X36793544Y-78404784D01*
X36725624Y-78240812D01*
X36691000Y-78066741D01*
X36691000Y-77889259D01*
X36725624Y-77715188D01*
X36793544Y-77551216D01*
X36892147Y-77403646D01*
X37017646Y-77278147D01*
X37165216Y-77179544D01*
X37329188Y-77111624D01*
X37482410Y-77081147D01*
X37503258Y-77077000D01*
X37680742Y-77077000D01*
X37701590Y-77081147D01*
G37*
G36*
X129933000Y-77736000D02*
G01*
X128131000Y-77736000D01*
X128131000Y-75934000D01*
X129933000Y-75934000D01*
X129933000Y-77736000D01*
G37*
G36*
X131685512Y-75938927D02*
G01*
X131834812Y-75968624D01*
X131998784Y-76036544D01*
X132146354Y-76135147D01*
X132271853Y-76260646D01*
X132370456Y-76408216D01*
X132438376Y-76572188D01*
X132473000Y-76746259D01*
X132473000Y-76923741D01*
X132438376Y-77097812D01*
X132370456Y-77261784D01*
X132271853Y-77409354D01*
X132146354Y-77534853D01*
X131998784Y-77633456D01*
X131834812Y-77701376D01*
X131685512Y-77731073D01*
X131660742Y-77736000D01*
X131483258Y-77736000D01*
X131458488Y-77731073D01*
X131309188Y-77701376D01*
X131145216Y-77633456D01*
X130997646Y-77534853D01*
X130872147Y-77409354D01*
X130773544Y-77261784D01*
X130705624Y-77097812D01*
X130671000Y-76923741D01*
X130671000Y-76746259D01*
X130705624Y-76572188D01*
X130773544Y-76408216D01*
X130872147Y-76260646D01*
X130997646Y-76135147D01*
X131145216Y-76036544D01*
X131309188Y-75968624D01*
X131458488Y-75938927D01*
X131483258Y-75934000D01*
X131660742Y-75934000D01*
X131685512Y-75938927D01*
G37*
G36*
X84187512Y-75811927D02*
G01*
X84336812Y-75841624D01*
X84500784Y-75909544D01*
X84648354Y-76008147D01*
X84773853Y-76133646D01*
X84872456Y-76281216D01*
X84940376Y-76445188D01*
X84965637Y-76572188D01*
X84975000Y-76619258D01*
X84975000Y-76796742D01*
X84970073Y-76821512D01*
X84940376Y-76970812D01*
X84872456Y-77134784D01*
X84773853Y-77282354D01*
X84648354Y-77407853D01*
X84500784Y-77506456D01*
X84336812Y-77574376D01*
X84187512Y-77604073D01*
X84162742Y-77609000D01*
X83985258Y-77609000D01*
X83960488Y-77604073D01*
X83811188Y-77574376D01*
X83647216Y-77506456D01*
X83499646Y-77407853D01*
X83374147Y-77282354D01*
X83275544Y-77134784D01*
X83207624Y-76970812D01*
X83177927Y-76821512D01*
X83173000Y-76796742D01*
X83173000Y-76619258D01*
X83182363Y-76572188D01*
X83207624Y-76445188D01*
X83275544Y-76281216D01*
X83374147Y-76133646D01*
X83499646Y-76008147D01*
X83647216Y-75909544D01*
X83811188Y-75841624D01*
X83960488Y-75811927D01*
X83985258Y-75807000D01*
X84162742Y-75807000D01*
X84187512Y-75811927D01*
G37*
G36*
X82435000Y-77609000D02*
G01*
X80633000Y-77609000D01*
X80633000Y-75807000D01*
X82435000Y-75807000D01*
X82435000Y-77609000D01*
G37*
G36*
X54350228Y-75508703D02*
G01*
X54505100Y-75572853D01*
X54644481Y-75665985D01*
X54763015Y-75784519D01*
X54856147Y-75923900D01*
X54920297Y-76078772D01*
X54953000Y-76243184D01*
X54953000Y-76410816D01*
X54920297Y-76575228D01*
X54856147Y-76730100D01*
X54763015Y-76869481D01*
X54644481Y-76988015D01*
X54505100Y-77081147D01*
X54350228Y-77145297D01*
X54185816Y-77178000D01*
X54018184Y-77178000D01*
X53853772Y-77145297D01*
X53698900Y-77081147D01*
X53559519Y-76988015D01*
X53440985Y-76869481D01*
X53347853Y-76730100D01*
X53283703Y-76575228D01*
X53251000Y-76410816D01*
X53251000Y-76243184D01*
X53283703Y-76078772D01*
X53347853Y-75923900D01*
X53440985Y-75784519D01*
X53559519Y-75665985D01*
X53698900Y-75572853D01*
X53853772Y-75508703D01*
X54018184Y-75476000D01*
X54185816Y-75476000D01*
X54350228Y-75508703D01*
G37*
G36*
X59350228Y-75508703D02*
G01*
X59505100Y-75572853D01*
X59644481Y-75665985D01*
X59763015Y-75784519D01*
X59856147Y-75923900D01*
X59920297Y-76078772D01*
X59953000Y-76243184D01*
X59953000Y-76410816D01*
X59920297Y-76575228D01*
X59856147Y-76730100D01*
X59763015Y-76869481D01*
X59644481Y-76988015D01*
X59505100Y-77081147D01*
X59350228Y-77145297D01*
X59185816Y-77178000D01*
X59018184Y-77178000D01*
X58853772Y-77145297D01*
X58698900Y-77081147D01*
X58559519Y-76988015D01*
X58440985Y-76869481D01*
X58347853Y-76730100D01*
X58283703Y-76575228D01*
X58251000Y-76410816D01*
X58251000Y-76243184D01*
X58283703Y-76078772D01*
X58347853Y-75923900D01*
X58440985Y-75784519D01*
X58559519Y-75665985D01*
X58698900Y-75572853D01*
X58853772Y-75508703D01*
X59018184Y-75476000D01*
X59185816Y-75476000D01*
X59350228Y-75508703D01*
G37*
G36*
X50540228Y-75127703D02*
G01*
X50695100Y-75191853D01*
X50834481Y-75284985D01*
X50953015Y-75403519D01*
X51046147Y-75542900D01*
X51110297Y-75697772D01*
X51143000Y-75862184D01*
X51143000Y-76029816D01*
X51110297Y-76194228D01*
X51046147Y-76349100D01*
X50953015Y-76488481D01*
X50834481Y-76607015D01*
X50695100Y-76700147D01*
X50540228Y-76764297D01*
X50375816Y-76797000D01*
X50208184Y-76797000D01*
X50043772Y-76764297D01*
X49888900Y-76700147D01*
X49749519Y-76607015D01*
X49630985Y-76488481D01*
X49537853Y-76349100D01*
X49473703Y-76194228D01*
X49441000Y-76029816D01*
X49441000Y-75862184D01*
X49473703Y-75697772D01*
X49537853Y-75542900D01*
X49630985Y-75403519D01*
X49749519Y-75284985D01*
X49888900Y-75191853D01*
X50043772Y-75127703D01*
X50208184Y-75095000D01*
X50375816Y-75095000D01*
X50540228Y-75127703D01*
G37*
G36*
X46825000Y-76797000D02*
G01*
X45123000Y-76797000D01*
X45123000Y-75095000D01*
X46825000Y-75095000D01*
X46825000Y-76797000D01*
G37*
G36*
X69863072Y-72741918D02*
G01*
X70016528Y-72805481D01*
X70108939Y-72843759D01*
X70220328Y-72918187D01*
X70330211Y-72991609D01*
X70518391Y-73179789D01*
X70528678Y-73195185D01*
X70640686Y-73362815D01*
X70666242Y-73401063D01*
X70768082Y-73646928D01*
X70802803Y-73821480D01*
X70820000Y-73907938D01*
X70820000Y-74174062D01*
X70768082Y-74435072D01*
X70666241Y-74680939D01*
X70518390Y-74902212D01*
X70330212Y-75090390D01*
X70108939Y-75238241D01*
X70108938Y-75238242D01*
X70108937Y-75238242D01*
X69863072Y-75340082D01*
X69602063Y-75392000D01*
X69335937Y-75392000D01*
X69074928Y-75340082D01*
X68829063Y-75238242D01*
X68829062Y-75238242D01*
X68829061Y-75238241D01*
X68607788Y-75090390D01*
X68419610Y-74902212D01*
X68271759Y-74680939D01*
X68169918Y-74435072D01*
X68118000Y-74174062D01*
X68118000Y-73907938D01*
X68135198Y-73821480D01*
X68169918Y-73646928D01*
X68271758Y-73401063D01*
X68297315Y-73362815D01*
X68409322Y-73195185D01*
X68419609Y-73179789D01*
X68607789Y-72991609D01*
X68717672Y-72918187D01*
X68829061Y-72843759D01*
X68921473Y-72805481D01*
X69074928Y-72741918D01*
X69335937Y-72690000D01*
X69602063Y-72690000D01*
X69863072Y-72741918D01*
G37*
G36*
X75463072Y-72741918D02*
G01*
X75616528Y-72805481D01*
X75708939Y-72843759D01*
X75820328Y-72918187D01*
X75930211Y-72991609D01*
X76118391Y-73179789D01*
X76128678Y-73195185D01*
X76240686Y-73362815D01*
X76266242Y-73401063D01*
X76368082Y-73646928D01*
X76402803Y-73821480D01*
X76420000Y-73907938D01*
X76420000Y-74174062D01*
X76368082Y-74435072D01*
X76266241Y-74680939D01*
X76118390Y-74902212D01*
X75930212Y-75090390D01*
X75708939Y-75238241D01*
X75708938Y-75238242D01*
X75708937Y-75238242D01*
X75463072Y-75340082D01*
X75202063Y-75392000D01*
X74935937Y-75392000D01*
X74674928Y-75340082D01*
X74429063Y-75238242D01*
X74429062Y-75238242D01*
X74429061Y-75238241D01*
X74207788Y-75090390D01*
X74019610Y-74902212D01*
X73871759Y-74680939D01*
X73769918Y-74435072D01*
X73718000Y-74174062D01*
X73718000Y-73907938D01*
X73735198Y-73821480D01*
X73769918Y-73646928D01*
X73871758Y-73401063D01*
X73897315Y-73362815D01*
X74009322Y-73195185D01*
X74019609Y-73179789D01*
X74207789Y-72991609D01*
X74317672Y-72918187D01*
X74429061Y-72843759D01*
X74521473Y-72805481D01*
X74674928Y-72741918D01*
X74935937Y-72690000D01*
X75202063Y-72690000D01*
X75463072Y-72741918D01*
G37*
G36*
X40495000Y-74729000D02*
G01*
X35313000Y-74729000D01*
X35313000Y-72207000D01*
X40495000Y-72207000D01*
X40495000Y-74729000D01*
G37*
G36*
X105404228Y-72460703D02*
G01*
X105559100Y-72524853D01*
X105698481Y-72617985D01*
X105817015Y-72736519D01*
X105910147Y-72875900D01*
X105974297Y-73030772D01*
X106007000Y-73195184D01*
X106007000Y-73362816D01*
X105974297Y-73527228D01*
X105910147Y-73682100D01*
X105817015Y-73821481D01*
X105698481Y-73940015D01*
X105559100Y-74033147D01*
X105404228Y-74097297D01*
X105239816Y-74130000D01*
X105072184Y-74130000D01*
X104907772Y-74097297D01*
X104752900Y-74033147D01*
X104613519Y-73940015D01*
X104494985Y-73821481D01*
X104401853Y-73682100D01*
X104337703Y-73527228D01*
X104305000Y-73362816D01*
X104305000Y-73195184D01*
X104337703Y-73030772D01*
X104401853Y-72875900D01*
X104494985Y-72736519D01*
X104613519Y-72617985D01*
X104752900Y-72524853D01*
X104907772Y-72460703D01*
X105072184Y-72428000D01*
X105239816Y-72428000D01*
X105404228Y-72460703D01*
G37*
G36*
X108960228Y-72460703D02*
G01*
X109115100Y-72524853D01*
X109254481Y-72617985D01*
X109373015Y-72736519D01*
X109466147Y-72875900D01*
X109530297Y-73030772D01*
X109563000Y-73195184D01*
X109563000Y-73362816D01*
X109530297Y-73527228D01*
X109466147Y-73682100D01*
X109373015Y-73821481D01*
X109254481Y-73940015D01*
X109115100Y-74033147D01*
X108960228Y-74097297D01*
X108795816Y-74130000D01*
X108628184Y-74130000D01*
X108463772Y-74097297D01*
X108308900Y-74033147D01*
X108169519Y-73940015D01*
X108050985Y-73821481D01*
X107957853Y-73682100D01*
X107893703Y-73527228D01*
X107861000Y-73362816D01*
X107861000Y-73195184D01*
X107893703Y-73030772D01*
X107957853Y-72875900D01*
X108050985Y-72736519D01*
X108169519Y-72617985D01*
X108308900Y-72524853D01*
X108463772Y-72460703D01*
X108628184Y-72428000D01*
X108795816Y-72428000D01*
X108960228Y-72460703D01*
G37*
G36*
X97276228Y-71444703D02*
G01*
X97431100Y-71508853D01*
X97570481Y-71601985D01*
X97689015Y-71720519D01*
X97782147Y-71859900D01*
X97846297Y-72014772D01*
X97879000Y-72179184D01*
X97879000Y-72346816D01*
X97846297Y-72511228D01*
X97782147Y-72666100D01*
X97689015Y-72805481D01*
X97570481Y-72924015D01*
X97431100Y-73017147D01*
X97276228Y-73081297D01*
X97111816Y-73114000D01*
X96944184Y-73114000D01*
X96779772Y-73081297D01*
X96624900Y-73017147D01*
X96485519Y-72924015D01*
X96366985Y-72805481D01*
X96273853Y-72666100D01*
X96209703Y-72511228D01*
X96177000Y-72346816D01*
X96177000Y-72179184D01*
X96209703Y-72014772D01*
X96273853Y-71859900D01*
X96366985Y-71720519D01*
X96485519Y-71601985D01*
X96624900Y-71508853D01*
X96779772Y-71444703D01*
X96944184Y-71412000D01*
X97111816Y-71412000D01*
X97276228Y-71444703D01*
G37*
G36*
X121660228Y-71444703D02*
G01*
X121815100Y-71508853D01*
X121954481Y-71601985D01*
X122073015Y-71720519D01*
X122166147Y-71859900D01*
X122230297Y-72014772D01*
X122263000Y-72179184D01*
X122263000Y-72346816D01*
X122230297Y-72511228D01*
X122166147Y-72666100D01*
X122073015Y-72805481D01*
X121954481Y-72924015D01*
X121815100Y-73017147D01*
X121660228Y-73081297D01*
X121495816Y-73114000D01*
X121328184Y-73114000D01*
X121163772Y-73081297D01*
X121008900Y-73017147D01*
X120869519Y-72924015D01*
X120750985Y-72805481D01*
X120657853Y-72666100D01*
X120593703Y-72511228D01*
X120561000Y-72346816D01*
X120561000Y-72179184D01*
X120593703Y-72014772D01*
X120657853Y-71859900D01*
X120750985Y-71720519D01*
X120869519Y-71601985D01*
X121008900Y-71508853D01*
X121163772Y-71444703D01*
X121328184Y-71412000D01*
X121495816Y-71412000D01*
X121660228Y-71444703D01*
G37*
G36*
X116580228Y-71444703D02*
G01*
X116735100Y-71508853D01*
X116874481Y-71601985D01*
X116993015Y-71720519D01*
X117086147Y-71859900D01*
X117150297Y-72014772D01*
X117183000Y-72179184D01*
X117183000Y-72346816D01*
X117150297Y-72511228D01*
X117086147Y-72666100D01*
X116993015Y-72805481D01*
X116874481Y-72924015D01*
X116735100Y-73017147D01*
X116580228Y-73081297D01*
X116415816Y-73114000D01*
X116248184Y-73114000D01*
X116083772Y-73081297D01*
X115928900Y-73017147D01*
X115789519Y-72924015D01*
X115670985Y-72805481D01*
X115577853Y-72666100D01*
X115513703Y-72511228D01*
X115481000Y-72346816D01*
X115481000Y-72179184D01*
X115513703Y-72014772D01*
X115577853Y-71859900D01*
X115670985Y-71720519D01*
X115789519Y-71601985D01*
X115928900Y-71508853D01*
X116083772Y-71444703D01*
X116248184Y-71412000D01*
X116415816Y-71412000D01*
X116580228Y-71444703D01*
G37*
G36*
X92196228Y-71444703D02*
G01*
X92351100Y-71508853D01*
X92490481Y-71601985D01*
X92609015Y-71720519D01*
X92702147Y-71859900D01*
X92766297Y-72014772D01*
X92799000Y-72179184D01*
X92799000Y-72346816D01*
X92766297Y-72511228D01*
X92702147Y-72666100D01*
X92609015Y-72805481D01*
X92490481Y-72924015D01*
X92351100Y-73017147D01*
X92196228Y-73081297D01*
X92031816Y-73114000D01*
X91864184Y-73114000D01*
X91699772Y-73081297D01*
X91544900Y-73017147D01*
X91405519Y-72924015D01*
X91286985Y-72805481D01*
X91193853Y-72666100D01*
X91129703Y-72511228D01*
X91097000Y-72346816D01*
X91097000Y-72179184D01*
X91129703Y-72014772D01*
X91193853Y-71859900D01*
X91286985Y-71720519D01*
X91405519Y-71601985D01*
X91544900Y-71508853D01*
X91699772Y-71444703D01*
X91864184Y-71412000D01*
X92031816Y-71412000D01*
X92196228Y-71444703D01*
G37*
G36*
X84576228Y-71444703D02*
G01*
X84731100Y-71508853D01*
X84870481Y-71601985D01*
X84989015Y-71720519D01*
X85082147Y-71859900D01*
X85146297Y-72014772D01*
X85179000Y-72179184D01*
X85179000Y-72346816D01*
X85146297Y-72511228D01*
X85082147Y-72666100D01*
X84989015Y-72805481D01*
X84870481Y-72924015D01*
X84731100Y-73017147D01*
X84576228Y-73081297D01*
X84411816Y-73114000D01*
X84244184Y-73114000D01*
X84079772Y-73081297D01*
X83924900Y-73017147D01*
X83785519Y-72924015D01*
X83666985Y-72805481D01*
X83573853Y-72666100D01*
X83509703Y-72511228D01*
X83477000Y-72346816D01*
X83477000Y-72179184D01*
X83509703Y-72014772D01*
X83573853Y-71859900D01*
X83666985Y-71720519D01*
X83785519Y-71601985D01*
X83924900Y-71508853D01*
X84079772Y-71444703D01*
X84244184Y-71412000D01*
X84411816Y-71412000D01*
X84576228Y-71444703D01*
G37*
G36*
X129280228Y-71444703D02*
G01*
X129435100Y-71508853D01*
X129574481Y-71601985D01*
X129693015Y-71720519D01*
X129786147Y-71859900D01*
X129850297Y-72014772D01*
X129883000Y-72179184D01*
X129883000Y-72346816D01*
X129850297Y-72511228D01*
X129786147Y-72666100D01*
X129693015Y-72805481D01*
X129574481Y-72924015D01*
X129435100Y-73017147D01*
X129280228Y-73081297D01*
X129115816Y-73114000D01*
X128948184Y-73114000D01*
X128783772Y-73081297D01*
X128628900Y-73017147D01*
X128489519Y-72924015D01*
X128370985Y-72805481D01*
X128277853Y-72666100D01*
X128213703Y-72511228D01*
X128181000Y-72346816D01*
X128181000Y-72179184D01*
X128213703Y-72014772D01*
X128277853Y-71859900D01*
X128370985Y-71720519D01*
X128489519Y-71601985D01*
X128628900Y-71508853D01*
X128783772Y-71444703D01*
X128948184Y-71412000D01*
X129115816Y-71412000D01*
X129280228Y-71444703D01*
G37*
G36*
X59361564Y-70617389D02*
G01*
X59552833Y-70696615D01*
X59552835Y-70696616D01*
X59724973Y-70811635D01*
X59871365Y-70958027D01*
X59986385Y-71130167D01*
X60065611Y-71321436D01*
X60106000Y-71524484D01*
X60106000Y-71731516D01*
X60065611Y-71934564D01*
X59986385Y-72125833D01*
X59986384Y-72125835D01*
X59871365Y-72297973D01*
X59724973Y-72444365D01*
X59552835Y-72559384D01*
X59552834Y-72559385D01*
X59552833Y-72559385D01*
X59361564Y-72638611D01*
X59158516Y-72679000D01*
X58951484Y-72679000D01*
X58748436Y-72638611D01*
X58557167Y-72559385D01*
X58557166Y-72559385D01*
X58557165Y-72559384D01*
X58385027Y-72444365D01*
X58238635Y-72297973D01*
X58123616Y-72125835D01*
X58123615Y-72125833D01*
X58044389Y-71934564D01*
X58004000Y-71731516D01*
X58004000Y-71524484D01*
X58044389Y-71321436D01*
X58123615Y-71130167D01*
X58238635Y-70958027D01*
X58385027Y-70811635D01*
X58557165Y-70696616D01*
X58557167Y-70696615D01*
X58748436Y-70617389D01*
X58951484Y-70577000D01*
X59158516Y-70577000D01*
X59361564Y-70617389D01*
G37*
G36*
X40495000Y-70284000D02*
G01*
X35313000Y-70284000D01*
X35313000Y-67892000D01*
X40495000Y-67892000D01*
X40495000Y-70284000D01*
G37*
G36*
X118757000Y-69608000D02*
G01*
X116955000Y-69608000D01*
X116955000Y-67806000D01*
X118757000Y-67806000D01*
X118757000Y-69608000D01*
G37*
G36*
X96405000Y-69608000D02*
G01*
X94603000Y-69608000D01*
X94603000Y-67806000D01*
X96405000Y-67806000D01*
X96405000Y-69608000D01*
G37*
G36*
X109867000Y-69354000D02*
G01*
X108065000Y-69354000D01*
X108065000Y-67552000D01*
X109867000Y-67552000D01*
X109867000Y-69354000D01*
G37*
G36*
X105549000Y-69354000D02*
G01*
X103747000Y-69354000D01*
X103747000Y-67552000D01*
X105549000Y-67552000D01*
X105549000Y-69354000D01*
G37*
G36*
X46222228Y-67507703D02*
G01*
X46377100Y-67571853D01*
X46516481Y-67664985D01*
X46635015Y-67783519D01*
X46728147Y-67922900D01*
X46792297Y-68077772D01*
X46825000Y-68242184D01*
X46825000Y-68409816D01*
X46792297Y-68574228D01*
X46728147Y-68729100D01*
X46635015Y-68868481D01*
X46516481Y-68987015D01*
X46377100Y-69080147D01*
X46222228Y-69144297D01*
X46057816Y-69177000D01*
X45890184Y-69177000D01*
X45725772Y-69144297D01*
X45570900Y-69080147D01*
X45431519Y-68987015D01*
X45312985Y-68868481D01*
X45219853Y-68729100D01*
X45155703Y-68574228D01*
X45123000Y-68409816D01*
X45123000Y-68242184D01*
X45155703Y-68077772D01*
X45219853Y-67922900D01*
X45312985Y-67783519D01*
X45431519Y-67664985D01*
X45570900Y-67571853D01*
X45725772Y-67507703D01*
X45890184Y-67475000D01*
X46057816Y-67475000D01*
X46222228Y-67507703D01*
G37*
G36*
X51143000Y-69177000D02*
G01*
X49441000Y-69177000D01*
X49441000Y-67475000D01*
X51143000Y-67475000D01*
X51143000Y-69177000D01*
G37*
G36*
X59361564Y-65537389D02*
G01*
X59552833Y-65616615D01*
X59552835Y-65616616D01*
X59724973Y-65731635D01*
X59871365Y-65878027D01*
X59986385Y-66050167D01*
X60065611Y-66241436D01*
X60106000Y-66444484D01*
X60106000Y-66651516D01*
X60065611Y-66854564D01*
X59986385Y-67045833D01*
X59986384Y-67045835D01*
X59871365Y-67217973D01*
X59724973Y-67364365D01*
X59552835Y-67479384D01*
X59552834Y-67479385D01*
X59552833Y-67479385D01*
X59361564Y-67558611D01*
X59158516Y-67599000D01*
X58951484Y-67599000D01*
X58748436Y-67558611D01*
X58557167Y-67479385D01*
X58557166Y-67479385D01*
X58557165Y-67479384D01*
X58385027Y-67364365D01*
X58238635Y-67217973D01*
X58123616Y-67045835D01*
X58123615Y-67045833D01*
X58044389Y-66854564D01*
X58004000Y-66651516D01*
X58004000Y-66444484D01*
X58044389Y-66241436D01*
X58123615Y-66050167D01*
X58238635Y-65878027D01*
X58385027Y-65731635D01*
X58557165Y-65616616D01*
X58557167Y-65616615D01*
X58748436Y-65537389D01*
X58951484Y-65497000D01*
X59158516Y-65497000D01*
X59361564Y-65537389D01*
G37*
G36*
X40495000Y-65969000D02*
G01*
X35313000Y-65969000D01*
X35313000Y-63447000D01*
X40495000Y-63447000D01*
X40495000Y-65969000D01*
G37*
G36*
X46875000Y-65417000D02*
G01*
X45073000Y-65417000D01*
X45073000Y-63615000D01*
X46875000Y-63615000D01*
X46875000Y-65417000D01*
G37*
G36*
X56803228Y-61792703D02*
G01*
X56958100Y-61856853D01*
X57097481Y-61949985D01*
X57216015Y-62068519D01*
X57309147Y-62207900D01*
X57373297Y-62362772D01*
X57406000Y-62527184D01*
X57406000Y-62694816D01*
X57373297Y-62859228D01*
X57309147Y-63014100D01*
X57216015Y-63153481D01*
X57097481Y-63272015D01*
X56958100Y-63365147D01*
X56803228Y-63429297D01*
X56638816Y-63462000D01*
X56471184Y-63462000D01*
X56306772Y-63429297D01*
X56151900Y-63365147D01*
X56012519Y-63272015D01*
X55893985Y-63153481D01*
X55800853Y-63014100D01*
X55736703Y-62859228D01*
X55704000Y-62694816D01*
X55704000Y-62527184D01*
X55736703Y-62362772D01*
X55800853Y-62207900D01*
X55893985Y-62068519D01*
X56012519Y-61949985D01*
X56151900Y-61856853D01*
X56306772Y-61792703D01*
X56471184Y-61760000D01*
X56638816Y-61760000D01*
X56803228Y-61792703D01*
G37*
G36*
X59303228Y-61792703D02*
G01*
X59458100Y-61856853D01*
X59597481Y-61949985D01*
X59716015Y-62068519D01*
X59809147Y-62207900D01*
X59873297Y-62362772D01*
X59906000Y-62527184D01*
X59906000Y-62694816D01*
X59873297Y-62859228D01*
X59809147Y-63014100D01*
X59716015Y-63153481D01*
X59597481Y-63272015D01*
X59458100Y-63365147D01*
X59303228Y-63429297D01*
X59138816Y-63462000D01*
X58971184Y-63462000D01*
X58806772Y-63429297D01*
X58651900Y-63365147D01*
X58512519Y-63272015D01*
X58393985Y-63153481D01*
X58300853Y-63014100D01*
X58236703Y-62859228D01*
X58204000Y-62694816D01*
X58204000Y-62527184D01*
X58236703Y-62362772D01*
X58300853Y-62207900D01*
X58393985Y-62068519D01*
X58512519Y-61949985D01*
X58651900Y-61856853D01*
X58806772Y-61792703D01*
X58971184Y-61760000D01*
X59138816Y-61760000D01*
X59303228Y-61792703D01*
G37*
M02*
