M48
; DRILL file {KiCad (5.1.5)-3} date 4/26/2020 6:25:55 PM
; FORMAT={-:-/ absolute / inch / decimal}
; #@! TF.CreationDate,2020-04-26T18:25:55-04:00
; #@! TF.GenerationSoftware,Kicad,Pcbnew,(5.1.5)-3
FMAT,2
INCH
T1C0.0157
T2C0.0181
T3C0.0295
T4C0.0315
T5C0.0320
T6C0.0394
T7C0.0472
T8C0.0512
T9C0.0394
%
G90
G05
T1
X3.08Y-5.5
X3.52Y-3.095
X3.58Y-3.305
X3.865Y-4.255
X4.145Y-3.765
X4.245Y-3.9
X4.245Y-4.24
X4.445Y-3.5573
X4.495Y-3.685
X4.495Y-3.9002
X4.5926Y-4.1674
X4.75Y-3.295
X4.91Y-3.075
T2
X1.6277Y-2.5476
X1.6277Y-2.8924
T3
X2.67Y-3.7
X2.67Y-3.75
X2.67Y-3.8
T4
X4.14Y-3.395
X4.14Y-3.4934
X1.655Y-3.51
X1.655Y-3.81
X3.72Y-4.44
X3.72Y-4.74
X2.66Y-5.0431
X2.66Y-5.24
X2.9Y-5.92
X2.9Y-6.1169
X2.64Y-3.95
X2.94Y-3.95
X2.64Y-4.08
X2.64Y-4.2769
X4.58Y-2.845
X4.58Y-3.145
X2.13Y-3.005
X2.3269Y-3.005
X2.3Y-5.86
X2.4969Y-5.86
X3.72Y-5.5
X3.72Y-5.8
X4.48Y-5.44
X4.48Y-5.5384
X1.98Y-2.69
X1.98Y-2.99
X4.96Y-5.2813
X4.96Y-5.36
X3.72Y-4.8631
X3.72Y-5.06
X2.75Y-3.29
X2.9469Y-3.29
X3.32Y-2.845
X3.62Y-2.845
X2.31Y-3.68
X2.31Y-3.98
X4.58Y-3.305
X4.58Y-3.4034
X2.345Y-4.21
X2.4237Y-4.21
X4.14Y-2.885
X4.14Y-3.185
X2.88Y-5.18
X2.88Y-5.28
X2.88Y-5.38
X2.88Y-5.48
X2.88Y-5.58
X2.88Y-5.68
X2.88Y-5.78
X3.18Y-5.18
X3.18Y-5.28
X3.18Y-5.38
X3.18Y-5.48
X3.18Y-5.58
X3.18Y-5.68
X3.18Y-5.78
X1.52Y-4.74
X1.52Y-4.84
X1.52Y-4.94
X1.52Y-5.04
X1.52Y-5.14
X1.52Y-5.24
X1.52Y-5.34
X1.52Y-5.44
X1.52Y-5.54
X1.52Y-5.64
X1.52Y-5.74
X1.52Y-5.84
X1.52Y-5.94
X1.52Y-6.04
X1.52Y-6.14
X2.12Y-4.74
X2.12Y-4.84
X2.12Y-4.94
X2.12Y-5.04
X2.12Y-5.14
X2.12Y-5.24
X2.12Y-5.34
X2.12Y-5.44
X2.12Y-5.54
X2.12Y-5.64
X2.12Y-5.74
X2.12Y-5.84
X2.12Y-5.94
X2.12Y-6.04
X2.12Y-6.14
X3.97Y-3.97
X3.97Y-4.1669
X1.81Y-2.69
X1.81Y-2.99
X2.4Y-4.96
X2.4Y-5.1521
X4.96Y-4.44
X4.96Y-4.74
X1.85Y-3.51
X1.85Y-3.81
X4.96Y-4.86
X4.96Y-5.0569
X2.2266Y-2.465
X2.325Y-2.465
X3.36Y-3.1881
X3.36Y-3.385
X4.28Y-2.885
X4.28Y-3.185
X3.82Y-3.315
X3.82Y-3.4134
X4.78Y-2.845
X5.08Y-2.845
X4.72Y-4.86
X4.72Y-5.16
X4.2Y-5.4416
X4.2Y-5.54
X5.01Y-3.175
X5.01Y-3.3719
X4.29Y-3.395
X4.29Y-3.4934
X3.72Y-5.2813
X3.72Y-5.36
X3.82Y-2.845
X3.82Y-3.145
X1.6531Y-3.95
X1.85Y-3.95
X2.3Y-4.63
X2.4969Y-4.63
X4.96Y-5.5
X4.96Y-5.8
X3.96Y-4.86
X3.96Y-5.16
X4.24Y-4.76
X4.4369Y-4.76
X3.07Y-3.95
X3.07Y-4.25
T5
X4.18Y-4.96
X4.18Y-5.06
X4.18Y-5.16
X4.18Y-5.26
X4.48Y-4.96
X4.48Y-5.06
X4.48Y-5.16
X4.48Y-5.26
T6
X5.19Y-4.44
X5.08Y-3.025
X5.18Y-3.025
X3.54Y-4.44
X2.93Y-3.61
X3.21Y-3.02
X3.31Y-3.02
X1.48Y-3.07
X1.58Y-3.07
X1.81Y-2.54
X2.32Y-6.125
X4.12Y-2.695
X4.64Y-2.705
X5.19Y-5.155
X2.52Y-6.125
X4.6Y-6.01
X4.7Y-6.01
X3.76Y-2.705
X4.29Y-2.695
X2.93Y-3.8
X3.84Y-6.13
X1.47Y-3.29
X2.325Y-2.62
X2.325Y-2.82
X3.14Y-3.61
X3.14Y-3.71
X3.54Y-5.16
X3.64Y-6.13
X1.84Y-4.345
X1.84Y-4.445
X2.72Y-6.125
T7
X4.8741Y-6.0114
X4.8741Y-6.1886
X5.1694Y-5.9858
X5.1694Y-6.2142
T8
X2.735Y-2.915
X2.9555Y-2.915
X2.265Y-3.1495
X2.265Y-3.37
T9
X5.0316Y-6.0016
X5.0316Y-6.1984
T0
M30
